<svg width="202" height="61" viewBox="0 0 202 61" fill="none" xmlns="http://www.w3.org/2000/svg">
<rect width="202" height="61" rx="10" fill="url(#paint0_linear_1_8065)"/>
<path d="M77.5996 37.0078V42.9805C77.3776 43.2741 77.0303 43.5964 76.5576 43.9473C76.0921 44.291 75.4727 44.5882 74.6992 44.8389C73.9258 45.0895 72.9626 45.2148 71.8096 45.2148C70.8285 45.2148 69.9297 45.0501 69.1133 44.7207C68.2969 44.3841 67.5915 43.8936 66.9971 43.249C66.4098 42.6045 65.9551 41.8203 65.6328 40.8965C65.3105 39.9655 65.1494 38.9056 65.1494 37.7168V36.6318C65.1494 35.4502 65.2962 34.3975 65.5898 33.4736C65.8906 32.5426 66.3203 31.7549 66.8789 31.1104C67.4375 30.4658 68.1107 29.9788 68.8984 29.6494C69.6934 29.3128 70.5921 29.1445 71.5947 29.1445C72.8766 29.1445 73.9365 29.3594 74.7744 29.7891C75.6195 30.2116 76.2712 30.7988 76.7295 31.5508C77.1878 32.3027 77.4779 33.1621 77.5996 34.1289H74.957C74.8711 33.5846 74.7028 33.0977 74.4521 32.668C74.2087 32.2383 73.8577 31.9017 73.3994 31.6582C72.9482 31.4076 72.361 31.2822 71.6377 31.2822C71.0146 31.2822 70.4668 31.4004 69.9941 31.6367C69.5215 31.873 69.1276 32.2204 68.8125 32.6787C68.5046 33.137 68.2718 33.6956 68.1143 34.3545C67.9567 35.0133 67.8779 35.7653 67.8779 36.6104V37.7168C67.8779 38.5762 67.9674 39.3389 68.1465 40.0049C68.3327 40.6709 68.5977 41.2331 68.9414 41.6914C69.2923 42.1497 69.7184 42.4971 70.2197 42.7334C70.721 42.9626 71.2868 43.0771 71.917 43.0771C72.5329 43.0771 73.0378 43.027 73.4316 42.9268C73.8255 42.8193 74.137 42.694 74.3662 42.5508C74.6025 42.4004 74.7852 42.2572 74.9141 42.1211V39.0166H71.6592V37.0078H77.5996ZM79.834 39.3174V39.0703C79.834 38.2324 79.9557 37.4554 80.1992 36.7393C80.4427 36.016 80.7936 35.3893 81.252 34.8594C81.7174 34.3223 82.2832 33.9069 82.9492 33.6133C83.6224 33.3125 84.3815 33.1621 85.2266 33.1621C86.0788 33.1621 86.8379 33.3125 87.5039 33.6133C88.1771 33.9069 88.7464 34.3223 89.2119 34.8594C89.6774 35.3893 90.0319 36.016 90.2754 36.7393C90.5189 37.4554 90.6406 38.2324 90.6406 39.0703V39.3174C90.6406 40.1553 90.5189 40.9323 90.2754 41.6484C90.0319 42.3646 89.6774 42.9912 89.2119 43.5283C88.7464 44.0583 88.1807 44.4736 87.5146 44.7744C86.8486 45.068 86.0931 45.2148 85.248 45.2148C84.3958 45.2148 83.6331 45.068 82.96 44.7744C82.2939 44.4736 81.7282 44.0583 81.2627 43.5283C80.7972 42.9912 80.4427 42.3646 80.1992 41.6484C79.9557 40.9323 79.834 40.1553 79.834 39.3174ZM82.4229 39.0703V39.3174C82.4229 39.8402 82.4766 40.3343 82.584 40.7998C82.6914 41.2653 82.8597 41.6735 83.0889 42.0244C83.318 42.3753 83.6117 42.651 83.9697 42.8516C84.3278 43.0521 84.7539 43.1523 85.248 43.1523C85.7279 43.1523 86.1432 43.0521 86.4941 42.8516C86.8522 42.651 87.1458 42.3753 87.375 42.0244C87.6042 41.6735 87.7725 41.2653 87.8799 40.7998C87.9945 40.3343 88.0518 39.8402 88.0518 39.3174V39.0703C88.0518 38.5547 87.9945 38.0677 87.8799 37.6094C87.7725 37.1439 87.6006 36.7321 87.3643 36.374C87.1351 36.016 86.8415 35.7367 86.4834 35.5361C86.1325 35.3285 85.7135 35.2246 85.2266 35.2246C84.7396 35.2246 84.3171 35.3285 83.959 35.5361C83.6081 35.7367 83.318 36.016 83.0889 36.374C82.8597 36.7321 82.6914 37.1439 82.584 37.6094C82.4766 38.0677 82.4229 38.5547 82.4229 39.0703ZM92.3164 39.3174V39.0703C92.3164 38.2324 92.4382 37.4554 92.6816 36.7393C92.9251 36.016 93.276 35.3893 93.7344 34.8594C94.1999 34.3223 94.7656 33.9069 95.4316 33.6133C96.1048 33.3125 96.8639 33.1621 97.709 33.1621C98.5612 33.1621 99.3203 33.3125 99.9863 33.6133C100.66 33.9069 101.229 34.3223 101.694 34.8594C102.16 35.3893 102.514 36.016 102.758 36.7393C103.001 37.4554 103.123 38.2324 103.123 39.0703V39.3174C103.123 40.1553 103.001 40.9323 102.758 41.6484C102.514 42.3646 102.16 42.9912 101.694 43.5283C101.229 44.0583 100.663 44.4736 99.9971 44.7744C99.3311 45.068 98.5755 45.2148 97.7305 45.2148C96.8783 45.2148 96.1156 45.068 95.4424 44.7744C94.7764 44.4736 94.2106 44.0583 93.7451 43.5283C93.2796 42.9912 92.9251 42.3646 92.6816 41.6484C92.4382 40.9323 92.3164 40.1553 92.3164 39.3174ZM94.9053 39.0703V39.3174C94.9053 39.8402 94.959 40.3343 95.0664 40.7998C95.1738 41.2653 95.3421 41.6735 95.5713 42.0244C95.8005 42.3753 96.0941 42.651 96.4521 42.8516C96.8102 43.0521 97.2363 43.1523 97.7305 43.1523C98.2103 43.1523 98.6257 43.0521 98.9766 42.8516C99.3346 42.651 99.6283 42.3753 99.8574 42.0244C100.087 41.6735 100.255 41.2653 100.362 40.7998C100.477 40.3343 100.534 39.8402 100.534 39.3174V39.0703C100.534 38.5547 100.477 38.0677 100.362 37.6094C100.255 37.1439 100.083 36.7321 99.8467 36.374C99.6175 36.016 99.3239 35.7367 98.9658 35.5361C98.6149 35.3285 98.196 35.2246 97.709 35.2246C97.222 35.2246 96.7995 35.3285 96.4414 35.5361C96.0905 35.7367 95.8005 36.016 95.5713 36.374C95.3421 36.7321 95.1738 37.1439 95.0664 37.6094C94.959 38.0677 94.9053 38.5547 94.9053 39.0703ZM112.737 33.377H115.09V44.6777C115.09 45.7233 114.868 46.6113 114.424 47.3418C113.98 48.0723 113.36 48.6273 112.565 49.0068C111.771 49.3936 110.85 49.5869 109.805 49.5869C109.361 49.5869 108.867 49.5225 108.322 49.3936C107.785 49.2646 107.262 49.057 106.754 48.7705C106.253 48.4912 105.834 48.1224 105.497 47.6641L106.711 46.1387C107.126 46.6328 107.585 46.9945 108.086 47.2236C108.587 47.4528 109.114 47.5674 109.665 47.5674C110.259 47.5674 110.764 47.4564 111.18 47.2344C111.602 47.0195 111.928 46.7008 112.157 46.2783C112.386 45.8558 112.501 45.3402 112.501 44.7314V36.0088L112.737 33.377ZM104.842 39.3174V39.0918C104.842 38.2109 104.949 37.4089 105.164 36.6855C105.379 35.9551 105.687 35.3285 106.088 34.8057C106.489 34.2757 106.976 33.8711 107.549 33.5918C108.122 33.3053 108.77 33.1621 109.493 33.1621C110.245 33.1621 110.886 33.2982 111.416 33.5703C111.953 33.8424 112.401 34.2327 112.759 34.7412C113.117 35.2425 113.396 35.8441 113.597 36.5459C113.804 37.2406 113.958 38.014 114.059 38.8662V39.5859C113.965 40.4167 113.808 41.1758 113.586 41.8633C113.364 42.5508 113.07 43.1452 112.705 43.6465C112.34 44.1478 111.889 44.5345 111.352 44.8066C110.822 45.0788 110.195 45.2148 109.472 45.2148C108.763 45.2148 108.122 45.068 107.549 44.7744C106.983 44.4808 106.496 44.069 106.088 43.5391C105.687 43.0091 105.379 42.3861 105.164 41.6699C104.949 40.9466 104.842 40.1624 104.842 39.3174ZM107.431 39.0918V39.3174C107.431 39.8473 107.481 40.3415 107.581 40.7998C107.688 41.2581 107.85 41.6628 108.064 42.0137C108.286 42.3574 108.566 42.6296 108.902 42.8301C109.246 43.0234 109.651 43.1201 110.116 43.1201C110.725 43.1201 111.223 42.9912 111.609 42.7334C112.003 42.4756 112.304 42.1283 112.512 41.6914C112.727 41.2474 112.877 40.7533 112.963 40.209V38.2646C112.92 37.8421 112.83 37.4482 112.694 37.083C112.565 36.7178 112.39 36.3991 112.168 36.127C111.946 35.8477 111.667 35.6328 111.33 35.4824C110.993 35.3249 110.596 35.2461 110.138 35.2461C109.672 35.2461 109.268 35.3464 108.924 35.5469C108.58 35.7474 108.297 36.0231 108.075 36.374C107.86 36.7249 107.699 37.1331 107.592 37.5986C107.484 38.0641 107.431 38.5618 107.431 39.0918ZM120.547 28.5V45H117.947V28.5H120.547ZM128.507 45.2148C127.647 45.2148 126.87 45.0752 126.176 44.7959C125.488 44.5094 124.901 44.112 124.414 43.6035C123.934 43.0951 123.565 42.4971 123.308 41.8096C123.05 41.1221 122.921 40.3809 122.921 39.5859V39.1562C122.921 38.2467 123.053 37.4232 123.318 36.6855C123.583 35.9479 123.952 35.3177 124.425 34.7949C124.897 34.265 125.456 33.8604 126.101 33.5811C126.745 33.3018 127.443 33.1621 128.195 33.1621C129.026 33.1621 129.753 33.3018 130.376 33.5811C130.999 33.8604 131.515 34.2542 131.923 34.7627C132.338 35.264 132.646 35.862 132.847 36.5566C133.054 37.2513 133.158 38.0176 133.158 38.8555V39.9619H124.178V38.1035H130.602V37.8994C130.587 37.4339 130.494 36.9971 130.322 36.5889C130.158 36.1807 129.903 35.8512 129.56 35.6006C129.216 35.3499 128.757 35.2246 128.185 35.2246C127.755 35.2246 127.372 35.3177 127.035 35.5039C126.706 35.6829 126.43 35.9443 126.208 36.2881C125.986 36.6318 125.814 37.0472 125.692 37.5342C125.578 38.014 125.521 38.5547 125.521 39.1562V39.5859C125.521 40.0944 125.589 40.5671 125.725 41.0039C125.868 41.4336 126.076 41.8096 126.348 42.1318C126.62 42.4541 126.949 42.7083 127.336 42.8945C127.723 43.0736 128.163 43.1631 128.657 43.1631C129.28 43.1631 129.835 43.0378 130.322 42.7871C130.809 42.5365 131.232 42.182 131.59 41.7236L132.954 43.0449C132.703 43.4102 132.378 43.7611 131.977 44.0977C131.576 44.4271 131.085 44.6956 130.505 44.9033C129.932 45.111 129.266 45.2148 128.507 45.2148ZM146.854 39.167H142.783V37.0293H146.854C147.563 37.0293 148.136 36.9147 148.573 36.6855C149.01 36.4564 149.329 36.1413 149.529 35.7402C149.737 35.332 149.841 34.8665 149.841 34.3438C149.841 33.8496 149.737 33.3877 149.529 32.958C149.329 32.5212 149.01 32.1702 148.573 31.9053C148.136 31.6403 147.563 31.5078 146.854 31.5078H143.61V45H140.914V29.3594H146.854C148.065 29.3594 149.092 29.5742 149.938 30.0039C150.79 30.4264 151.438 31.0137 151.882 31.7656C152.326 32.5104 152.548 33.3626 152.548 34.3223C152.548 35.332 152.326 36.1986 151.882 36.9219C151.438 37.6452 150.79 38.2002 149.938 38.5869C149.092 38.9736 148.065 39.167 146.854 39.167ZM157.479 28.5V45H154.879V28.5H157.479ZM166.867 42.6689V37.126C166.867 36.7106 166.792 36.3525 166.642 36.0518C166.491 35.751 166.262 35.5182 165.954 35.3535C165.653 35.1888 165.274 35.1064 164.815 35.1064C164.393 35.1064 164.028 35.1781 163.72 35.3213C163.412 35.4645 163.172 35.6579 163 35.9014C162.828 36.1449 162.742 36.4206 162.742 36.7285H160.164C160.164 36.2702 160.275 35.8262 160.497 35.3965C160.719 34.9668 161.041 34.5837 161.464 34.2471C161.886 33.9105 162.391 33.6455 162.979 33.4521C163.566 33.2588 164.225 33.1621 164.955 33.1621C165.829 33.1621 166.602 33.3089 167.275 33.6025C167.956 33.8962 168.489 34.3402 168.876 34.9346C169.27 35.5218 169.467 36.2594 169.467 37.1475V42.3145C169.467 42.8444 169.503 43.3206 169.574 43.7432C169.653 44.1585 169.764 44.5202 169.907 44.8281V45H167.254C167.132 44.7207 167.035 44.3662 166.964 43.9365C166.899 43.4997 166.867 43.0771 166.867 42.6689ZM167.243 37.9316L167.265 39.5322H165.406C164.926 39.5322 164.504 39.5788 164.139 39.6719C163.773 39.7578 163.469 39.8867 163.226 40.0586C162.982 40.2305 162.799 40.4382 162.678 40.6816C162.556 40.9251 162.495 41.2008 162.495 41.5088C162.495 41.8167 162.567 42.0996 162.71 42.3574C162.853 42.6081 163.061 42.805 163.333 42.9482C163.612 43.0915 163.949 43.1631 164.343 43.1631C164.873 43.1631 165.335 43.0557 165.729 42.8408C166.13 42.6188 166.445 42.3503 166.674 42.0352C166.903 41.7129 167.025 41.4085 167.039 41.1221L167.877 42.2715C167.791 42.5651 167.644 42.8802 167.437 43.2168C167.229 43.5534 166.957 43.8757 166.62 44.1836C166.291 44.4844 165.893 44.7314 165.428 44.9248C164.969 45.1182 164.439 45.2148 163.838 45.2148C163.079 45.2148 162.402 45.0645 161.808 44.7637C161.213 44.4557 160.748 44.0439 160.411 43.5283C160.075 43.0055 159.906 42.4147 159.906 41.7559C159.906 41.14 160.021 40.5957 160.25 40.123C160.486 39.6432 160.83 39.2422 161.281 38.9199C161.74 38.5977 162.298 38.3542 162.957 38.1895C163.616 38.0176 164.368 37.9316 165.213 37.9316H167.243ZM175.375 43.7324L178.533 33.377H181.305L176.643 46.7725C176.535 47.0589 176.396 47.3704 176.224 47.707C176.052 48.0436 175.826 48.3623 175.547 48.6631C175.275 48.971 174.935 49.2181 174.526 49.4043C174.118 49.5977 173.624 49.6943 173.044 49.6943C172.815 49.6943 172.593 49.6729 172.378 49.6299C172.17 49.5941 171.973 49.5547 171.787 49.5117L171.776 47.5352C171.848 47.5423 171.934 47.5495 172.034 47.5566C172.142 47.5638 172.228 47.5674 172.292 47.5674C172.722 47.5674 173.08 47.5137 173.366 47.4062C173.653 47.306 173.885 47.1413 174.064 46.9121C174.251 46.6829 174.408 46.375 174.537 45.9883L175.375 43.7324ZM173.592 33.377L176.353 42.0781L176.814 44.8066L175.021 45.2686L170.799 33.377H173.592Z" fill="#F5F5F5"/>
<path d="M70.2256 16.3232V19.0918C70.1214 19.2253 69.957 19.3701 69.7324 19.5264C69.5111 19.6826 69.2214 19.8177 68.8633 19.9316C68.5052 20.0423 68.0658 20.0977 67.5449 20.0977C67.0924 20.0977 66.679 20.0228 66.3047 19.873C65.9303 19.7201 65.6081 19.4971 65.3379 19.2041C65.0677 18.9111 64.8594 18.5531 64.7129 18.1299C64.5664 17.7067 64.4932 17.2233 64.4932 16.6797V16.2109C64.4932 15.6673 64.5615 15.1839 64.6982 14.7607C64.8382 14.3376 65.0368 13.9795 65.2939 13.6865C65.5544 13.3936 65.8652 13.1706 66.2266 13.0176C66.5911 12.8646 66.998 12.7881 67.4473 12.7881C68.0495 12.7881 68.5443 12.8874 68.9316 13.0859C69.3223 13.2845 69.6217 13.5579 69.8301 13.9062C70.0384 14.2513 70.1686 14.6484 70.2207 15.0977H68.9121C68.8763 14.8503 68.8047 14.6338 68.6973 14.4482C68.5898 14.2594 68.4368 14.113 68.2383 14.0088C68.043 13.9014 67.7891 13.8477 67.4766 13.8477C67.2129 13.8477 66.9801 13.8997 66.7783 14.0039C66.5765 14.1081 66.4072 14.2594 66.2705 14.458C66.1338 14.6566 66.0296 14.9023 65.958 15.1953C65.8896 15.4883 65.8555 15.8236 65.8555 16.2012V16.6797C65.8555 17.0605 65.8945 17.3991 65.9727 17.6953C66.0508 17.9883 66.1631 18.2357 66.3096 18.4375C66.4593 18.6361 66.6432 18.7874 66.8613 18.8916C67.0827 18.9925 67.3333 19.043 67.6133 19.043C67.8672 19.043 68.0771 19.0218 68.2432 18.9795C68.4124 18.9339 68.5475 18.8802 68.6484 18.8184C68.7493 18.7565 68.8275 18.6963 68.8828 18.6377V17.3047H67.4717V16.3232H70.2256ZM74.1705 20.0977C73.7701 20.0977 73.4104 20.0326 73.0914 19.9023C72.7724 19.7721 72.5006 19.5915 72.276 19.3604C72.0546 19.126 71.8837 18.8542 71.7633 18.5449C71.6461 18.2324 71.5875 17.8971 71.5875 17.5391V17.3438C71.5875 16.9368 71.6461 16.5674 71.7633 16.2354C71.8805 15.9001 72.0465 15.612 72.2613 15.3711C72.4762 15.1302 72.7333 14.9447 73.0328 14.8145C73.3323 14.6842 73.6627 14.6191 74.024 14.6191C74.3984 14.6191 74.7288 14.6826 75.0152 14.8096C75.3017 14.9333 75.541 15.109 75.733 15.3369C75.9251 15.5648 76.0699 15.8382 76.1676 16.1572C76.2652 16.473 76.3141 16.8229 76.3141 17.207V17.749H72.1734V16.8604H75.0445V16.7627C75.038 16.5576 74.999 16.3704 74.9273 16.2012C74.8557 16.0286 74.7451 15.8919 74.5953 15.791C74.4456 15.6868 74.2519 15.6348 74.0143 15.6348C73.8222 15.6348 73.6546 15.6771 73.5113 15.7617C73.3714 15.8431 73.2542 15.9603 73.1598 16.1133C73.0686 16.263 73.0003 16.4421 72.9547 16.6504C72.9091 16.8587 72.8863 17.0898 72.8863 17.3438V17.5391C72.8863 17.7604 72.9156 17.9655 72.9742 18.1543C73.0361 18.3431 73.1256 18.5075 73.2428 18.6475C73.3632 18.7842 73.5064 18.8916 73.6725 18.9697C73.8417 19.0446 74.0338 19.082 74.2486 19.082C74.5188 19.082 74.763 19.0299 74.9811 18.9258C75.2024 18.8184 75.3945 18.6605 75.5572 18.4521L76.2066 19.126C76.096 19.2887 75.9462 19.445 75.7574 19.5947C75.5719 19.7445 75.3473 19.8665 75.0836 19.9609C74.8199 20.0521 74.5156 20.0977 74.1705 20.0977ZM80.0783 14.7168V15.6445H77.051V14.7168H80.0783ZM77.8615 13.418H79.1555V18.4766C79.1555 18.6328 79.1766 18.7533 79.2189 18.8379C79.2613 18.9225 79.3247 18.9795 79.4094 19.0088C79.494 19.0381 79.5949 19.0527 79.7121 19.0527C79.7967 19.0527 79.8749 19.0479 79.9465 19.0381C80.0181 19.0283 80.0783 19.0186 80.1271 19.0088L80.132 19.9756C80.0246 20.0114 79.9025 20.0407 79.7658 20.0635C79.6324 20.0863 79.481 20.0977 79.3117 20.0977C79.022 20.0977 78.7681 20.0488 78.55 19.9512C78.3319 19.8503 78.1626 19.6891 78.0422 19.4678C77.9217 19.2432 77.8615 18.9469 77.8615 18.5791V13.418ZM85.5951 14.7168V20H84.3012V14.7168H85.5951ZM84.2133 13.335C84.2133 13.1429 84.2784 12.9834 84.4086 12.8564C84.5421 12.7295 84.7211 12.666 84.9457 12.666C85.1703 12.666 85.3477 12.7295 85.4779 12.8564C85.6114 12.9834 85.6781 13.1429 85.6781 13.335C85.6781 13.5238 85.6114 13.6816 85.4779 13.8086C85.3477 13.9355 85.1703 13.999 84.9457 13.999C84.7211 13.999 84.5421 13.9355 84.4086 13.8086C84.2784 13.6816 84.2133 13.5238 84.2133 13.335ZM89.7256 14.7168V15.6445H86.6982V14.7168H89.7256ZM87.5088 13.418H88.8027V18.4766C88.8027 18.6328 88.8239 18.7533 88.8662 18.8379C88.9085 18.9225 88.972 18.9795 89.0566 19.0088C89.1413 19.0381 89.2422 19.0527 89.3594 19.0527C89.444 19.0527 89.5221 19.0479 89.5938 19.0381C89.6654 19.0283 89.7256 19.0186 89.7744 19.0088L89.7793 19.9756C89.6719 20.0114 89.5498 20.0407 89.4131 20.0635C89.2796 20.0863 89.1283 20.0977 88.959 20.0977C88.6693 20.0977 88.4154 20.0488 88.1973 19.9512C87.9792 19.8503 87.8099 19.6891 87.6895 19.4678C87.569 19.2432 87.5088 18.9469 87.5088 18.5791V13.418ZM93.6457 17.4121V17.3096C93.6457 16.9222 93.701 16.5658 93.8117 16.2402C93.9224 15.9115 94.0835 15.6266 94.2951 15.3857C94.5067 15.1449 94.7655 14.9577 95.0715 14.8242C95.3775 14.6875 95.7258 14.6191 96.1164 14.6191C96.5135 14.6191 96.8651 14.6875 97.1711 14.8242C97.4803 14.9577 97.7408 15.1449 97.9523 15.3857C98.1639 15.6266 98.3251 15.9115 98.4357 16.2402C98.5464 16.5658 98.6018 16.9222 98.6018 17.3096V17.4121C98.6018 17.7962 98.5464 18.1527 98.4357 18.4814C98.3251 18.807 98.1639 19.0918 97.9523 19.3359C97.7408 19.5768 97.482 19.764 97.176 19.8975C96.87 20.0309 96.5201 20.0977 96.1262 20.0977C95.7355 20.0977 95.3856 20.0309 95.0764 19.8975C94.7671 19.764 94.5067 19.5768 94.2951 19.3359C94.0835 19.0918 93.9224 18.807 93.8117 18.4814C93.701 18.1527 93.6457 17.7962 93.6457 17.4121ZM94.9348 17.3096V17.4121C94.9348 17.6432 94.9576 17.8597 95.0031 18.0615C95.0487 18.2633 95.1187 18.4408 95.2131 18.5938C95.3075 18.7467 95.4296 18.8672 95.5793 18.9551C95.7323 19.0397 95.9146 19.082 96.1262 19.082C96.3345 19.082 96.5135 19.0397 96.6633 18.9551C96.813 18.8672 96.9351 18.7467 97.0295 18.5938C97.1271 18.4408 97.1988 18.2633 97.2443 18.0615C97.2899 17.8597 97.3127 17.6432 97.3127 17.4121V17.3096C97.3127 17.0817 97.2899 16.8685 97.2443 16.6699C97.1988 16.4681 97.1271 16.2907 97.0295 16.1377C96.9351 15.9814 96.8114 15.8594 96.6584 15.7715C96.5087 15.6803 96.328 15.6348 96.1164 15.6348C95.9081 15.6348 95.729 15.6803 95.5793 15.7715C95.4296 15.8594 95.3075 15.9814 95.2131 16.1377C95.1187 16.2907 95.0487 16.4681 95.0031 16.6699C94.9576 16.8685 94.9348 17.0817 94.9348 17.3096ZM101.204 15.8447V20H99.9148V14.7168H101.126L101.204 15.8447ZM100.999 17.168H100.618C100.621 16.7839 100.673 16.4355 100.774 16.123C100.875 15.8105 101.017 15.542 101.199 15.3174C101.385 15.0928 101.604 14.9202 101.858 14.7998C102.112 14.6794 102.395 14.6191 102.708 14.6191C102.962 14.6191 103.191 14.6549 103.396 14.7266C103.601 14.7982 103.777 14.9121 103.924 15.0684C104.073 15.2246 104.187 15.4297 104.265 15.6836C104.347 15.9342 104.388 16.2435 104.388 16.6113V20H103.089V16.6016C103.089 16.3607 103.053 16.1702 102.981 16.0303C102.913 15.8903 102.812 15.791 102.679 15.7324C102.548 15.6738 102.387 15.6445 102.195 15.6445C101.997 15.6445 101.822 15.6852 101.673 15.7666C101.526 15.8447 101.402 15.9538 101.302 16.0938C101.204 16.2337 101.129 16.3949 101.077 16.5771C101.025 16.7594 100.999 16.9564 100.999 17.168Z" fill="#F5F5F5"/>
<path d="M29.9199 44.0649C29.2869 44.4735 28.5267 44.5971 27.8135 44.4288L40.3455 31.9102L44.4071 35.9674L29.9199 44.0649Z" fill="#F5F5F5"/>
<path d="M26.2577 43.4095C25.9083 42.9453 25.707 42.3754 25.707 41.7724V19.473C25.707 18.87 25.9083 18.3001 26.2577 17.8359L39.0581 30.6226L26.2577 43.4095Z" fill="#F5F5F5"/>
<path d="M49.7073 33.004L46.057 35.0442L41.6318 30.6238L46.0573 26.2031L49.708 28.2436C50.5825 28.733 51.1047 29.6228 51.1047 30.6238C51.1047 31.6248 50.5825 32.5144 49.7073 33.004Z" fill="#F5F5F5"/>
<path d="M40.3446 29.3383L27.8135 16.8204C28.0189 16.772 28.228 16.7461 28.437 16.7461C28.9538 16.7461 29.4687 16.8929 29.9191 17.1836L44.4064 25.2809L40.3446 29.3383Z" fill="#F5F5F5"/>
<defs>
<linearGradient id="paint0_linear_1_8065" x1="-118.036" y1="-48.1057" x2="15.2469" y2="283.143" gradientUnits="userSpaceOnUse">
<stop stop-color="#DB2777"/>
<stop offset="1" stop-color="#F97316"/>
</linearGradient>
</defs>
</svg>
