<svg width="189" height="61" viewBox="0 0 189 61" fill="none" xmlns="http://www.w3.org/2000/svg">
<rect width="189" height="61" rx="10" fill="url(#paint0_linear_1_8058)"/>
<path d="M68.6807 34.4434L64.0078 48H61.1826L67.0693 32.3594H68.874L68.6807 34.4434ZM72.5908 48L67.9072 34.4434L67.7031 32.3594H69.5186L75.4268 48H72.5908ZM72.3652 42.1992V44.3369H63.8574V42.1992H72.3652ZM79.3262 38.6113V52.4688H76.7373V36.377H79.1221L79.3262 38.6113ZM86.8994 42.0811V42.3066C86.8994 43.1517 86.7992 43.9359 86.5986 44.6592C86.4053 45.3753 86.1152 46.002 85.7285 46.5391C85.349 47.069 84.8799 47.4808 84.3213 47.7744C83.7627 48.068 83.1182 48.2148 82.3877 48.2148C81.6644 48.2148 81.0306 48.0824 80.4863 47.8174C79.9492 47.5452 79.4945 47.1621 79.1221 46.668C78.7497 46.1738 78.4489 45.5938 78.2197 44.9277C77.9977 44.2546 77.8402 43.5169 77.7471 42.7148V41.8447C77.8402 40.9925 77.9977 40.2191 78.2197 39.5244C78.4489 38.8298 78.7497 38.2318 79.1221 37.7305C79.4945 37.2292 79.9492 36.8424 80.4863 36.5703C81.0234 36.2982 81.6501 36.1621 82.3662 36.1621C83.0967 36.1621 83.7448 36.3053 84.3105 36.5918C84.8763 36.8711 85.3525 37.2721 85.7393 37.7949C86.126 38.3105 86.416 38.9336 86.6094 39.6641C86.8027 40.3874 86.8994 41.193 86.8994 42.0811ZM84.3105 42.3066V42.0811C84.3105 41.5439 84.2604 41.0462 84.1602 40.5879C84.0599 40.1224 83.9023 39.7142 83.6875 39.3633C83.4727 39.0124 83.1969 38.7402 82.8604 38.5469C82.5309 38.3464 82.1335 38.2461 81.668 38.2461C81.2096 38.2461 80.8158 38.3249 80.4863 38.4824C80.1569 38.6328 79.8812 38.8441 79.6592 39.1162C79.4372 39.3883 79.2653 39.707 79.1436 40.0723C79.0218 40.4303 78.9359 40.8206 78.8857 41.2432V43.3271C78.9717 43.8428 79.1185 44.3154 79.3262 44.7451C79.5339 45.1748 79.8275 45.5186 80.207 45.7764C80.5938 46.027 81.0879 46.1523 81.6895 46.1523C82.1549 46.1523 82.5524 46.0521 82.8818 45.8516C83.2113 45.651 83.4798 45.3753 83.6875 45.0244C83.9023 44.6663 84.0599 44.2546 84.1602 43.7891C84.2604 43.3236 84.3105 42.8294 84.3105 42.3066ZM91.7012 38.6113V52.4688H89.1123V36.377H91.4971L91.7012 38.6113ZM99.2744 42.0811V42.3066C99.2744 43.1517 99.1742 43.9359 98.9736 44.6592C98.7803 45.3753 98.4902 46.002 98.1035 46.5391C97.724 47.069 97.2549 47.4808 96.6963 47.7744C96.1377 48.068 95.4932 48.2148 94.7627 48.2148C94.0394 48.2148 93.4056 48.0824 92.8613 47.8174C92.3242 47.5452 91.8695 47.1621 91.4971 46.668C91.1247 46.1738 90.8239 45.5938 90.5947 44.9277C90.3727 44.2546 90.2152 43.5169 90.1221 42.7148V41.8447C90.2152 40.9925 90.3727 40.2191 90.5947 39.5244C90.8239 38.8298 91.1247 38.2318 91.4971 37.7305C91.8695 37.2292 92.3242 36.8424 92.8613 36.5703C93.3984 36.2982 94.0251 36.1621 94.7412 36.1621C95.4717 36.1621 96.1198 36.3053 96.6855 36.5918C97.2513 36.8711 97.7275 37.2721 98.1143 37.7949C98.501 38.3105 98.791 38.9336 98.9844 39.6641C99.1777 40.3874 99.2744 41.193 99.2744 42.0811ZM96.6855 42.3066V42.0811C96.6855 41.5439 96.6354 41.0462 96.5352 40.5879C96.4349 40.1224 96.2773 39.7142 96.0625 39.3633C95.8477 39.0124 95.5719 38.7402 95.2354 38.5469C94.9059 38.3464 94.5085 38.2461 94.043 38.2461C93.5846 38.2461 93.1908 38.3249 92.8613 38.4824C92.5319 38.6328 92.2562 38.8441 92.0342 39.1162C91.8122 39.3883 91.6403 39.707 91.5186 40.0723C91.3968 40.4303 91.3109 40.8206 91.2607 41.2432V43.3271C91.3467 43.8428 91.4935 44.3154 91.7012 44.7451C91.9089 45.1748 92.2025 45.5186 92.582 45.7764C92.9688 46.027 93.4629 46.1523 94.0645 46.1523C94.5299 46.1523 94.9274 46.0521 95.2568 45.8516C95.5863 45.651 95.8548 45.3753 96.0625 45.0244C96.2773 44.6663 96.4349 44.2546 96.5352 43.7891C96.6354 43.3236 96.6855 42.8294 96.6855 42.3066ZM115.441 43.9717C115.441 43.6494 115.391 43.363 115.291 43.1123C115.198 42.8617 115.03 42.6325 114.786 42.4248C114.543 42.2171 114.199 42.0166 113.755 41.8232C113.318 41.6227 112.759 41.4186 112.079 41.2109C111.334 40.9818 110.647 40.7275 110.017 40.4482C109.394 40.1618 108.849 39.8324 108.384 39.46C107.918 39.0804 107.557 38.6471 107.299 38.1602C107.041 37.666 106.912 37.0967 106.912 36.4521C106.912 35.8148 107.045 35.2347 107.31 34.7119C107.582 34.1891 107.965 33.738 108.459 33.3584C108.96 32.9717 109.551 32.6745 110.231 32.4668C110.912 32.252 111.664 32.1445 112.487 32.1445C113.647 32.1445 114.646 32.3594 115.484 32.7891C116.329 33.2188 116.978 33.7952 117.429 34.5186C117.887 35.2419 118.116 36.0404 118.116 36.9141H115.441C115.441 36.3984 115.33 35.9437 115.108 35.5498C114.894 35.1488 114.564 34.8337 114.12 34.6045C113.683 34.3753 113.128 34.2607 112.455 34.2607C111.818 34.2607 111.288 34.3574 110.865 34.5508C110.443 34.7441 110.128 35.0055 109.92 35.335C109.712 35.6644 109.608 36.0368 109.608 36.4521C109.608 36.7458 109.676 37.0143 109.812 37.2578C109.949 37.4941 110.156 37.7161 110.436 37.9238C110.715 38.1243 111.066 38.3141 111.488 38.4932C111.911 38.6722 112.409 38.8441 112.981 39.0088C113.848 39.2666 114.604 39.5531 115.248 39.8682C115.893 40.1761 116.43 40.527 116.859 40.9209C117.289 41.3148 117.611 41.7624 117.826 42.2637C118.041 42.7578 118.148 43.32 118.148 43.9502C118.148 44.609 118.016 45.2035 117.751 45.7334C117.486 46.2562 117.106 46.7038 116.612 47.0762C116.125 47.4414 115.538 47.7243 114.851 47.9248C114.17 48.1182 113.411 48.2148 112.573 48.2148C111.821 48.2148 111.08 48.1146 110.35 47.9141C109.626 47.7135 108.967 47.4092 108.373 47.001C107.779 46.5856 107.306 46.07 106.955 45.4541C106.604 44.8311 106.429 44.1042 106.429 43.2734H109.125C109.125 43.7819 109.211 44.2152 109.383 44.5732C109.562 44.9313 109.809 45.2249 110.124 45.4541C110.439 45.6761 110.804 45.8408 111.22 45.9482C111.642 46.0557 112.093 46.1094 112.573 46.1094C113.203 46.1094 113.73 46.0199 114.152 45.8408C114.582 45.6618 114.904 45.4111 115.119 45.0889C115.334 44.7666 115.441 44.3942 115.441 43.9717ZM125.604 36.377V38.2676H119.051V36.377H125.604ZM120.941 33.5303H123.53V44.7881C123.53 45.1462 123.58 45.4219 123.681 45.6152C123.788 45.8014 123.935 45.9268 124.121 45.9912C124.307 46.0557 124.526 46.0879 124.776 46.0879C124.955 46.0879 125.127 46.0771 125.292 46.0557C125.457 46.0342 125.589 46.0127 125.689 45.9912L125.7 47.9678C125.485 48.0322 125.235 48.0895 124.948 48.1396C124.669 48.1898 124.347 48.2148 123.981 48.2148C123.387 48.2148 122.861 48.111 122.402 47.9033C121.944 47.6885 121.586 47.3411 121.328 46.8613C121.07 46.3815 120.941 45.7441 120.941 44.9492V33.5303ZM126.85 42.3174V42.0703C126.85 41.2324 126.971 40.4554 127.215 39.7393C127.458 39.016 127.809 38.3893 128.268 37.8594C128.733 37.3223 129.299 36.9069 129.965 36.6133C130.638 36.3125 131.397 36.1621 132.242 36.1621C133.094 36.1621 133.854 36.3125 134.52 36.6133C135.193 36.9069 135.762 37.3223 136.228 37.8594C136.693 38.3893 137.048 39.016 137.291 39.7393C137.535 40.4554 137.656 41.2324 137.656 42.0703V42.3174C137.656 43.1553 137.535 43.9323 137.291 44.6484C137.048 45.3646 136.693 45.9912 136.228 46.5283C135.762 47.0583 135.196 47.4736 134.53 47.7744C133.864 48.068 133.109 48.2148 132.264 48.2148C131.411 48.2148 130.649 48.068 129.976 47.7744C129.31 47.4736 128.744 47.0583 128.278 46.5283C127.813 45.9912 127.458 45.3646 127.215 44.6484C126.971 43.9323 126.85 43.1553 126.85 42.3174ZM129.438 42.0703V42.3174C129.438 42.8402 129.492 43.3343 129.6 43.7998C129.707 44.2653 129.875 44.6735 130.104 45.0244C130.334 45.3753 130.627 45.651 130.985 45.8516C131.343 46.0521 131.77 46.1523 132.264 46.1523C132.743 46.1523 133.159 46.0521 133.51 45.8516C133.868 45.651 134.161 45.3753 134.391 45.0244C134.62 44.6735 134.788 44.2653 134.896 43.7998C135.01 43.3343 135.067 42.8402 135.067 42.3174V42.0703C135.067 41.5547 135.01 41.0677 134.896 40.6094C134.788 40.1439 134.616 39.7321 134.38 39.374C134.151 39.016 133.857 38.7367 133.499 38.5361C133.148 38.3285 132.729 38.2246 132.242 38.2246C131.755 38.2246 131.333 38.3285 130.975 38.5361C130.624 38.7367 130.334 39.016 130.104 39.374C129.875 39.7321 129.707 40.1439 129.6 40.6094C129.492 41.0677 129.438 41.5547 129.438 42.0703ZM142.426 38.5898V48H139.837V36.377H142.308L142.426 38.5898ZM145.981 36.3018L145.96 38.708C145.802 38.6794 145.631 38.6579 145.444 38.6436C145.265 38.6292 145.086 38.6221 144.907 38.6221C144.463 38.6221 144.073 38.6865 143.736 38.8154C143.4 38.9372 143.117 39.1162 142.888 39.3525C142.666 39.5817 142.494 39.861 142.372 40.1904C142.25 40.5199 142.179 40.8887 142.157 41.2969L141.566 41.3398C141.566 40.6094 141.638 39.9326 141.781 39.3096C141.924 38.6865 142.139 38.1387 142.426 37.666C142.719 37.1934 143.085 36.8245 143.521 36.5596C143.965 36.2946 144.478 36.1621 145.058 36.1621C145.215 36.1621 145.383 36.1764 145.562 36.2051C145.749 36.2337 145.888 36.266 145.981 36.3018ZM152.513 48.2148C151.653 48.2148 150.876 48.0752 150.182 47.7959C149.494 47.5094 148.907 47.112 148.42 46.6035C147.94 46.0951 147.571 45.4971 147.313 44.8096C147.056 44.1221 146.927 43.3809 146.927 42.5859V42.1562C146.927 41.2467 147.059 40.4232 147.324 39.6855C147.589 38.9479 147.958 38.3177 148.431 37.7949C148.903 37.265 149.462 36.8604 150.106 36.5811C150.751 36.3018 151.449 36.1621 152.201 36.1621C153.032 36.1621 153.759 36.3018 154.382 36.5811C155.005 36.8604 155.521 37.2542 155.929 37.7627C156.344 38.264 156.652 38.862 156.853 39.5566C157.06 40.2513 157.164 41.0176 157.164 41.8555V42.9619H148.184V41.1035H154.607V40.8994C154.593 40.4339 154.5 39.9971 154.328 39.5889C154.163 39.1807 153.909 38.8512 153.565 38.6006C153.222 38.3499 152.763 38.2246 152.19 38.2246C151.761 38.2246 151.378 38.3177 151.041 38.5039C150.712 38.6829 150.436 38.9443 150.214 39.2881C149.992 39.6318 149.82 40.0472 149.698 40.5342C149.584 41.014 149.526 41.5547 149.526 42.1562V42.5859C149.526 43.0944 149.594 43.5671 149.73 44.0039C149.874 44.4336 150.081 44.8096 150.354 45.1318C150.626 45.4541 150.955 45.7083 151.342 45.8945C151.729 46.0736 152.169 46.1631 152.663 46.1631C153.286 46.1631 153.841 46.0378 154.328 45.7871C154.815 45.5365 155.238 45.182 155.596 44.7236L156.96 46.0449C156.709 46.4102 156.383 46.7611 155.982 47.0977C155.581 47.4271 155.091 47.6956 154.511 47.9033C153.938 48.111 153.272 48.2148 152.513 48.2148Z" fill="#E5E5E5"/>
<path d="M63.8027 23H62.2695L62.2793 21.9453H63.8027C64.2161 21.9453 64.5628 21.8542 64.8428 21.6719C65.1227 21.4863 65.3343 21.221 65.4775 20.876C65.6208 20.5277 65.6924 20.111 65.6924 19.626V19.2598C65.6924 18.8854 65.6517 18.555 65.5703 18.2686C65.4889 17.9821 65.3685 17.7412 65.209 17.5459C65.0527 17.3506 64.859 17.2025 64.6279 17.1016C64.3968 17.0007 64.1315 16.9502 63.832 16.9502H62.2402V15.8906H63.832C64.3073 15.8906 64.7402 15.9704 65.1309 16.1299C65.5247 16.2894 65.8649 16.5189 66.1514 16.8184C66.4411 17.1146 66.6624 17.4694 66.8154 17.8828C66.9717 18.2962 67.0498 18.7585 67.0498 19.2695V19.626C67.0498 20.1338 66.9717 20.596 66.8154 21.0127C66.6624 21.4261 66.4411 21.7809 66.1514 22.0771C65.8649 22.3734 65.5231 22.6012 65.126 22.7607C64.7288 22.9202 64.2878 23 63.8027 23ZM63.0215 15.8906V23H61.6787V15.8906H63.0215ZM68.2652 20.4121V20.3096C68.2652 19.9222 68.3206 19.5658 68.4313 19.2402C68.5419 18.9115 68.7031 18.6266 68.9146 18.3857C69.1262 18.1449 69.385 17.9577 69.691 17.8242C69.997 17.6875 70.3453 17.6191 70.7359 17.6191C71.1331 17.6191 71.4846 17.6875 71.7906 17.8242C72.0999 17.9577 72.3603 18.1449 72.5719 18.3857C72.7835 18.6266 72.9446 18.9115 73.0553 19.2402C73.166 19.5658 73.2213 19.9222 73.2213 20.3096V20.4121C73.2213 20.7962 73.166 21.1527 73.0553 21.4814C72.9446 21.807 72.7835 22.0918 72.5719 22.3359C72.3603 22.5768 72.1015 22.764 71.7955 22.8975C71.4895 23.0309 71.1396 23.0977 70.7457 23.0977C70.3551 23.0977 70.0051 23.0309 69.6959 22.8975C69.3867 22.764 69.1262 22.5768 68.9146 22.3359C68.7031 22.0918 68.5419 21.807 68.4313 21.4814C68.3206 21.1527 68.2652 20.7962 68.2652 20.4121ZM69.5543 20.3096V20.4121C69.5543 20.6432 69.5771 20.8597 69.6227 21.0615C69.6682 21.2633 69.7382 21.4408 69.8326 21.5938C69.927 21.7467 70.0491 21.8672 70.1988 21.9551C70.3518 22.0397 70.5341 22.082 70.7457 22.082C70.954 22.082 71.1331 22.0397 71.2828 21.9551C71.4326 21.8672 71.5546 21.7467 71.649 21.5938C71.7467 21.4408 71.8183 21.2633 71.8639 21.0615C71.9094 20.8597 71.9322 20.6432 71.9322 20.4121V20.3096C71.9322 20.0817 71.9094 19.8685 71.8639 19.6699C71.8183 19.4681 71.7467 19.2907 71.649 19.1377C71.5546 18.9814 71.4309 18.8594 71.2779 18.7715C71.1282 18.6803 70.9475 18.6348 70.7359 18.6348C70.5276 18.6348 70.3486 18.6803 70.1988 18.7715C70.0491 18.8594 69.927 18.9814 69.8326 19.1377C69.7382 19.2907 69.6682 19.4681 69.6227 19.6699C69.5771 19.8685 69.5543 20.0817 69.5543 20.3096ZM76.0285 21.7305L77.1857 17.7168H78.0061L77.7619 19.1035L76.5949 23H75.8869L76.0285 21.7305ZM75.3889 17.7168L76.258 21.7402L76.3361 23H75.5207L74.134 17.7168H75.3889ZM79.0803 21.6816L79.9299 17.7168H81.1799L79.8029 23H78.9875L79.0803 21.6816ZM78.133 17.7168L79.2805 21.6914L79.4318 23H78.7238L77.5471 19.1035L77.3078 17.7168H78.133ZM83.6063 18.8447V23H82.3172V17.7168H83.5281L83.6063 18.8447ZM83.4012 20.168H83.0203C83.0236 19.7839 83.0757 19.4355 83.1766 19.123C83.2775 18.8105 83.4191 18.542 83.6014 18.3174C83.7869 18.0928 84.0066 17.9202 84.2605 17.7998C84.5145 17.6794 84.7977 17.6191 85.1102 17.6191C85.3641 17.6191 85.5936 17.6549 85.7986 17.7266C86.0037 17.7982 86.1795 17.9121 86.326 18.0684C86.4757 18.2246 86.5896 18.4297 86.6678 18.6836C86.7492 18.9342 86.7898 19.2435 86.7898 19.6113V23H85.491V19.6016C85.491 19.3607 85.4552 19.1702 85.3836 19.0303C85.3152 18.8903 85.2143 18.791 85.0809 18.7324C84.9507 18.6738 84.7895 18.6445 84.5975 18.6445C84.3989 18.6445 84.2247 18.6852 84.075 18.7666C83.9285 18.8447 83.8048 18.9538 83.7039 19.0938C83.6063 19.2337 83.5314 19.3949 83.4793 19.5771C83.4272 19.7594 83.4012 19.9564 83.4012 20.168ZM89.6947 15.5V23H88.4008V15.5H89.6947ZM91.0957 20.4121V20.3096C91.0957 19.9222 91.151 19.5658 91.2617 19.2402C91.3724 18.9115 91.5335 18.6266 91.7451 18.3857C91.9567 18.1449 92.2155 17.9577 92.5215 17.8242C92.8275 17.6875 93.1758 17.6191 93.5664 17.6191C93.9635 17.6191 94.3151 17.6875 94.6211 17.8242C94.9303 17.9577 95.1908 18.1449 95.4023 18.3857C95.6139 18.6266 95.7751 18.9115 95.8857 19.2402C95.9964 19.5658 96.0518 19.9222 96.0518 20.3096V20.4121C96.0518 20.7962 95.9964 21.1527 95.8857 21.4814C95.7751 21.807 95.6139 22.0918 95.4023 22.3359C95.1908 22.5768 94.932 22.764 94.626 22.8975C94.32 23.0309 93.9701 23.0977 93.5762 23.0977C93.1855 23.0977 92.8356 23.0309 92.5264 22.8975C92.2171 22.764 91.9567 22.5768 91.7451 22.3359C91.5335 22.0918 91.3724 21.807 91.2617 21.4814C91.151 21.1527 91.0957 20.7962 91.0957 20.4121ZM92.3848 20.3096V20.4121C92.3848 20.6432 92.4076 20.8597 92.4531 21.0615C92.4987 21.2633 92.5687 21.4408 92.6631 21.5938C92.7575 21.7467 92.8796 21.8672 93.0293 21.9551C93.1823 22.0397 93.3646 22.082 93.5762 22.082C93.7845 22.082 93.9635 22.0397 94.1133 21.9551C94.263 21.8672 94.3851 21.7467 94.4795 21.5938C94.5771 21.4408 94.6488 21.2633 94.6943 21.0615C94.7399 20.8597 94.7627 20.6432 94.7627 20.4121V20.3096C94.7627 20.0817 94.7399 19.8685 94.6943 19.6699C94.6488 19.4681 94.5771 19.2907 94.4795 19.1377C94.3851 18.9814 94.2614 18.8594 94.1084 18.7715C93.9587 18.6803 93.778 18.6348 93.5664 18.6348C93.3581 18.6348 93.179 18.6803 93.0293 18.7715C92.8796 18.8594 92.7575 18.9814 92.6631 19.1377C92.5687 19.2907 92.4987 19.4681 92.4531 19.6699C92.4076 19.8685 92.3848 20.0817 92.3848 20.3096ZM100.299 21.877V19.4404C100.299 19.2614 100.268 19.1068 100.207 18.9766C100.145 18.8464 100.05 18.7454 99.9234 18.6738C99.7965 18.6022 99.6354 18.5664 99.44 18.5664C99.2675 18.5664 99.1161 18.5957 98.9859 18.6543C98.859 18.7129 98.7613 18.7959 98.693 18.9033C98.6246 19.0075 98.5904 19.1279 98.5904 19.2646H97.2965C97.2965 19.0465 97.3486 18.8398 97.4527 18.6445C97.5569 18.446 97.705 18.2702 97.8971 18.1172C98.0924 17.9609 98.3251 17.8389 98.5953 17.751C98.8688 17.6631 99.1747 17.6191 99.5133 17.6191C99.9137 17.6191 100.27 17.6875 100.583 17.8242C100.898 17.9577 101.146 18.1595 101.325 18.4297C101.507 18.6999 101.598 19.04 101.598 19.4502V21.7549C101.598 22.0186 101.615 22.2448 101.647 22.4336C101.683 22.6191 101.735 22.7803 101.803 22.917V23H100.49C100.428 22.8665 100.381 22.6973 100.348 22.4922C100.316 22.2839 100.299 22.0788 100.299 21.877ZM100.48 19.7822L100.49 20.5488H99.6744C99.4726 20.5488 99.2952 20.57 99.1422 20.6123C98.9892 20.6514 98.8639 20.71 98.7662 20.7881C98.6686 20.863 98.5953 20.9541 98.5465 21.0615C98.4977 21.1657 98.4732 21.2845 98.4732 21.418C98.4732 21.5482 98.5025 21.6654 98.5611 21.7695C98.623 21.8737 98.7109 21.9567 98.8248 22.0186C98.942 22.0771 99.0787 22.1064 99.235 22.1064C99.4628 22.1064 99.6614 22.0609 99.8307 21.9697C99.9999 21.8753 100.132 21.7614 100.226 21.6279C100.321 21.4945 100.371 21.3675 100.378 21.2471L100.749 21.8037C100.703 21.9372 100.635 22.0788 100.544 22.2285C100.452 22.3783 100.335 22.5182 100.192 22.6484C100.049 22.7786 99.8762 22.8861 99.6744 22.9707C99.4726 23.0553 99.2382 23.0977 98.9713 23.0977C98.6295 23.0977 98.3235 23.0293 98.0533 22.8926C97.7831 22.7559 97.5699 22.5687 97.4137 22.3311C97.2574 22.0934 97.1793 21.8232 97.1793 21.5205C97.1793 21.2406 97.2314 20.9932 97.3355 20.7783C97.4397 20.5635 97.5943 20.3828 97.7994 20.2363C98.0045 20.0866 98.2584 19.9743 98.5611 19.8994C98.8671 19.8213 99.2171 19.7822 99.6109 19.7822H100.48ZM106.329 21.877V15.5H107.628V23H106.456L106.329 21.877ZM102.936 20.4219V20.3193C102.936 19.9157 102.981 19.5495 103.072 19.2207C103.167 18.8887 103.304 18.6038 103.483 18.3662C103.662 18.1286 103.878 17.9447 104.132 17.8145C104.389 17.6842 104.681 17.6191 105.006 17.6191C105.322 17.6191 105.597 17.6826 105.831 17.8096C106.069 17.9365 106.271 18.1172 106.437 18.3516C106.606 18.5859 106.741 18.8643 106.842 19.1865C106.943 19.5055 107.016 19.8571 107.062 20.2412V20.5195C107.016 20.8939 106.943 21.2373 106.842 21.5498C106.741 21.8623 106.606 22.1357 106.437 22.3701C106.271 22.6012 106.069 22.7803 105.831 22.9072C105.594 23.0342 105.315 23.0977 104.996 23.0977C104.674 23.0977 104.384 23.0309 104.127 22.8975C103.873 22.764 103.657 22.5768 103.478 22.3359C103.302 22.0951 103.167 21.8118 103.072 21.4863C102.981 21.1608 102.936 20.806 102.936 20.4219ZM104.23 20.3193V20.4219C104.23 20.6497 104.249 20.863 104.288 21.0615C104.327 21.2601 104.391 21.4359 104.479 21.5889C104.567 21.7386 104.679 21.8558 104.816 21.9404C104.956 22.0251 105.125 22.0674 105.323 22.0674C105.577 22.0674 105.786 22.012 105.948 21.9014C106.114 21.7874 106.243 21.6328 106.334 21.4375C106.425 21.2389 106.484 21.016 106.51 20.7686V20.002C106.497 19.8066 106.463 19.626 106.407 19.46C106.355 19.2939 106.28 19.1507 106.183 19.0303C106.088 18.9098 105.971 18.8154 105.831 18.7471C105.691 18.6787 105.525 18.6445 105.333 18.6445C105.135 18.6445 104.965 18.6885 104.825 18.7764C104.685 18.861 104.571 18.9798 104.484 19.1328C104.396 19.2858 104.331 19.4632 104.288 19.665C104.249 19.8669 104.23 20.085 104.23 20.3193ZM111.856 20.4121V20.3096C111.856 19.9222 111.911 19.5658 112.022 19.2402C112.133 18.9115 112.294 18.6266 112.505 18.3857C112.717 18.1449 112.976 17.9577 113.282 17.8242C113.588 17.6875 113.936 17.6191 114.327 17.6191C114.724 17.6191 115.075 17.6875 115.381 17.8242C115.69 17.9577 115.951 18.1449 116.162 18.3857C116.374 18.6266 116.535 18.9115 116.646 19.2402C116.757 19.5658 116.812 19.9222 116.812 20.3096V20.4121C116.812 20.7962 116.757 21.1527 116.646 21.4814C116.535 21.807 116.374 22.0918 116.162 22.3359C115.951 22.5768 115.692 22.764 115.386 22.8975C115.08 23.0309 114.73 23.0977 114.336 23.0977C113.946 23.0977 113.596 23.0309 113.287 22.8975C112.977 22.764 112.717 22.5768 112.505 22.3359C112.294 22.0918 112.133 21.807 112.022 21.4814C111.911 21.1527 111.856 20.7962 111.856 20.4121ZM113.145 20.3096V20.4121C113.145 20.6432 113.168 20.8597 113.213 21.0615C113.259 21.2633 113.329 21.4408 113.423 21.5938C113.518 21.7467 113.64 21.8672 113.789 21.9551C113.942 22.0397 114.125 22.082 114.336 22.082C114.545 22.082 114.724 22.0397 114.873 21.9551C115.023 21.8672 115.145 21.7467 115.24 21.5938C115.337 21.4408 115.409 21.2633 115.454 21.0615C115.5 20.8597 115.523 20.6432 115.523 20.4121V20.3096C115.523 20.0817 115.5 19.8685 115.454 19.6699C115.409 19.4681 115.337 19.2907 115.24 19.1377C115.145 18.9814 115.022 18.8594 114.869 18.7715C114.719 18.6803 114.538 18.6348 114.327 18.6348C114.118 18.6348 113.939 18.6803 113.789 18.7715C113.64 18.8594 113.518 18.9814 113.423 19.1377C113.329 19.2907 113.259 19.4681 113.213 19.6699C113.168 19.8685 113.145 20.0817 113.145 20.3096ZM119.414 18.8447V23H118.125V17.7168H119.336L119.414 18.8447ZM119.209 20.168H118.828C118.831 19.7839 118.883 19.4355 118.984 19.123C119.085 18.8105 119.227 18.542 119.409 18.3174C119.595 18.0928 119.814 17.9202 120.068 17.7998C120.322 17.6794 120.605 17.6191 120.918 17.6191C121.172 17.6191 121.401 17.6549 121.606 17.7266C121.812 17.7982 121.987 17.9121 122.134 18.0684C122.284 18.2246 122.397 18.4297 122.476 18.6836C122.557 18.9342 122.598 19.2435 122.598 19.6113V23H121.299V19.6016C121.299 19.3607 121.263 19.1702 121.191 19.0303C121.123 18.8903 121.022 18.791 120.889 18.7324C120.758 18.6738 120.597 18.6445 120.405 18.6445C120.207 18.6445 120.033 18.6852 119.883 18.7666C119.736 18.8447 119.613 18.9538 119.512 19.0938C119.414 19.2337 119.339 19.3949 119.287 19.5771C119.235 19.7594 119.209 19.9564 119.209 20.168ZM129.526 17.7168V18.6445H126.498V17.7168H129.526ZM127.309 16.418H128.603V21.4766C128.603 21.6328 128.624 21.7533 128.666 21.8379C128.709 21.9225 128.772 21.9795 128.857 22.0088C128.941 22.0381 129.042 22.0527 129.159 22.0527C129.244 22.0527 129.322 22.0479 129.394 22.0381C129.465 22.0283 129.526 22.0186 129.574 22.0088L129.579 22.9756C129.472 23.0114 129.35 23.0407 129.213 23.0635C129.08 23.0863 128.928 23.0977 128.759 23.0977C128.469 23.0977 128.215 23.0488 127.997 22.9512C127.779 22.8503 127.61 22.6891 127.489 22.4678C127.369 22.2432 127.309 21.9469 127.309 21.5791V16.418ZM132.05 15.5V23H130.756V15.5H132.05ZM131.845 20.168H131.464C131.464 19.8001 131.512 19.4616 131.61 19.1523C131.708 18.8431 131.846 18.5745 132.025 18.3467C132.204 18.1156 132.417 17.9365 132.665 17.8096C132.915 17.6826 133.192 17.6191 133.495 17.6191C133.755 17.6191 133.991 17.6566 134.203 17.7314C134.418 17.8031 134.602 17.9186 134.755 18.0781C134.908 18.2376 135.025 18.446 135.106 18.7031C135.191 18.957 135.233 19.2663 135.233 19.6309V23H133.934V19.6211C133.934 19.377 133.899 19.1849 133.827 19.0449C133.755 18.9017 133.653 18.7992 133.519 18.7373C133.389 18.6755 133.228 18.6445 133.036 18.6445C132.828 18.6445 132.649 18.6852 132.499 18.7666C132.349 18.8447 132.225 18.9538 132.128 19.0938C132.033 19.2337 131.962 19.3949 131.913 19.5771C131.867 19.7594 131.845 19.9564 131.845 20.168ZM139.144 23.0977C138.744 23.0977 138.384 23.0326 138.065 22.9023C137.746 22.7721 137.474 22.5915 137.249 22.3604C137.028 22.126 136.857 21.8542 136.737 21.5449C136.62 21.2324 136.561 20.8971 136.561 20.5391V20.3438C136.561 19.9368 136.62 19.5674 136.737 19.2354C136.854 18.9001 137.02 18.612 137.235 18.3711C137.45 18.1302 137.707 17.9447 138.006 17.8145C138.306 17.6842 138.636 17.6191 138.997 17.6191C139.372 17.6191 139.702 17.6826 139.989 17.8096C140.275 17.9333 140.514 18.109 140.706 18.3369C140.899 18.5648 141.043 18.8382 141.141 19.1572C141.239 19.473 141.287 19.8229 141.287 20.207V20.749H137.147V19.8604H140.018V19.7627C140.011 19.5576 139.972 19.3704 139.901 19.2012C139.829 19.0286 139.718 18.8919 139.569 18.791C139.419 18.6868 139.225 18.6348 138.988 18.6348C138.796 18.6348 138.628 18.6771 138.485 18.7617C138.345 18.8431 138.228 18.9603 138.133 19.1133C138.042 19.263 137.974 19.4421 137.928 19.6504C137.883 19.8587 137.86 20.0898 137.86 20.3438V20.5391C137.86 20.7604 137.889 20.9655 137.948 21.1543C138.01 21.3431 138.099 21.5075 138.216 21.6475C138.337 21.7842 138.48 21.8916 138.646 21.9697C138.815 22.0446 139.007 22.082 139.222 22.082C139.492 22.082 139.736 22.0299 139.954 21.9258C140.176 21.8184 140.368 21.6605 140.531 21.4521L141.18 22.126C141.069 22.2887 140.92 22.445 140.731 22.5947C140.545 22.7445 140.321 22.8665 140.057 22.9609C139.793 23.0521 139.489 23.0977 139.144 23.0977Z" fill="#E5E5E5"/>
<path d="M46.3685 38.1164C45.6748 39.6516 45.3436 40.3369 44.4503 41.6932C43.2058 43.5874 41.4497 45.9466 39.2737 45.9666C37.3409 45.9846 36.8442 44.7096 34.2201 44.725C31.5962 44.7403 31.0494 45.9893 29.1164 45.9713C26.9404 45.9519 25.278 43.8215 24.032 41.9261C20.5494 36.6286 20.1856 30.4123 22.3334 27.1078C23.8598 24.7579 26.2688 23.3848 28.5329 23.3848C30.8384 23.3848 32.2879 24.6478 34.1948 24.6478C36.0442 24.6478 37.1706 23.3828 39.8366 23.3828C41.8517 23.3828 43.9869 24.479 45.5086 26.3731C40.523 29.1026 41.3336 36.2142 46.3685 38.1164Z" fill="#E5E5E5"/>
<path d="M38.0953 20.0651C39.0641 18.8227 39.7985 17.0701 39.5314 15.2773C37.9491 15.3855 36.0996 16.3916 35.0193 17.7026C34.0385 18.8922 33.2286 20.6569 33.5437 22.3722C35.2697 22.4263 37.0571 21.3954 38.0953 20.0651Z" fill="#E5E5E5"/>
<defs>
<linearGradient id="paint0_linear_1_8058" x1="-110.44" y1="-48.1057" x2="29.2413" y2="276.703" gradientUnits="userSpaceOnUse">
<stop stop-color="#DB2777"/>
<stop offset="1" stop-color="#F97316"/>
</linearGradient>
</defs>
</svg>
