<svg width="82" height="82" viewBox="0 0 82 82" fill="none" xmlns="http://www.w3.org/2000/svg">
<g filter="url(#filter0_d_1_8328)">
<circle cx="41" cy="37" r="29" fill="#262626"/>
</g>
<g filter="url(#filter1_dd_1_8328)">
<circle cx="40.9997" cy="36.9999" r="24.1667" fill="#262626"/>
</g>
<path d="M47.0288 28.2485C45.4674 26.7069 42.9504 26.716 41.4032 28.284L40.5955 29.1015L39.7881 28.284C38.2394 26.7158 35.7236 26.7072 34.1625 28.2485C32.6017 29.7897 32.5858 32.3134 34.127 33.8742L40.3079 40.1331C40.466 40.2931 40.7246 40.2933 40.8829 40.1331L47.0637 33.8742C48.6091 32.3098 48.593 29.7937 47.0289 28.2485C47.0288 28.2486 47.0288 28.2485 47.0288 28.2485ZM44.4341 33.9701H42.8178C42.6827 33.9701 42.5566 33.9026 42.4816 33.7901L42.0873 33.1986L41.1689 35.3414C41.0991 35.5043 40.9326 35.6008 40.7599 35.5846C40.5853 35.5683 40.4411 35.4411 40.4031 35.2699L39.7855 32.4909L39.1004 33.4044C39.0241 33.5061 38.9044 33.566 38.7772 33.566H36.7569C36.5337 33.566 36.3528 33.3851 36.3528 33.1619C36.3528 32.9388 36.5337 32.7579 36.7569 32.7579H38.5752L39.6662 31.3032C39.7608 31.177 39.9205 31.1175 40.0746 31.1507C40.2288 31.184 40.3496 31.304 40.3838 31.458L40.92 33.8707L41.6383 32.1946C41.6967 32.0583 41.8252 31.965 41.9728 31.9514C42.1206 31.9379 42.2637 32.0063 42.3459 32.1297L43.0341 33.1619H44.4341C44.6573 33.1619 44.8382 33.3428 44.8382 33.566C44.8382 33.7891 44.6573 33.9701 44.4341 33.9701Z" fill="#FAFAFA"/>
<path d="M45.6465 46.9001H47.6668C47.6668 45.5701 47.6668 41.6762 47.6668 40.031H45.6465V46.9001Z" fill="#FAFAFA"/>
<path d="M33.5244 46.9001H35.5447C35.5447 46.0656 35.5447 40.815 35.5447 40.031H33.5244V46.9001Z" fill="#FAFAFA"/>
<path d="M31.1001 41.2432H32.7164V45.6879H31.1001V41.2432Z" fill="#FAFAFA"/>
<path d="M36.353 42.6575H44.8383V44.2737H36.353V42.6575Z" fill="#FAFAFA"/>
<path d="M48.4746 41.2432H50.0909V45.6879H48.4746V41.2432Z" fill="#FAFAFA"/>
<defs>
<filter id="filter0_d_1_8328" x="0" y="0" width="82" height="82" filterUnits="userSpaceOnUse" color-interpolation-filters="sRGB">
<feFlood flood-opacity="0" result="BackgroundImageFix"/>
<feColorMatrix in="SourceAlpha" type="matrix" values="0 0 0 0 0 0 0 0 0 0 0 0 0 0 0 0 0 0 127 0" result="hardAlpha"/>
<feOffset dy="4"/>
<feGaussianBlur stdDeviation="6"/>
<feComposite in2="hardAlpha" operator="out"/>
<feColorMatrix type="matrix" values="0 0 0 0 0 0 0 0 0 0 0 0 0 0 0 0 0 0 1 0"/>
<feBlend mode="normal" in2="BackgroundImageFix" result="effect1_dropShadow_1_8328"/>
<feBlend mode="normal" in="SourceGraphic" in2="effect1_dropShadow_1_8328" result="shape"/>
</filter>
<filter id="filter1_dd_1_8328" x="12.833" y="6.83325" width="56.3335" height="60.3333" filterUnits="userSpaceOnUse" color-interpolation-filters="sRGB">
<feFlood flood-opacity="0" result="BackgroundImageFix"/>
<feColorMatrix in="SourceAlpha" type="matrix" values="0 0 0 0 0 0 0 0 0 0 0 0 0 0 0 0 0 0 127 0" result="hardAlpha"/>
<feOffset dy="2"/>
<feGaussianBlur stdDeviation="2"/>
<feComposite in2="hardAlpha" operator="out"/>
<feColorMatrix type="matrix" values="0 0 0 0 0 0 0 0 0 0 0 0 0 0 0 0 0 0 1 0"/>
<feBlend mode="normal" in2="BackgroundImageFix" result="effect1_dropShadow_1_8328"/>
<feColorMatrix in="SourceAlpha" type="matrix" values="0 0 0 0 0 0 0 0 0 0 0 0 0 0 0 0 0 0 127 0" result="hardAlpha"/>
<feOffset dy="-2"/>
<feGaussianBlur stdDeviation="2"/>
<feComposite in2="hardAlpha" operator="out"/>
<feColorMatrix type="matrix" values="0 0 0 0 0 0 0 0 0 0 0 0 0 0 0 0 0 0 1 0"/>
<feBlend mode="normal" in2="effect1_dropShadow_1_8328" result="effect2_dropShadow_1_8328"/>
<feBlend mode="normal" in="SourceGraphic" in2="effect2_dropShadow_1_8328" result="shape"/>
</filter>
</defs>
</svg>
