<svg width="82" height="82" viewBox="0 0 82 82" fill="none" xmlns="http://www.w3.org/2000/svg">
<g filter="url(#filter0_d_1_8336)">
<circle cx="41" cy="37" r="29" fill="#262626"/>
</g>
<g filter="url(#filter1_dd_1_8336)">
<circle cx="40.9997" cy="36.9999" r="24.1667" fill="#262626"/>
</g>
<path d="M47.5454 46.9002H35.5273C34.5934 46.9002 33.8364 46.2663 33.8364 45.4844C33.8364 44.7025 34.5934 44.0686 35.5273 44.0686H47.5454C48.4792 44.0686 49.2362 44.7025 49.2362 45.4844C49.2363 46.2663 48.4792 46.9002 47.5454 46.9002Z" fill="#FAFAFA"/>
<path d="M49.2362 45.4843C49.2362 45.8754 49.0469 46.2292 48.741 46.4854C48.435 46.7416 48.012 46.9 47.5449 46.9H46.9087C47.2306 46.8377 47.5182 46.7008 47.744 46.5117C48.0579 46.2489 48.2523 45.8856 48.2523 45.4843C48.2523 44.7951 47.6784 44.2173 46.9087 44.0686H47.5449C48.4791 44.0686 49.2362 44.7025 49.2362 45.4843Z" fill="#FAFAFA"/>
<path d="M46.865 44.0684H36.2075C36.2075 44.6192 36.7409 45.0658 37.3988 45.0658H45.6737C46.3317 45.0658 46.865 44.6192 46.865 44.0684Z" fill="#FAFAFA"/>
<path d="M46.9307 42.6273L46.4923 39.4678C46.3685 38.5755 45.7078 37.8146 44.7694 37.4836L43.6407 37.0855C43.2464 36.9464 42.9874 36.6069 42.9874 36.2292L42.9927 35.1819H40.0796L40.0849 36.2292C40.0849 36.607 39.8259 36.9465 39.4316 37.0855L38.3029 37.4836C37.3645 37.8146 36.7037 38.5755 36.5799 39.4678L36.1416 42.6273C36.011 43.5678 36.8347 44.3977 37.8985 44.3977H45.1737C46.2376 44.3978 47.0612 43.5678 46.9307 42.6273Z" fill="#FAFAFA"/>
<path d="M46.9309 42.6273L46.4924 39.4679C46.3687 38.5759 45.7077 37.8149 44.7693 37.4838L43.6407 37.0856C43.2462 36.9468 42.9876 36.6071 42.9876 36.2293L42.9928 35.1819H42.053L42.0479 36.6156C42.0479 36.9934 42.3069 37.3327 42.7014 37.472L43.9246 37.9788C44.863 38.3099 45.4289 38.9619 45.5531 39.8543L45.9911 43.0137C46.0656 43.5515 45.8285 44.0529 45.413 44.3835C46.3579 44.2706 47.0513 43.4962 46.9309 42.6273Z" fill="#FAFAFA"/>
<path d="M39.0417 39.5327L38.7752 41.9326C38.741 42.2409 39.0128 42.5082 39.3606 42.5082H41.264C41.8872 42.5082 42.3924 42.9312 42.3924 43.453C42.3924 43.9749 41.8872 44.3979 41.264 44.3979H37.8985C36.8347 44.3979 36.011 43.568 36.1416 42.6275L36.5799 39.5327H39.0417Z" fill="#FAFAFA"/>
<path d="M42.5706 43.4355C42.5764 43.7032 42.4488 43.9461 42.24 44.1209C42.0658 44.2668 41.8353 44.3653 41.5781 44.3908C41.6141 44.2982 41.6338 44.1998 41.6338 44.097C41.6338 43.5749 41.1283 43.152 40.5052 43.152H38.6017C38.2541 43.152 37.9824 42.8845 38.0166 42.5765L38.3257 40.066C38.363 39.7629 38.668 39.5325 39.0319 39.5325H39.2201L38.9535 41.9324C38.9194 42.2407 39.1911 42.5079 39.5387 42.5079H41.4165C42.036 42.5078 42.5594 42.9168 42.5706 43.4355Z" fill="#FAFAFA"/>
<path d="M42.0492 43.2576C42.2045 43.1901 42.381 43.152 42.568 43.152H44.4715C44.8191 43.152 45.0908 42.8845 45.0566 42.5765L44.7475 40.066C44.7102 39.7629 44.4052 39.5325 44.0413 39.5325H43.8531L44.1197 41.9324C44.1539 42.2407 43.8822 42.5079 43.5345 42.5079H41.6567C41.3767 42.5079 41.1164 42.5914 40.9141 42.7308L42.0492 43.2576Z" fill="#FAFAFA"/>
<path d="M41.5363 35.9245C43.0797 35.9245 44.3309 34.8769 44.3309 33.5846C44.3309 32.2923 43.0797 31.2446 41.5363 31.2446C39.9929 31.2446 38.7417 32.2923 38.7417 33.5846C38.7417 34.8769 39.9929 35.9245 41.5363 35.9245Z" fill="#FAFAFA"/>
<path d="M44.3308 33.5846C44.3308 34.8771 43.0794 35.9245 41.5362 35.9245C40.9342 35.9245 40.3767 35.7653 39.9204 35.4942C40.1654 35.553 40.4245 35.5844 40.692 35.5844C42.2357 35.5844 43.4866 34.5366 43.4866 33.2445C43.4866 32.4556 43.0209 31.7581 42.3064 31.3345C43.4753 31.6146 44.3308 32.516 44.3308 33.5846Z" fill="#FAFAFA"/>
<path d="M41.5364 30.075C41.3424 30.075 41.1851 29.9433 41.1851 29.7808V27.3943C41.1851 27.2318 41.3424 27.1001 41.5364 27.1001C41.7305 27.1001 41.8878 27.2318 41.8878 27.3943V29.7808C41.8878 29.9433 41.7305 30.075 41.5364 30.075Z" fill="#FAFAFA"/>
<path d="M37.4854 32.0332C37.4258 32.0332 37.3654 32.0205 37.31 31.9937L34.8418 30.8005C34.6737 30.7193 34.6161 30.5394 34.7131 30.3986C34.8101 30.258 35.025 30.2097 35.1931 30.2909L37.6614 31.4842C37.8294 31.5654 37.887 31.7453 37.79 31.886C37.725 31.9804 37.6068 32.0332 37.4854 32.0332Z" fill="#FAFAFA"/>
<path d="M48.0552 37.1428C47.9956 37.1428 47.9352 37.1301 47.8799 37.1034L45.4116 35.9101C45.2436 35.8289 45.1859 35.649 45.283 35.5083C45.38 35.3676 45.5948 35.3193 45.7629 35.4006L48.2312 36.5938C48.3992 36.675 48.4569 36.8549 48.3598 36.9957C48.2947 37.0901 48.1767 37.1428 48.0552 37.1428Z" fill="#FAFAFA"/>
<path d="M47.6388 33.9915H46.2137C46.0196 33.9915 45.8623 33.8598 45.8623 33.6973C45.8623 33.5348 46.0196 33.4031 46.2137 33.4031H47.6388C47.8329 33.4031 47.9902 33.5348 47.9902 33.6973C47.9902 33.8598 47.8329 33.9915 47.6388 33.9915Z" fill="#FAFAFA"/>
<path d="M36.859 33.9915H35.4339C35.2398 33.9915 35.0825 33.8598 35.0825 33.6973C35.0825 33.5348 35.2398 33.4031 35.4339 33.4031H36.859C37.0531 33.4031 37.2104 33.5348 37.2104 33.6973C37.2104 33.8598 37.0531 33.9915 36.859 33.9915Z" fill="#FAFAFA"/>
<path d="M35.0177 37.1431C34.8963 37.1431 34.7782 37.0903 34.7132 36.9959C34.6161 36.8552 34.6737 36.6752 34.8418 36.594L37.3101 35.4008C37.478 35.3195 37.693 35.3678 37.79 35.5085C37.887 35.6492 37.8295 35.8292 37.6614 35.9104L35.1931 37.1036C35.1378 37.1303 35.0774 37.1431 35.0177 37.1431Z" fill="#FAFAFA"/>
<path d="M45.5876 32.0332C45.4661 32.0332 45.348 31.9804 45.283 31.886C45.1859 31.7453 45.2435 31.5654 45.4116 31.4842L47.8799 30.2909C48.0478 30.2097 48.2628 30.2579 48.3598 30.3987C48.4569 30.5394 48.3993 30.7193 48.2312 30.8005L45.7629 31.9937C45.7076 32.0205 45.6471 32.0332 45.5876 32.0332Z" fill="#FAFAFA"/>
<path d="M43.8746 30.5998C43.8149 30.5998 43.7545 30.5871 43.6992 30.5603C43.5312 30.4791 43.4735 30.2992 43.5706 30.1585L44.4909 28.8237C44.5879 28.6829 44.8029 28.6347 44.9709 28.716C45.1389 28.7973 45.1966 28.9772 45.0995 29.1179L44.1791 30.4526C44.1141 30.547 43.996 30.5998 43.8746 30.5998Z" fill="#FAFAFA"/>
<path d="M39.1979 30.5998C39.0765 30.5998 38.9584 30.547 38.8933 30.4526L37.9729 29.1179C37.8759 28.9772 37.9335 28.7972 38.1015 28.716C38.2695 28.6347 38.4844 28.683 38.5815 28.8237L39.5019 30.1584C39.5989 30.2991 39.5413 30.4791 39.3733 30.5603C39.318 30.587 39.2575 30.5998 39.1979 30.5998Z" fill="#FAFAFA"/>
<defs>
<filter id="filter0_d_1_8336" x="0" y="0" width="82" height="82" filterUnits="userSpaceOnUse" color-interpolation-filters="sRGB">
<feFlood flood-opacity="0" result="BackgroundImageFix"/>
<feColorMatrix in="SourceAlpha" type="matrix" values="0 0 0 0 0 0 0 0 0 0 0 0 0 0 0 0 0 0 127 0" result="hardAlpha"/>
<feOffset dy="4"/>
<feGaussianBlur stdDeviation="6"/>
<feComposite in2="hardAlpha" operator="out"/>
<feColorMatrix type="matrix" values="0 0 0 0 0 0 0 0 0 0 0 0 0 0 0 0 0 0 1 0"/>
<feBlend mode="normal" in2="BackgroundImageFix" result="effect1_dropShadow_1_8336"/>
<feBlend mode="normal" in="SourceGraphic" in2="effect1_dropShadow_1_8336" result="shape"/>
</filter>
<filter id="filter1_dd_1_8336" x="12.833" y="6.83325" width="56.3335" height="60.3333" filterUnits="userSpaceOnUse" color-interpolation-filters="sRGB">
<feFlood flood-opacity="0" result="BackgroundImageFix"/>
<feColorMatrix in="SourceAlpha" type="matrix" values="0 0 0 0 0 0 0 0 0 0 0 0 0 0 0 0 0 0 127 0" result="hardAlpha"/>
<feOffset dy="2"/>
<feGaussianBlur stdDeviation="2"/>
<feComposite in2="hardAlpha" operator="out"/>
<feColorMatrix type="matrix" values="0 0 0 0 0 0 0 0 0 0 0 0 0 0 0 0 0 0 1 0"/>
<feBlend mode="normal" in2="BackgroundImageFix" result="effect1_dropShadow_1_8336"/>
<feColorMatrix in="SourceAlpha" type="matrix" values="0 0 0 0 0 0 0 0 0 0 0 0 0 0 0 0 0 0 127 0" result="hardAlpha"/>
<feOffset dy="-2"/>
<feGaussianBlur stdDeviation="2"/>
<feComposite in2="hardAlpha" operator="out"/>
<feColorMatrix type="matrix" values="0 0 0 0 0 0 0 0 0 0 0 0 0 0 0 0 0 0 1 0"/>
<feBlend mode="normal" in2="effect1_dropShadow_1_8336" result="effect2_dropShadow_1_8336"/>
<feBlend mode="normal" in="SourceGraphic" in2="effect2_dropShadow_1_8336" result="shape"/>
</filter>
</defs>
</svg>
