<svg width="108" height="182" viewBox="0 0 108 182" fill="none" xmlns="http://www.w3.org/2000/svg">
<g filter="url(#filter0_d_1_8218)">
<circle cx="54" cy="50" r="42" fill="#262626"/>
</g>
<g filter="url(#filter1_dd_1_8218)">
<circle cx="54" cy="50" r="35" fill="#262626"/>
</g>
<path d="M64.6665 38H43.3332C42.6259 38 41.9476 38.281 41.4476 38.781C40.9475 39.2811 40.6665 39.9594 40.6665 40.6667V59.3333C40.6665 60.0406 40.9475 60.7189 41.4476 61.219C41.9476 61.719 42.6259 62 43.3332 62H64.6665C65.3737 62 66.052 61.719 66.5521 61.219C67.0522 60.7189 67.3332 60.0406 67.3332 59.3333V40.6667C67.3332 39.9594 67.0522 39.2811 66.5521 38.781C66.052 38.281 65.3737 38 64.6665 38ZM57.3332 43.3333C57.7287 43.3333 58.1154 43.4506 58.4443 43.6704C58.7732 43.8902 59.0296 44.2025 59.1809 44.568C59.3323 44.9334 59.3719 45.3356 59.2947 45.7235C59.2176 46.1115 59.0271 46.4678 58.7474 46.7475C58.4677 47.0273 58.1113 47.2177 57.7234 47.2949C57.3354 47.3721 56.9333 47.3325 56.5678 47.1811C56.2024 47.0297 55.89 46.7734 55.6702 46.4445C55.4505 46.1156 55.3332 45.7289 55.3332 45.3333C55.3332 44.8029 55.5439 44.2942 55.919 43.9191C56.294 43.544 56.8027 43.3333 57.3332 43.3333ZM63.1678 57.308C63.053 57.5174 62.884 57.6921 62.6785 57.8138C62.473 57.9355 62.2387 57.9998 61.9998 58H45.9998C45.7725 58.0001 45.549 57.9421 45.3504 57.8315C45.1518 57.7209 44.9848 57.5614 44.8653 57.368C44.7457 57.1747 44.6775 56.9541 44.6672 56.727C44.657 56.4999 44.7049 56.274 44.8065 56.0707L49.4732 46.7373C49.5806 46.522 49.7443 46.3398 49.9469 46.21C50.1494 46.0802 50.3834 46.0076 50.6238 46C50.8664 45.9865 51.1078 46.042 51.3202 46.1599C51.5325 46.2779 51.7072 46.4536 51.8238 46.6667L55.5238 53.0093L57.5852 50.4933C57.7191 50.3303 57.8897 50.2013 58.0832 50.117C58.2766 50.0328 58.4873 49.9956 58.6979 50.0086C58.9085 50.0216 59.113 50.0845 59.2946 50.1919C59.4762 50.2993 59.6297 50.4483 59.7425 50.6267L63.1305 55.96C63.256 56.1611 63.3256 56.392 63.3322 56.6289C63.3387 56.8659 63.282 57.1003 63.1678 57.308Z" fill="#FAFAFA"/>
<path d="M27.8871 143.908C28.0631 143.908 28.2191 143.976 28.3551 144.112L29.6271 145.492C28.9231 146.364 28.0551 147.032 27.0231 147.496C25.9991 147.96 24.7671 148.192 23.3271 148.192C22.0391 148.192 20.8791 147.972 19.8471 147.532C18.8231 147.092 17.9471 146.48 17.2191 145.696C16.4911 144.912 15.9311 143.976 15.5391 142.888C15.1551 141.8 14.9631 140.612 14.9631 139.324C14.9631 138.02 15.1711 136.828 15.5871 135.748C16.0031 134.66 16.5871 133.724 17.3391 132.94C18.0991 132.156 19.0031 131.548 20.0511 131.116C21.0991 130.676 22.2591 130.456 23.5311 130.456C24.7951 130.456 25.9151 130.664 26.8911 131.08C27.8751 131.496 28.7111 132.04 29.3991 132.712L28.3191 134.212C28.2551 134.308 28.1711 134.392 28.0671 134.464C27.9711 134.536 27.8351 134.572 27.6591 134.572C27.5391 134.572 27.4151 134.54 27.2871 134.476C27.1591 134.404 27.0191 134.32 26.8671 134.224C26.7151 134.12 26.5391 134.008 26.3391 133.888C26.1391 133.768 25.9071 133.66 25.6431 133.564C25.3791 133.46 25.0711 133.376 24.7191 133.312C24.3751 133.24 23.9751 133.204 23.5191 133.204C22.7431 133.204 22.0311 133.344 21.3831 133.624C20.7431 133.896 20.1911 134.296 19.7271 134.824C19.2631 135.344 18.9031 135.984 18.6471 136.744C18.3911 137.496 18.2631 138.356 18.2631 139.324C18.2631 140.3 18.3991 141.168 18.6711 141.928C18.9511 142.688 19.3271 143.328 19.7991 143.848C20.2711 144.368 20.8271 144.768 21.4671 145.048C22.1071 145.32 22.7951 145.456 23.5311 145.456C23.9711 145.456 24.3671 145.432 24.7191 145.384C25.0791 145.336 25.4071 145.26 25.7031 145.156C26.0071 145.052 26.2911 144.92 26.5551 144.76C26.8271 144.592 27.0951 144.388 27.3591 144.148C27.4391 144.076 27.5231 144.02 27.6111 143.98C27.6991 143.932 27.7911 143.908 27.8871 143.908ZM34.1194 137.824C34.5034 137.088 34.9594 136.512 35.4874 136.096C36.0154 135.672 36.6394 135.46 37.3594 135.46C37.9274 135.46 38.3834 135.584 38.7274 135.832L38.5354 138.052C38.4954 138.196 38.4354 138.3 38.3554 138.364C38.2834 138.42 38.1834 138.448 38.0554 138.448C37.9354 138.448 37.7554 138.428 37.5154 138.388C37.2834 138.348 37.0554 138.328 36.8314 138.328C36.5034 138.328 36.2114 138.376 35.9554 138.472C35.6994 138.568 35.4674 138.708 35.2594 138.892C35.0594 139.068 34.8794 139.284 34.7194 139.54C34.5674 139.796 34.4234 140.088 34.2874 140.416V148H31.3234V135.688H33.0634C33.3674 135.688 33.5794 135.744 33.6994 135.856C33.8194 135.96 33.8994 136.152 33.9394 136.432L34.1194 137.824ZM47.8569 140.428C47.8569 140.044 47.8009 139.684 47.6889 139.348C47.5849 139.004 47.4249 138.704 47.2089 138.448C46.9929 138.192 46.7169 137.992 46.3809 137.848C46.0529 137.696 45.6689 137.62 45.2289 137.62C44.3729 137.62 43.6969 137.864 43.2009 138.352C42.7129 138.84 42.4009 139.532 42.2649 140.428H47.8569ZM42.2049 142.216C42.2529 142.848 42.3649 143.396 42.5409 143.86C42.7169 144.316 42.9489 144.696 43.2369 145C43.5249 145.296 43.8649 145.52 44.2569 145.672C44.6569 145.816 45.0969 145.888 45.5769 145.888C46.0569 145.888 46.4689 145.832 46.8129 145.72C47.1649 145.608 47.4689 145.484 47.7249 145.348C47.9889 145.212 48.2169 145.088 48.4089 144.976C48.6089 144.864 48.8009 144.808 48.9849 144.808C49.2329 144.808 49.4169 144.9 49.5369 145.084L50.3889 146.164C50.0609 146.548 49.6929 146.872 49.2849 147.136C48.8769 147.392 48.4489 147.6 48.0009 147.76C47.5609 147.912 47.1089 148.02 46.6449 148.084C46.1889 148.148 45.7449 148.18 45.3129 148.18C44.4569 148.18 43.6609 148.04 42.9249 147.76C42.1889 147.472 41.5489 147.052 41.0049 146.5C40.4609 145.94 40.0329 145.252 39.7209 144.436C39.4089 143.612 39.2529 142.66 39.2529 141.58C39.2529 140.74 39.3889 139.952 39.6609 139.216C39.9329 138.472 40.3209 137.828 40.8249 137.284C41.3369 136.732 41.9569 136.296 42.6849 135.976C43.4209 135.656 44.2489 135.496 45.1689 135.496C45.9449 135.496 46.6609 135.62 47.3169 135.868C47.9729 136.116 48.5369 136.48 49.0089 136.96C49.4809 137.432 49.8489 138.016 50.1129 138.712C50.3849 139.4 50.5209 140.188 50.5209 141.076C50.5209 141.524 50.4729 141.828 50.3769 141.988C50.2809 142.14 50.0969 142.216 49.8249 142.216H42.2049ZM59.2493 142.744C58.3933 142.784 57.6733 142.86 57.0893 142.972C56.5053 143.076 56.0373 143.212 55.6853 143.38C55.3333 143.548 55.0813 143.744 54.9293 143.968C54.7773 144.192 54.7013 144.436 54.7013 144.7C54.7013 145.22 54.8533 145.592 55.1573 145.816C55.4693 146.04 55.8733 146.152 56.3693 146.152C56.9773 146.152 57.5013 146.044 57.9413 145.828C58.3893 145.604 58.8253 145.268 59.2493 144.82V142.744ZM52.4573 137.404C53.8733 136.108 55.5773 135.46 57.5693 135.46C58.2893 135.46 58.9333 135.58 59.5013 135.82C60.0693 136.052 60.5493 136.38 60.9413 136.804C61.3333 137.22 61.6293 137.72 61.8293 138.304C62.0373 138.888 62.1413 139.528 62.1413 140.224V148H60.7973C60.5173 148 60.3013 147.96 60.1493 147.88C59.9973 147.792 59.8773 147.62 59.7893 147.364L59.5253 146.476C59.2133 146.756 58.9093 147.004 58.6133 147.22C58.3173 147.428 58.0093 147.604 57.6893 147.748C57.3693 147.892 57.0253 148 56.6573 148.072C56.2973 148.152 55.8973 148.192 55.4573 148.192C54.9373 148.192 54.4573 148.124 54.0173 147.988C53.5773 147.844 53.1973 147.632 52.8773 147.352C52.5573 147.072 52.3093 146.724 52.1333 146.308C51.9573 145.892 51.8693 145.408 51.8693 144.856C51.8693 144.544 51.9213 144.236 52.0253 143.932C52.1293 143.62 52.2973 143.324 52.5293 143.044C52.7693 142.764 53.0773 142.5 53.4533 142.252C53.8293 142.004 54.2893 141.788 54.8333 141.604C55.3853 141.42 56.0253 141.272 56.7533 141.16C57.4813 141.04 58.3133 140.968 59.2493 140.944V140.224C59.2493 139.4 59.0733 138.792 58.7213 138.4C58.3693 138 57.8613 137.8 57.1973 137.8C56.7173 137.8 56.3173 137.856 55.9973 137.968C55.6853 138.08 55.4093 138.208 55.1693 138.352C54.9293 138.488 54.7093 138.612 54.5093 138.724C54.3173 138.836 54.1013 138.892 53.8613 138.892C53.6533 138.892 53.4773 138.84 53.3333 138.736C53.1893 138.624 53.0733 138.496 52.9853 138.352L52.4573 137.404ZM68.8727 148.192C67.8007 148.192 66.9767 147.892 66.4007 147.292C65.8327 146.684 65.5487 145.848 65.5487 144.784V137.908H64.2887C64.1287 137.908 63.9927 137.856 63.8807 137.752C63.7687 137.648 63.7127 137.492 63.7127 137.284V136.108L65.6927 135.784L66.3167 132.424C66.3567 132.264 66.4327 132.14 66.5447 132.052C66.6567 131.964 66.8007 131.92 66.9767 131.92H68.5127V135.796H71.8007V137.908H68.5127V144.58C68.5127 144.964 68.6047 145.264 68.7887 145.48C68.9807 145.696 69.2407 145.804 69.5687 145.804C69.7527 145.804 69.9047 145.784 70.0247 145.744C70.1527 145.696 70.2607 145.648 70.3487 145.6C70.4447 145.552 70.5287 145.508 70.6007 145.468C70.6727 145.42 70.7447 145.396 70.8167 145.396C70.9047 145.396 70.9767 145.42 71.0327 145.468C71.0887 145.508 71.1487 145.572 71.2127 145.66L72.1007 147.1C71.6687 147.46 71.1727 147.732 70.6127 147.916C70.0527 148.1 69.4727 148.192 68.8727 148.192ZM81.5366 140.428C81.5366 140.044 81.4806 139.684 81.3686 139.348C81.2646 139.004 81.1046 138.704 80.8886 138.448C80.6726 138.192 80.3966 137.992 80.0606 137.848C79.7326 137.696 79.3486 137.62 78.9086 137.62C78.0526 137.62 77.3766 137.864 76.8806 138.352C76.3926 138.84 76.0806 139.532 75.9446 140.428H81.5366ZM75.8846 142.216C75.9326 142.848 76.0446 143.396 76.2206 143.86C76.3966 144.316 76.6286 144.696 76.9166 145C77.2046 145.296 77.5446 145.52 77.9366 145.672C78.3366 145.816 78.7766 145.888 79.2566 145.888C79.7366 145.888 80.1486 145.832 80.4926 145.72C80.8446 145.608 81.1486 145.484 81.4046 145.348C81.6686 145.212 81.8966 145.088 82.0886 144.976C82.2886 144.864 82.4806 144.808 82.6646 144.808C82.9126 144.808 83.0966 144.9 83.2166 145.084L84.0686 146.164C83.7406 146.548 83.3726 146.872 82.9646 147.136C82.5566 147.392 82.1286 147.6 81.6806 147.76C81.2406 147.912 80.7886 148.02 80.3246 148.084C79.8686 148.148 79.4246 148.18 78.9926 148.18C78.1366 148.18 77.3406 148.04 76.6046 147.76C75.8686 147.472 75.2286 147.052 74.6846 146.5C74.1406 145.94 73.7126 145.252 73.4006 144.436C73.0886 143.612 72.9326 142.66 72.9326 141.58C72.9326 140.74 73.0686 139.952 73.3406 139.216C73.6126 138.472 74.0006 137.828 74.5046 137.284C75.0166 136.732 75.6366 136.296 76.3646 135.976C77.1006 135.656 77.9286 135.496 78.8486 135.496C79.6246 135.496 80.3406 135.62 80.9966 135.868C81.6526 136.116 82.2166 136.48 82.6886 136.96C83.1606 137.432 83.5286 138.016 83.7926 138.712C84.0646 139.4 84.2006 140.188 84.2006 141.076C84.2006 141.524 84.1526 141.828 84.0566 141.988C83.9606 142.14 83.7766 142.216 83.5046 142.216H75.8846ZM19.9769 172.908C20.1529 172.908 20.3089 172.976 20.4449 173.112L21.7169 174.492C21.0129 175.364 20.1449 176.032 19.1129 176.496C18.0889 176.96 16.8569 177.192 15.4169 177.192C14.1289 177.192 12.9689 176.972 11.9369 176.532C10.9129 176.092 10.0369 175.48 9.30891 174.696C8.58091 173.912 8.02091 172.976 7.62891 171.888C7.24491 170.8 7.05291 169.612 7.05291 168.324C7.05291 167.02 7.26091 165.828 7.67691 164.748C8.09291 163.66 8.67691 162.724 9.42891 161.94C10.1889 161.156 11.0929 160.548 12.1409 160.116C13.1889 159.676 14.3489 159.456 15.6209 159.456C16.8849 159.456 18.0049 159.664 18.9809 160.08C19.9649 160.496 20.8009 161.04 21.4889 161.712L20.4089 163.212C20.3449 163.308 20.2609 163.392 20.1569 163.464C20.0609 163.536 19.9249 163.572 19.7489 163.572C19.6289 163.572 19.5049 163.54 19.3769 163.476C19.2489 163.404 19.1089 163.32 18.9569 163.224C18.8049 163.12 18.6289 163.008 18.4289 162.888C18.2289 162.768 17.9969 162.66 17.7329 162.564C17.4689 162.46 17.1609 162.376 16.8089 162.312C16.4649 162.24 16.0649 162.204 15.6089 162.204C14.8329 162.204 14.1209 162.344 13.4729 162.624C12.8329 162.896 12.2809 163.296 11.8169 163.824C11.3529 164.344 10.9929 164.984 10.7369 165.744C10.4809 166.496 10.3529 167.356 10.3529 168.324C10.3529 169.3 10.4889 170.168 10.7609 170.928C11.0409 171.688 11.4169 172.328 11.8889 172.848C12.3609 173.368 12.9169 173.768 13.5569 174.048C14.1969 174.32 14.8849 174.456 15.6209 174.456C16.0609 174.456 16.4569 174.432 16.8089 174.384C17.1689 174.336 17.4969 174.26 17.7929 174.156C18.0969 174.052 18.3809 173.92 18.6449 173.76C18.9169 173.592 19.1849 173.388 19.4489 173.148C19.5289 173.076 19.6129 173.02 19.7009 172.98C19.7889 172.932 19.8809 172.908 19.9769 172.908ZM28.6503 164.496C29.5623 164.496 30.3903 164.644 31.1343 164.94C31.8863 165.236 32.5263 165.656 33.0543 166.2C33.5903 166.744 34.0023 167.408 34.2903 168.192C34.5783 168.976 34.7223 169.852 34.7223 170.82C34.7223 171.796 34.5783 172.676 34.2903 173.46C34.0023 174.244 33.5903 174.912 33.0543 175.464C32.5263 176.016 31.8863 176.44 31.1343 176.736C30.3903 177.032 29.5623 177.18 28.6503 177.18C27.7303 177.18 26.8943 177.032 26.1423 176.736C25.3903 176.44 24.7463 176.016 24.2103 175.464C23.6823 174.912 23.2703 174.244 22.9743 173.46C22.6863 172.676 22.5423 171.796 22.5423 170.82C22.5423 169.852 22.6863 168.976 22.9743 168.192C23.2703 167.408 23.6823 166.744 24.2103 166.2C24.7463 165.656 25.3903 165.236 26.1423 164.94C26.8943 164.644 27.7303 164.496 28.6503 164.496ZM28.6503 174.9C29.6743 174.9 30.4303 174.556 30.9183 173.868C31.4143 173.18 31.6623 172.172 31.6623 170.844C31.6623 169.516 31.4143 168.504 30.9183 167.808C30.4303 167.112 29.6743 166.764 28.6503 166.764C27.6103 166.764 26.8383 167.116 26.3343 167.82C25.8383 168.516 25.5903 169.524 25.5903 170.844C25.5903 172.164 25.8383 173.172 26.3343 173.868C26.8383 174.556 27.6103 174.9 28.6503 174.9ZM39.7555 166.2C40.0035 165.952 40.2635 165.724 40.5355 165.516C40.8155 165.3 41.1075 165.12 41.4115 164.976C41.7235 164.824 42.0555 164.708 42.4075 164.628C42.7595 164.54 43.1435 164.496 43.5595 164.496C44.2315 164.496 44.8275 164.612 45.3475 164.844C45.8675 165.068 46.2995 165.388 46.6435 165.804C46.9955 166.212 47.2595 166.704 47.4355 167.28C47.6195 167.848 47.7115 168.476 47.7115 169.164V177H44.7475V169.164C44.7475 168.412 44.5755 167.832 44.2315 167.424C43.8875 167.008 43.3635 166.8 42.6595 166.8C42.1475 166.8 41.6675 166.916 41.2195 167.148C40.7715 167.38 40.3475 167.696 39.9475 168.096V177H36.9835V164.688H38.7955C39.1795 164.688 39.4315 164.868 39.5515 165.228L39.7555 166.2ZM54.4703 177.192C53.3983 177.192 52.5743 176.892 51.9983 176.292C51.4303 175.684 51.1463 174.848 51.1463 173.784V166.908H49.8863C49.7263 166.908 49.5903 166.856 49.4783 166.752C49.3663 166.648 49.3103 166.492 49.3103 166.284V165.108L51.2903 164.784L51.9143 161.424C51.9543 161.264 52.0303 161.14 52.1423 161.052C52.2543 160.964 52.3983 160.92 52.5743 160.92H54.1103V164.796H57.3983V166.908H54.1103V173.58C54.1103 173.964 54.2023 174.264 54.3863 174.48C54.5783 174.696 54.8383 174.804 55.1663 174.804C55.3503 174.804 55.5023 174.784 55.6223 174.744C55.7503 174.696 55.8583 174.648 55.9463 174.6C56.0423 174.552 56.1263 174.508 56.1983 174.468C56.2703 174.42 56.3423 174.396 56.4143 174.396C56.5023 174.396 56.5743 174.42 56.6303 174.468C56.6863 174.508 56.7463 174.572 56.8103 174.66L57.6983 176.1C57.2663 176.46 56.7703 176.732 56.2103 176.916C55.6503 177.1 55.0703 177.192 54.4703 177.192ZM67.1343 169.428C67.1343 169.044 67.0783 168.684 66.9663 168.348C66.8623 168.004 66.7023 167.704 66.4863 167.448C66.2703 167.192 65.9943 166.992 65.6583 166.848C65.3303 166.696 64.9463 166.62 64.5063 166.62C63.6503 166.62 62.9743 166.864 62.4783 167.352C61.9903 167.84 61.6783 168.532 61.5423 169.428H67.1343ZM61.4823 171.216C61.5303 171.848 61.6423 172.396 61.8183 172.86C61.9943 173.316 62.2263 173.696 62.5143 174C62.8023 174.296 63.1423 174.52 63.5343 174.672C63.9343 174.816 64.3743 174.888 64.8543 174.888C65.3343 174.888 65.7463 174.832 66.0903 174.72C66.4423 174.608 66.7463 174.484 67.0023 174.348C67.2663 174.212 67.4943 174.088 67.6863 173.976C67.8863 173.864 68.0783 173.808 68.2623 173.808C68.5103 173.808 68.6943 173.9 68.8143 174.084L69.6663 175.164C69.3383 175.548 68.9703 175.872 68.5623 176.136C68.1543 176.392 67.7263 176.6 67.2783 176.76C66.8383 176.912 66.3863 177.02 65.9223 177.084C65.4663 177.148 65.0223 177.18 64.5903 177.18C63.7343 177.18 62.9383 177.04 62.2023 176.76C61.4663 176.472 60.8263 176.052 60.2823 175.5C59.7383 174.94 59.3103 174.252 58.9983 173.436C58.6863 172.612 58.5303 171.66 58.5303 170.58C58.5303 169.74 58.6663 168.952 58.9383 168.216C59.2103 167.472 59.5983 166.828 60.1023 166.284C60.6143 165.732 61.2343 165.296 61.9623 164.976C62.6983 164.656 63.5263 164.496 64.4463 164.496C65.2223 164.496 65.9383 164.62 66.5943 164.868C67.2503 165.116 67.8143 165.48 68.2863 165.96C68.7583 166.432 69.1263 167.016 69.3903 167.712C69.6623 168.4 69.7983 169.188 69.7983 170.076C69.7983 170.524 69.7503 170.828 69.6543 170.988C69.5583 171.14 69.3743 171.216 69.1023 171.216H61.4823ZM74.7946 166.2C75.0426 165.952 75.3026 165.724 75.5746 165.516C75.8546 165.3 76.1466 165.12 76.4506 164.976C76.7626 164.824 77.0946 164.708 77.4466 164.628C77.7986 164.54 78.1826 164.496 78.5986 164.496C79.2706 164.496 79.8666 164.612 80.3866 164.844C80.9066 165.068 81.3386 165.388 81.6826 165.804C82.0346 166.212 82.2986 166.704 82.4746 167.28C82.6586 167.848 82.7506 168.476 82.7506 169.164V177H79.7866V169.164C79.7866 168.412 79.6146 167.832 79.2706 167.424C78.9266 167.008 78.4026 166.8 77.6986 166.8C77.1866 166.8 76.7066 166.916 76.2586 167.148C75.8106 167.38 75.3866 167.696 74.9866 168.096V177H72.0226V164.688H73.8346C74.2186 164.688 74.4706 164.868 74.5906 165.228L74.7946 166.2ZM89.5094 177.192C88.4374 177.192 87.6134 176.892 87.0374 176.292C86.4694 175.684 86.1854 174.848 86.1854 173.784V166.908H84.9254C84.7654 166.908 84.6294 166.856 84.5174 166.752C84.4054 166.648 84.3494 166.492 84.3494 166.284V165.108L86.3294 164.784L86.9534 161.424C86.9934 161.264 87.0694 161.14 87.1814 161.052C87.2934 160.964 87.4374 160.92 87.6134 160.92H89.1494V164.796H92.4374V166.908H89.1494V173.58C89.1494 173.964 89.2414 174.264 89.4254 174.48C89.6174 174.696 89.8774 174.804 90.2054 174.804C90.3894 174.804 90.5414 174.784 90.6614 174.744C90.7894 174.696 90.8974 174.648 90.9854 174.6C91.0814 174.552 91.1654 174.508 91.2374 174.468C91.3094 174.42 91.3814 174.396 91.4534 174.396C91.5414 174.396 91.6134 174.42 91.6694 174.468C91.7254 174.508 91.7854 174.572 91.8494 174.66L92.7374 176.1C92.3054 176.46 91.8094 176.732 91.2494 176.916C90.6894 177.1 90.1094 177.192 89.5094 177.192Z" fill="#FAFAFA"/>
<defs>
<filter id="filter0_d_1_8218" x="0" y="0" width="108" height="108" filterUnits="userSpaceOnUse" color-interpolation-filters="sRGB">
<feFlood flood-opacity="0" result="BackgroundImageFix"/>
<feColorMatrix in="SourceAlpha" type="matrix" values="0 0 0 0 0 0 0 0 0 0 0 0 0 0 0 0 0 0 127 0" result="hardAlpha"/>
<feOffset dy="4"/>
<feGaussianBlur stdDeviation="6"/>
<feComposite in2="hardAlpha" operator="out"/>
<feColorMatrix type="matrix" values="0 0 0 0 0 0 0 0 0 0 0 0 0 0 0 0 0 0 1 0"/>
<feBlend mode="normal" in2="BackgroundImageFix" result="effect1_dropShadow_1_8218"/>
<feBlend mode="normal" in="SourceGraphic" in2="effect1_dropShadow_1_8218" result="shape"/>
</filter>
<filter id="filter1_dd_1_8218" x="15" y="9" width="78" height="82" filterUnits="userSpaceOnUse" color-interpolation-filters="sRGB">
<feFlood flood-opacity="0" result="BackgroundImageFix"/>
<feColorMatrix in="SourceAlpha" type="matrix" values="0 0 0 0 0 0 0 0 0 0 0 0 0 0 0 0 0 0 127 0" result="hardAlpha"/>
<feOffset dy="2"/>
<feGaussianBlur stdDeviation="2"/>
<feComposite in2="hardAlpha" operator="out"/>
<feColorMatrix type="matrix" values="0 0 0 0 0 0 0 0 0 0 0 0 0 0 0 0 0 0 1 0"/>
<feBlend mode="normal" in2="BackgroundImageFix" result="effect1_dropShadow_1_8218"/>
<feColorMatrix in="SourceAlpha" type="matrix" values="0 0 0 0 0 0 0 0 0 0 0 0 0 0 0 0 0 0 127 0" result="hardAlpha"/>
<feOffset dy="-2"/>
<feGaussianBlur stdDeviation="2"/>
<feComposite in2="hardAlpha" operator="out"/>
<feColorMatrix type="matrix" values="0 0 0 0 0 0 0 0 0 0 0 0 0 0 0 0 0 0 1 0"/>
<feBlend mode="normal" in2="effect1_dropShadow_1_8218" result="effect2_dropShadow_1_8218"/>
<feBlend mode="normal" in="SourceGraphic" in2="effect2_dropShadow_1_8218" result="shape"/>
</filter>
</defs>
</svg>
