<svg width="137" height="182" viewBox="0 0 137 182" fill="none" xmlns="http://www.w3.org/2000/svg">
<g filter="url(#filter0_d_1_8224)">
<circle cx="68" cy="50" r="42" fill="#262626"/>
</g>
<g filter="url(#filter1_dd_1_8224)">
<circle cx="68" cy="50" r="35" fill="#262626"/>
</g>
<path fill-rule="evenodd" clip-rule="evenodd" d="M65.8156 41.4212L68.6481 44.2537L71.4806 41.4212C71.7212 41.1806 71.8537 40.8587 71.8537 40.5156C71.8537 40.1718 71.7212 39.8506 71.4806 39.6099C70.9812 39.1099 70.1687 39.1106 69.6693 39.6099L68.9137 40.3656C68.8437 40.4356 68.7481 40.4749 68.6487 40.4749C68.5493 40.4749 68.4537 40.4356 68.3837 40.3656L67.6281 39.6099C67.3787 39.3599 67.0506 39.2349 66.7224 39.2349C66.3943 39.2349 66.0662 39.3599 65.8162 39.6099C65.5756 39.8506 65.4431 40.1718 65.4431 40.5156C65.4424 40.8587 65.5749 41.1806 65.8156 41.4212ZM72.8787 58.9962C73.5431 59.5606 74.0756 60.2787 74.4181 61.1012H80.1087C80.5068 61.1012 80.8431 60.9512 81.1081 60.6543C81.3737 60.3574 81.4856 60.0068 81.4406 59.6112C81.2281 57.7174 79.6293 56.2887 77.7224 56.2887H76.4737C74.8124 56.2887 73.3362 57.4143 72.8787 58.9962ZM67.6793 58.4174H69.2606C71.7262 58.4174 73.7931 60.2643 74.0681 62.7131C74.1281 63.2431 73.9774 63.7137 73.6218 64.1118C73.2662 64.5093 72.8156 64.7112 72.2818 64.7112H64.6574C64.1237 64.7112 63.6731 64.5093 63.3174 64.1118C62.9618 63.7137 62.8118 63.2431 62.8712 62.7131C63.1468 60.2643 65.2137 58.4174 67.6793 58.4174ZM60.4662 56.2887H59.2174C57.3106 56.2887 55.7118 57.7174 55.4987 59.6112C55.4543 60.0068 55.5662 60.3574 55.8312 60.6543C56.0962 60.9512 56.4324 61.1012 56.8306 61.1012H62.5212C62.8637 60.2787 63.3968 59.5606 64.0612 58.9962C63.6037 57.4143 62.1281 56.2887 60.4662 56.2887ZM62.1087 53.0156C62.1087 51.7656 61.0918 50.7487 59.8418 50.7487C58.5918 50.7487 57.5749 51.7656 57.5749 53.0156C57.5749 54.2656 58.5918 55.2831 59.8418 55.2831C61.0918 55.2831 62.1087 54.2656 62.1087 53.0156ZM71.4406 54.3724C71.4406 52.7349 70.1081 51.4018 68.4699 51.4018C66.8318 51.4018 65.4993 52.7349 65.4993 54.3724C65.4993 56.0106 66.8318 57.3431 68.4699 57.3431C70.1081 57.3431 71.4406 56.0106 71.4406 54.3724ZM77.0981 50.7487C75.8481 50.7487 74.8312 51.7656 74.8312 53.0156C74.8312 54.2656 75.8481 55.2831 77.0981 55.2831C78.3481 55.2831 79.3649 54.2656 79.3649 53.0156C79.3649 51.7656 78.3481 50.7487 77.0981 50.7487ZM75.1343 41.8231C75.1343 43.3137 74.6287 44.6881 73.7799 45.7843C74.5743 46.7056 75.7099 47.2287 76.9387 47.2287C77.5068 47.2287 78.0574 47.1162 78.5749 46.8956C78.7218 46.8331 78.8931 46.8706 78.9999 46.9887L79.8962 47.9787L79.5637 46.5699C79.5318 46.4343 79.5774 46.2924 79.6818 46.2012C80.5931 45.4068 81.1156 44.2593 81.1156 43.0518C81.1156 40.7487 79.2418 38.8756 76.9387 38.8756C76.1412 38.8756 75.3774 39.0974 74.7112 39.5187C74.9843 40.2349 75.1343 41.0118 75.1343 41.8231ZM76.0356 44.3231C75.8287 44.3231 75.6606 44.1549 75.6606 43.9481C75.6606 43.7406 75.8287 43.5731 76.0356 43.5731H79.5787C79.7856 43.5731 79.9537 43.7406 79.9537 43.9481C79.9537 44.1549 79.7856 44.3231 79.5787 44.3231H76.0356ZM76.0356 42.5306C75.8287 42.5306 75.6606 42.3631 75.6606 42.1556C75.6606 41.9487 75.8287 41.7806 76.0356 41.7806H77.6837C77.8906 41.7806 78.0587 41.9487 78.0587 42.1556C78.0587 42.3631 77.8906 42.5306 77.6837 42.5306H76.0356ZM57.1306 43.6718C57.3506 43.6718 57.5299 43.4924 57.5299 43.2724C57.5299 43.0524 57.3512 42.8737 57.1306 42.8737C56.9106 42.8737 56.7312 43.0524 56.7312 43.2724C56.7312 43.4924 56.9106 43.6718 57.1306 43.6718ZM60.6587 45.2131C60.6587 44.9924 60.4793 44.8137 60.2593 44.8137C60.0393 44.8137 59.8599 44.9924 59.8599 45.2131C59.8599 45.4331 60.0393 45.6118 60.2593 45.6118C60.4793 45.6118 60.6587 45.4331 60.6587 45.2131ZM60.2593 41.7312C60.4793 41.7312 60.6587 41.5524 60.6587 41.3324C60.6587 41.1124 60.4793 40.9331 60.2593 40.9331C60.0393 40.9331 59.8599 41.1124 59.8599 41.3324C59.8599 41.5524 60.0393 41.7312 60.2593 41.7312ZM62.7087 44.4287C62.4874 45.2012 62.0499 45.8887 61.4381 46.4218C61.3331 46.5131 61.2874 46.6556 61.3199 46.7906L61.6524 48.1993L60.7562 47.2093C60.6493 47.0912 60.4781 47.0537 60.3312 47.1162C59.8137 47.3374 59.2631 47.4493 58.6949 47.4493C56.3918 47.4493 54.5181 45.5756 54.5181 43.2724C54.5181 40.9693 56.3918 39.0962 58.6949 39.0962C60.1331 39.0962 61.4381 39.8118 62.2112 41.0181C62.1781 41.2818 62.1612 41.5506 62.1612 41.8231C62.1612 42.7293 62.3524 43.6156 62.7087 44.4287ZM61.4087 41.3324C61.4087 41.9662 60.8931 42.4812 60.2593 42.4812C59.9849 42.4812 59.7324 42.3843 59.5343 42.2231L58.2506 43.0193C58.2693 43.1006 58.2799 43.1856 58.2799 43.2724C58.2799 43.3599 58.2693 43.4443 58.2506 43.5262L59.5343 44.3218C59.7318 44.1606 59.9843 44.0637 60.2593 44.0637C60.8931 44.0637 61.4087 44.5793 61.4087 45.2131C61.4087 45.8462 60.8931 46.3618 60.2593 46.3618C59.6256 46.3618 59.1099 45.8462 59.1099 45.2131C59.1099 45.1256 59.1206 45.0412 59.1393 44.9593L57.8556 44.1631C57.6581 44.3243 57.4056 44.4218 57.1306 44.4218C56.4968 44.4218 55.9812 43.9062 55.9812 43.2724C55.9812 42.6387 56.4968 42.1237 57.1306 42.1237C57.4049 42.1237 57.6574 42.2206 57.8556 42.3818L59.1393 41.5856C59.1212 41.5043 59.1099 41.4193 59.1099 41.3324C59.1099 40.6987 59.6256 40.1831 60.2593 40.1831C60.8931 40.1831 61.4087 40.6987 61.4087 41.3324ZM68.3824 45.0493L65.2849 41.9518C64.9024 41.5693 64.6918 41.0593 64.6918 40.5156C64.6918 39.9718 64.9024 39.4618 65.2849 39.0793C66.0768 38.2874 67.3656 38.2874 68.1574 39.0793L68.6481 39.5699L69.1387 39.0793C69.9306 38.2874 71.2193 38.2874 72.0112 39.0793C72.3937 39.4618 72.6043 39.9718 72.6043 40.5156C72.6043 41.0593 72.3937 41.5693 72.0112 41.9518L68.9131 45.0493C68.8399 45.1224 68.7437 45.1593 68.6481 45.1593C68.5518 45.1593 68.4562 45.1224 68.3824 45.0493ZM68.6481 47.5593C67.9081 47.5593 67.1874 47.4206 66.5062 47.1462C66.3574 47.0856 66.1912 47.1287 66.0881 47.2437L64.2762 48.9518L64.9443 46.5362C65.0018 46.3924 64.9656 46.2237 64.8449 46.1168C63.6168 45.0274 62.9118 43.4624 62.9118 41.8231C62.9118 38.6599 65.4849 36.0862 68.6487 36.0862C71.8118 36.0862 74.3856 38.6599 74.3856 41.8231C74.3843 44.9862 71.8112 47.5593 68.6481 47.5593Z" fill="#FAFAFA"/>
<path d="M5.37513 133.216V138.028H11.4471V140.512H5.37513V145.42H13.0791V148H2.13513V130.648H13.0791V133.216H5.37513ZM17.986 137.2C18.234 136.952 18.494 136.724 18.766 136.516C19.046 136.3 19.338 136.12 19.642 135.976C19.954 135.824 20.286 135.708 20.638 135.628C20.99 135.54 21.374 135.496 21.79 135.496C22.462 135.496 23.058 135.612 23.578 135.844C24.098 136.068 24.53 136.388 24.874 136.804C25.226 137.212 25.49 137.704 25.666 138.28C25.85 138.848 25.942 139.476 25.942 140.164V148H22.978V140.164C22.978 139.412 22.806 138.832 22.462 138.424C22.118 138.008 21.594 137.8 20.89 137.8C20.378 137.8 19.898 137.916 19.45 138.148C19.002 138.38 18.578 138.696 18.178 139.096V148H15.214V135.688H17.026C17.41 135.688 17.662 135.868 17.782 136.228L17.986 137.2ZM33.2609 141.544C33.6289 141.544 33.9489 141.496 34.2209 141.4C34.4929 141.296 34.7169 141.156 34.8929 140.98C35.0769 140.804 35.2129 140.592 35.3009 140.344C35.3969 140.096 35.4449 139.824 35.4449 139.528C35.4449 138.92 35.2609 138.44 34.8929 138.088C34.5329 137.728 33.9889 137.548 33.2609 137.548C32.5329 137.548 31.9849 137.728 31.6169 138.088C31.2569 138.44 31.0769 138.92 31.0769 139.528C31.0769 139.816 31.1209 140.084 31.2089 140.332C31.3049 140.58 31.4409 140.796 31.6169 140.98C31.8009 141.156 32.0289 141.296 32.3009 141.4C32.5809 141.496 32.9009 141.544 33.2609 141.544ZM36.6089 148.552C36.6089 148.312 36.5369 148.116 36.3929 147.964C36.2489 147.812 36.0529 147.696 35.8049 147.616C35.5569 147.528 35.2649 147.464 34.9289 147.424C34.6009 147.384 34.2489 147.356 33.8729 147.34C33.5049 147.316 33.1209 147.296 32.7209 147.28C32.3289 147.264 31.9449 147.232 31.5689 147.184C31.2409 147.368 30.9729 147.584 30.7649 147.832C30.5649 148.08 30.4649 148.368 30.4649 148.696C30.4649 148.912 30.5169 149.112 30.6209 149.296C30.7329 149.488 30.9049 149.652 31.1369 149.788C31.3769 149.924 31.6849 150.028 32.0609 150.1C32.4369 150.18 32.8969 150.22 33.4409 150.22C33.9929 150.22 34.4689 150.176 34.8689 150.088C35.2689 150.008 35.5969 149.892 35.8529 149.74C36.1169 149.596 36.3089 149.42 36.4289 149.212C36.5489 149.012 36.6089 148.792 36.6089 148.552ZM39.5609 136.108V137.212C39.5609 137.564 39.3489 137.78 38.9249 137.86L37.8209 138.064C37.9889 138.488 38.0729 138.952 38.0729 139.456C38.0729 140.064 37.9489 140.616 37.7009 141.112C37.4609 141.6 37.1249 142.016 36.6929 142.36C36.2609 142.704 35.7489 142.972 35.1569 143.164C34.5729 143.348 33.9409 143.44 33.2609 143.44C33.0209 143.44 32.7889 143.428 32.5649 143.404C32.3409 143.38 32.1209 143.348 31.9049 143.308C31.5209 143.54 31.3289 143.8 31.3289 144.088C31.3289 144.336 31.4409 144.52 31.6649 144.64C31.8969 144.752 32.2009 144.832 32.5769 144.88C32.9529 144.928 33.3809 144.96 33.8609 144.976C34.3409 144.984 34.8329 145.008 35.3369 145.048C35.8409 145.088 36.3329 145.16 36.8129 145.264C37.2929 145.36 37.7209 145.516 38.0969 145.732C38.4729 145.948 38.7729 146.244 38.9969 146.62C39.2289 146.988 39.3449 147.464 39.3449 148.048C39.3449 148.592 39.2089 149.12 38.9369 149.632C38.6729 150.144 38.2849 150.6 37.7729 151C37.2689 151.4 36.6449 151.72 35.9009 151.96C35.1649 152.208 34.3249 152.332 33.3809 152.332C32.4529 152.332 31.6449 152.24 30.9569 152.056C30.2689 151.88 29.6969 151.64 29.2409 151.336C28.7849 151.04 28.4449 150.696 28.2209 150.304C27.9969 149.912 27.8849 149.504 27.8849 149.08C27.8849 148.504 28.0569 148.024 28.4009 147.64C28.7529 147.248 29.2329 146.936 29.8409 146.704C29.5129 146.536 29.2529 146.312 29.0609 146.032C28.8689 145.752 28.7729 145.384 28.7729 144.928C28.7729 144.744 28.8049 144.556 28.8689 144.364C28.9409 144.164 29.0409 143.968 29.1689 143.776C29.3049 143.584 29.4729 143.404 29.6729 143.236C29.8729 143.06 30.1089 142.904 30.3809 142.768C29.7569 142.432 29.2649 141.984 28.9049 141.424C28.5529 140.864 28.3769 140.208 28.3769 139.456C28.3769 138.848 28.4969 138.3 28.7369 137.812C28.9849 137.316 29.3249 136.896 29.7569 136.552C30.1969 136.2 30.7129 135.932 31.3049 135.748C31.9049 135.564 32.5569 135.472 33.2609 135.472C33.7889 135.472 34.2849 135.528 34.7489 135.64C35.2129 135.744 35.6369 135.9 36.0209 136.108H39.5609ZM47.9446 142.744C47.0886 142.784 46.3686 142.86 45.7846 142.972C45.2006 143.076 44.7326 143.212 44.3806 143.38C44.0286 143.548 43.7766 143.744 43.6246 143.968C43.4726 144.192 43.3966 144.436 43.3966 144.7C43.3966 145.22 43.5486 145.592 43.8526 145.816C44.1646 146.04 44.5686 146.152 45.0646 146.152C45.6726 146.152 46.1966 146.044 46.6366 145.828C47.0846 145.604 47.5206 145.268 47.9446 144.82V142.744ZM41.1526 137.404C42.5686 136.108 44.2726 135.46 46.2646 135.46C46.9846 135.46 47.6286 135.58 48.1966 135.82C48.7646 136.052 49.2446 136.38 49.6366 136.804C50.0286 137.22 50.3246 137.72 50.5246 138.304C50.7326 138.888 50.8366 139.528 50.8366 140.224V148H49.4926C49.2126 148 48.9966 147.96 48.8446 147.88C48.6926 147.792 48.5726 147.62 48.4846 147.364L48.2206 146.476C47.9086 146.756 47.6046 147.004 47.3086 147.22C47.0126 147.428 46.7046 147.604 46.3846 147.748C46.0646 147.892 45.7206 148 45.3526 148.072C44.9926 148.152 44.5926 148.192 44.1526 148.192C43.6326 148.192 43.1526 148.124 42.7126 147.988C42.2726 147.844 41.8926 147.632 41.5726 147.352C41.2526 147.072 41.0046 146.724 40.8286 146.308C40.6526 145.892 40.5646 145.408 40.5646 144.856C40.5646 144.544 40.6166 144.236 40.7206 143.932C40.8246 143.62 40.9926 143.324 41.2246 143.044C41.4646 142.764 41.7726 142.5 42.1486 142.252C42.5246 142.004 42.9846 141.788 43.5286 141.604C44.0806 141.42 44.7206 141.272 45.4486 141.16C46.1766 141.04 47.0086 140.968 47.9446 140.944V140.224C47.9446 139.4 47.7686 138.792 47.4166 138.4C47.0646 138 46.5566 137.8 45.8926 137.8C45.4126 137.8 45.0126 137.856 44.6926 137.968C44.3806 138.08 44.1046 138.208 43.8646 138.352C43.6246 138.488 43.4046 138.612 43.2046 138.724C43.0126 138.836 42.7966 138.892 42.5566 138.892C42.3486 138.892 42.1726 138.84 42.0286 138.736C41.8846 138.624 41.7686 138.496 41.6806 138.352L41.1526 137.404ZM58.1281 141.544C58.4961 141.544 58.8161 141.496 59.0881 141.4C59.3601 141.296 59.5841 141.156 59.7601 140.98C59.9441 140.804 60.0801 140.592 60.1681 140.344C60.2641 140.096 60.3121 139.824 60.3121 139.528C60.3121 138.92 60.1281 138.44 59.7601 138.088C59.4001 137.728 58.8561 137.548 58.1281 137.548C57.4001 137.548 56.8521 137.728 56.4841 138.088C56.1241 138.44 55.9441 138.92 55.9441 139.528C55.9441 139.816 55.9881 140.084 56.0761 140.332C56.1721 140.58 56.3081 140.796 56.4841 140.98C56.6681 141.156 56.8961 141.296 57.1681 141.4C57.4481 141.496 57.7681 141.544 58.1281 141.544ZM61.4761 148.552C61.4761 148.312 61.4041 148.116 61.2601 147.964C61.1161 147.812 60.9201 147.696 60.6721 147.616C60.4241 147.528 60.1321 147.464 59.7961 147.424C59.4681 147.384 59.1161 147.356 58.7401 147.34C58.3721 147.316 57.9881 147.296 57.5881 147.28C57.1961 147.264 56.8121 147.232 56.4361 147.184C56.1081 147.368 55.8401 147.584 55.6321 147.832C55.4321 148.08 55.3321 148.368 55.3321 148.696C55.3321 148.912 55.3841 149.112 55.4881 149.296C55.6001 149.488 55.7721 149.652 56.0041 149.788C56.2441 149.924 56.5521 150.028 56.9281 150.1C57.3041 150.18 57.7641 150.22 58.3081 150.22C58.8601 150.22 59.3361 150.176 59.7361 150.088C60.1361 150.008 60.4641 149.892 60.7201 149.74C60.9841 149.596 61.1761 149.42 61.2961 149.212C61.4161 149.012 61.4761 148.792 61.4761 148.552ZM64.4281 136.108V137.212C64.4281 137.564 64.2161 137.78 63.7921 137.86L62.6881 138.064C62.8561 138.488 62.9401 138.952 62.9401 139.456C62.9401 140.064 62.8161 140.616 62.5681 141.112C62.3281 141.6 61.9921 142.016 61.5601 142.36C61.1281 142.704 60.6161 142.972 60.0241 143.164C59.4401 143.348 58.8081 143.44 58.1281 143.44C57.8881 143.44 57.6561 143.428 57.4321 143.404C57.2081 143.38 56.9881 143.348 56.7721 143.308C56.3881 143.54 56.1961 143.8 56.1961 144.088C56.1961 144.336 56.3081 144.52 56.5321 144.64C56.7641 144.752 57.0681 144.832 57.4441 144.88C57.8201 144.928 58.2481 144.96 58.7281 144.976C59.2081 144.984 59.7001 145.008 60.2041 145.048C60.7081 145.088 61.2001 145.16 61.6801 145.264C62.1601 145.36 62.5881 145.516 62.9641 145.732C63.3401 145.948 63.6401 146.244 63.8641 146.62C64.0961 146.988 64.2121 147.464 64.2121 148.048C64.2121 148.592 64.0761 149.12 63.8041 149.632C63.5401 150.144 63.1521 150.6 62.6401 151C62.1361 151.4 61.5121 151.72 60.7681 151.96C60.0321 152.208 59.1921 152.332 58.2481 152.332C57.3201 152.332 56.5121 152.24 55.8241 152.056C55.1361 151.88 54.5641 151.64 54.1081 151.336C53.6521 151.04 53.3121 150.696 53.0881 150.304C52.8641 149.912 52.7521 149.504 52.7521 149.08C52.7521 148.504 52.9241 148.024 53.2681 147.64C53.6201 147.248 54.1001 146.936 54.7081 146.704C54.3801 146.536 54.1201 146.312 53.9281 146.032C53.7361 145.752 53.6401 145.384 53.6401 144.928C53.6401 144.744 53.6721 144.556 53.7361 144.364C53.8081 144.164 53.9081 143.968 54.0361 143.776C54.1721 143.584 54.3401 143.404 54.5401 143.236C54.7401 143.06 54.9761 142.904 55.2481 142.768C54.6241 142.432 54.1321 141.984 53.7721 141.424C53.4201 140.864 53.2441 140.208 53.2441 139.456C53.2441 138.848 53.3641 138.3 53.6041 137.812C53.8521 137.316 54.1921 136.896 54.6241 136.552C55.0641 136.2 55.5801 135.932 56.1721 135.748C56.7721 135.564 57.4241 135.472 58.1281 135.472C58.6561 135.472 59.1521 135.528 59.6161 135.64C60.0801 135.744 60.5041 135.9 60.8881 136.108H64.4281ZM74.0288 140.428C74.0288 140.044 73.9728 139.684 73.8608 139.348C73.7568 139.004 73.5968 138.704 73.3808 138.448C73.1648 138.192 72.8888 137.992 72.5528 137.848C72.2248 137.696 71.8408 137.62 71.4008 137.62C70.5448 137.62 69.8688 137.864 69.3728 138.352C68.8848 138.84 68.5728 139.532 68.4368 140.428H74.0288ZM68.3768 142.216C68.4248 142.848 68.5368 143.396 68.7128 143.86C68.8888 144.316 69.1208 144.696 69.4088 145C69.6968 145.296 70.0368 145.52 70.4288 145.672C70.8288 145.816 71.2688 145.888 71.7488 145.888C72.2288 145.888 72.6408 145.832 72.9848 145.72C73.3368 145.608 73.6408 145.484 73.8968 145.348C74.1608 145.212 74.3888 145.088 74.5808 144.976C74.7808 144.864 74.9728 144.808 75.1568 144.808C75.4048 144.808 75.5888 144.9 75.7088 145.084L76.5608 146.164C76.2328 146.548 75.8648 146.872 75.4568 147.136C75.0488 147.392 74.6208 147.6 74.1728 147.76C73.7328 147.912 73.2808 148.02 72.8168 148.084C72.3608 148.148 71.9168 148.18 71.4848 148.18C70.6288 148.18 69.8328 148.04 69.0968 147.76C68.3608 147.472 67.7208 147.052 67.1768 146.5C66.6328 145.94 66.2048 145.252 65.8928 144.436C65.5808 143.612 65.4248 142.66 65.4248 141.58C65.4248 140.74 65.5608 139.952 65.8328 139.216C66.1048 138.472 66.4928 137.828 66.9968 137.284C67.5088 136.732 68.1288 136.296 68.8568 135.976C69.5928 135.656 70.4208 135.496 71.3408 135.496C72.1168 135.496 72.8328 135.62 73.4888 135.868C74.1448 136.116 74.7088 136.48 75.1808 136.96C75.6528 137.432 76.0208 138.016 76.2848 138.712C76.5568 139.4 76.6928 140.188 76.6928 141.076C76.6928 141.524 76.6448 141.828 76.5488 141.988C76.4528 142.14 76.2688 142.216 75.9968 142.216H68.3768ZM108.145 130.648L102.757 148H99.841L96.049 136.144C95.945 135.856 95.849 135.504 95.761 135.088C95.713 135.288 95.665 135.476 95.617 135.652C95.569 135.828 95.517 135.992 95.461 136.144L91.633 148H88.705L83.329 130.648H86.029C86.309 130.648 86.541 130.716 86.725 130.852C86.917 130.98 87.045 131.156 87.109 131.38L90.061 141.76C90.125 142.016 90.185 142.296 90.241 142.6C90.305 142.896 90.369 143.208 90.433 143.536C90.497 143.2 90.565 142.884 90.637 142.588C90.717 142.292 90.801 142.016 90.889 141.76L94.297 131.38C94.361 131.196 94.485 131.028 94.669 130.876C94.861 130.724 95.093 130.648 95.365 130.648H96.313C96.593 130.648 96.821 130.716 96.997 130.852C97.173 130.988 97.305 131.164 97.393 131.38L100.789 141.76C100.957 142.256 101.109 142.828 101.245 143.476C101.349 142.844 101.465 142.272 101.593 141.76L104.545 131.38C104.593 131.18 104.713 131.008 104.905 130.864C105.105 130.72 105.341 130.648 105.613 130.648H108.145ZM112.763 135.688V148H109.787V135.688H112.763ZM113.171 132.1C113.171 132.356 113.119 132.596 113.015 132.82C112.911 133.044 112.771 133.24 112.595 133.408C112.427 133.576 112.227 133.712 111.995 133.816C111.763 133.912 111.515 133.96 111.251 133.96C110.995 133.96 110.751 133.912 110.519 133.816C110.295 133.712 110.099 133.576 109.931 133.408C109.763 133.24 109.627 133.044 109.523 132.82C109.427 132.596 109.379 132.356 109.379 132.1C109.379 131.836 109.427 131.588 109.523 131.356C109.627 131.124 109.763 130.924 109.931 130.756C110.099 130.588 110.295 130.456 110.519 130.36C110.751 130.256 110.995 130.204 111.251 130.204C111.515 130.204 111.763 130.256 111.995 130.36C112.227 130.456 112.427 130.588 112.595 130.756C112.771 130.924 112.911 131.124 113.015 131.356C113.119 131.588 113.171 131.836 113.171 132.1ZM119.888 148.192C118.816 148.192 117.992 147.892 117.416 147.292C116.848 146.684 116.564 145.848 116.564 144.784V137.908H115.304C115.144 137.908 115.008 137.856 114.896 137.752C114.784 137.648 114.728 137.492 114.728 137.284V136.108L116.708 135.784L117.332 132.424C117.372 132.264 117.448 132.14 117.56 132.052C117.672 131.964 117.816 131.92 117.992 131.92H119.528V135.796H122.816V137.908H119.528V144.58C119.528 144.964 119.62 145.264 119.804 145.48C119.996 145.696 120.256 145.804 120.584 145.804C120.768 145.804 120.92 145.784 121.04 145.744C121.168 145.696 121.276 145.648 121.364 145.6C121.46 145.552 121.544 145.508 121.616 145.468C121.688 145.42 121.76 145.396 121.832 145.396C121.92 145.396 121.992 145.42 122.048 145.468C122.104 145.508 122.164 145.572 122.228 145.66L123.116 147.1C122.684 147.46 122.188 147.732 121.628 147.916C121.068 148.1 120.488 148.192 119.888 148.192ZM127.678 137.008C128.158 136.56 128.686 136.196 129.262 135.916C129.838 135.636 130.514 135.496 131.29 135.496C131.962 135.496 132.558 135.612 133.078 135.844C133.598 136.068 134.03 136.388 134.374 136.804C134.726 137.212 134.99 137.704 135.166 138.28C135.35 138.848 135.442 139.476 135.442 140.164V148H132.478V140.164C132.478 139.412 132.306 138.832 131.962 138.424C131.618 138.008 131.094 137.8 130.39 137.8C129.878 137.8 129.398 137.916 128.95 138.148C128.502 138.38 128.078 138.696 127.678 139.096V148H124.714V130.168H127.678V137.008ZM47.3574 174.396C47.9814 174.396 48.5374 174.292 49.0254 174.084C49.5214 173.876 49.9374 173.584 50.2734 173.208C50.6094 172.832 50.8654 172.376 51.0414 171.84C51.2254 171.304 51.3174 170.704 51.3174 170.04V159.648H54.5454V170.04C54.5454 171.072 54.3774 172.028 54.0414 172.908C53.7134 173.78 53.2374 174.536 52.6134 175.176C51.9974 175.808 51.2454 176.304 50.3574 176.664C49.4694 177.016 48.4694 177.192 47.3574 177.192C46.2374 177.192 45.2334 177.016 44.3454 176.664C43.4574 176.304 42.7014 175.808 42.0774 175.176C41.4614 174.536 40.9854 173.78 40.6494 172.908C40.3214 172.028 40.1574 171.072 40.1574 170.04V159.648H43.3854V170.028C43.3854 170.692 43.4734 171.292 43.6494 171.828C43.8334 172.364 44.0934 172.824 44.4294 173.208C44.7734 173.584 45.1894 173.876 45.6774 174.084C46.1734 174.292 46.7334 174.396 47.3574 174.396ZM64.7143 167.088C64.6343 167.216 64.5503 167.308 64.4623 167.364C64.3743 167.412 64.2623 167.436 64.1263 167.436C63.9823 167.436 63.8263 167.396 63.6583 167.316C63.4983 167.236 63.3103 167.148 63.0943 167.052C62.8783 166.948 62.6303 166.856 62.3503 166.776C62.0783 166.696 61.7543 166.656 61.3783 166.656C60.7943 166.656 60.3343 166.78 59.9983 167.028C59.6703 167.276 59.5063 167.6 59.5063 168C59.5063 168.264 59.5903 168.488 59.7583 168.672C59.9343 168.848 60.1623 169.004 60.4423 169.14C60.7303 169.276 61.0543 169.4 61.4143 169.512C61.7743 169.616 62.1383 169.732 62.5063 169.86C62.8823 169.988 63.2503 170.136 63.6103 170.304C63.9703 170.464 64.2903 170.672 64.5703 170.928C64.8583 171.176 65.0863 171.476 65.2543 171.828C65.4303 172.18 65.5183 172.604 65.5183 173.1C65.5183 173.692 65.4103 174.24 65.1943 174.744C64.9863 175.24 64.6743 175.672 64.2583 176.04C63.8423 176.4 63.3263 176.684 62.7103 176.892C62.1023 177.092 61.3983 177.192 60.5983 177.192C60.1743 177.192 59.7583 177.152 59.3503 177.072C58.9503 177 58.5623 176.896 58.1863 176.76C57.8183 176.624 57.4743 176.464 57.1543 176.28C56.8423 176.096 56.5663 175.896 56.3263 175.68L57.0103 174.552C57.0983 174.416 57.2023 174.312 57.3223 174.24C57.4423 174.168 57.5943 174.132 57.7783 174.132C57.9623 174.132 58.1343 174.184 58.2943 174.288C58.4623 174.392 58.6543 174.504 58.8703 174.624C59.0863 174.744 59.3383 174.856 59.6263 174.96C59.9223 175.064 60.2943 175.116 60.7423 175.116C61.0943 175.116 61.3943 175.076 61.6423 174.996C61.8983 174.908 62.1063 174.796 62.2663 174.66C62.4343 174.524 62.5543 174.368 62.6263 174.192C62.7063 174.008 62.7463 173.82 62.7463 173.628C62.7463 173.34 62.6583 173.104 62.4823 172.92C62.3143 172.736 62.0863 172.576 61.7983 172.44C61.5183 172.304 61.1943 172.184 60.8263 172.08C60.4663 171.968 60.0943 171.848 59.7103 171.72C59.3343 171.592 58.9623 171.444 58.5943 171.276C58.2343 171.1 57.9103 170.88 57.6223 170.616C57.3423 170.352 57.1143 170.028 56.9383 169.644C56.7703 169.26 56.6863 168.796 56.6863 168.252C56.6863 167.748 56.7863 167.268 56.9863 166.812C57.1863 166.356 57.4783 165.96 57.8623 165.624C58.2543 165.28 58.7383 165.008 59.3143 164.808C59.8983 164.6 60.5703 164.496 61.3303 164.496C62.1783 164.496 62.9503 164.636 63.6463 164.916C64.3423 165.196 64.9223 165.564 65.3863 166.02L64.7143 167.088ZM75.6812 169.428C75.6812 169.044 75.6252 168.684 75.5132 168.348C75.4092 168.004 75.2492 167.704 75.0332 167.448C74.8172 167.192 74.5412 166.992 74.2052 166.848C73.8772 166.696 73.4932 166.62 73.0532 166.62C72.1972 166.62 71.5212 166.864 71.0252 167.352C70.5372 167.84 70.2252 168.532 70.0892 169.428H75.6812ZM70.0292 171.216C70.0772 171.848 70.1892 172.396 70.3652 172.86C70.5412 173.316 70.7732 173.696 71.0612 174C71.3492 174.296 71.6892 174.52 72.0812 174.672C72.4812 174.816 72.9212 174.888 73.4012 174.888C73.8812 174.888 74.2932 174.832 74.6372 174.72C74.9892 174.608 75.2932 174.484 75.5492 174.348C75.8132 174.212 76.0412 174.088 76.2332 173.976C76.4332 173.864 76.6252 173.808 76.8092 173.808C77.0572 173.808 77.2412 173.9 77.3612 174.084L78.2132 175.164C77.8852 175.548 77.5172 175.872 77.1092 176.136C76.7012 176.392 76.2732 176.6 75.8252 176.76C75.3852 176.912 74.9332 177.02 74.4692 177.084C74.0132 177.148 73.5692 177.18 73.1372 177.18C72.2812 177.18 71.4852 177.04 70.7492 176.76C70.0132 176.472 69.3732 176.052 68.8292 175.5C68.2852 174.94 67.8572 174.252 67.5452 173.436C67.2332 172.612 67.0772 171.66 67.0772 170.58C67.0772 169.74 67.2132 168.952 67.4852 168.216C67.7572 167.472 68.1452 166.828 68.6492 166.284C69.1612 165.732 69.7812 165.296 70.5092 164.976C71.2452 164.656 72.0732 164.496 72.9932 164.496C73.7692 164.496 74.4852 164.62 75.1412 164.868C75.7972 165.116 76.3612 165.48 76.8332 165.96C77.3052 166.432 77.6732 167.016 77.9372 167.712C78.2092 168.4 78.3452 169.188 78.3452 170.076C78.3452 170.524 78.2972 170.828 78.2012 170.988C78.1052 171.14 77.9212 171.216 77.6492 171.216H70.0292ZM83.3655 166.824C83.7495 166.088 84.2055 165.512 84.7335 165.096C85.2615 164.672 85.8855 164.46 86.6055 164.46C87.1735 164.46 87.6295 164.584 87.9735 164.832L87.7815 167.052C87.7415 167.196 87.6815 167.3 87.6015 167.364C87.5295 167.42 87.4295 167.448 87.3015 167.448C87.1815 167.448 87.0015 167.428 86.7615 167.388C86.5295 167.348 86.3015 167.328 86.0775 167.328C85.7495 167.328 85.4575 167.376 85.2015 167.472C84.9455 167.568 84.7135 167.708 84.5055 167.892C84.3055 168.068 84.1255 168.284 83.9655 168.54C83.8135 168.796 83.6695 169.088 83.5335 169.416V177H80.5695V164.688H82.3095C82.6135 164.688 82.8255 164.744 82.9455 164.856C83.0655 164.96 83.1455 165.152 83.1855 165.432L83.3655 166.824ZM96.9877 167.088C96.9077 167.216 96.8237 167.308 96.7357 167.364C96.6477 167.412 96.5357 167.436 96.3997 167.436C96.2557 167.436 96.0997 167.396 95.9317 167.316C95.7717 167.236 95.5837 167.148 95.3677 167.052C95.1517 166.948 94.9037 166.856 94.6237 166.776C94.3517 166.696 94.0277 166.656 93.6517 166.656C93.0677 166.656 92.6077 166.78 92.2717 167.028C91.9437 167.276 91.7797 167.6 91.7797 168C91.7797 168.264 91.8637 168.488 92.0317 168.672C92.2077 168.848 92.4357 169.004 92.7157 169.14C93.0037 169.276 93.3277 169.4 93.6877 169.512C94.0477 169.616 94.4117 169.732 94.7797 169.86C95.1557 169.988 95.5237 170.136 95.8837 170.304C96.2437 170.464 96.5637 170.672 96.8437 170.928C97.1317 171.176 97.3597 171.476 97.5277 171.828C97.7037 172.18 97.7917 172.604 97.7917 173.1C97.7917 173.692 97.6837 174.24 97.4677 174.744C97.2597 175.24 96.9477 175.672 96.5317 176.04C96.1157 176.4 95.5997 176.684 94.9837 176.892C94.3757 177.092 93.6717 177.192 92.8717 177.192C92.4477 177.192 92.0317 177.152 91.6237 177.072C91.2237 177 90.8357 176.896 90.4597 176.76C90.0917 176.624 89.7477 176.464 89.4277 176.28C89.1157 176.096 88.8397 175.896 88.5997 175.68L89.2837 174.552C89.3717 174.416 89.4757 174.312 89.5957 174.24C89.7157 174.168 89.8677 174.132 90.0517 174.132C90.2357 174.132 90.4077 174.184 90.5677 174.288C90.7357 174.392 90.9277 174.504 91.1437 174.624C91.3597 174.744 91.6117 174.856 91.8997 174.96C92.1957 175.064 92.5677 175.116 93.0157 175.116C93.3677 175.116 93.6677 175.076 93.9157 174.996C94.1717 174.908 94.3797 174.796 94.5397 174.66C94.7077 174.524 94.8277 174.368 94.8997 174.192C94.9797 174.008 95.0197 173.82 95.0197 173.628C95.0197 173.34 94.9317 173.104 94.7557 172.92C94.5877 172.736 94.3597 172.576 94.0717 172.44C93.7917 172.304 93.4677 172.184 93.0997 172.08C92.7397 171.968 92.3677 171.848 91.9837 171.72C91.6077 171.592 91.2357 171.444 90.8677 171.276C90.5077 171.1 90.1837 170.88 89.8957 170.616C89.6157 170.352 89.3877 170.028 89.2117 169.644C89.0437 169.26 88.9597 168.796 88.9597 168.252C88.9597 167.748 89.0597 167.268 89.2597 166.812C89.4597 166.356 89.7517 165.96 90.1357 165.624C90.5277 165.28 91.0117 165.008 91.5877 164.808C92.1717 164.6 92.8437 164.496 93.6037 164.496C94.4517 164.496 95.2237 164.636 95.9197 164.916C96.6157 165.196 97.1957 165.564 97.6597 166.02L96.9877 167.088Z" fill="#FAFAFA"/>
<defs>
<filter id="filter0_d_1_8224" x="14" y="0" width="108" height="108" filterUnits="userSpaceOnUse" color-interpolation-filters="sRGB">
<feFlood flood-opacity="0" result="BackgroundImageFix"/>
<feColorMatrix in="SourceAlpha" type="matrix" values="0 0 0 0 0 0 0 0 0 0 0 0 0 0 0 0 0 0 127 0" result="hardAlpha"/>
<feOffset dy="4"/>
<feGaussianBlur stdDeviation="6"/>
<feComposite in2="hardAlpha" operator="out"/>
<feColorMatrix type="matrix" values="0 0 0 0 0 0 0 0 0 0 0 0 0 0 0 0 0 0 1 0"/>
<feBlend mode="normal" in2="BackgroundImageFix" result="effect1_dropShadow_1_8224"/>
<feBlend mode="normal" in="SourceGraphic" in2="effect1_dropShadow_1_8224" result="shape"/>
</filter>
<filter id="filter1_dd_1_8224" x="29" y="9" width="78" height="82" filterUnits="userSpaceOnUse" color-interpolation-filters="sRGB">
<feFlood flood-opacity="0" result="BackgroundImageFix"/>
<feColorMatrix in="SourceAlpha" type="matrix" values="0 0 0 0 0 0 0 0 0 0 0 0 0 0 0 0 0 0 127 0" result="hardAlpha"/>
<feOffset dy="2"/>
<feGaussianBlur stdDeviation="2"/>
<feComposite in2="hardAlpha" operator="out"/>
<feColorMatrix type="matrix" values="0 0 0 0 0 0 0 0 0 0 0 0 0 0 0 0 0 0 1 0"/>
<feBlend mode="normal" in2="BackgroundImageFix" result="effect1_dropShadow_1_8224"/>
<feColorMatrix in="SourceAlpha" type="matrix" values="0 0 0 0 0 0 0 0 0 0 0 0 0 0 0 0 0 0 127 0" result="hardAlpha"/>
<feOffset dy="-2"/>
<feGaussianBlur stdDeviation="2"/>
<feComposite in2="hardAlpha" operator="out"/>
<feColorMatrix type="matrix" values="0 0 0 0 0 0 0 0 0 0 0 0 0 0 0 0 0 0 1 0"/>
<feBlend mode="normal" in2="effect1_dropShadow_1_8224" result="effect2_dropShadow_1_8224"/>
<feBlend mode="normal" in="SourceGraphic" in2="effect2_dropShadow_1_8224" result="shape"/>
</filter>
</defs>
</svg>
