<svg width="312" height="159" viewBox="0 0 312 159" fill="none" xmlns="http://www.w3.org/2000/svg">
<g filter="url(#filter0_d_1_8110)">
<circle cx="54" cy="50" r="42" fill="#262626"/>
</g>
<g filter="url(#filter1_dd_1_8110)">
<circle cx="54" cy="50" r="35" fill="#262626"/>
</g>
<g clip-path="url(#clip0_1_8110)">
<path d="M46.7872 60.305C46.9097 60.3756 47.0335 60.4362 47.1572 60.4875L42.2766 65.37C42.0978 65.5468 41.8654 65.6181 41.6585 65.5575C41.4497 65.4987 41.3272 65.3256 41.3322 65.0968L41.3804 62.6806C41.386 62.3968 41.1835 62.1931 40.9004 62.1987L38.4816 62.2481C38.2547 62.2518 38.081 62.1293 38.021 61.9218C37.961 61.7131 38.0316 61.4806 38.2085 61.3037L43.171 56.3412C43.251 56.3643 43.3322 56.3856 43.4153 56.4012L44.5953 56.6406C44.9216 56.7062 45.1466 56.9331 45.2085 57.2587L45.4266 58.3856C45.586 59.21 46.0628 59.8812 46.7872 60.305ZM69.7904 61.3043L64.8154 56.3293C64.7354 56.3506 64.656 56.37 64.5729 56.3862L63.446 56.6043C63.1197 56.6681 62.8935 56.8912 62.8279 57.2175L62.5885 58.3993C62.4222 59.2212 61.9404 59.8893 61.2116 60.3056C61.0891 60.375 60.9654 60.435 60.8397 60.4862L65.7241 65.3706C65.901 65.5475 66.1354 65.6187 66.3422 65.5581C66.5497 65.4993 66.6735 65.3262 66.6685 65.0975L66.6191 62.6812C66.6135 62.3975 66.8172 62.1937 67.101 62.1993L69.5172 62.2487C69.746 62.2525 69.9191 62.13 69.9797 61.9225C70.0404 61.7131 69.9672 61.4812 69.7904 61.3043ZM53.9997 43.6162C53.4485 43.6162 52.951 43.8393 52.5897 44.2006C52.2285 44.5618 52.0054 45.0618 52.0054 45.6125C52.0054 46.1637 52.2285 46.6612 52.5897 47.0225C52.951 47.3837 53.4491 47.6068 53.9997 47.6068C54.551 47.6068 55.0504 47.3837 55.4116 47.0225C55.771 46.6612 55.996 46.1631 55.996 45.6125C55.996 45.0612 55.771 44.5618 55.4116 44.2006C55.0504 43.8393 54.5504 43.6162 53.9997 43.6162ZM54.981 49.7493H53.0197C52.1891 49.7493 51.4341 50.0893 50.8866 50.6368C50.3391 51.1843 49.9991 51.9406 49.9991 52.77V53.4287C51.1278 54.235 52.5079 54.7081 53.9997 54.7081C55.4916 54.7081 56.8735 54.235 58.0016 53.4287V52.77C58.0016 51.9406 57.6616 51.1843 57.1141 50.6368C56.5666 50.0893 55.8122 49.7493 54.981 49.7493ZM60.8947 47.8131C60.8947 49.64 60.186 51.3 59.0272 52.5331C58.9672 51.5125 58.526 50.5893 57.8435 49.9075C57.1085 49.1737 56.0947 48.7187 54.9804 48.7187H53.0191C51.9029 48.7187 50.8897 49.1743 50.156 49.9075C49.4741 50.5893 49.0329 51.5125 48.9722 52.5331C47.8135 51.3 47.1028 49.64 47.1028 47.8131C47.1028 45.9087 47.8753 44.185 49.1222 42.9375C50.371 41.69 52.0954 40.9181 53.9979 40.9181C55.9022 40.9181 57.626 41.6906 58.8754 42.9375C60.1241 44.1843 60.8947 45.9087 60.8947 47.8131ZM57.0272 45.6125C57.0272 44.7762 56.6891 44.02 56.1416 43.4706C55.5922 42.9231 54.836 42.585 53.9997 42.585C53.1635 42.585 52.4072 42.9231 51.8597 43.4706C51.3122 44.02 50.9741 44.7762 50.9741 45.6125C50.9741 46.4468 51.3122 47.205 51.8597 47.7525C52.4072 48.3 53.1635 48.6381 53.9997 48.6381C54.836 48.6381 55.5922 48.3 56.1416 47.7525C56.6891 47.2056 57.0272 46.4468 57.0272 45.6125ZM60.6997 59.4087C60.2285 59.6781 59.7185 59.7256 59.206 59.5487L58.1216 59.175C57.411 58.9287 56.6654 59.1256 56.1691 59.6887L55.3716 60.5925C55.0122 60.9981 54.546 61.2075 54.0041 61.2056C53.4622 61.2037 52.996 60.9893 52.6397 60.58L51.8885 59.7137C51.396 59.1468 50.6516 58.9431 49.9397 59.1825L48.7985 59.5668C48.2847 59.7387 47.7747 59.6875 47.3066 59.4125C46.8391 59.1393 46.541 58.7231 46.4385 58.19L46.2222 57.0625C46.0803 56.3256 45.5366 55.7781 44.8016 55.6293L43.6197 55.39C43.0885 55.2818 42.6735 54.9825 42.4041 54.5131C42.1347 54.0418 42.0885 53.5318 42.2641 53.0193L42.6397 51.935C42.8841 51.2243 42.6878 50.4787 42.126 49.9825L41.2222 49.185C40.8147 48.8256 40.606 48.3575 40.6072 47.8156C40.611 47.275 40.8235 46.8093 41.2329 46.4531L42.101 45.7018C42.6679 45.2093 42.8697 44.465 42.631 43.7531L42.2485 42.6118C42.0747 42.0981 42.1279 41.5881 42.401 41.12C42.6741 40.6506 43.0922 40.3543 43.6235 40.2518L44.7503 40.0337C45.4872 39.8918 46.0366 39.3481 46.1854 38.6131L46.4228 37.4312C46.531 36.9 46.8304 36.485 47.3016 36.2156C47.7729 35.9462 48.2816 35.8987 48.7954 36.0756L49.8797 36.4512C50.5885 36.6956 51.3341 36.4993 51.8322 35.9356L52.6297 35.0337C52.9879 34.6262 53.4553 34.4175 53.9972 34.4187C54.5391 34.4225 55.0054 34.635 55.3597 35.0443L56.1129 35.9125C56.6035 36.4793 57.3497 36.6812 58.0597 36.4425L59.2022 36.06C59.716 35.8862 60.226 35.9393 60.6941 36.2125C61.1616 36.4856 61.4578 36.9037 61.5604 37.435L61.7785 38.5618C61.9222 39.2987 62.4641 39.8462 63.201 39.995L64.381 40.2343C64.9122 40.3425 65.3291 40.6418 65.5966 41.1131C65.866 41.5825 65.9135 42.0931 65.7366 42.605L65.3629 43.6912C65.1166 44.4 65.3135 45.1456 65.8766 45.6437L66.7804 46.4412C67.186 46.7993 67.3966 47.2668 67.3935 47.8087C67.3916 48.3506 67.1772 48.8168 66.7679 49.1712L65.9016 49.9225C65.3347 50.415 65.131 51.1593 65.3704 51.8712L65.7547 53.0137C65.9266 53.5275 65.8754 54.0362 65.6022 54.5056C65.3291 54.9731 64.911 55.2693 64.3779 55.3718L63.251 55.59C62.5141 55.7337 61.9666 56.2756 61.8179 57.0125L61.5785 58.1925C61.4704 58.7243 61.1697 59.1393 60.6997 59.4087ZM61.9279 47.8131C61.9279 45.6231 61.0403 43.6425 59.6054 42.2075C58.1722 40.7725 56.1897 39.885 53.9997 39.885C51.8116 39.885 49.8291 40.7725 48.3941 42.2075C46.9591 43.6425 46.0735 45.6231 46.0735 47.8131C46.0735 50.0031 46.9591 51.9837 48.3941 53.4187C49.8291 54.8537 51.8116 55.7412 53.9997 55.7412C56.1897 55.7412 58.1722 54.8537 59.6054 53.4187C61.0403 51.9837 61.9279 50.0025 61.9279 47.8131Z" fill="url(#paint0_linear_1_8110)"/>
</g>
<path d="M18.31 116.81C18.8033 116.81 19.2333 116.75 19.6 116.63C19.9667 116.503 20.27 116.327 20.51 116.1C20.7567 115.867 20.94 115.587 21.06 115.26C21.18 114.927 21.24 114.557 21.24 114.15C21.24 113.763 21.18 113.413 21.06 113.1C20.94 112.787 20.76 112.52 20.52 112.3C20.28 112.08 19.9767 111.913 19.61 111.8C19.2433 111.68 18.81 111.62 18.31 111.62H16.3V116.81H18.31ZM18.31 109.54C19.2767 109.54 20.1133 109.653 20.82 109.88C21.5267 110.107 22.11 110.423 22.57 110.83C23.03 111.237 23.37 111.723 23.59 112.29C23.8167 112.857 23.93 113.477 23.93 114.15C23.93 114.85 23.8133 115.493 23.58 116.08C23.3467 116.66 22.9967 117.16 22.53 117.58C22.0633 118 21.4767 118.327 20.77 118.56C20.07 118.793 19.25 118.91 18.31 118.91H16.3V124H13.61V109.54H18.31ZM31.7441 117.69C31.7441 117.37 31.6974 117.07 31.6041 116.79C31.5174 116.503 31.3841 116.253 31.2041 116.04C31.0241 115.827 30.7941 115.66 30.5141 115.54C30.2407 115.413 29.9207 115.35 29.5541 115.35C28.8407 115.35 28.2774 115.553 27.8641 115.96C27.4574 116.367 27.1974 116.943 27.0841 117.69H31.7441ZM27.0341 119.18C27.0741 119.707 27.1674 120.163 27.3141 120.55C27.4607 120.93 27.6541 121.247 27.8941 121.5C28.1341 121.747 28.4174 121.933 28.7441 122.06C29.0774 122.18 29.4441 122.24 29.8441 122.24C30.2441 122.24 30.5874 122.193 30.8741 122.1C31.1674 122.007 31.4207 121.903 31.6341 121.79C31.8541 121.677 32.0441 121.573 32.2041 121.48C32.3707 121.387 32.5307 121.34 32.6841 121.34C32.8907 121.34 33.0441 121.417 33.1441 121.57L33.8541 122.47C33.5807 122.79 33.2741 123.06 32.9341 123.28C32.5941 123.493 32.2374 123.667 31.8641 123.8C31.4974 123.927 31.1207 124.017 30.7341 124.07C30.3541 124.123 29.9841 124.15 29.6241 124.15C28.9107 124.15 28.2474 124.033 27.6341 123.8C27.0207 123.56 26.4874 123.21 26.0341 122.75C25.5807 122.283 25.2241 121.71 24.9641 121.03C24.7041 120.343 24.5741 119.55 24.5741 118.65C24.5741 117.95 24.6874 117.293 24.9141 116.68C25.1407 116.06 25.4641 115.523 25.8841 115.07C26.3107 114.61 26.8274 114.247 27.4341 113.98C28.0474 113.713 28.7374 113.58 29.5041 113.58C30.1507 113.58 30.7474 113.683 31.2941 113.89C31.8407 114.097 32.3107 114.4 32.7041 114.8C33.0974 115.193 33.4041 115.68 33.6241 116.26C33.8507 116.833 33.9641 117.49 33.9641 118.23C33.9641 118.603 33.9241 118.857 33.8441 118.99C33.7641 119.117 33.6107 119.18 33.3841 119.18H27.0341ZM38.1477 115.52C38.4677 114.907 38.8477 114.427 39.2877 114.08C39.7277 113.727 40.2477 113.55 40.8477 113.55C41.321 113.55 41.701 113.653 41.9877 113.86L41.8277 115.71C41.7943 115.83 41.7443 115.917 41.6777 115.97C41.6177 116.017 41.5343 116.04 41.4277 116.04C41.3277 116.04 41.1777 116.023 40.9777 115.99C40.7843 115.957 40.5943 115.94 40.4077 115.94C40.1343 115.94 39.891 115.98 39.6777 116.06C39.4643 116.14 39.271 116.257 39.0977 116.41C38.931 116.557 38.781 116.737 38.6477 116.95C38.521 117.163 38.401 117.407 38.2877 117.68V124H35.8177V113.74H37.2677C37.521 113.74 37.6977 113.787 37.7977 113.88C37.8977 113.967 37.9643 114.127 37.9977 114.36L38.1477 115.52ZM49.4995 115.74C49.4329 115.847 49.3629 115.923 49.2895 115.97C49.2162 116.01 49.1229 116.03 49.0095 116.03C48.8895 116.03 48.7595 115.997 48.6195 115.93C48.4862 115.863 48.3295 115.79 48.1495 115.71C47.9695 115.623 47.7629 115.547 47.5295 115.48C47.3029 115.413 47.0329 115.38 46.7195 115.38C46.2329 115.38 45.8495 115.483 45.5695 115.69C45.2962 115.897 45.1595 116.167 45.1595 116.5C45.1595 116.72 45.2295 116.907 45.3695 117.06C45.5162 117.207 45.7062 117.337 45.9395 117.45C46.1795 117.563 46.4495 117.667 46.7495 117.76C47.0495 117.847 47.3529 117.943 47.6595 118.05C47.9729 118.157 48.2795 118.28 48.5795 118.42C48.8795 118.553 49.1462 118.727 49.3795 118.94C49.6195 119.147 49.8095 119.397 49.9495 119.69C50.0962 119.983 50.1695 120.337 50.1695 120.75C50.1695 121.243 50.0795 121.7 49.8995 122.12C49.7262 122.533 49.4662 122.893 49.1195 123.2C48.7729 123.5 48.3429 123.737 47.8295 123.91C47.3229 124.077 46.7362 124.16 46.0695 124.16C45.7162 124.16 45.3695 124.127 45.0295 124.06C44.6962 124 44.3729 123.913 44.0595 123.8C43.7529 123.687 43.4662 123.553 43.1995 123.4C42.9395 123.247 42.7095 123.08 42.5095 122.9L43.0795 121.96C43.1529 121.847 43.2395 121.76 43.3395 121.7C43.4395 121.64 43.5662 121.61 43.7195 121.61C43.8729 121.61 44.0162 121.653 44.1495 121.74C44.2895 121.827 44.4495 121.92 44.6295 122.02C44.8095 122.12 45.0195 122.213 45.2595 122.3C45.5062 122.387 45.8162 122.43 46.1895 122.43C46.4829 122.43 46.7329 122.397 46.9395 122.33C47.1529 122.257 47.3262 122.163 47.4595 122.05C47.5995 121.937 47.6995 121.807 47.7595 121.66C47.8262 121.507 47.8595 121.35 47.8595 121.19C47.8595 120.95 47.7862 120.753 47.6395 120.6C47.4995 120.447 47.3095 120.313 47.0695 120.2C46.8362 120.087 46.5662 119.987 46.2595 119.9C45.9595 119.807 45.6495 119.707 45.3295 119.6C45.0162 119.493 44.7062 119.37 44.3995 119.23C44.0995 119.083 43.8295 118.9 43.5895 118.68C43.3562 118.46 43.1662 118.19 43.0195 117.87C42.8795 117.55 42.8095 117.163 42.8095 116.71C42.8095 116.29 42.8929 115.89 43.0595 115.51C43.2262 115.13 43.4695 114.8 43.7895 114.52C44.1162 114.233 44.5195 114.007 44.9995 113.84C45.4862 113.667 46.0462 113.58 46.6795 113.58C47.3862 113.58 48.0295 113.697 48.6095 113.93C49.1895 114.163 49.6729 114.47 50.0595 114.85L49.4995 115.74ZM56.5686 113.58C57.3286 113.58 58.0186 113.703 58.6386 113.95C59.2653 114.197 59.7986 114.547 60.2386 115C60.6853 115.453 61.0286 116.007 61.2686 116.66C61.5086 117.313 61.6286 118.043 61.6286 118.85C61.6286 119.663 61.5086 120.397 61.2686 121.05C61.0286 121.703 60.6853 122.26 60.2386 122.72C59.7986 123.18 59.2653 123.533 58.6386 123.78C58.0186 124.027 57.3286 124.15 56.5686 124.15C55.8019 124.15 55.1053 124.027 54.4786 123.78C53.8519 123.533 53.3153 123.18 52.8686 122.72C52.4286 122.26 52.0853 121.703 51.8386 121.05C51.5986 120.397 51.4786 119.663 51.4786 118.85C51.4786 118.043 51.5986 117.313 51.8386 116.66C52.0853 116.007 52.4286 115.453 52.8686 115C53.3153 114.547 53.8519 114.197 54.4786 113.95C55.1053 113.703 55.8019 113.58 56.5686 113.58ZM56.5686 122.25C57.4219 122.25 58.0519 121.963 58.4586 121.39C58.8719 120.817 59.0786 119.977 59.0786 118.87C59.0786 117.763 58.8719 116.92 58.4586 116.34C58.0519 115.76 57.4219 115.47 56.5686 115.47C55.7019 115.47 55.0586 115.763 54.6386 116.35C54.2253 116.93 54.0186 117.77 54.0186 118.87C54.0186 119.97 54.2253 120.81 54.6386 121.39C55.0586 121.963 55.7019 122.25 56.5686 122.25ZM65.823 115C66.0296 114.793 66.2463 114.603 66.473 114.43C66.7063 114.25 66.9496 114.1 67.203 113.98C67.463 113.853 67.7396 113.757 68.033 113.69C68.3263 113.617 68.6463 113.58 68.993 113.58C69.553 113.58 70.0496 113.677 70.483 113.87C70.9163 114.057 71.2763 114.323 71.563 114.67C71.8563 115.01 72.0763 115.42 72.223 115.9C72.3763 116.373 72.453 116.897 72.453 117.47V124H69.983V117.47C69.983 116.843 69.8396 116.36 69.553 116.02C69.2663 115.673 68.8296 115.5 68.243 115.5C67.8163 115.5 67.4163 115.597 67.043 115.79C66.6696 115.983 66.3163 116.247 65.983 116.58V124H63.513V113.74H65.023C65.343 113.74 65.553 113.89 65.653 114.19L65.823 115ZM80.222 119.62C79.5087 119.653 78.9087 119.717 78.422 119.81C77.9354 119.897 77.5454 120.01 77.252 120.15C76.9587 120.29 76.7487 120.453 76.622 120.64C76.4954 120.827 76.432 121.03 76.432 121.25C76.432 121.683 76.5587 121.993 76.812 122.18C77.072 122.367 77.4087 122.46 77.822 122.46C78.3287 122.46 78.7654 122.37 79.132 122.19C79.5054 122.003 79.8687 121.723 80.222 121.35V119.62ZM74.562 115.17C75.742 114.09 77.162 113.55 78.822 113.55C79.422 113.55 79.9587 113.65 80.432 113.85C80.9054 114.043 81.3054 114.317 81.632 114.67C81.9587 115.017 82.2054 115.433 82.372 115.92C82.5454 116.407 82.632 116.94 82.632 117.52V124H81.512C81.2787 124 81.0987 123.967 80.972 123.9C80.8454 123.827 80.7454 123.683 80.672 123.47L80.452 122.73C80.192 122.963 79.9387 123.17 79.692 123.35C79.4454 123.523 79.1887 123.67 78.922 123.79C78.6554 123.91 78.3687 124 78.062 124.06C77.762 124.127 77.4287 124.16 77.062 124.16C76.6287 124.16 76.2287 124.103 75.862 123.99C75.4954 123.87 75.1787 123.693 74.912 123.46C74.6454 123.227 74.4387 122.937 74.292 122.59C74.1454 122.243 74.072 121.84 74.072 121.38C74.072 121.12 74.1154 120.863 74.202 120.61C74.2887 120.35 74.4287 120.103 74.622 119.87C74.822 119.637 75.0787 119.417 75.392 119.21C75.7054 119.003 76.0887 118.823 76.542 118.67C77.002 118.517 77.5354 118.393 78.142 118.3C78.7487 118.2 79.442 118.14 80.222 118.12V117.52C80.222 116.833 80.0754 116.327 79.782 116C79.4887 115.667 79.0654 115.5 78.512 115.5C78.112 115.5 77.7787 115.547 77.512 115.64C77.252 115.733 77.022 115.84 76.822 115.96C76.622 116.073 76.4387 116.177 76.272 116.27C76.112 116.363 75.932 116.41 75.732 116.41C75.5587 116.41 75.412 116.367 75.292 116.28C75.172 116.187 75.0754 116.08 75.002 115.96L74.562 115.17ZM87.4583 109.14V124H84.9883V109.14H87.4583ZM100.583 121.9C101.083 121.9 101.503 121.84 101.843 121.72C102.183 121.6 102.453 121.44 102.653 121.24C102.859 121.04 103.006 120.807 103.093 120.54C103.186 120.273 103.233 119.99 103.233 119.69C103.233 119.377 103.183 119.097 103.083 118.85C102.983 118.597 102.826 118.383 102.613 118.21C102.399 118.03 102.123 117.893 101.783 117.8C101.449 117.707 101.046 117.66 100.573 117.66H97.8625V121.9H100.583ZM97.8625 111.62V115.8H100.003C100.923 115.8 101.616 115.633 102.083 115.3C102.556 114.967 102.793 114.437 102.793 113.71C102.793 112.957 102.579 112.42 102.153 112.1C101.726 111.78 101.059 111.62 100.153 111.62H97.8625ZM100.153 109.54C101.099 109.54 101.909 109.63 102.583 109.81C103.256 109.99 103.806 110.247 104.233 110.58C104.666 110.913 104.983 111.317 105.183 111.79C105.383 112.263 105.483 112.797 105.483 113.39C105.483 113.73 105.433 114.057 105.333 114.37C105.233 114.677 105.076 114.967 104.862 115.24C104.656 115.507 104.389 115.75 104.063 115.97C103.743 116.19 103.359 116.377 102.913 116.53C104.899 116.977 105.893 118.05 105.893 119.75C105.893 120.363 105.776 120.93 105.543 121.45C105.309 121.97 104.969 122.42 104.523 122.8C104.076 123.173 103.526 123.467 102.873 123.68C102.219 123.893 101.473 124 100.633 124H95.1725V109.54H100.153ZM110.081 115.52C110.401 114.907 110.781 114.427 111.221 114.08C111.661 113.727 112.181 113.55 112.781 113.55C113.255 113.55 113.635 113.653 113.921 113.86L113.761 115.71C113.728 115.83 113.678 115.917 113.611 115.97C113.551 116.017 113.468 116.04 113.361 116.04C113.261 116.04 113.111 116.023 112.911 115.99C112.718 115.957 112.528 115.94 112.341 115.94C112.068 115.94 111.825 115.98 111.611 116.06C111.398 116.14 111.205 116.257 111.031 116.41C110.865 116.557 110.715 116.737 110.581 116.95C110.455 117.163 110.335 117.407 110.221 117.68V124H107.751V113.74H109.201C109.455 113.74 109.631 113.787 109.731 113.88C109.831 113.967 109.898 114.127 109.931 114.36L110.081 115.52ZM120.495 119.62C119.782 119.653 119.182 119.717 118.695 119.81C118.209 119.897 117.819 120.01 117.525 120.15C117.232 120.29 117.022 120.453 116.895 120.64C116.769 120.827 116.705 121.03 116.705 121.25C116.705 121.683 116.832 121.993 117.085 122.18C117.345 122.367 117.682 122.46 118.095 122.46C118.602 122.46 119.039 122.37 119.405 122.19C119.779 122.003 120.142 121.723 120.495 121.35V119.62ZM114.835 115.17C116.015 114.09 117.435 113.55 119.095 113.55C119.695 113.55 120.232 113.65 120.705 113.85C121.179 114.043 121.579 114.317 121.905 114.67C122.232 115.017 122.479 115.433 122.645 115.92C122.819 116.407 122.905 116.94 122.905 117.52V124H121.785C121.552 124 121.372 123.967 121.245 123.9C121.119 123.827 121.019 123.683 120.945 123.47L120.725 122.73C120.465 122.963 120.212 123.17 119.965 123.35C119.719 123.523 119.462 123.67 119.195 123.79C118.929 123.91 118.642 124 118.335 124.06C118.035 124.127 117.702 124.16 117.335 124.16C116.902 124.16 116.502 124.103 116.135 123.99C115.769 123.87 115.452 123.693 115.185 123.46C114.919 123.227 114.712 122.937 114.565 122.59C114.419 122.243 114.345 121.84 114.345 121.38C114.345 121.12 114.389 120.863 114.475 120.61C114.562 120.35 114.702 120.103 114.895 119.87C115.095 119.637 115.352 119.417 115.665 119.21C115.979 119.003 116.362 118.823 116.815 118.67C117.275 118.517 117.809 118.393 118.415 118.3C119.022 118.2 119.715 118.14 120.495 118.12V117.52C120.495 116.833 120.349 116.327 120.055 116C119.762 115.667 119.339 115.5 118.785 115.5C118.385 115.5 118.052 115.547 117.785 115.64C117.525 115.733 117.295 115.84 117.095 115.96C116.895 116.073 116.712 116.177 116.545 116.27C116.385 116.363 116.205 116.41 116.005 116.41C115.832 116.41 115.685 116.367 115.565 116.28C115.445 116.187 115.349 116.08 115.275 115.96L114.835 115.17ZM127.542 115C127.748 114.793 127.965 114.603 128.192 114.43C128.425 114.25 128.668 114.1 128.922 113.98C129.182 113.853 129.458 113.757 129.752 113.69C130.045 113.617 130.365 113.58 130.712 113.58C131.272 113.58 131.768 113.677 132.202 113.87C132.635 114.057 132.995 114.323 133.282 114.67C133.575 115.01 133.795 115.42 133.942 115.9C134.095 116.373 134.172 116.897 134.172 117.47V124H131.702V117.47C131.702 116.843 131.558 116.36 131.272 116.02C130.985 115.673 130.548 115.5 129.962 115.5C129.535 115.5 129.135 115.597 128.762 115.79C128.388 115.983 128.035 116.247 127.702 116.58V124H125.232V113.74H126.742C127.062 113.74 127.272 113.89 127.372 114.19L127.542 115ZM142.961 116.36C142.681 116.02 142.374 115.78 142.041 115.64C141.714 115.5 141.361 115.43 140.981 115.43C140.607 115.43 140.271 115.5 139.971 115.64C139.671 115.78 139.414 115.993 139.201 116.28C138.987 116.56 138.824 116.92 138.711 117.36C138.597 117.793 138.541 118.307 138.541 118.9C138.541 119.5 138.587 120.01 138.681 120.43C138.781 120.843 138.921 121.183 139.101 121.45C139.281 121.71 139.501 121.9 139.761 122.02C140.021 122.133 140.311 122.19 140.631 122.19C141.144 122.19 141.581 122.083 141.941 121.87C142.301 121.657 142.641 121.353 142.961 120.96V116.36ZM145.431 109.14V124H143.921C143.594 124 143.387 123.85 143.301 123.55L143.091 122.56C142.677 123.033 142.201 123.417 141.661 123.71C141.127 124.003 140.504 124.15 139.791 124.15C139.231 124.15 138.717 124.033 138.251 123.8C137.784 123.567 137.381 123.23 137.041 122.79C136.707 122.343 136.447 121.793 136.261 121.14C136.081 120.487 135.991 119.74 135.991 118.9C135.991 118.14 136.094 117.433 136.301 116.78C136.507 116.127 136.804 115.56 137.191 115.08C137.577 114.6 138.041 114.227 138.581 113.96C139.121 113.687 139.727 113.55 140.401 113.55C140.974 113.55 141.464 113.64 141.871 113.82C142.277 114 142.641 114.243 142.961 114.55V109.14H145.431Z" fill="#FAFAFA"/>
<path d="M22.752 144.536V156H21.2V150.784H15.016V156H13.464V144.536H15.016V149.648H21.2V144.536H22.752ZM30.5208 151.064C30.5208 150.733 30.4728 150.432 30.3768 150.16C30.2861 149.883 30.1501 149.645 29.9688 149.448C29.7928 149.245 29.5768 149.091 29.3208 148.984C29.0648 148.872 28.7741 148.816 28.4488 148.816C27.7661 148.816 27.2248 149.016 26.8248 149.416C26.4301 149.811 26.1848 150.36 26.0888 151.064H30.5208ZM31.6728 154.864C31.4968 155.077 31.2861 155.264 31.0408 155.424C30.7954 155.579 30.5314 155.707 30.2488 155.808C29.9714 155.909 29.6834 155.984 29.3848 156.032C29.0861 156.085 28.7901 156.112 28.4968 156.112C27.9368 156.112 27.4194 156.019 26.9448 155.832C26.4754 155.64 26.0674 155.363 25.7208 155C25.3794 154.632 25.1128 154.179 24.9208 153.64C24.7288 153.101 24.6328 152.483 24.6328 151.784C24.6328 151.219 24.7181 150.691 24.8888 150.2C25.0648 149.709 25.3154 149.285 25.6408 148.928C25.9661 148.565 26.3634 148.283 26.8328 148.08C27.3021 147.872 27.8301 147.768 28.4168 147.768C28.9021 147.768 29.3501 147.851 29.7608 148.016C30.1768 148.176 30.5341 148.411 30.8328 148.72C31.1368 149.024 31.3741 149.403 31.5448 149.856C31.7154 150.304 31.8008 150.816 31.8008 151.392C31.8008 151.616 31.7768 151.765 31.7288 151.84C31.6808 151.915 31.5901 151.952 31.4568 151.952H26.0408C26.0568 152.464 26.1261 152.909 26.2488 153.288C26.3768 153.667 26.5528 153.984 26.7768 154.24C27.0008 154.491 27.2674 154.68 27.5768 154.808C27.8861 154.931 28.2328 154.992 28.6168 154.992C28.9741 154.992 29.2808 154.952 29.5368 154.872C29.7981 154.787 30.0221 154.696 30.2088 154.6C30.3954 154.504 30.5501 154.416 30.6728 154.336C30.8008 154.251 30.9101 154.208 31.0008 154.208C31.1181 154.208 31.2088 154.253 31.2728 154.344L31.6728 154.864ZM35.0219 144.216V156H33.5979V144.216H35.0219ZM38.7631 154.048C39.0245 154.4 39.3098 154.648 39.6191 154.792C39.9285 154.936 40.2751 155.008 40.6591 155.008C41.4165 155.008 41.9978 154.739 42.4031 154.2C42.8085 153.661 43.0111 152.893 43.0111 151.896C43.0111 151.368 42.9631 150.915 42.8671 150.536C42.7765 150.157 42.6431 149.848 42.4671 149.608C42.2911 149.363 42.0751 149.184 41.8191 149.072C41.5631 148.96 41.2725 148.904 40.9471 148.904C40.4831 148.904 40.0751 149.011 39.7231 149.224C39.3765 149.437 39.0565 149.739 38.7631 150.128V154.048ZM38.6911 149.152C39.0325 148.731 39.4271 148.392 39.8751 148.136C40.3231 147.88 40.8351 147.752 41.4111 147.752C41.8805 147.752 42.3045 147.843 42.6831 148.024C43.0618 148.2 43.3845 148.464 43.6511 148.816C43.9178 149.163 44.1231 149.595 44.2671 150.112C44.4111 150.629 44.4831 151.224 44.4831 151.896C44.4831 152.493 44.4031 153.051 44.2431 153.568C44.0831 154.08 43.8511 154.525 43.5471 154.904C43.2485 155.277 42.8805 155.573 42.4431 155.792C42.0111 156.005 41.5231 156.112 40.9791 156.112C40.4831 156.112 40.0565 156.029 39.6991 155.864C39.3471 155.693 39.0351 155.459 38.7631 155.16V158.744H37.3311V147.896H38.1871C38.3898 147.896 38.5151 147.995 38.5631 148.192L38.6911 149.152ZM51.0199 149.232C50.9559 149.349 50.8572 149.408 50.7239 149.408C50.6439 149.408 50.5532 149.379 50.4519 149.32C50.3505 149.261 50.2252 149.197 50.0759 149.128C49.9319 149.053 49.7585 148.987 49.5559 148.928C49.3532 148.864 49.1132 148.832 48.8359 148.832C48.5959 148.832 48.3799 148.864 48.1879 148.928C47.9959 148.987 47.8305 149.069 47.6919 149.176C47.5585 149.283 47.4545 149.408 47.3799 149.552C47.3105 149.691 47.2759 149.843 47.2759 150.008C47.2759 150.216 47.3345 150.389 47.4519 150.528C47.5745 150.667 47.7345 150.787 47.9319 150.888C48.1292 150.989 48.3532 151.08 48.6039 151.16C48.8545 151.235 49.1105 151.317 49.3719 151.408C49.6385 151.493 49.8972 151.589 50.1479 151.696C50.3985 151.803 50.6225 151.936 50.8199 152.096C51.0172 152.256 51.1745 152.453 51.2919 152.688C51.4145 152.917 51.4759 153.195 51.4759 153.52C51.4759 153.893 51.4092 154.24 51.2759 154.56C51.1425 154.875 50.9452 155.149 50.6839 155.384C50.4225 155.613 50.1025 155.795 49.7239 155.928C49.3452 156.061 48.9079 156.128 48.4119 156.128C47.8465 156.128 47.3345 156.037 46.8759 155.856C46.4172 155.669 46.0279 155.432 45.7079 155.144L46.0439 154.6C46.0865 154.531 46.1372 154.477 46.1959 154.44C46.2545 154.403 46.3292 154.384 46.4199 154.384C46.5159 154.384 46.6172 154.421 46.7239 154.496C46.8305 154.571 46.9585 154.653 47.1079 154.744C47.2625 154.835 47.4492 154.917 47.6679 154.992C47.8865 155.067 48.1585 155.104 48.4839 155.104C48.7612 155.104 49.0039 155.069 49.2119 155C49.4199 154.925 49.5932 154.827 49.7319 154.704C49.8705 154.581 49.9719 154.44 50.0359 154.28C50.1052 154.12 50.1399 153.949 50.1399 153.768C50.1399 153.544 50.0785 153.36 49.9559 153.216C49.8385 153.067 49.6812 152.941 49.4839 152.84C49.2865 152.733 49.0599 152.643 48.8039 152.568C48.5532 152.488 48.2945 152.405 48.0279 152.32C47.7665 152.235 47.5079 152.139 47.2519 152.032C47.0012 151.92 46.7772 151.781 46.5799 151.616C46.3825 151.451 46.2225 151.248 46.0999 151.008C45.9825 150.763 45.9239 150.467 45.9239 150.12C45.9239 149.811 45.9879 149.515 46.1159 149.232C46.2439 148.944 46.4305 148.693 46.6759 148.48C46.9212 148.261 47.2225 148.088 47.5799 147.96C47.9372 147.832 48.3452 147.768 48.8039 147.768C49.3372 147.768 49.8145 147.853 50.2359 148.024C50.6625 148.189 51.0305 148.419 51.3399 148.712L51.0199 149.232ZM63.9013 147.896L59.3813 158.392C59.3333 158.499 59.2719 158.584 59.1973 158.648C59.1279 158.712 59.0186 158.744 58.8693 158.744H57.8133L59.2933 155.528L55.9493 147.896H57.1813C57.3039 147.896 57.3999 147.928 57.4693 147.992C57.5439 148.051 57.5946 148.117 57.6213 148.192L59.7893 153.296C59.8746 153.52 59.9466 153.755 60.0052 154C60.0799 153.749 60.1599 153.512 60.2453 153.288L62.3493 148.192C62.3813 148.107 62.4346 148.037 62.5093 147.984C62.5893 147.925 62.6773 147.896 62.7733 147.896H63.9013ZM68.3565 147.768C68.9485 147.768 69.4818 147.867 69.9565 148.064C70.4312 148.261 70.8365 148.541 71.1725 148.904C71.5085 149.267 71.7645 149.707 71.9405 150.224C72.1218 150.736 72.2125 151.309 72.2125 151.944C72.2125 152.584 72.1218 153.16 71.9405 153.672C71.7645 154.184 71.5085 154.621 71.1725 154.984C70.8365 155.347 70.4312 155.627 69.9565 155.824C69.4818 156.016 68.9485 156.112 68.3565 156.112C67.7592 156.112 67.2205 156.016 66.7405 155.824C66.2658 155.627 65.8605 155.347 65.5245 154.984C65.1885 154.621 64.9298 154.184 64.7485 153.672C64.5725 153.16 64.4845 152.584 64.4845 151.944C64.4845 151.309 64.5725 150.736 64.7485 150.224C64.9298 149.707 65.1885 149.267 65.5245 148.904C65.8605 148.541 66.2658 148.261 66.7405 148.064C67.2205 147.867 67.7592 147.768 68.3565 147.768ZM68.3565 155C69.1565 155 69.7538 154.733 70.1485 154.2C70.5432 153.661 70.7405 152.912 70.7405 151.952C70.7405 150.987 70.5432 150.235 70.1485 149.696C69.7538 149.157 69.1565 148.888 68.3565 148.888C67.9512 148.888 67.5965 148.957 67.2925 149.096C66.9938 149.235 66.7432 149.435 66.5405 149.696C66.3432 149.957 66.1938 150.28 66.0925 150.664C65.9965 151.043 65.9485 151.472 65.9485 151.952C65.9485 152.912 66.1458 153.661 66.5405 154.2C66.9405 154.733 67.5458 155 68.3565 155ZM80.6826 147.896V156H79.8346C79.632 156 79.504 155.901 79.4506 155.704L79.3386 154.832C78.9866 155.221 78.592 155.536 78.1546 155.776C77.7173 156.011 77.216 156.128 76.6506 156.128C76.208 156.128 75.816 156.056 75.4746 155.912C75.1386 155.763 74.856 155.555 74.6266 155.288C74.3973 155.021 74.224 154.699 74.1066 154.32C73.9946 153.941 73.9386 153.523 73.9386 153.064V147.896H75.3626V153.064C75.3626 153.677 75.5013 154.152 75.7786 154.488C76.0613 154.824 76.4906 154.992 77.0666 154.992C77.488 154.992 77.88 154.893 78.2426 154.696C78.6106 154.493 78.9493 154.216 79.2586 153.864V147.896H80.6826ZM89.8583 152.04C90.1463 152.04 90.3996 152 90.6183 151.92C90.8369 151.84 91.0209 151.728 91.1703 151.584C91.3196 151.44 91.4316 151.269 91.5063 151.072C91.5809 150.869 91.6183 150.648 91.6183 150.408C91.6183 149.912 91.4663 149.517 91.1623 149.224C90.8636 148.931 90.4289 148.784 89.8583 148.784C89.2823 148.784 88.8423 148.931 88.5383 149.224C88.2396 149.517 88.0903 149.912 88.0903 150.408C88.0903 150.648 88.1276 150.869 88.2023 151.072C88.2823 151.269 88.3969 151.44 88.5463 151.584C88.6956 151.728 88.8796 151.84 89.0983 151.92C89.3169 152 89.5703 152.04 89.8583 152.04ZM92.4263 156.44C92.4263 156.243 92.3703 156.083 92.2583 155.96C92.1463 155.837 91.9943 155.741 91.8023 155.672C91.6156 155.603 91.3969 155.555 91.1463 155.528C90.8956 155.496 90.6289 155.472 90.3463 155.456C90.0689 155.44 89.7863 155.424 89.4983 155.408C89.2103 155.392 88.9329 155.365 88.6663 155.328C88.3676 155.467 88.1223 155.643 87.9303 155.856C87.7436 156.064 87.6503 156.309 87.6503 156.592C87.6503 156.773 87.6956 156.941 87.7863 157.096C87.8823 157.256 88.0263 157.392 88.2183 157.504C88.4103 157.621 88.6503 157.712 88.9383 157.776C89.2316 157.845 89.5756 157.88 89.9703 157.88C90.3543 157.88 90.6983 157.845 91.0023 157.776C91.3063 157.707 91.5623 157.608 91.7703 157.48C91.9836 157.352 92.1463 157.2 92.2583 157.024C92.3703 156.848 92.4263 156.653 92.4263 156.44ZM93.8743 148.216V148.744C93.8743 148.92 93.7623 149.032 93.5383 149.08L92.6183 149.2C92.7996 149.552 92.8903 149.941 92.8903 150.368C92.8903 150.763 92.8129 151.123 92.6583 151.448C92.5089 151.768 92.3009 152.043 92.0343 152.272C91.7676 152.501 91.4476 152.677 91.0743 152.8C90.7009 152.923 90.2956 152.984 89.8583 152.984C89.4796 152.984 89.1223 152.939 88.7863 152.848C88.6156 152.955 88.4849 153.069 88.3943 153.192C88.3036 153.309 88.2582 153.429 88.2582 153.552C88.2582 153.744 88.3356 153.891 88.4903 153.992C88.6503 154.088 88.8583 154.157 89.1143 154.2C89.3703 154.243 89.6609 154.269 89.9863 154.28C90.3169 154.291 90.6529 154.309 90.9943 154.336C91.3409 154.357 91.6769 154.397 92.0023 154.456C92.3329 154.515 92.6263 154.611 92.8823 154.744C93.1383 154.877 93.3436 155.061 93.4983 155.296C93.6583 155.531 93.7383 155.835 93.7383 156.208C93.7383 156.555 93.6503 156.891 93.4743 157.216C93.3036 157.541 93.0556 157.829 92.7303 158.08C92.4049 158.336 92.0049 158.539 91.5303 158.688C91.0609 158.843 90.5303 158.92 89.9383 158.92C89.3463 158.92 88.8289 158.861 88.3863 158.744C87.9436 158.627 87.5756 158.469 87.2823 158.272C86.9889 158.075 86.7676 157.845 86.6183 157.584C86.4743 157.328 86.4023 157.059 86.4023 156.776C86.4023 156.376 86.5276 156.037 86.7783 155.76C87.0289 155.483 87.3729 155.261 87.8103 155.096C87.5703 154.989 87.3783 154.848 87.2343 154.672C87.0956 154.491 87.0263 154.248 87.0263 153.944C87.0263 153.827 87.0476 153.707 87.0903 153.584C87.1329 153.456 87.1969 153.331 87.2823 153.208C87.3729 153.08 87.4823 152.96 87.6103 152.848C87.7383 152.736 87.8876 152.637 88.0583 152.552C87.6583 152.328 87.3463 152.032 87.1223 151.664C86.8983 151.291 86.7863 150.859 86.7863 150.368C86.7863 149.973 86.8609 149.616 87.0103 149.296C87.1649 148.971 87.3783 148.696 87.6503 148.472C87.9223 148.243 88.2449 148.067 88.6183 147.944C88.9969 147.821 89.4103 147.76 89.8583 147.76C90.2103 147.76 90.5383 147.8 90.8423 147.88C91.1463 147.955 91.4236 148.067 91.6743 148.216H93.8743ZM99.7388 152.352C99.0828 152.373 98.5228 152.427 98.0588 152.512C97.6001 152.592 97.2241 152.699 96.9308 152.832C96.6428 152.965 96.4321 153.123 96.2988 153.304C96.1708 153.485 96.1068 153.688 96.1068 153.912C96.1068 154.125 96.1414 154.309 96.2108 154.464C96.2801 154.619 96.3734 154.747 96.4908 154.848C96.6134 154.944 96.7548 155.016 96.9148 155.064C97.0801 155.107 97.2561 155.128 97.4428 155.128C97.6934 155.128 97.9228 155.104 98.1308 155.056C98.3388 155.003 98.5334 154.928 98.7148 154.832C98.9014 154.736 99.0774 154.621 99.2428 154.488C99.4134 154.355 99.5788 154.203 99.7388 154.032V152.352ZM95.1388 149.04C95.5868 148.608 96.0694 148.285 96.5868 148.072C97.1041 147.859 97.6774 147.752 98.3068 147.752C98.7601 147.752 99.1628 147.827 99.5148 147.976C99.8668 148.125 100.163 148.333 100.403 148.6C100.643 148.867 100.824 149.189 100.947 149.568C101.069 149.947 101.131 150.363 101.131 150.816V156H100.499C100.36 156 100.253 155.979 100.179 155.936C100.104 155.888 100.045 155.797 100.003 155.664L99.8428 154.896C99.6294 155.093 99.4214 155.269 99.2188 155.424C99.0161 155.573 98.8028 155.701 98.5788 155.808C98.3548 155.909 98.1148 155.987 97.8588 156.04C97.6081 156.099 97.3281 156.128 97.0188 156.128C96.7041 156.128 96.4081 156.085 96.1308 156C95.8534 155.909 95.6108 155.776 95.4028 155.6C95.2001 155.424 95.0374 155.203 94.9148 154.936C94.7974 154.664 94.7388 154.344 94.7388 153.976C94.7388 153.656 94.8268 153.349 95.0028 153.056C95.1788 152.757 95.4641 152.493 95.8588 152.264C96.2534 152.035 96.7681 151.848 97.4028 151.704C98.0374 151.555 98.8161 151.469 99.7388 151.448V150.816C99.7388 150.187 99.6028 149.712 99.3308 149.392C99.0588 149.067 98.6614 148.904 98.1388 148.904C97.7868 148.904 97.4908 148.949 97.2508 149.04C97.0161 149.125 96.8108 149.224 96.6348 149.336C96.4641 149.443 96.3148 149.541 96.1868 149.632C96.0641 149.717 95.9414 149.76 95.8188 149.76C95.7228 149.76 95.6401 149.736 95.5708 149.688C95.5014 149.635 95.4428 149.571 95.3947 149.496L95.1388 149.04ZM104.804 147.896V156H103.38V147.896H104.804ZM105.108 145.352C105.108 145.491 105.079 145.621 105.02 145.744C104.967 145.861 104.892 145.968 104.796 146.064C104.705 146.155 104.596 146.227 104.468 146.28C104.345 146.333 104.215 146.36 104.076 146.36C103.937 146.36 103.807 146.333 103.684 146.28C103.567 146.227 103.463 146.155 103.372 146.064C103.281 145.968 103.209 145.861 103.156 145.744C103.103 145.621 103.076 145.491 103.076 145.352C103.076 145.213 103.103 145.083 103.156 144.96C103.209 144.832 103.281 144.723 103.372 144.632C103.463 144.536 103.567 144.461 103.684 144.408C103.807 144.355 103.937 144.328 104.076 144.328C104.215 144.328 104.345 144.355 104.468 144.408C104.596 144.461 104.705 144.536 104.796 144.632C104.892 144.723 104.967 144.832 105.02 144.96C105.079 145.083 105.108 145.213 105.108 145.352ZM108.488 149.072C108.664 148.875 108.85 148.696 109.048 148.536C109.245 148.376 109.453 148.24 109.672 148.128C109.896 148.011 110.13 147.923 110.376 147.864C110.626 147.8 110.896 147.768 111.184 147.768C111.626 147.768 112.016 147.843 112.352 147.992C112.693 148.136 112.976 148.344 113.2 148.616C113.429 148.883 113.602 149.205 113.72 149.584C113.837 149.963 113.896 150.381 113.896 150.84V156H112.464V150.84C112.464 150.227 112.322 149.752 112.04 149.416C111.762 149.075 111.338 148.904 110.768 148.904C110.346 148.904 109.952 149.005 109.584 149.208C109.221 149.411 108.885 149.685 108.576 150.032V156H107.144V147.896H108C108.202 147.896 108.328 147.995 108.376 148.192L108.488 149.072ZM122.983 152.04C123.271 152.04 123.525 152 123.743 151.92C123.962 151.84 124.146 151.728 124.295 151.584C124.445 151.44 124.557 151.269 124.631 151.072C124.706 150.869 124.743 150.648 124.743 150.408C124.743 149.912 124.591 149.517 124.287 149.224C123.989 148.931 123.554 148.784 122.983 148.784C122.407 148.784 121.967 148.931 121.663 149.224C121.365 149.517 121.215 149.912 121.215 150.408C121.215 150.648 121.253 150.869 121.327 151.072C121.407 151.269 121.522 151.44 121.671 151.584C121.821 151.728 122.005 151.84 122.223 151.92C122.442 152 122.695 152.04 122.983 152.04ZM125.551 156.44C125.551 156.243 125.495 156.083 125.383 155.96C125.271 155.837 125.119 155.741 124.927 155.672C124.741 155.603 124.522 155.555 124.271 155.528C124.021 155.496 123.754 155.472 123.471 155.456C123.194 155.44 122.911 155.424 122.623 155.408C122.335 155.392 122.058 155.365 121.791 155.328C121.493 155.467 121.247 155.643 121.055 155.856C120.869 156.064 120.775 156.309 120.775 156.592C120.775 156.773 120.821 156.941 120.911 157.096C121.007 157.256 121.151 157.392 121.343 157.504C121.535 157.621 121.775 157.712 122.063 157.776C122.357 157.845 122.701 157.88 123.095 157.88C123.479 157.88 123.823 157.845 124.127 157.776C124.431 157.707 124.687 157.608 124.895 157.48C125.109 157.352 125.271 157.2 125.383 157.024C125.495 156.848 125.551 156.653 125.551 156.44ZM126.999 148.216V148.744C126.999 148.92 126.887 149.032 126.663 149.08L125.743 149.2C125.925 149.552 126.015 149.941 126.015 150.368C126.015 150.763 125.938 151.123 125.783 151.448C125.634 151.768 125.426 152.043 125.159 152.272C124.893 152.501 124.573 152.677 124.199 152.8C123.826 152.923 123.421 152.984 122.983 152.984C122.605 152.984 122.247 152.939 121.911 152.848C121.741 152.955 121.61 153.069 121.519 153.192C121.429 153.309 121.383 153.429 121.383 153.552C121.383 153.744 121.461 153.891 121.615 153.992C121.775 154.088 121.983 154.157 122.239 154.2C122.495 154.243 122.786 154.269 123.111 154.28C123.442 154.291 123.778 154.309 124.119 154.336C124.466 154.357 124.802 154.397 125.127 154.456C125.458 154.515 125.751 154.611 126.007 154.744C126.263 154.877 126.469 155.061 126.623 155.296C126.783 155.531 126.863 155.835 126.863 156.208C126.863 156.555 126.775 156.891 126.599 157.216C126.429 157.541 126.181 157.829 125.855 158.08C125.53 158.336 125.13 158.539 124.655 158.688C124.186 158.843 123.655 158.92 123.063 158.92C122.471 158.92 121.954 158.861 121.511 158.744C121.069 158.627 120.701 158.469 120.407 158.272C120.114 158.075 119.893 157.845 119.743 157.584C119.599 157.328 119.527 157.059 119.527 156.776C119.527 156.376 119.653 156.037 119.903 155.76C120.154 155.483 120.498 155.261 120.935 155.096C120.695 154.989 120.503 154.848 120.359 154.672C120.221 154.491 120.151 154.248 120.151 153.944C120.151 153.827 120.173 153.707 120.215 153.584C120.258 153.456 120.322 153.331 120.407 153.208C120.498 153.08 120.607 152.96 120.735 152.848C120.863 152.736 121.013 152.637 121.183 152.552C120.783 152.328 120.471 152.032 120.247 151.664C120.023 151.291 119.911 150.859 119.911 150.368C119.911 149.973 119.986 149.616 120.135 149.296C120.29 148.971 120.503 148.696 120.775 148.472C121.047 148.243 121.37 148.067 121.743 147.944C122.122 147.821 122.535 147.76 122.983 147.76C123.335 147.76 123.663 147.8 123.967 147.88C124.271 147.955 124.549 148.067 124.799 148.216H126.999ZM129.944 144.216V156H128.52V144.216H129.944ZM135.669 147.768C136.261 147.768 136.794 147.867 137.269 148.064C137.744 148.261 138.149 148.541 138.485 148.904C138.821 149.267 139.077 149.707 139.253 150.224C139.434 150.736 139.525 151.309 139.525 151.944C139.525 152.584 139.434 153.16 139.253 153.672C139.077 154.184 138.821 154.621 138.485 154.984C138.149 155.347 137.744 155.627 137.269 155.824C136.794 156.016 136.261 156.112 135.669 156.112C135.072 156.112 134.533 156.016 134.053 155.824C133.578 155.627 133.173 155.347 132.837 154.984C132.501 154.621 132.242 154.184 132.061 153.672C131.885 153.16 131.797 152.584 131.797 151.944C131.797 151.309 131.885 150.736 132.061 150.224C132.242 149.707 132.501 149.267 132.837 148.904C133.173 148.541 133.578 148.261 134.053 148.064C134.533 147.867 135.072 147.768 135.669 147.768ZM135.669 155C136.469 155 137.066 154.733 137.461 154.2C137.856 153.661 138.053 152.912 138.053 151.952C138.053 150.987 137.856 150.235 137.461 149.696C137.066 149.157 136.469 148.888 135.669 148.888C135.264 148.888 134.909 148.957 134.605 149.096C134.306 149.235 134.056 149.435 133.853 149.696C133.656 149.957 133.506 150.28 133.405 150.664C133.309 151.043 133.261 151.472 133.261 151.952C133.261 152.912 133.458 153.661 133.853 154.2C134.253 154.733 134.858 155 135.669 155ZM142.763 154.048C143.024 154.4 143.31 154.648 143.619 154.792C143.934 154.936 144.278 155.008 144.651 155.008C145.414 155.008 145.998 154.739 146.403 154.2C146.808 153.661 147.011 152.859 147.011 151.792C147.011 150.8 146.83 150.072 146.467 149.608C146.11 149.139 145.598 148.904 144.931 148.904C144.467 148.904 144.062 149.011 143.715 149.224C143.374 149.437 143.056 149.739 142.763 150.128V154.048ZM142.763 149.064C143.104 148.669 143.488 148.355 143.915 148.12C144.347 147.885 144.843 147.768 145.403 147.768C145.878 147.768 146.304 147.859 146.683 148.04C147.067 148.221 147.392 148.485 147.659 148.832C147.926 149.173 148.128 149.589 148.267 150.08C148.411 150.571 148.483 151.123 148.483 151.736C148.483 152.392 148.403 152.989 148.243 153.528C148.083 154.067 147.851 154.528 147.547 154.912C147.248 155.291 146.883 155.587 146.451 155.8C146.019 156.008 145.534 156.112 144.995 156.112C144.462 156.112 144.011 156.013 143.643 155.816C143.28 155.613 142.963 155.328 142.691 154.96L142.619 155.696C142.576 155.899 142.454 156 142.251 156H141.331V144.216H142.763V149.064ZM154.676 152.352C154.02 152.373 153.46 152.427 152.996 152.512C152.538 152.592 152.162 152.699 151.868 152.832C151.58 152.965 151.37 153.123 151.236 153.304C151.108 153.485 151.044 153.688 151.044 153.912C151.044 154.125 151.079 154.309 151.148 154.464C151.218 154.619 151.311 154.747 151.428 154.848C151.551 154.944 151.692 155.016 151.852 155.064C152.018 155.107 152.194 155.128 152.38 155.128C152.631 155.128 152.86 155.104 153.068 155.056C153.276 155.003 153.471 154.928 153.652 154.832C153.839 154.736 154.015 154.621 154.18 154.488C154.351 154.355 154.516 154.203 154.676 154.032V152.352ZM150.076 149.04C150.524 148.608 151.007 148.285 151.524 148.072C152.042 147.859 152.615 147.752 153.244 147.752C153.698 147.752 154.1 147.827 154.452 147.976C154.804 148.125 155.1 148.333 155.34 148.6C155.58 148.867 155.762 149.189 155.884 149.568C156.007 149.947 156.068 150.363 156.068 150.816V156H155.436C155.298 156 155.191 155.979 155.116 155.936C155.042 155.888 154.983 155.797 154.94 155.664L154.78 154.896C154.567 155.093 154.359 155.269 154.156 155.424C153.954 155.573 153.74 155.701 153.516 155.808C153.292 155.909 153.052 155.987 152.796 156.04C152.546 156.099 152.266 156.128 151.956 156.128C151.642 156.128 151.346 156.085 151.068 156C150.791 155.909 150.548 155.776 150.34 155.6C150.138 155.424 149.975 155.203 149.852 154.936C149.735 154.664 149.676 154.344 149.676 153.976C149.676 153.656 149.764 153.349 149.94 153.056C150.116 152.757 150.402 152.493 150.796 152.264C151.191 152.035 151.706 151.848 152.34 151.704C152.975 151.555 153.754 151.469 154.676 151.448V150.816C154.676 150.187 154.54 149.712 154.268 149.392C153.996 149.067 153.599 148.904 153.076 148.904C152.724 148.904 152.428 148.949 152.188 149.04C151.954 149.125 151.748 149.224 151.572 149.336C151.402 149.443 151.252 149.541 151.124 149.632C151.002 149.717 150.879 149.76 150.756 149.76C150.66 149.76 150.578 149.736 150.508 149.688C150.439 149.635 150.38 149.571 150.332 149.496L150.076 149.04ZM159.709 144.216V156H158.285V144.216H159.709ZM170.504 152.352C169.848 152.373 169.288 152.427 168.824 152.512C168.366 152.592 167.99 152.699 167.696 152.832C167.408 152.965 167.198 153.123 167.064 153.304C166.936 153.485 166.872 153.688 166.872 153.912C166.872 154.125 166.907 154.309 166.976 154.464C167.046 154.619 167.139 154.747 167.256 154.848C167.379 154.944 167.52 155.016 167.68 155.064C167.846 155.107 168.022 155.128 168.208 155.128C168.459 155.128 168.688 155.104 168.896 155.056C169.104 155.003 169.299 154.928 169.48 154.832C169.667 154.736 169.843 154.621 170.008 154.488C170.179 154.355 170.344 154.203 170.504 154.032V152.352ZM165.904 149.04C166.352 148.608 166.835 148.285 167.352 148.072C167.87 147.859 168.443 147.752 169.072 147.752C169.526 147.752 169.928 147.827 170.28 147.976C170.632 148.125 170.928 148.333 171.168 148.6C171.408 148.867 171.59 149.189 171.712 149.568C171.835 149.947 171.896 150.363 171.896 150.816V156H171.264C171.126 156 171.019 155.979 170.944 155.936C170.87 155.888 170.811 155.797 170.768 155.664L170.608 154.896C170.395 155.093 170.187 155.269 169.984 155.424C169.782 155.573 169.568 155.701 169.344 155.808C169.12 155.909 168.88 155.987 168.624 156.04C168.374 156.099 168.094 156.128 167.784 156.128C167.47 156.128 167.174 156.085 166.896 156C166.619 155.909 166.376 155.776 166.168 155.6C165.966 155.424 165.803 155.203 165.68 154.936C165.563 154.664 165.504 154.344 165.504 153.976C165.504 153.656 165.592 153.349 165.768 153.056C165.944 152.757 166.23 152.493 166.624 152.264C167.019 152.035 167.534 151.848 168.168 151.704C168.803 151.555 169.582 151.469 170.504 151.448V150.816C170.504 150.187 170.368 149.712 170.096 149.392C169.824 149.067 169.427 148.904 168.904 148.904C168.552 148.904 168.256 148.949 168.016 149.04C167.782 149.125 167.576 149.224 167.4 149.336C167.23 149.443 167.08 149.541 166.952 149.632C166.83 149.717 166.707 149.76 166.584 149.76C166.488 149.76 166.406 149.736 166.336 149.688C166.267 149.635 166.208 149.571 166.16 149.496L165.904 149.04ZM180.73 147.896V156H179.882C179.679 156 179.551 155.901 179.498 155.704L179.386 154.832C179.034 155.221 178.639 155.536 178.202 155.776C177.764 156.011 177.263 156.128 176.698 156.128C176.255 156.128 175.863 156.056 175.522 155.912C175.186 155.763 174.903 155.555 174.674 155.288C174.444 155.021 174.271 154.699 174.154 154.32C174.042 153.941 173.986 153.523 173.986 153.064V147.896H175.41V153.064C175.41 153.677 175.548 154.152 175.826 154.488C176.108 154.824 176.538 154.992 177.114 154.992C177.535 154.992 177.927 154.893 178.29 154.696C178.658 154.493 178.996 154.216 179.306 153.864V147.896H180.73ZM188.267 149.824C188.001 149.467 187.713 149.219 187.403 149.08C187.094 148.936 186.747 148.864 186.363 148.864C185.611 148.864 185.033 149.133 184.627 149.672C184.222 150.211 184.019 150.979 184.019 151.976C184.019 152.504 184.065 152.957 184.155 153.336C184.246 153.709 184.379 154.019 184.555 154.264C184.731 154.504 184.947 154.68 185.203 154.792C185.459 154.904 185.75 154.96 186.075 154.96C186.545 154.96 186.953 154.853 187.299 154.64C187.651 154.427 187.974 154.125 188.267 153.736V149.824ZM189.691 144.216V156H188.843C188.641 156 188.513 155.901 188.459 155.704L188.331 154.72C187.985 155.136 187.59 155.472 187.147 155.728C186.705 155.984 186.193 156.112 185.611 156.112C185.147 156.112 184.726 156.024 184.347 155.848C183.969 155.667 183.646 155.403 183.379 155.056C183.113 154.709 182.907 154.277 182.763 153.76C182.619 153.243 182.547 152.648 182.547 151.976C182.547 151.379 182.627 150.824 182.787 150.312C182.947 149.795 183.177 149.347 183.475 148.968C183.774 148.589 184.139 148.293 184.571 148.08C185.009 147.861 185.499 147.752 186.043 147.752C186.539 147.752 186.963 147.837 187.315 148.008C187.673 148.173 187.99 148.405 188.267 148.704V144.216H189.691ZM193.445 147.896V156H192.021V147.896H193.445ZM193.749 145.352C193.749 145.491 193.719 145.621 193.661 145.744C193.607 145.861 193.533 145.968 193.437 146.064C193.346 146.155 193.237 146.227 193.109 146.28C192.986 146.333 192.855 146.36 192.717 146.36C192.578 146.36 192.447 146.333 192.325 146.28C192.207 146.227 192.103 146.155 192.013 146.064C191.922 145.968 191.85 145.861 191.797 145.744C191.743 145.621 191.717 145.491 191.717 145.352C191.717 145.213 191.743 145.083 191.797 144.96C191.85 144.832 191.922 144.723 192.013 144.632C192.103 144.536 192.207 144.461 192.325 144.408C192.447 144.355 192.578 144.328 192.717 144.328C192.855 144.328 192.986 144.355 193.109 144.408C193.237 144.461 193.346 144.536 193.437 144.632C193.533 144.723 193.607 144.832 193.661 144.96C193.719 145.083 193.749 145.213 193.749 145.352ZM201.208 151.064C201.208 150.733 201.16 150.432 201.064 150.16C200.974 149.883 200.838 149.645 200.656 149.448C200.48 149.245 200.264 149.091 200.008 148.984C199.752 148.872 199.462 148.816 199.136 148.816C198.454 148.816 197.912 149.016 197.512 149.416C197.118 149.811 196.872 150.36 196.776 151.064H201.208ZM202.36 154.864C202.184 155.077 201.974 155.264 201.728 155.424C201.483 155.579 201.219 155.707 200.936 155.808C200.659 155.909 200.371 155.984 200.072 156.032C199.774 156.085 199.478 156.112 199.184 156.112C198.624 156.112 198.107 156.019 197.632 155.832C197.163 155.64 196.755 155.363 196.408 155C196.067 154.632 195.8 154.179 195.608 153.64C195.416 153.101 195.32 152.483 195.32 151.784C195.32 151.219 195.406 150.691 195.576 150.2C195.752 149.709 196.003 149.285 196.328 148.928C196.654 148.565 197.051 148.283 197.52 148.08C197.99 147.872 198.518 147.768 199.104 147.768C199.59 147.768 200.038 147.851 200.448 148.016C200.864 148.176 201.222 148.411 201.52 148.72C201.824 149.024 202.062 149.403 202.232 149.856C202.403 150.304 202.488 150.816 202.488 151.392C202.488 151.616 202.464 151.765 202.416 151.84C202.368 151.915 202.278 151.952 202.144 151.952H196.728C196.744 152.464 196.814 152.909 196.936 153.288C197.064 153.667 197.24 153.984 197.464 154.24C197.688 154.491 197.955 154.68 198.264 154.808C198.574 154.931 198.92 154.992 199.304 154.992C199.662 154.992 199.968 154.952 200.224 154.872C200.486 154.787 200.71 154.696 200.896 154.6C201.083 154.504 201.238 154.416 201.36 154.336C201.488 154.251 201.598 154.208 201.688 154.208C201.806 154.208 201.896 154.253 201.96 154.344L202.36 154.864ZM205.581 149.072C205.757 148.875 205.944 148.696 206.141 148.536C206.339 148.376 206.547 148.24 206.765 148.128C206.989 148.011 207.224 147.923 207.469 147.864C207.72 147.8 207.989 147.768 208.277 147.768C208.72 147.768 209.109 147.843 209.445 147.992C209.787 148.136 210.069 148.344 210.293 148.616C210.523 148.883 210.696 149.205 210.813 149.584C210.931 149.963 210.989 150.381 210.989 150.84V156H209.557V150.84C209.557 150.227 209.416 149.752 209.133 149.416C208.856 149.075 208.432 148.904 207.861 148.904C207.44 148.904 207.045 149.005 206.677 149.208C206.315 149.411 205.979 149.685 205.669 150.032V156H204.237V147.896H205.093C205.296 147.896 205.421 147.995 205.469 148.192L205.581 149.072ZM218.799 149.336C218.757 149.395 218.714 149.44 218.671 149.472C218.629 149.504 218.57 149.52 218.495 149.52C218.415 149.52 218.327 149.488 218.231 149.424C218.135 149.355 218.015 149.28 217.871 149.2C217.733 149.12 217.559 149.048 217.351 148.984C217.149 148.915 216.898 148.88 216.599 148.88C216.199 148.88 215.847 148.952 215.543 149.096C215.239 149.235 214.983 149.437 214.775 149.704C214.573 149.971 214.418 150.293 214.311 150.672C214.21 151.051 214.159 151.475 214.159 151.944C214.159 152.435 214.215 152.872 214.327 153.256C214.439 153.635 214.597 153.955 214.799 154.216C215.007 154.472 215.255 154.669 215.543 154.808C215.837 154.941 216.165 155.008 216.527 155.008C216.874 155.008 217.159 154.968 217.383 154.888C217.607 154.803 217.791 154.709 217.935 154.608C218.085 154.507 218.207 154.416 218.303 154.336C218.405 154.251 218.503 154.208 218.599 154.208C218.717 154.208 218.807 154.253 218.871 154.344L219.271 154.864C219.095 155.083 218.895 155.269 218.671 155.424C218.447 155.579 218.205 155.709 217.943 155.816C217.687 155.917 217.418 155.992 217.135 156.04C216.853 156.088 216.565 156.112 216.271 156.112C215.765 156.112 215.293 156.019 214.855 155.832C214.423 155.645 214.047 155.376 213.727 155.024C213.407 154.667 213.157 154.229 212.975 153.712C212.794 153.195 212.703 152.605 212.703 151.944C212.703 151.341 212.786 150.784 212.951 150.272C213.122 149.76 213.367 149.32 213.687 148.952C214.013 148.579 214.41 148.288 214.879 148.08C215.354 147.872 215.898 147.768 216.511 147.768C217.082 147.768 217.583 147.861 218.015 148.048C218.453 148.229 218.839 148.488 219.175 148.824L218.799 149.336ZM226.083 151.064C226.083 150.733 226.035 150.432 225.939 150.16C225.849 149.883 225.713 149.645 225.531 149.448C225.355 149.245 225.139 149.091 224.883 148.984C224.627 148.872 224.337 148.816 224.011 148.816C223.329 148.816 222.787 149.016 222.387 149.416C221.993 149.811 221.747 150.36 221.651 151.064H226.083ZM227.235 154.864C227.059 155.077 226.849 155.264 226.603 155.424C226.358 155.579 226.094 155.707 225.811 155.808C225.534 155.909 225.246 155.984 224.947 156.032C224.649 156.085 224.353 156.112 224.059 156.112C223.499 156.112 222.982 156.019 222.507 155.832C222.038 155.64 221.63 155.363 221.283 155C220.942 154.632 220.675 154.179 220.483 153.64C220.291 153.101 220.195 152.483 220.195 151.784C220.195 151.219 220.281 150.691 220.451 150.2C220.627 149.709 220.878 149.285 221.203 148.928C221.529 148.565 221.926 148.283 222.395 148.08C222.865 147.872 223.393 147.768 223.979 147.768C224.465 147.768 224.913 147.851 225.323 148.016C225.739 148.176 226.097 148.411 226.395 148.72C226.699 149.024 226.937 149.403 227.107 149.856C227.278 150.304 227.363 150.816 227.363 151.392C227.363 151.616 227.339 151.765 227.291 151.84C227.243 151.915 227.153 151.952 227.019 151.952H221.603C221.619 152.464 221.689 152.909 221.811 153.288C221.939 153.667 222.115 153.984 222.339 154.24C222.563 154.491 222.83 154.68 223.139 154.808C223.449 154.931 223.795 154.992 224.179 154.992C224.537 154.992 224.843 154.952 225.099 154.872C225.361 154.787 225.585 154.696 225.771 154.6C225.958 154.504 226.113 154.416 226.235 154.336C226.363 154.251 226.473 154.208 226.563 154.208C226.681 154.208 226.771 154.253 226.835 154.344L227.235 154.864Z" fill="#D4D4D4"/>
<defs>
<filter id="filter0_d_1_8110" x="0" y="0" width="108" height="108" filterUnits="userSpaceOnUse" color-interpolation-filters="sRGB">
<feFlood flood-opacity="0" result="BackgroundImageFix"/>
<feColorMatrix in="SourceAlpha" type="matrix" values="0 0 0 0 0 0 0 0 0 0 0 0 0 0 0 0 0 0 127 0" result="hardAlpha"/>
<feOffset dy="4"/>
<feGaussianBlur stdDeviation="6"/>
<feComposite in2="hardAlpha" operator="out"/>
<feColorMatrix type="matrix" values="0 0 0 0 0 0 0 0 0 0 0 0 0 0 0 0 0 0 1 0"/>
<feBlend mode="normal" in2="BackgroundImageFix" result="effect1_dropShadow_1_8110"/>
<feBlend mode="normal" in="SourceGraphic" in2="effect1_dropShadow_1_8110" result="shape"/>
</filter>
<filter id="filter1_dd_1_8110" x="15" y="9" width="78" height="82" filterUnits="userSpaceOnUse" color-interpolation-filters="sRGB">
<feFlood flood-opacity="0" result="BackgroundImageFix"/>
<feColorMatrix in="SourceAlpha" type="matrix" values="0 0 0 0 0 0 0 0 0 0 0 0 0 0 0 0 0 0 127 0" result="hardAlpha"/>
<feOffset dy="2"/>
<feGaussianBlur stdDeviation="2"/>
<feComposite in2="hardAlpha" operator="out"/>
<feColorMatrix type="matrix" values="0 0 0 0 0 0 0 0 0 0 0 0 0 0 0 0 0 0 1 0"/>
<feBlend mode="normal" in2="BackgroundImageFix" result="effect1_dropShadow_1_8110"/>
<feColorMatrix in="SourceAlpha" type="matrix" values="0 0 0 0 0 0 0 0 0 0 0 0 0 0 0 0 0 0 127 0" result="hardAlpha"/>
<feOffset dy="-2"/>
<feGaussianBlur stdDeviation="2"/>
<feComposite in2="hardAlpha" operator="out"/>
<feColorMatrix type="matrix" values="0 0 0 0 0 0 0 0 0 0 0 0 0 0 0 0 0 0 1 0"/>
<feBlend mode="normal" in2="effect1_dropShadow_1_8110" result="effect2_dropShadow_1_8110"/>
<feBlend mode="normal" in="SourceGraphic" in2="effect2_dropShadow_1_8110" result="shape"/>
</filter>
<linearGradient id="paint0_linear_1_8110" x1="19.3008" y1="9.84488" x2="114.363" y2="83.1137" gradientUnits="userSpaceOnUse">
<stop stop-color="#DB2777"/>
<stop offset="1" stop-color="#F97316"/>
</linearGradient>
<clipPath id="clip0_1_8110">
<rect width="32" height="32" fill="white" transform="translate(38 34)"/>
</clipPath>
</defs>
</svg>
