<svg width="312" height="159" viewBox="0 0 312 159" fill="none" xmlns="http://www.w3.org/2000/svg">
<g filter="url(#filter0_d_1_8129)">
<circle cx="258" cy="50" r="42" fill="#262626"/>
</g>
<g filter="url(#filter1_dd_1_8129)">
<circle cx="258" cy="50" r="35" fill="#262626"/>
</g>
<path fill-rule="evenodd" clip-rule="evenodd" d="M259.266 51.528H267.964C268.291 51.529 268.605 51.6594 268.836 51.8908C269.067 52.1222 269.198 52.4358 269.199 52.763V53.8955C269.198 54.2228 269.067 54.5363 268.836 54.7677C268.605 54.9991 268.291 55.1295 267.964 55.1305H259.266C258.939 55.1295 258.626 54.9991 258.394 54.7677C258.163 54.5363 258.033 54.2227 258.032 53.8955V52.763C258.033 52.4358 258.163 52.1223 258.394 51.8909C258.626 51.6595 258.939 51.529 259.266 51.528ZM248.062 56.1061L246.525 56.518C246.386 56.5555 246.268 56.6465 246.196 56.771C246.124 56.8955 246.105 57.0434 246.141 57.1824L248.175 64.7705C248.212 64.9094 248.303 65.0278 248.428 65.0996C248.553 65.1714 248.701 65.1909 248.84 65.1536L250.375 64.7418C250.513 64.7043 250.632 64.6133 250.704 64.4888C250.775 64.3643 250.795 64.2164 250.758 64.0774L248.726 56.4893C248.689 56.3504 248.598 56.232 248.474 56.1602C248.349 56.0883 248.201 56.0689 248.062 56.1061ZM251.398 63.0205C252.842 62.4861 254.754 62.9886 256.553 63.4618C258.166 63.8855 259.678 64.283 260.398 63.8205C263.655 61.7311 267.518 59.7093 270.913 57.7499C271.194 57.5857 271.399 57.3171 271.483 57.0025C271.568 56.688 271.525 56.3528 271.363 56.0699C271.017 55.4699 270.26 55.3305 269.664 55.6324C268.951 55.9955 261.012 59.9805 261.066 60.0699C260.624 60.3268 260.099 60.4006 259.603 60.2755C258.257 60.0049 256.641 59.4824 255.283 59.1186C255.172 59.0855 255.079 59.0104 255.022 58.9093C254.966 58.8082 254.951 58.6891 254.981 58.5773C255.011 58.4654 255.083 58.3697 255.183 58.3103C255.282 58.2509 255.401 58.2326 255.513 58.2593L259.806 59.4093C260.08 59.4798 260.371 59.4391 260.616 59.2962C260.861 59.1533 261.039 58.9196 261.113 58.6459C261.186 58.3722 261.149 58.0806 261.009 57.8343C260.869 57.588 260.637 57.407 260.364 57.3305L255.222 55.9555C252.51 55.2286 252.88 54.7761 249.765 56.9324L251.398 63.0249V63.0205ZM247.504 57.0949C247.64 57.0581 247.783 57.0623 247.916 57.1071C248.05 57.1519 248.167 57.2352 248.253 57.3465C248.339 57.4578 248.389 57.5921 248.399 57.7324C248.409 57.8727 248.376 58.0127 248.306 58.1346C248.236 58.2565 248.132 58.3549 248.006 58.4174C247.88 58.4798 247.738 58.5035 247.599 58.4854C247.459 58.4673 247.328 58.4082 247.222 58.3157C247.116 58.2232 247.04 58.1013 247.004 57.9655C246.955 57.7838 246.98 57.59 247.074 57.4268C247.168 57.2636 247.322 57.1442 247.504 57.0949ZM246.151 49.0574C245.932 49.2262 245.655 49.3013 245.381 49.2661C245.107 49.2308 244.859 49.0882 244.69 48.8696C244.521 48.6509 244.446 48.3742 244.481 48.1002C244.516 47.8262 244.659 47.5775 244.878 47.4086L247.131 45.6761C247.315 45.5338 247.542 45.4574 247.775 45.4592C248.008 45.461 248.234 45.5409 248.416 45.6861L250.657 47.4086C250.876 47.5775 251.018 47.8262 251.053 48.1002C251.089 48.3742 251.014 48.6509 250.845 48.8696C250.676 49.0882 250.427 49.2308 250.153 49.2661C249.879 49.3013 249.603 49.2262 249.384 49.0574L248.812 48.6199V52.5686C248.805 52.8413 248.692 53.1005 248.497 53.291C248.302 53.4815 248.04 53.5881 247.767 53.5881C247.495 53.5881 247.233 53.4815 247.037 53.291C246.842 53.1005 246.729 52.8413 246.723 52.5686V48.6168L246.151 49.0543V49.0574ZM251.401 42.0718L251.973 41.6343V45.5861C251.973 45.8631 252.083 46.1288 252.279 46.3246C252.475 46.5205 252.741 46.6305 253.018 46.6305C253.295 46.6305 253.56 46.5205 253.756 46.3246C253.952 46.1288 254.062 45.8631 254.062 45.5861V41.6318L254.634 42.0693C254.852 42.2381 255.129 42.3132 255.403 42.278C255.677 42.2429 255.926 42.1003 256.095 41.8818C256.263 41.6632 256.338 41.3865 256.303 41.1126C256.268 40.8387 256.126 40.59 255.907 40.4211L253.667 38.7005C253.485 38.5555 253.259 38.4758 253.026 38.4741C252.793 38.4724 252.566 38.5488 252.381 38.6911L250.128 40.4236C249.91 40.5925 249.767 40.8412 249.732 41.1151C249.697 41.389 249.772 41.6657 249.941 41.8843C250.11 42.1028 250.358 42.2454 250.632 42.2805C250.906 42.3157 251.183 42.2406 251.401 42.0718H251.401ZM263.615 34.8274C264.532 34.8274 265.427 35.0992 266.19 35.6083C266.952 36.1175 267.545 36.8412 267.896 37.6879C268.247 38.5346 268.339 39.4663 268.16 40.3651C267.981 41.264 267.54 42.0897 266.892 42.7377C266.244 43.3857 265.418 43.8271 264.519 44.0059C263.62 44.1846 262.689 44.0929 261.842 43.7422C260.995 43.3915 260.271 42.7975 259.762 42.0355C259.253 41.2735 258.981 40.3776 258.981 39.4611C258.981 38.2322 259.47 37.0536 260.339 36.1846C261.208 35.3156 262.386 34.8274 263.615 34.8274ZM261.986 40.508C261.965 41.258 262.39 41.9155 263.115 42.1493V42.3805C263.115 42.5131 263.168 42.6403 263.262 42.7341C263.355 42.8278 263.483 42.8805 263.615 42.8805C263.748 42.8805 263.875 42.8278 263.969 42.7341C264.062 42.6403 264.115 42.5131 264.115 42.3805V42.1493C264.485 42.0299 264.801 41.7822 265.005 41.4509C265.209 41.1195 265.288 40.7262 265.228 40.3418C265.167 39.9574 264.972 39.6072 264.676 39.3542C264.38 39.1012 264.004 38.962 263.615 38.9618C263.488 38.9613 263.365 38.9227 263.26 38.8511C263.155 38.7795 263.075 38.6781 263.028 38.5601C262.982 38.4421 262.972 38.3128 263 38.1892C263.028 38.0655 263.092 37.953 263.185 37.8664C263.278 37.7798 263.394 37.7229 263.519 37.7032C263.645 37.6835 263.773 37.7019 263.887 37.7559C264.002 37.81 264.098 37.8972 264.163 38.0063C264.227 38.1155 264.257 38.2415 264.25 38.368C264.24 38.4362 264.246 38.5054 264.265 38.5715C264.284 38.6376 264.316 38.6991 264.36 38.752C264.404 38.805 264.458 38.8484 264.519 38.8795C264.58 38.9106 264.647 38.9287 264.716 38.9327C264.785 38.9368 264.853 38.9266 264.918 38.9028C264.982 38.8791 265.041 38.8423 265.091 38.7947C265.141 38.7472 265.18 38.6899 265.206 38.6265C265.233 38.5631 265.246 38.4949 265.245 38.4261C265.271 37.6724 264.849 37.0086 264.116 36.7736V36.5418C264.116 36.4092 264.064 36.282 263.97 36.1882C263.876 36.0944 263.749 36.0418 263.616 36.0418C263.484 36.0418 263.357 36.0944 263.263 36.1882C263.169 36.282 263.116 36.4092 263.116 36.5418V36.7736C262.746 36.893 262.431 37.1407 262.227 37.472C262.023 37.8034 261.944 38.1967 262.004 38.5811C262.064 38.9655 262.26 39.3157 262.555 39.5687C262.851 39.8217 263.227 39.9609 263.616 39.9611C263.743 39.9616 263.866 39.9998 263.971 40.0711C264.075 40.1423 264.156 40.2432 264.203 40.3608C264.249 40.4784 264.26 40.6072 264.233 40.7307C264.205 40.8543 264.142 40.9668 264.05 41.0538C263.958 41.1408 263.842 41.1983 263.717 41.2189C263.593 41.2395 263.465 41.2223 263.35 41.1694C263.235 41.1165 263.138 41.0305 263.073 40.9223C263.007 40.8141 262.976 40.6887 262.982 40.5624C262.98 40.4358 262.929 40.3149 262.841 40.2239C262.753 40.1329 262.634 40.0787 262.508 40.0722C262.381 40.0657 262.257 40.1074 262.16 40.1889C262.063 40.2703 262.001 40.3855 261.986 40.5111V40.508ZM259.266 43.0736C258.939 43.0746 258.626 43.2051 258.394 43.4365C258.163 43.6679 258.033 43.9815 258.032 44.3086V45.4411C258.033 45.7683 258.163 46.0819 258.394 46.3133C258.626 46.5447 258.939 46.6752 259.266 46.6761H267.964C268.291 46.6752 268.605 46.5447 268.836 46.3133C269.067 46.0819 269.198 45.7684 269.199 45.4411V44.3086C269.198 43.9814 269.067 43.6679 268.836 43.4365C268.605 43.2051 268.291 43.0746 267.964 43.0736H267.937C267.408 43.7064 266.747 44.2154 266 44.5647C265.253 44.9139 264.438 45.095 263.614 45.095C262.789 45.095 261.975 44.9139 261.228 44.5647C260.481 44.2154 259.82 43.7064 259.291 43.0736H259.266ZM259.266 47.3011H267.964C268.291 47.302 268.605 47.4323 268.836 47.6636C269.067 47.8948 269.198 48.2083 269.199 48.5355V49.6686C269.198 49.9958 269.067 50.3093 268.836 50.5406C268.605 50.7719 268.291 50.9022 267.964 50.903H259.266C258.939 50.902 258.626 50.7717 258.395 50.5404C258.163 50.3091 258.033 49.9957 258.032 49.6686V48.5355C258.033 48.2084 258.163 47.8951 258.395 47.6638C258.626 47.4325 258.939 47.3021 259.266 47.3011Z" fill="url(#paint0_linear_1_8129)"/>
<path d="M99.2027 116.42C99.7093 116.42 100.149 116.357 100.523 116.23C100.903 116.103 101.213 115.93 101.453 115.71C101.699 115.483 101.883 115.217 102.003 114.91C102.123 114.603 102.183 114.267 102.183 113.9C102.183 113.167 101.939 112.603 101.453 112.21C100.973 111.817 100.236 111.62 99.2427 111.62H97.5227V116.42H99.2027ZM106.123 124H103.693C103.233 124 102.899 123.82 102.693 123.46L99.6527 118.83C99.5393 118.657 99.4127 118.533 99.2727 118.46C99.1393 118.387 98.9393 118.35 98.6727 118.35H97.5227V124H94.8327V109.54H99.2427C100.223 109.54 101.063 109.643 101.763 109.85C102.469 110.05 103.046 110.333 103.493 110.7C103.946 111.067 104.279 111.507 104.493 112.02C104.706 112.527 104.813 113.087 104.813 113.7C104.813 114.187 104.739 114.647 104.593 115.08C104.453 115.513 104.246 115.907 103.973 116.26C103.706 116.613 103.373 116.923 102.973 117.19C102.579 117.457 102.129 117.667 101.623 117.82C101.796 117.92 101.956 118.04 102.103 118.18C102.249 118.313 102.383 118.473 102.503 118.66L106.123 124ZM113.24 117.69C113.24 117.37 113.193 117.07 113.1 116.79C113.013 116.503 112.88 116.253 112.7 116.04C112.52 115.827 112.29 115.66 112.01 115.54C111.737 115.413 111.417 115.35 111.05 115.35C110.337 115.35 109.773 115.553 109.36 115.96C108.953 116.367 108.693 116.943 108.58 117.69H113.24ZM108.53 119.18C108.57 119.707 108.663 120.163 108.81 120.55C108.957 120.93 109.15 121.247 109.39 121.5C109.63 121.747 109.913 121.933 110.24 122.06C110.573 122.18 110.94 122.24 111.34 122.24C111.74 122.24 112.083 122.193 112.37 122.1C112.663 122.007 112.917 121.903 113.13 121.79C113.35 121.677 113.54 121.573 113.7 121.48C113.867 121.387 114.027 121.34 114.18 121.34C114.387 121.34 114.54 121.417 114.64 121.57L115.35 122.47C115.077 122.79 114.77 123.06 114.43 123.28C114.09 123.493 113.733 123.667 113.36 123.8C112.993 123.927 112.617 124.017 112.23 124.07C111.85 124.123 111.48 124.15 111.12 124.15C110.407 124.15 109.743 124.033 109.13 123.8C108.517 123.56 107.983 123.21 107.53 122.75C107.077 122.283 106.72 121.71 106.46 121.03C106.2 120.343 106.07 119.55 106.07 118.65C106.07 117.95 106.183 117.293 106.41 116.68C106.637 116.06 106.96 115.523 107.38 115.07C107.807 114.61 108.323 114.247 108.93 113.98C109.543 113.713 110.233 113.58 111 113.58C111.647 113.58 112.243 113.683 112.79 113.89C113.337 114.097 113.807 114.4 114.2 114.8C114.593 115.193 114.9 115.68 115.12 116.26C115.347 116.833 115.46 117.49 115.46 118.23C115.46 118.603 115.42 118.857 115.34 118.99C115.26 119.117 115.107 119.18 114.88 119.18H108.53ZM126.31 113.74L122.24 124H120L115.93 113.74H117.97C118.157 113.74 118.31 113.783 118.43 113.87C118.557 113.957 118.64 114.067 118.68 114.2L120.66 119.68C120.767 120 120.86 120.313 120.94 120.62C121.02 120.927 121.09 121.233 121.15 121.54C121.217 121.233 121.29 120.927 121.37 120.62C121.45 120.313 121.547 120 121.66 119.68L123.68 114.2C123.727 114.067 123.81 113.957 123.93 113.87C124.05 113.783 124.193 113.74 124.36 113.74H126.31ZM133.924 117.69C133.924 117.37 133.877 117.07 133.784 116.79C133.697 116.503 133.564 116.253 133.384 116.04C133.204 115.827 132.974 115.66 132.694 115.54C132.42 115.413 132.1 115.35 131.734 115.35C131.02 115.35 130.457 115.553 130.044 115.96C129.637 116.367 129.377 116.943 129.264 117.69H133.924ZM129.214 119.18C129.254 119.707 129.347 120.163 129.494 120.55C129.64 120.93 129.834 121.247 130.074 121.5C130.314 121.747 130.597 121.933 130.924 122.06C131.257 122.18 131.624 122.24 132.024 122.24C132.424 122.24 132.767 122.193 133.054 122.1C133.347 122.007 133.6 121.903 133.814 121.79C134.034 121.677 134.224 121.573 134.384 121.48C134.55 121.387 134.71 121.34 134.864 121.34C135.07 121.34 135.224 121.417 135.324 121.57L136.034 122.47C135.76 122.79 135.454 123.06 135.114 123.28C134.774 123.493 134.417 123.667 134.044 123.8C133.677 123.927 133.3 124.017 132.914 124.07C132.534 124.123 132.164 124.15 131.804 124.15C131.09 124.15 130.427 124.033 129.814 123.8C129.2 123.56 128.667 123.21 128.214 122.75C127.76 122.283 127.404 121.71 127.144 121.03C126.884 120.343 126.754 119.55 126.754 118.65C126.754 117.95 126.867 117.293 127.094 116.68C127.32 116.06 127.644 115.523 128.064 115.07C128.49 114.61 129.007 114.247 129.614 113.98C130.227 113.713 130.917 113.58 131.684 113.58C132.33 113.58 132.927 113.683 133.474 113.89C134.02 114.097 134.49 114.4 134.884 114.8C135.277 115.193 135.584 115.68 135.804 116.26C136.03 116.833 136.144 117.49 136.144 118.23C136.144 118.603 136.104 118.857 136.024 118.99C135.944 119.117 135.79 119.18 135.564 119.18H129.214ZM140.307 115C140.514 114.793 140.731 114.603 140.957 114.43C141.191 114.25 141.434 114.1 141.687 113.98C141.947 113.853 142.224 113.757 142.517 113.69C142.811 113.617 143.131 113.58 143.477 113.58C144.037 113.58 144.534 113.677 144.967 113.87C145.401 114.057 145.761 114.323 146.047 114.67C146.341 115.01 146.561 115.42 146.707 115.9C146.861 116.373 146.937 116.897 146.937 117.47V124H144.467V117.47C144.467 116.843 144.324 116.36 144.037 116.02C143.751 115.673 143.314 115.5 142.727 115.5C142.301 115.5 141.901 115.597 141.527 115.79C141.154 115.983 140.801 116.247 140.467 116.58V124H137.997V113.74H139.507C139.827 113.74 140.037 113.89 140.137 114.19L140.307 115ZM158.126 113.74V124H156.616C156.29 124 156.083 123.85 155.996 123.55L155.826 122.73C155.406 123.157 154.943 123.503 154.436 123.77C153.93 124.03 153.333 124.16 152.646 124.16C152.086 124.16 151.59 124.067 151.156 123.88C150.73 123.687 150.37 123.417 150.076 123.07C149.783 122.723 149.56 122.313 149.406 121.84C149.26 121.36 149.186 120.833 149.186 120.26V113.74H151.656V120.26C151.656 120.887 151.8 121.373 152.086 121.72C152.38 122.06 152.816 122.23 153.396 122.23C153.823 122.23 154.223 122.137 154.596 121.95C154.97 121.757 155.323 121.493 155.656 121.16V113.74H158.126ZM167.185 117.69C167.185 117.37 167.139 117.07 167.045 116.79C166.959 116.503 166.825 116.253 166.645 116.04C166.465 115.827 166.235 115.66 165.955 115.54C165.682 115.413 165.362 115.35 164.995 115.35C164.282 115.35 163.719 115.553 163.305 115.96C162.899 116.367 162.639 116.943 162.525 117.69H167.185ZM162.475 119.18C162.515 119.707 162.609 120.163 162.755 120.55C162.902 120.93 163.095 121.247 163.335 121.5C163.575 121.747 163.859 121.933 164.185 122.06C164.519 122.18 164.885 122.24 165.285 122.24C165.685 122.24 166.029 122.193 166.315 122.1C166.609 122.007 166.862 121.903 167.075 121.79C167.295 121.677 167.485 121.573 167.645 121.48C167.812 121.387 167.972 121.34 168.125 121.34C168.332 121.34 168.485 121.417 168.585 121.57L169.295 122.47C169.022 122.79 168.715 123.06 168.375 123.28C168.035 123.493 167.679 123.667 167.305 123.8C166.939 123.927 166.562 124.017 166.175 124.07C165.795 124.123 165.425 124.15 165.065 124.15C164.352 124.15 163.689 124.033 163.075 123.8C162.462 123.56 161.929 123.21 161.475 122.75C161.022 122.283 160.665 121.71 160.405 121.03C160.145 120.343 160.015 119.55 160.015 118.65C160.015 117.95 160.129 117.293 160.355 116.68C160.582 116.06 160.905 115.523 161.325 115.07C161.752 114.61 162.269 114.247 162.875 113.98C163.489 113.713 164.179 113.58 164.945 113.58C165.592 113.58 166.189 113.683 166.735 113.89C167.282 114.097 167.752 114.4 168.145 114.8C168.539 115.193 168.845 115.68 169.065 116.26C169.292 116.833 169.405 117.49 169.405 118.23C169.405 118.603 169.365 118.857 169.285 118.99C169.205 119.117 169.052 119.18 168.825 119.18H162.475ZM190.302 116.77C190.302 117.83 190.126 118.813 189.772 119.72C189.426 120.62 188.932 121.4 188.292 122.06C187.652 122.72 186.882 123.237 185.982 123.61C185.082 123.977 184.082 124.16 182.982 124.16C181.889 124.16 180.892 123.977 179.992 123.61C179.092 123.237 178.319 122.72 177.672 122.06C177.032 121.4 176.536 120.62 176.182 119.72C175.829 118.813 175.652 117.83 175.652 116.77C175.652 115.71 175.829 114.73 176.182 113.83C176.536 112.923 177.032 112.14 177.672 111.48C178.319 110.82 179.092 110.307 179.992 109.94C180.892 109.567 181.889 109.38 182.982 109.38C183.716 109.38 184.406 109.467 185.052 109.64C185.699 109.807 186.292 110.047 186.832 110.36C187.372 110.667 187.856 111.043 188.282 111.49C188.716 111.93 189.082 112.423 189.382 112.97C189.682 113.517 189.909 114.11 190.062 114.75C190.222 115.39 190.302 116.063 190.302 116.77ZM187.552 116.77C187.552 115.977 187.446 115.267 187.232 114.64C187.019 114.007 186.716 113.47 186.322 113.03C185.929 112.59 185.449 112.253 184.882 112.02C184.322 111.787 183.689 111.67 182.982 111.67C182.276 111.67 181.639 111.787 181.072 112.02C180.512 112.253 180.032 112.59 179.632 113.03C179.239 113.47 178.936 114.007 178.722 114.64C178.509 115.267 178.402 115.977 178.402 116.77C178.402 117.563 178.509 118.277 178.722 118.91C178.936 119.537 179.239 120.07 179.632 120.51C180.032 120.943 180.512 121.277 181.072 121.51C181.639 121.743 182.276 121.86 182.982 121.86C183.689 121.86 184.322 121.743 184.882 121.51C185.449 121.277 185.929 120.943 186.322 120.51C186.716 120.07 187.019 119.537 187.232 118.91C187.446 118.277 187.552 117.563 187.552 116.77ZM194.569 121.34C194.849 121.68 195.152 121.92 195.479 122.06C195.812 122.2 196.172 122.27 196.559 122.27C196.932 122.27 197.269 122.2 197.569 122.06C197.869 121.92 198.122 121.707 198.329 121.42C198.542 121.133 198.706 120.773 198.819 120.34C198.932 119.9 198.989 119.383 198.989 118.79C198.989 118.19 198.939 117.683 198.839 117.27C198.746 116.85 198.609 116.51 198.429 116.25C198.249 115.99 198.029 115.8 197.769 115.68C197.516 115.56 197.226 115.5 196.899 115.5C196.386 115.5 195.949 115.61 195.589 115.83C195.229 116.043 194.889 116.347 194.569 116.74V121.34ZM194.439 115.14C194.859 114.667 195.336 114.283 195.869 113.99C196.402 113.697 197.029 113.55 197.749 113.55C198.309 113.55 198.819 113.667 199.279 113.9C199.746 114.133 200.146 114.473 200.479 114.92C200.819 115.36 201.079 115.907 201.259 116.56C201.446 117.207 201.539 117.95 201.539 118.79C201.539 119.557 201.436 120.267 201.229 120.92C201.022 121.573 200.726 122.14 200.339 122.62C199.959 123.1 199.496 123.477 198.949 123.75C198.409 124.017 197.802 124.15 197.129 124.15C196.556 124.15 196.066 124.063 195.659 123.89C195.252 123.71 194.889 123.463 194.569 123.15V127.35H192.099V113.74H193.609C193.929 113.74 194.139 113.89 194.239 114.19L194.439 115.14ZM205.936 121.34C206.216 121.68 206.519 121.92 206.846 122.06C207.179 122.2 207.539 122.27 207.926 122.27C208.299 122.27 208.636 122.2 208.936 122.06C209.236 121.92 209.489 121.707 209.696 121.42C209.909 121.133 210.073 120.773 210.186 120.34C210.299 119.9 210.356 119.383 210.356 118.79C210.356 118.19 210.306 117.683 210.206 117.27C210.113 116.85 209.976 116.51 209.796 116.25C209.616 115.99 209.396 115.8 209.136 115.68C208.883 115.56 208.593 115.5 208.266 115.5C207.753 115.5 207.316 115.61 206.956 115.83C206.596 116.043 206.256 116.347 205.936 116.74V121.34ZM205.806 115.14C206.226 114.667 206.703 114.283 207.236 113.99C207.769 113.697 208.396 113.55 209.116 113.55C209.676 113.55 210.186 113.667 210.646 113.9C211.113 114.133 211.513 114.473 211.846 114.92C212.186 115.36 212.446 115.907 212.626 116.56C212.813 117.207 212.906 117.95 212.906 118.79C212.906 119.557 212.803 120.267 212.596 120.92C212.389 121.573 212.093 122.14 211.706 122.62C211.326 123.1 210.863 123.477 210.316 123.75C209.776 124.017 209.169 124.15 208.496 124.15C207.923 124.15 207.433 124.063 207.026 123.89C206.619 123.71 206.256 123.463 205.936 123.15V127.35H203.466V113.74H204.976C205.296 113.74 205.506 113.89 205.606 114.19L205.806 115.14ZM219.373 113.58C220.133 113.58 220.823 113.703 221.443 113.95C222.07 114.197 222.603 114.547 223.043 115C223.49 115.453 223.833 116.007 224.073 116.66C224.313 117.313 224.433 118.043 224.433 118.85C224.433 119.663 224.313 120.397 224.073 121.05C223.833 121.703 223.49 122.26 223.043 122.72C222.603 123.18 222.07 123.533 221.443 123.78C220.823 124.027 220.133 124.15 219.373 124.15C218.607 124.15 217.91 124.027 217.283 123.78C216.657 123.533 216.12 123.18 215.673 122.72C215.233 122.26 214.89 121.703 214.643 121.05C214.403 120.397 214.283 119.663 214.283 118.85C214.283 118.043 214.403 117.313 214.643 116.66C214.89 116.007 215.233 115.453 215.673 115C216.12 114.547 216.657 114.197 217.283 113.95C217.91 113.703 218.607 113.58 219.373 113.58ZM219.373 122.25C220.227 122.25 220.857 121.963 221.263 121.39C221.677 120.817 221.883 119.977 221.883 118.87C221.883 117.763 221.677 116.92 221.263 116.34C220.857 115.76 220.227 115.47 219.373 115.47C218.507 115.47 217.863 115.763 217.443 116.35C217.03 116.93 216.823 117.77 216.823 118.87C216.823 119.97 217.03 120.81 217.443 121.39C217.863 121.963 218.507 122.25 219.373 122.25ZM228.648 115.52C228.968 114.907 229.348 114.427 229.788 114.08C230.228 113.727 230.748 113.55 231.348 113.55C231.821 113.55 232.201 113.653 232.488 113.86L232.328 115.71C232.294 115.83 232.244 115.917 232.178 115.97C232.118 116.017 232.034 116.04 231.928 116.04C231.828 116.04 231.678 116.023 231.478 115.99C231.284 115.957 231.094 115.94 230.908 115.94C230.634 115.94 230.391 115.98 230.178 116.06C229.964 116.14 229.771 116.257 229.598 116.41C229.431 116.557 229.281 116.737 229.148 116.95C229.021 117.163 228.901 117.407 228.788 117.68V124H226.318V113.74H227.768C228.021 113.74 228.198 113.787 228.298 113.88C228.398 113.967 228.464 114.127 228.498 114.36L228.648 115.52ZM237.199 124.16C236.305 124.16 235.619 123.91 235.139 123.41C234.665 122.903 234.429 122.207 234.429 121.32V115.59H233.379C233.245 115.59 233.132 115.547 233.039 115.46C232.945 115.373 232.899 115.243 232.899 115.07V114.09L234.549 113.82L235.069 111.02C235.102 110.887 235.165 110.783 235.259 110.71C235.352 110.637 235.472 110.6 235.619 110.6H236.899V113.83H239.639V115.59H236.899V121.15C236.899 121.47 236.975 121.72 237.129 121.9C237.289 122.08 237.505 122.17 237.779 122.17C237.932 122.17 238.059 122.153 238.159 122.12C238.265 122.08 238.355 122.04 238.429 122C238.509 121.96 238.579 121.923 238.639 121.89C238.699 121.85 238.759 121.83 238.819 121.83C238.892 121.83 238.952 121.85 238.999 121.89C239.045 121.923 239.095 121.977 239.149 122.05L239.889 123.25C239.529 123.55 239.115 123.777 238.649 123.93C238.182 124.083 237.699 124.16 237.199 124.16ZM250.06 113.74V124H248.55C248.223 124 248.017 123.85 247.93 123.55L247.76 122.73C247.34 123.157 246.877 123.503 246.37 123.77C245.863 124.03 245.267 124.16 244.58 124.16C244.02 124.16 243.523 124.067 243.09 123.88C242.663 123.687 242.303 123.417 242.01 123.07C241.717 122.723 241.493 122.313 241.34 121.84C241.193 121.36 241.12 120.833 241.12 120.26V113.74H243.59V120.26C243.59 120.887 243.733 121.373 244.02 121.72C244.313 122.06 244.75 122.23 245.33 122.23C245.757 122.23 246.157 122.137 246.53 121.95C246.903 121.757 247.257 121.493 247.59 121.16V113.74H250.06ZM254.819 115C255.026 114.793 255.242 114.603 255.469 114.43C255.702 114.25 255.946 114.1 256.199 113.98C256.459 113.853 256.736 113.757 257.029 113.69C257.322 113.617 257.642 113.58 257.989 113.58C258.549 113.58 259.046 113.677 259.479 113.87C259.912 114.057 260.272 114.323 260.559 114.67C260.852 115.01 261.072 115.42 261.219 115.9C261.372 116.373 261.449 116.897 261.449 117.47V124H258.979V117.47C258.979 116.843 258.836 116.36 258.549 116.02C258.262 115.673 257.826 115.5 257.239 115.5C256.812 115.5 256.412 115.597 256.039 115.79C255.666 115.983 255.312 116.247 254.979 116.58V124H252.509V113.74H254.019C254.339 113.74 254.549 113.89 254.649 114.19L254.819 115ZM266.358 113.74V124H263.878V113.74H266.358ZM266.698 110.75C266.698 110.963 266.655 111.163 266.568 111.35C266.481 111.537 266.365 111.7 266.218 111.84C266.078 111.98 265.911 112.093 265.718 112.18C265.525 112.26 265.318 112.3 265.098 112.3C264.885 112.3 264.681 112.26 264.488 112.18C264.301 112.093 264.138 111.98 263.998 111.84C263.858 111.7 263.745 111.537 263.658 111.35C263.578 111.163 263.538 110.963 263.538 110.75C263.538 110.53 263.578 110.323 263.658 110.13C263.745 109.937 263.858 109.77 263.998 109.63C264.138 109.49 264.301 109.38 264.488 109.3C264.681 109.213 264.885 109.17 265.098 109.17C265.318 109.17 265.525 109.213 265.718 109.3C265.911 109.38 266.078 109.49 266.218 109.63C266.365 109.77 266.481 109.937 266.568 110.13C266.655 110.323 266.698 110.53 266.698 110.75ZM279.226 124H276.756V115.59H271.996V121.15C271.996 121.47 272.073 121.72 272.226 121.9C272.386 122.08 272.603 122.17 272.876 122.17C273.03 122.17 273.156 122.153 273.256 122.12C273.363 122.08 273.453 122.04 273.526 122C273.606 121.96 273.676 121.923 273.736 121.89C273.796 121.85 273.856 121.83 273.916 121.83C273.99 121.83 274.05 121.85 274.096 121.89C274.143 121.923 274.193 121.977 274.246 122.05L274.986 123.25C274.626 123.55 274.213 123.777 273.746 123.93C273.28 124.083 272.796 124.16 272.296 124.16C271.403 124.16 270.716 123.91 270.236 123.41C269.763 122.903 269.526 122.207 269.526 121.32V115.59H268.476C268.343 115.59 268.23 115.547 268.136 115.46C268.043 115.373 267.996 115.243 267.996 115.07V114.09L269.646 113.81L270.166 111.02C270.2 110.887 270.263 110.783 270.356 110.71C270.45 110.637 270.57 110.6 270.716 110.6H271.996V113.83H279.226V124ZM279.656 110.71C279.656 110.923 279.613 111.127 279.526 111.32C279.44 111.507 279.323 111.67 279.176 111.81C279.036 111.95 278.866 112.063 278.666 112.15C278.473 112.23 278.266 112.27 278.046 112.27C277.833 112.27 277.633 112.23 277.446 112.15C277.26 112.063 277.096 111.95 276.956 111.81C276.816 111.67 276.703 111.507 276.616 111.32C276.536 111.127 276.496 110.923 276.496 110.71C276.496 110.49 276.536 110.287 276.616 110.1C276.703 109.907 276.816 109.74 276.956 109.6C277.096 109.453 277.26 109.34 277.446 109.26C277.633 109.173 277.833 109.13 278.046 109.13C278.266 109.13 278.473 109.173 278.666 109.26C278.866 109.34 279.036 109.453 279.176 109.6C279.323 109.74 279.44 109.907 279.526 110.1C279.613 110.287 279.656 110.49 279.656 110.71ZM288.357 117.69C288.357 117.37 288.311 117.07 288.217 116.79C288.131 116.503 287.997 116.253 287.817 116.04C287.637 115.827 287.407 115.66 287.127 115.54C286.854 115.413 286.534 115.35 286.167 115.35C285.454 115.35 284.891 115.553 284.477 115.96C284.071 116.367 283.811 116.943 283.697 117.69H288.357ZM283.647 119.18C283.687 119.707 283.781 120.163 283.927 120.55C284.074 120.93 284.267 121.247 284.507 121.5C284.747 121.747 285.031 121.933 285.357 122.06C285.691 122.18 286.057 122.24 286.457 122.24C286.857 122.24 287.201 122.193 287.487 122.1C287.781 122.007 288.034 121.903 288.247 121.79C288.467 121.677 288.657 121.573 288.817 121.48C288.984 121.387 289.144 121.34 289.297 121.34C289.504 121.34 289.657 121.417 289.757 121.57L290.467 122.47C290.194 122.79 289.887 123.06 289.547 123.28C289.207 123.493 288.851 123.667 288.477 123.8C288.111 123.927 287.734 124.017 287.347 124.07C286.967 124.123 286.597 124.15 286.237 124.15C285.524 124.15 284.861 124.033 284.247 123.8C283.634 123.56 283.101 123.21 282.647 122.75C282.194 122.283 281.837 121.71 281.577 121.03C281.317 120.343 281.187 119.55 281.187 118.65C281.187 117.95 281.301 117.293 281.527 116.68C281.754 116.06 282.077 115.523 282.497 115.07C282.924 114.61 283.441 114.247 284.047 113.98C284.661 113.713 285.351 113.58 286.117 113.58C286.764 113.58 287.361 113.683 287.907 113.89C288.454 114.097 288.924 114.4 289.317 114.8C289.711 115.193 290.017 115.68 290.237 116.26C290.464 116.833 290.577 117.49 290.577 118.23C290.577 118.603 290.537 118.857 290.457 118.99C290.377 119.117 290.224 119.18 289.997 119.18H283.647ZM298.691 115.74C298.624 115.847 298.554 115.923 298.481 115.97C298.408 116.01 298.314 116.03 298.201 116.03C298.081 116.03 297.951 115.997 297.811 115.93C297.678 115.863 297.521 115.79 297.341 115.71C297.161 115.623 296.954 115.547 296.721 115.48C296.494 115.413 296.224 115.38 295.911 115.38C295.424 115.38 295.041 115.483 294.761 115.69C294.488 115.897 294.351 116.167 294.351 116.5C294.351 116.72 294.421 116.907 294.561 117.06C294.708 117.207 294.898 117.337 295.131 117.45C295.371 117.563 295.641 117.667 295.941 117.76C296.241 117.847 296.544 117.943 296.851 118.05C297.164 118.157 297.471 118.28 297.771 118.42C298.071 118.553 298.338 118.727 298.571 118.94C298.811 119.147 299.001 119.397 299.141 119.69C299.288 119.983 299.361 120.337 299.361 120.75C299.361 121.243 299.271 121.7 299.091 122.12C298.918 122.533 298.658 122.893 298.311 123.2C297.964 123.5 297.534 123.737 297.021 123.91C296.514 124.077 295.928 124.16 295.261 124.16C294.908 124.16 294.561 124.127 294.221 124.06C293.888 124 293.564 123.913 293.251 123.8C292.944 123.687 292.658 123.553 292.391 123.4C292.131 123.247 291.901 123.08 291.701 122.9L292.271 121.96C292.344 121.847 292.431 121.76 292.531 121.7C292.631 121.64 292.758 121.61 292.911 121.61C293.064 121.61 293.208 121.653 293.341 121.74C293.481 121.827 293.641 121.92 293.821 122.02C294.001 122.12 294.211 122.213 294.451 122.3C294.698 122.387 295.008 122.43 295.381 122.43C295.674 122.43 295.924 122.397 296.131 122.33C296.344 122.257 296.518 122.163 296.651 122.05C296.791 121.937 296.891 121.807 296.951 121.66C297.018 121.507 297.051 121.35 297.051 121.19C297.051 120.95 296.978 120.753 296.831 120.6C296.691 120.447 296.501 120.313 296.261 120.2C296.028 120.087 295.758 119.987 295.451 119.9C295.151 119.807 294.841 119.707 294.521 119.6C294.208 119.493 293.898 119.37 293.591 119.23C293.291 119.083 293.021 118.9 292.781 118.68C292.548 118.46 292.358 118.19 292.211 117.87C292.071 117.55 292.001 117.163 292.001 116.71C292.001 116.29 292.084 115.89 292.251 115.51C292.418 115.13 292.661 114.8 292.981 114.52C293.308 114.233 293.711 114.007 294.191 113.84C294.678 113.667 295.238 113.58 295.871 113.58C296.578 113.58 297.221 113.697 297.801 113.93C298.381 114.163 298.864 114.47 299.251 114.85L298.691 115.74Z" fill="#FAFAFA"/>
<path d="M94.7676 144.536V156H93.2156V150.784H87.0316V156H85.4796V144.536H87.0316V149.648H93.2156V144.536H94.7676ZM102.536 151.064C102.536 150.733 102.488 150.432 102.392 150.16C102.302 149.883 102.166 149.645 101.984 149.448C101.808 149.245 101.592 149.091 101.336 148.984C101.08 148.872 100.79 148.816 100.464 148.816C99.7817 148.816 99.2404 149.016 98.8404 149.416C98.4457 149.811 98.2004 150.36 98.1044 151.064H102.536ZM103.688 154.864C103.512 155.077 103.302 155.264 103.056 155.424C102.811 155.579 102.547 155.707 102.264 155.808C101.987 155.909 101.699 155.984 101.4 156.032C101.102 156.085 100.806 156.112 100.512 156.112C99.9524 156.112 99.435 156.019 98.9604 155.832C98.491 155.64 98.083 155.363 97.7364 155C97.395 154.632 97.1284 154.179 96.9364 153.64C96.7444 153.101 96.6484 152.483 96.6484 151.784C96.6484 151.219 96.7337 150.691 96.9044 150.2C97.0804 149.709 97.331 149.285 97.6564 148.928C97.9817 148.565 98.379 148.283 98.8484 148.08C99.3177 147.872 99.8457 147.768 100.432 147.768C100.918 147.768 101.366 147.851 101.776 148.016C102.192 148.176 102.55 148.411 102.848 148.72C103.152 149.024 103.39 149.403 103.56 149.856C103.731 150.304 103.816 150.816 103.816 151.392C103.816 151.616 103.792 151.765 103.744 151.84C103.696 151.915 103.606 151.952 103.472 151.952H98.0564C98.0724 152.464 98.1417 152.909 98.2644 153.288C98.3924 153.667 98.5684 153.984 98.7924 154.24C99.0164 154.491 99.283 154.68 99.5924 154.808C99.9017 154.931 100.248 154.992 100.632 154.992C100.99 154.992 101.296 154.952 101.552 154.872C101.814 154.787 102.038 154.696 102.224 154.6C102.411 154.504 102.566 154.416 102.688 154.336C102.816 154.251 102.926 154.208 103.016 154.208C103.134 154.208 103.224 154.253 103.288 154.344L103.688 154.864ZM107.038 144.216V156H105.613V144.216H107.038ZM110.779 154.048C111.04 154.4 111.325 154.648 111.635 154.792C111.944 154.936 112.291 155.008 112.675 155.008C113.432 155.008 114.013 154.739 114.419 154.2C114.824 153.661 115.027 152.893 115.027 151.896C115.027 151.368 114.979 150.915 114.883 150.536C114.792 150.157 114.659 149.848 114.483 149.608C114.307 149.363 114.091 149.184 113.835 149.072C113.579 148.96 113.288 148.904 112.963 148.904C112.499 148.904 112.091 149.011 111.739 149.224C111.392 149.437 111.072 149.739 110.779 150.128V154.048ZM110.707 149.152C111.048 148.731 111.443 148.392 111.891 148.136C112.339 147.88 112.851 147.752 113.427 147.752C113.896 147.752 114.32 147.843 114.699 148.024C115.077 148.2 115.4 148.464 115.667 148.816C115.933 149.163 116.139 149.595 116.283 150.112C116.427 150.629 116.499 151.224 116.499 151.896C116.499 152.493 116.419 153.051 116.259 153.568C116.099 154.08 115.867 154.525 115.563 154.904C115.264 155.277 114.896 155.573 114.459 155.792C114.027 156.005 113.539 156.112 112.995 156.112C112.499 156.112 112.072 156.029 111.715 155.864C111.363 155.693 111.051 155.459 110.779 155.16V158.744H109.347V147.896H110.203C110.405 147.896 110.531 147.995 110.579 148.192L110.707 149.152ZM123.036 149.232C122.972 149.349 122.873 149.408 122.74 149.408C122.66 149.408 122.569 149.379 122.468 149.32C122.366 149.261 122.241 149.197 122.092 149.128C121.948 149.053 121.774 148.987 121.572 148.928C121.369 148.864 121.129 148.832 120.852 148.832C120.612 148.832 120.396 148.864 120.204 148.928C120.012 148.987 119.846 149.069 119.708 149.176C119.574 149.283 119.47 149.408 119.396 149.552C119.326 149.691 119.292 149.843 119.292 150.008C119.292 150.216 119.35 150.389 119.468 150.528C119.59 150.667 119.75 150.787 119.948 150.888C120.145 150.989 120.369 151.08 120.62 151.16C120.87 151.235 121.126 151.317 121.388 151.408C121.654 151.493 121.913 151.589 122.164 151.696C122.414 151.803 122.638 151.936 122.836 152.096C123.033 152.256 123.19 152.453 123.308 152.688C123.43 152.917 123.492 153.195 123.492 153.52C123.492 153.893 123.425 154.24 123.292 154.56C123.158 154.875 122.961 155.149 122.7 155.384C122.438 155.613 122.118 155.795 121.74 155.928C121.361 156.061 120.924 156.128 120.428 156.128C119.862 156.128 119.35 156.037 118.892 155.856C118.433 155.669 118.044 155.432 117.724 155.144L118.06 154.6C118.102 154.531 118.153 154.477 118.212 154.44C118.27 154.403 118.345 154.384 118.436 154.384C118.532 154.384 118.633 154.421 118.74 154.496C118.846 154.571 118.974 154.653 119.124 154.744C119.278 154.835 119.465 154.917 119.684 154.992C119.902 155.067 120.174 155.104 120.5 155.104C120.777 155.104 121.02 155.069 121.227 155C121.436 154.925 121.609 154.827 121.748 154.704C121.886 154.581 121.988 154.44 122.052 154.28C122.121 154.12 122.156 153.949 122.156 153.768C122.156 153.544 122.094 153.36 121.972 153.216C121.854 153.067 121.697 152.941 121.5 152.84C121.302 152.733 121.076 152.643 120.82 152.568C120.569 152.488 120.31 152.405 120.044 152.32C119.782 152.235 119.524 152.139 119.268 152.032C119.017 151.92 118.793 151.781 118.596 151.616C118.398 151.451 118.238 151.248 118.116 151.008C117.998 150.763 117.94 150.467 117.94 150.12C117.94 149.811 118.004 149.515 118.132 149.232C118.26 148.944 118.446 148.693 118.692 148.48C118.937 148.261 119.238 148.088 119.596 147.96C119.953 147.832 120.361 147.768 120.82 147.768C121.353 147.768 121.83 147.853 122.252 148.024C122.678 148.189 123.046 148.419 123.356 148.712L123.036 149.232ZM135.917 147.896L131.397 158.392C131.349 158.499 131.288 158.584 131.213 158.648C131.144 158.712 131.034 158.744 130.885 158.744H129.829L131.309 155.528L127.965 147.896H129.197C129.32 147.896 129.416 147.928 129.485 147.992C129.56 148.051 129.61 148.117 129.637 148.192L131.805 153.296C131.89 153.52 131.962 153.755 132.021 154C132.096 153.749 132.176 153.512 132.261 153.288L134.365 148.192C134.397 148.107 134.45 148.037 134.525 147.984C134.605 147.925 134.693 147.896 134.789 147.896H135.917ZM140.372 147.768C140.964 147.768 141.497 147.867 141.972 148.064C142.447 148.261 142.852 148.541 143.188 148.904C143.524 149.267 143.78 149.707 143.956 150.224C144.137 150.736 144.228 151.309 144.228 151.944C144.228 152.584 144.137 153.16 143.956 153.672C143.78 154.184 143.524 154.621 143.188 154.984C142.852 155.347 142.447 155.627 141.972 155.824C141.497 156.016 140.964 156.112 140.372 156.112C139.775 156.112 139.236 156.016 138.756 155.824C138.281 155.627 137.876 155.347 137.54 154.984C137.204 154.621 136.945 154.184 136.764 153.672C136.588 153.16 136.5 152.584 136.5 151.944C136.5 151.309 136.588 150.736 136.764 150.224C136.945 149.707 137.204 149.267 137.54 148.904C137.876 148.541 138.281 148.261 138.756 148.064C139.236 147.867 139.775 147.768 140.372 147.768ZM140.372 155C141.172 155 141.769 154.733 142.164 154.2C142.559 153.661 142.756 152.912 142.756 151.952C142.756 150.987 142.559 150.235 142.164 149.696C141.769 149.157 141.172 148.888 140.372 148.888C139.967 148.888 139.612 148.957 139.308 149.096C139.009 149.235 138.759 149.435 138.556 149.696C138.359 149.957 138.209 150.28 138.108 150.664C138.012 151.043 137.964 151.472 137.964 151.952C137.964 152.912 138.161 153.661 138.556 154.2C138.956 154.733 139.561 155 140.372 155ZM152.698 147.896V156H151.85C151.648 156 151.52 155.901 151.466 155.704L151.354 154.832C151.002 155.221 150.608 155.536 150.17 155.776C149.733 156.011 149.232 156.128 148.666 156.128C148.224 156.128 147.832 156.056 147.49 155.912C147.154 155.763 146.872 155.555 146.642 155.288C146.413 155.021 146.24 154.699 146.122 154.32C146.01 153.941 145.954 153.523 145.954 153.064V147.896H147.378V153.064C147.378 153.677 147.517 154.152 147.794 154.488C148.077 154.824 148.506 154.992 149.082 154.992C149.504 154.992 149.896 154.893 150.258 154.696C150.626 154.493 150.965 154.216 151.274 153.864V147.896H152.698ZM161.874 152.04C162.162 152.04 162.415 152 162.634 151.92C162.853 151.84 163.037 151.728 163.186 151.584C163.335 151.44 163.447 151.269 163.522 151.072C163.597 150.869 163.634 150.648 163.634 150.408C163.634 149.912 163.482 149.517 163.178 149.224C162.879 148.931 162.445 148.784 161.874 148.784C161.298 148.784 160.858 148.931 160.554 149.224C160.255 149.517 160.106 149.912 160.106 150.408C160.106 150.648 160.143 150.869 160.218 151.072C160.298 151.269 160.413 151.44 160.562 151.584C160.711 151.728 160.895 151.84 161.114 151.92C161.333 152 161.586 152.04 161.874 152.04ZM164.442 156.44C164.442 156.243 164.386 156.083 164.274 155.96C164.162 155.837 164.01 155.741 163.818 155.672C163.631 155.603 163.413 155.555 163.162 155.528C162.911 155.496 162.645 155.472 162.362 155.456C162.085 155.44 161.802 155.424 161.514 155.408C161.226 155.392 160.949 155.365 160.682 155.328C160.383 155.467 160.138 155.643 159.946 155.856C159.759 156.064 159.666 156.309 159.666 156.592C159.666 156.773 159.711 156.941 159.802 157.096C159.898 157.256 160.042 157.392 160.234 157.504C160.426 157.621 160.666 157.712 160.954 157.776C161.247 157.845 161.591 157.88 161.986 157.88C162.37 157.88 162.714 157.845 163.018 157.776C163.322 157.707 163.578 157.608 163.786 157.48C163.999 157.352 164.162 157.2 164.274 157.024C164.386 156.848 164.442 156.653 164.442 156.44ZM165.89 148.216V148.744C165.89 148.92 165.778 149.032 165.554 149.08L164.634 149.2C164.815 149.552 164.906 149.941 164.906 150.368C164.906 150.763 164.829 151.123 164.674 151.448C164.525 151.768 164.317 152.043 164.05 152.272C163.783 152.501 163.463 152.677 163.09 152.8C162.717 152.923 162.311 152.984 161.874 152.984C161.495 152.984 161.138 152.939 160.802 152.848C160.631 152.955 160.501 153.069 160.41 153.192C160.319 153.309 160.274 153.429 160.274 153.552C160.274 153.744 160.351 153.891 160.506 153.992C160.666 154.088 160.874 154.157 161.13 154.2C161.386 154.243 161.677 154.269 162.002 154.28C162.333 154.291 162.669 154.309 163.01 154.336C163.357 154.357 163.693 154.397 164.018 154.456C164.349 154.515 164.642 154.611 164.898 154.744C165.154 154.877 165.359 155.061 165.514 155.296C165.674 155.531 165.754 155.835 165.754 156.208C165.754 156.555 165.666 156.891 165.49 157.216C165.319 157.541 165.071 157.829 164.746 158.08C164.421 158.336 164.021 158.539 163.546 158.688C163.077 158.843 162.546 158.92 161.954 158.92C161.362 158.92 160.845 158.861 160.402 158.744C159.959 158.627 159.591 158.469 159.298 158.272C159.005 158.075 158.783 157.845 158.634 157.584C158.49 157.328 158.418 157.059 158.418 156.776C158.418 156.376 158.543 156.037 158.794 155.76C159.045 155.483 159.389 155.261 159.826 155.096C159.586 154.989 159.394 154.848 159.25 154.672C159.111 154.491 159.042 154.248 159.042 153.944C159.042 153.827 159.063 153.707 159.106 153.584C159.149 153.456 159.213 153.331 159.298 153.208C159.389 153.08 159.498 152.96 159.626 152.848C159.754 152.736 159.903 152.637 160.074 152.552C159.674 152.328 159.362 152.032 159.138 151.664C158.914 151.291 158.802 150.859 158.802 150.368C158.802 149.973 158.877 149.616 159.026 149.296C159.181 148.971 159.394 148.696 159.666 148.472C159.938 148.243 160.261 148.067 160.634 147.944C161.013 147.821 161.426 147.76 161.874 147.76C162.226 147.76 162.554 147.8 162.858 147.88C163.162 147.955 163.439 148.067 163.69 148.216H165.89ZM171.754 152.352C171.098 152.373 170.538 152.427 170.074 152.512C169.616 152.592 169.24 152.699 168.946 152.832C168.658 152.965 168.448 153.123 168.314 153.304C168.186 153.485 168.122 153.688 168.122 153.912C168.122 154.125 168.157 154.309 168.226 154.464C168.296 154.619 168.389 154.747 168.506 154.848C168.629 154.944 168.77 155.016 168.93 155.064C169.096 155.107 169.272 155.128 169.458 155.128C169.709 155.128 169.938 155.104 170.146 155.056C170.354 155.003 170.549 154.928 170.73 154.832C170.917 154.736 171.093 154.621 171.258 154.488C171.429 154.355 171.594 154.203 171.754 154.032V152.352ZM167.154 149.04C167.602 148.608 168.085 148.285 168.602 148.072C169.12 147.859 169.693 147.752 170.322 147.752C170.776 147.752 171.178 147.827 171.53 147.976C171.882 148.125 172.178 148.333 172.418 148.6C172.658 148.867 172.84 149.189 172.962 149.568C173.085 149.947 173.146 150.363 173.146 150.816V156H172.514C172.376 156 172.269 155.979 172.194 155.936C172.12 155.888 172.061 155.797 172.018 155.664L171.858 154.896C171.645 155.093 171.437 155.269 171.234 155.424C171.032 155.573 170.818 155.701 170.594 155.808C170.37 155.909 170.13 155.987 169.874 156.04C169.624 156.099 169.344 156.128 169.034 156.128C168.72 156.128 168.424 156.085 168.146 156C167.869 155.909 167.626 155.776 167.418 155.6C167.216 155.424 167.053 155.203 166.93 154.936C166.813 154.664 166.754 154.344 166.754 153.976C166.754 153.656 166.842 153.349 167.018 153.056C167.194 152.757 167.48 152.493 167.874 152.264C168.269 152.035 168.784 151.848 169.418 151.704C170.053 151.555 170.832 151.469 171.754 151.448V150.816C171.754 150.187 171.618 149.712 171.346 149.392C171.074 149.067 170.677 148.904 170.154 148.904C169.802 148.904 169.506 148.949 169.266 149.04C169.032 149.125 168.826 149.224 168.65 149.336C168.48 149.443 168.33 149.541 168.202 149.632C168.08 149.717 167.957 149.76 167.834 149.76C167.738 149.76 167.656 149.736 167.586 149.688C167.517 149.635 167.458 149.571 167.41 149.496L167.154 149.04ZM176.82 147.896V156H175.396V147.896H176.82ZM177.124 145.352C177.124 145.491 177.094 145.621 177.036 145.744C176.982 145.861 176.908 145.968 176.812 146.064C176.721 146.155 176.612 146.227 176.484 146.28C176.361 146.333 176.23 146.36 176.092 146.36C175.953 146.36 175.822 146.333 175.7 146.28C175.582 146.227 175.478 146.155 175.388 146.064C175.297 145.968 175.225 145.861 175.172 145.744C175.118 145.621 175.092 145.491 175.092 145.352C175.092 145.213 175.118 145.083 175.172 144.96C175.225 144.832 175.297 144.723 175.388 144.632C175.478 144.536 175.582 144.461 175.7 144.408C175.822 144.355 175.953 144.328 176.092 144.328C176.23 144.328 176.361 144.355 176.484 144.408C176.612 144.461 176.721 144.536 176.812 144.632C176.908 144.723 176.982 144.832 177.036 144.96C177.094 145.083 177.124 145.213 177.124 145.352ZM180.503 149.072C180.679 148.875 180.866 148.696 181.063 148.536C181.261 148.376 181.469 148.24 181.687 148.128C181.911 148.011 182.146 147.923 182.391 147.864C182.642 147.8 182.911 147.768 183.199 147.768C183.642 147.768 184.031 147.843 184.367 147.992C184.709 148.136 184.991 148.344 185.215 148.616C185.445 148.883 185.618 149.205 185.735 149.584C185.853 149.963 185.911 150.381 185.911 150.84V156H184.479V150.84C184.479 150.227 184.338 149.752 184.055 149.416C183.778 149.075 183.354 148.904 182.783 148.904C182.362 148.904 181.967 149.005 181.599 149.208C181.237 149.411 180.901 149.685 180.591 150.032V156H179.159V147.896H180.015C180.218 147.896 180.343 147.995 180.391 148.192L180.503 149.072ZM194.999 152.04C195.287 152.04 195.54 152 195.759 151.92C195.978 151.84 196.162 151.728 196.311 151.584C196.46 151.44 196.572 151.269 196.647 151.072C196.722 150.869 196.759 150.648 196.759 150.408C196.759 149.912 196.607 149.517 196.303 149.224C196.004 148.931 195.57 148.784 194.999 148.784C194.423 148.784 193.983 148.931 193.679 149.224C193.38 149.517 193.231 149.912 193.231 150.408C193.231 150.648 193.268 150.869 193.343 151.072C193.423 151.269 193.538 151.44 193.687 151.584C193.836 151.728 194.02 151.84 194.239 151.92C194.458 152 194.711 152.04 194.999 152.04ZM197.567 156.44C197.567 156.243 197.511 156.083 197.399 155.96C197.287 155.837 197.135 155.741 196.943 155.672C196.756 155.603 196.538 155.555 196.287 155.528C196.036 155.496 195.77 155.472 195.487 155.456C195.21 155.44 194.927 155.424 194.639 155.408C194.351 155.392 194.074 155.365 193.807 155.328C193.508 155.467 193.263 155.643 193.071 155.856C192.884 156.064 192.791 156.309 192.791 156.592C192.791 156.773 192.836 156.941 192.927 157.096C193.023 157.256 193.167 157.392 193.359 157.504C193.551 157.621 193.791 157.712 194.079 157.776C194.372 157.845 194.716 157.88 195.111 157.88C195.495 157.88 195.839 157.845 196.143 157.776C196.447 157.707 196.703 157.608 196.911 157.48C197.124 157.352 197.287 157.2 197.399 157.024C197.511 156.848 197.567 156.653 197.567 156.44ZM199.015 148.216V148.744C199.015 148.92 198.903 149.032 198.679 149.08L197.759 149.2C197.94 149.552 198.031 149.941 198.031 150.368C198.031 150.763 197.954 151.123 197.799 151.448C197.65 151.768 197.442 152.043 197.175 152.272C196.908 152.501 196.588 152.677 196.215 152.8C195.842 152.923 195.436 152.984 194.999 152.984C194.62 152.984 194.263 152.939 193.927 152.848C193.756 152.955 193.626 153.069 193.535 153.192C193.444 153.309 193.399 153.429 193.399 153.552C193.399 153.744 193.476 153.891 193.631 153.992C193.791 154.088 193.999 154.157 194.255 154.2C194.511 154.243 194.802 154.269 195.127 154.28C195.458 154.291 195.794 154.309 196.135 154.336C196.482 154.357 196.818 154.397 197.143 154.456C197.474 154.515 197.767 154.611 198.023 154.744C198.279 154.877 198.484 155.061 198.639 155.296C198.799 155.531 198.879 155.835 198.879 156.208C198.879 156.555 198.791 156.891 198.615 157.216C198.444 157.541 198.196 157.829 197.871 158.08C197.546 158.336 197.146 158.539 196.671 158.688C196.202 158.843 195.671 158.92 195.079 158.92C194.487 158.92 193.97 158.861 193.527 158.744C193.084 158.627 192.716 158.469 192.423 158.272C192.13 158.075 191.908 157.845 191.759 157.584C191.615 157.328 191.543 157.059 191.543 156.776C191.543 156.376 191.668 156.037 191.919 155.76C192.17 155.483 192.514 155.261 192.951 155.096C192.711 154.989 192.519 154.848 192.375 154.672C192.236 154.491 192.167 154.248 192.167 153.944C192.167 153.827 192.188 153.707 192.231 153.584C192.274 153.456 192.338 153.331 192.423 153.208C192.514 153.08 192.623 152.96 192.751 152.848C192.879 152.736 193.028 152.637 193.199 152.552C192.799 152.328 192.487 152.032 192.263 151.664C192.039 151.291 191.927 150.859 191.927 150.368C191.927 149.973 192.002 149.616 192.151 149.296C192.306 148.971 192.519 148.696 192.791 148.472C193.063 148.243 193.386 148.067 193.759 147.944C194.138 147.821 194.551 147.76 194.999 147.76C195.351 147.76 195.679 147.8 195.983 147.88C196.287 147.955 196.564 148.067 196.815 148.216H199.015ZM201.959 144.216V156H200.535V144.216H201.959ZM207.685 147.768C208.277 147.768 208.81 147.867 209.285 148.064C209.759 148.261 210.165 148.541 210.501 148.904C210.837 149.267 211.093 149.707 211.269 150.224C211.45 150.736 211.541 151.309 211.541 151.944C211.541 152.584 211.45 153.16 211.269 153.672C211.093 154.184 210.837 154.621 210.501 154.984C210.165 155.347 209.759 155.627 209.285 155.824C208.81 156.016 208.277 156.112 207.685 156.112C207.087 156.112 206.549 156.016 206.069 155.824C205.594 155.627 205.189 155.347 204.853 154.984C204.517 154.621 204.258 154.184 204.077 153.672C203.901 153.16 203.813 152.584 203.813 151.944C203.813 151.309 203.901 150.736 204.077 150.224C204.258 149.707 204.517 149.267 204.853 148.904C205.189 148.541 205.594 148.261 206.069 148.064C206.549 147.867 207.087 147.768 207.685 147.768ZM207.685 155C208.485 155 209.082 154.733 209.477 154.2C209.871 153.661 210.069 152.912 210.069 151.952C210.069 150.987 209.871 150.235 209.477 149.696C209.082 149.157 208.485 148.888 207.685 148.888C207.279 148.888 206.925 148.957 206.621 149.096C206.322 149.235 206.071 149.435 205.869 149.696C205.671 149.957 205.522 150.28 205.421 150.664C205.325 151.043 205.277 151.472 205.277 151.952C205.277 152.912 205.474 153.661 205.869 154.2C206.269 154.733 206.874 155 207.685 155ZM214.779 154.048C215.04 154.4 215.325 154.648 215.635 154.792C215.949 154.936 216.293 155.008 216.667 155.008C217.429 155.008 218.013 154.739 218.419 154.2C218.824 153.661 219.027 152.859 219.027 151.792C219.027 150.8 218.845 150.072 218.483 149.608C218.125 149.139 217.613 148.904 216.947 148.904C216.483 148.904 216.077 149.011 215.731 149.224C215.389 149.437 215.072 149.739 214.779 150.128V154.048ZM214.779 149.064C215.12 148.669 215.504 148.355 215.931 148.12C216.363 147.885 216.859 147.768 217.419 147.768C217.893 147.768 218.32 147.859 218.699 148.04C219.083 148.221 219.408 148.485 219.675 148.832C219.941 149.173 220.144 149.589 220.283 150.08C220.427 150.571 220.499 151.123 220.499 151.736C220.499 152.392 220.419 152.989 220.259 153.528C220.099 154.067 219.867 154.528 219.563 154.912C219.264 155.291 218.899 155.587 218.467 155.8C218.035 156.008 217.549 156.112 217.011 156.112C216.477 156.112 216.027 156.013 215.659 155.816C215.296 155.613 214.979 155.328 214.707 154.96L214.635 155.696C214.592 155.899 214.469 156 214.267 156H213.347V144.216H214.779V149.064ZM226.692 152.352C226.036 152.373 225.476 152.427 225.012 152.512C224.553 152.592 224.177 152.699 223.884 152.832C223.596 152.965 223.385 153.123 223.252 153.304C223.124 153.485 223.06 153.688 223.06 153.912C223.06 154.125 223.095 154.309 223.164 154.464C223.233 154.619 223.327 154.747 223.444 154.848C223.567 154.944 223.708 155.016 223.868 155.064C224.033 155.107 224.209 155.128 224.396 155.128C224.647 155.128 224.876 155.104 225.084 155.056C225.292 155.003 225.487 154.928 225.668 154.832C225.855 154.736 226.031 154.621 226.196 154.488C226.367 154.355 226.532 154.203 226.692 154.032V152.352ZM222.092 149.04C222.54 148.608 223.023 148.285 223.54 148.072C224.057 147.859 224.631 147.752 225.26 147.752C225.713 147.752 226.116 147.827 226.468 147.976C226.82 148.125 227.116 148.333 227.356 148.6C227.596 148.867 227.777 149.189 227.9 149.568C228.023 149.947 228.084 150.363 228.084 150.816V156H227.452C227.313 156 227.207 155.979 227.132 155.936C227.057 155.888 226.999 155.797 226.956 155.664L226.796 154.896C226.583 155.093 226.375 155.269 226.172 155.424C225.969 155.573 225.756 155.701 225.532 155.808C225.308 155.909 225.068 155.987 224.812 156.04C224.561 156.099 224.281 156.128 223.972 156.128C223.657 156.128 223.361 156.085 223.084 156C222.807 155.909 222.564 155.776 222.356 155.6C222.153 155.424 221.991 155.203 221.868 154.936C221.751 154.664 221.692 154.344 221.692 153.976C221.692 153.656 221.78 153.349 221.956 153.056C222.132 152.757 222.417 152.493 222.812 152.264C223.207 152.035 223.721 151.848 224.356 151.704C224.991 151.555 225.769 151.469 226.692 151.448V150.816C226.692 150.187 226.556 149.712 226.284 149.392C226.012 149.067 225.615 148.904 225.092 148.904C224.74 148.904 224.444 148.949 224.204 149.04C223.969 149.125 223.764 149.224 223.588 149.336C223.417 149.443 223.268 149.541 223.14 149.632C223.017 149.717 222.895 149.76 222.772 149.76C222.676 149.76 222.593 149.736 222.524 149.688C222.455 149.635 222.396 149.571 222.348 149.496L222.092 149.04ZM231.725 144.216V156H230.301V144.216H231.725ZM242.52 152.352C241.864 152.373 241.304 152.427 240.84 152.512C240.381 152.592 240.005 152.699 239.712 152.832C239.424 152.965 239.213 153.123 239.08 153.304C238.952 153.485 238.888 153.688 238.888 153.912C238.888 154.125 238.923 154.309 238.992 154.464C239.061 154.619 239.155 154.747 239.272 154.848C239.395 154.944 239.536 155.016 239.696 155.064C239.861 155.107 240.037 155.128 240.224 155.128C240.475 155.128 240.704 155.104 240.912 155.056C241.12 155.003 241.315 154.928 241.496 154.832C241.683 154.736 241.859 154.621 242.024 154.488C242.195 154.355 242.36 154.203 242.52 154.032V152.352ZM237.92 149.04C238.368 148.608 238.851 148.285 239.368 148.072C239.885 147.859 240.459 147.752 241.088 147.752C241.541 147.752 241.944 147.827 242.296 147.976C242.648 148.125 242.944 148.333 243.184 148.6C243.424 148.867 243.605 149.189 243.728 149.568C243.851 149.947 243.912 150.363 243.912 150.816V156H243.28C243.141 156 243.035 155.979 242.96 155.936C242.885 155.888 242.827 155.797 242.784 155.664L242.624 154.896C242.411 155.093 242.203 155.269 242 155.424C241.797 155.573 241.584 155.701 241.36 155.808C241.136 155.909 240.896 155.987 240.64 156.04C240.389 156.099 240.109 156.128 239.8 156.128C239.485 156.128 239.189 156.085 238.912 156C238.635 155.909 238.392 155.776 238.184 155.6C237.981 155.424 237.819 155.203 237.696 154.936C237.579 154.664 237.52 154.344 237.52 153.976C237.52 153.656 237.608 153.349 237.784 153.056C237.96 152.757 238.245 152.493 238.64 152.264C239.035 152.035 239.549 151.848 240.184 151.704C240.819 151.555 241.597 151.469 242.52 151.448V150.816C242.52 150.187 242.384 149.712 242.112 149.392C241.84 149.067 241.443 148.904 240.92 148.904C240.568 148.904 240.272 148.949 240.032 149.04C239.797 149.125 239.592 149.224 239.416 149.336C239.245 149.443 239.096 149.541 238.968 149.632C238.845 149.717 238.723 149.76 238.6 149.76C238.504 149.76 238.421 149.736 238.352 149.688C238.283 149.635 238.224 149.571 238.176 149.496L237.92 149.04ZM252.745 147.896V156H251.897C251.694 156 251.566 155.901 251.513 155.704L251.401 154.832C251.049 155.221 250.654 155.536 250.217 155.776C249.78 156.011 249.278 156.128 248.713 156.128C248.27 156.128 247.878 156.056 247.537 155.912C247.201 155.763 246.918 155.555 246.689 155.288C246.46 155.021 246.286 154.699 246.169 154.32C246.057 153.941 246.001 153.523 246.001 153.064V147.896H247.425V153.064C247.425 153.677 247.564 154.152 247.841 154.488C248.124 154.824 248.553 154.992 249.129 154.992C249.55 154.992 249.942 154.893 250.305 154.696C250.673 154.493 251.012 154.216 251.321 153.864V147.896H252.745ZM260.283 149.824C260.016 149.467 259.728 149.219 259.419 149.08C259.11 148.936 258.763 148.864 258.379 148.864C257.627 148.864 257.048 149.133 256.643 149.672C256.238 150.211 256.035 150.979 256.035 151.976C256.035 152.504 256.08 152.957 256.171 153.336C256.262 153.709 256.395 154.019 256.571 154.264C256.747 154.504 256.963 154.68 257.219 154.792C257.475 154.904 257.766 154.96 258.091 154.96C258.56 154.96 258.968 154.853 259.315 154.64C259.667 154.427 259.99 154.125 260.283 153.736V149.824ZM261.707 144.216V156H260.859C260.656 156 260.528 155.901 260.475 155.704L260.347 154.72C260 155.136 259.606 155.472 259.163 155.728C258.72 155.984 258.208 156.112 257.627 156.112C257.163 156.112 256.742 156.024 256.363 155.848C255.984 155.667 255.662 155.403 255.395 155.056C255.128 154.709 254.923 154.277 254.779 153.76C254.635 153.243 254.563 152.648 254.563 151.976C254.563 151.379 254.643 150.824 254.803 150.312C254.963 149.795 255.192 149.347 255.491 148.968C255.79 148.589 256.155 148.293 256.587 148.08C257.024 147.861 257.515 147.752 258.059 147.752C258.555 147.752 258.979 147.837 259.331 148.008C259.688 148.173 260.006 148.405 260.283 148.704V144.216H261.707ZM265.46 147.896V156H264.036V147.896H265.46ZM265.764 145.352C265.764 145.491 265.735 145.621 265.676 145.744C265.623 145.861 265.548 145.968 265.452 146.064C265.361 146.155 265.252 146.227 265.124 146.28C265.001 146.333 264.871 146.36 264.732 146.36C264.593 146.36 264.463 146.333 264.34 146.28C264.223 146.227 264.119 146.155 264.028 146.064C263.937 145.968 263.865 145.861 263.812 145.744C263.759 145.621 263.732 145.491 263.732 145.352C263.732 145.213 263.759 145.083 263.812 144.96C263.865 144.832 263.937 144.723 264.028 144.632C264.119 144.536 264.223 144.461 264.34 144.408C264.463 144.355 264.593 144.328 264.732 144.328C264.871 144.328 265.001 144.355 265.124 144.408C265.252 144.461 265.361 144.536 265.452 144.632C265.548 144.723 265.623 144.832 265.676 144.96C265.735 145.083 265.764 145.213 265.764 145.352ZM273.224 151.064C273.224 150.733 273.176 150.432 273.08 150.16C272.989 149.883 272.853 149.645 272.672 149.448C272.496 149.245 272.28 149.091 272.024 148.984C271.768 148.872 271.477 148.816 271.152 148.816C270.469 148.816 269.928 149.016 269.528 149.416C269.133 149.811 268.888 150.36 268.792 151.064H273.224ZM274.376 154.864C274.2 155.077 273.989 155.264 273.744 155.424C273.499 155.579 273.235 155.707 272.952 155.808C272.675 155.909 272.387 155.984 272.088 156.032C271.789 156.085 271.493 156.112 271.2 156.112C270.64 156.112 270.123 156.019 269.648 155.832C269.179 155.64 268.771 155.363 268.424 155C268.083 154.632 267.816 154.179 267.624 153.64C267.432 153.101 267.336 152.483 267.336 151.784C267.336 151.219 267.421 150.691 267.592 150.2C267.768 149.709 268.019 149.285 268.344 148.928C268.669 148.565 269.067 148.283 269.536 148.08C270.005 147.872 270.533 147.768 271.12 147.768C271.605 147.768 272.053 147.851 272.464 148.016C272.88 148.176 273.237 148.411 273.536 148.72C273.84 149.024 274.077 149.403 274.248 149.856C274.419 150.304 274.504 150.816 274.504 151.392C274.504 151.616 274.48 151.765 274.432 151.84C274.384 151.915 274.293 151.952 274.16 151.952H268.744C268.76 152.464 268.829 152.909 268.952 153.288C269.08 153.667 269.256 153.984 269.48 154.24C269.704 154.491 269.971 154.68 270.28 154.808C270.589 154.931 270.936 154.992 271.32 154.992C271.677 154.992 271.984 154.952 272.24 154.872C272.501 154.787 272.725 154.696 272.912 154.6C273.099 154.504 273.253 154.416 273.376 154.336C273.504 154.251 273.613 154.208 273.704 154.208C273.821 154.208 273.912 154.253 273.976 154.344L274.376 154.864ZM277.597 149.072C277.773 148.875 277.96 148.696 278.157 148.536C278.354 148.376 278.562 148.24 278.781 148.128C279.005 148.011 279.24 147.923 279.485 147.864C279.736 147.8 280.005 147.768 280.293 147.768C280.736 147.768 281.125 147.843 281.461 147.992C281.802 148.136 282.085 148.344 282.309 148.616C282.538 148.883 282.712 149.205 282.829 149.584C282.946 149.963 283.005 150.381 283.005 150.84V156H281.573V150.84C281.573 150.227 281.432 149.752 281.149 149.416C280.872 149.075 280.448 148.904 279.877 148.904C279.456 148.904 279.061 149.005 278.693 149.208C278.33 149.411 277.994 149.685 277.685 150.032V156H276.253V147.896H277.109C277.312 147.896 277.437 147.995 277.485 148.192L277.597 149.072ZM290.815 149.336C290.772 149.395 290.73 149.44 290.687 149.472C290.644 149.504 290.586 149.52 290.511 149.52C290.431 149.52 290.343 149.488 290.247 149.424C290.151 149.355 290.031 149.28 289.887 149.2C289.748 149.12 289.575 149.048 289.367 148.984C289.164 148.915 288.914 148.88 288.615 148.88C288.215 148.88 287.863 148.952 287.559 149.096C287.255 149.235 286.999 149.437 286.791 149.704C286.588 149.971 286.434 150.293 286.327 150.672C286.226 151.051 286.175 151.475 286.175 151.944C286.175 152.435 286.231 152.872 286.343 153.256C286.455 153.635 286.612 153.955 286.815 154.216C287.023 154.472 287.271 154.669 287.559 154.808C287.852 154.941 288.18 155.008 288.543 155.008C288.89 155.008 289.175 154.968 289.399 154.888C289.623 154.803 289.807 154.709 289.951 154.608C290.1 154.507 290.223 154.416 290.319 154.336C290.42 154.251 290.519 154.208 290.615 154.208C290.732 154.208 290.823 154.253 290.887 154.344L291.287 154.864C291.111 155.083 290.911 155.269 290.687 155.424C290.463 155.579 290.22 155.709 289.959 155.816C289.703 155.917 289.434 155.992 289.151 156.04C288.868 156.088 288.58 156.112 288.287 156.112C287.78 156.112 287.308 156.019 286.871 155.832C286.439 155.645 286.063 155.376 285.743 155.024C285.423 154.667 285.172 154.229 284.991 153.712C284.81 153.195 284.719 152.605 284.719 151.944C284.719 151.341 284.802 150.784 284.967 150.272C285.138 149.76 285.383 149.32 285.703 148.952C286.028 148.579 286.426 148.288 286.895 148.08C287.37 147.872 287.914 147.768 288.527 147.768C289.098 147.768 289.599 147.861 290.031 148.048C290.468 148.229 290.855 148.488 291.191 148.824L290.815 149.336ZM298.099 151.064C298.099 150.733 298.051 150.432 297.955 150.16C297.864 149.883 297.728 149.645 297.547 149.448C297.371 149.245 297.155 149.091 296.899 148.984C296.643 148.872 296.352 148.816 296.027 148.816C295.344 148.816 294.803 149.016 294.403 149.416C294.008 149.811 293.763 150.36 293.667 151.064H298.099ZM299.251 154.864C299.075 155.077 298.864 155.264 298.619 155.424C298.374 155.579 298.11 155.707 297.827 155.808C297.55 155.909 297.262 155.984 296.963 156.032C296.664 156.085 296.368 156.112 296.075 156.112C295.515 156.112 294.998 156.019 294.523 155.832C294.054 155.64 293.646 155.363 293.299 155C292.958 154.632 292.691 154.179 292.499 153.64C292.307 153.101 292.211 152.483 292.211 151.784C292.211 151.219 292.296 150.691 292.467 150.2C292.643 149.709 292.894 149.285 293.219 148.928C293.544 148.565 293.942 148.283 294.411 148.08C294.88 147.872 295.408 147.768 295.995 147.768C296.48 147.768 296.928 147.851 297.339 148.016C297.755 148.176 298.112 148.411 298.411 148.72C298.715 149.024 298.952 149.403 299.123 149.856C299.294 150.304 299.379 150.816 299.379 151.392C299.379 151.616 299.355 151.765 299.307 151.84C299.259 151.915 299.168 151.952 299.035 151.952H293.619C293.635 152.464 293.704 152.909 293.827 153.288C293.955 153.667 294.131 153.984 294.355 154.24C294.579 154.491 294.846 154.68 295.155 154.808C295.464 154.931 295.811 154.992 296.195 154.992C296.552 154.992 296.859 154.952 297.115 154.872C297.376 154.787 297.6 154.696 297.787 154.6C297.974 154.504 298.128 154.416 298.251 154.336C298.379 154.251 298.488 154.208 298.579 154.208C298.696 154.208 298.787 154.253 298.851 154.344L299.251 154.864Z" fill="#D4D4D4"/>
<defs>
<filter id="filter0_d_1_8129" x="204" y="0" width="108" height="108" filterUnits="userSpaceOnUse" color-interpolation-filters="sRGB">
<feFlood flood-opacity="0" result="BackgroundImageFix"/>
<feColorMatrix in="SourceAlpha" type="matrix" values="0 0 0 0 0 0 0 0 0 0 0 0 0 0 0 0 0 0 127 0" result="hardAlpha"/>
<feOffset dy="4"/>
<feGaussianBlur stdDeviation="6"/>
<feComposite in2="hardAlpha" operator="out"/>
<feColorMatrix type="matrix" values="0 0 0 0 0 0 0 0 0 0 0 0 0 0 0 0 0 0 1 0"/>
<feBlend mode="normal" in2="BackgroundImageFix" result="effect1_dropShadow_1_8129"/>
<feBlend mode="normal" in="SourceGraphic" in2="effect1_dropShadow_1_8129" result="shape"/>
</filter>
<filter id="filter1_dd_1_8129" x="219" y="9" width="78" height="82" filterUnits="userSpaceOnUse" color-interpolation-filters="sRGB">
<feFlood flood-opacity="0" result="BackgroundImageFix"/>
<feColorMatrix in="SourceAlpha" type="matrix" values="0 0 0 0 0 0 0 0 0 0 0 0 0 0 0 0 0 0 127 0" result="hardAlpha"/>
<feOffset dy="2"/>
<feGaussianBlur stdDeviation="2"/>
<feComposite in2="hardAlpha" operator="out"/>
<feColorMatrix type="matrix" values="0 0 0 0 0 0 0 0 0 0 0 0 0 0 0 0 0 0 1 0"/>
<feBlend mode="normal" in2="BackgroundImageFix" result="effect1_dropShadow_1_8129"/>
<feColorMatrix in="SourceAlpha" type="matrix" values="0 0 0 0 0 0 0 0 0 0 0 0 0 0 0 0 0 0 127 0" result="hardAlpha"/>
<feOffset dy="-2"/>
<feGaussianBlur stdDeviation="2"/>
<feComposite in2="hardAlpha" operator="out"/>
<feColorMatrix type="matrix" values="0 0 0 0 0 0 0 0 0 0 0 0 0 0 0 0 0 0 1 0"/>
<feBlend mode="normal" in2="effect1_dropShadow_1_8129" result="effect2_dropShadow_1_8129"/>
<feBlend mode="normal" in="SourceGraphic" in2="effect2_dropShadow_1_8129" result="shape"/>
</filter>
<linearGradient id="paint0_linear_1_8129" x1="228.665" y1="10.897" x2="317.154" y2="70.1046" gradientUnits="userSpaceOnUse">
<stop stop-color="#DB2777"/>
<stop offset="1" stop-color="#F97316"/>
</linearGradient>
</defs>
</svg>
