<svg width="312" height="159" viewBox="0 0 312 159" fill="none" xmlns="http://www.w3.org/2000/svg">
<g filter="url(#filter0_d_1_8118)">
<circle cx="54" cy="50" r="42" fill="#262626"/>
</g>
<g filter="url(#filter1_dd_1_8118)">
<circle cx="54" cy="50" r="35" fill="#262626"/>
</g>
<g clip-path="url(#clip0_1_8118)">
<path d="M63.7776 40.2427C63.7766 39.3976 63.4405 38.5875 62.8429 37.9901C62.2452 37.3926 61.435 37.0567 60.59 37.056H59.4442V35.7778C59.4442 35.542 59.3506 35.3159 59.1839 35.1492C59.0172 34.9825 58.7911 34.8889 58.5553 34.8889C58.3196 34.8889 58.0935 34.9825 57.9268 35.1492C57.7601 35.3159 57.6665 35.542 57.6665 35.7778V37.056H52.222V35.7778C52.222 35.542 52.1284 35.3159 51.9617 35.1492C51.795 34.9825 51.5689 34.8889 51.3331 34.8889C51.0974 34.8889 50.8713 34.9825 50.7046 35.1492C50.5379 35.3159 50.4442 35.542 50.4442 35.7778V37.056H44.9998V35.7778C44.9998 35.542 44.9061 35.3159 44.7394 35.1492C44.5727 34.9825 44.3466 34.8889 44.1109 34.8889C43.8751 34.8889 43.6491 34.9825 43.4824 35.1492C43.3157 35.3159 43.222 35.542 43.222 35.7778V37.056H42.0762C41.2312 37.0567 40.421 37.3926 39.8234 37.9901C39.2258 38.5875 38.8896 39.3976 38.8887 40.2427V42H63.7776V40.2427Z" fill="url(#paint0_linear_1_8118)"/>
<path d="M62.8887 50.8889C63.1857 50.8897 63.4825 50.9072 63.7776 50.9413V43.7778H38.8887V55.6347C38.8898 56.4974 39.2331 57.3244 39.8431 57.9344C40.4531 58.5445 41.2802 58.8877 42.1429 58.8889H54.8887C54.8913 56.7679 55.7349 54.7346 57.2347 53.2349C58.7344 51.7352 60.7677 50.8915 62.8887 50.8889ZM46.8887 53.9449C46.8887 54.0105 46.8758 54.0754 46.8506 54.1361C46.8255 54.1967 46.7887 54.2517 46.7424 54.2981C46.696 54.3445 46.6409 54.3813 46.5803 54.4064C46.5197 54.4315 46.4547 54.4444 46.3891 54.4444H44.7216C44.656 54.4444 44.591 54.4315 44.5304 54.4064C44.4698 54.3813 44.4147 54.3445 44.3683 54.2981C44.3219 54.2517 44.2851 54.1967 44.26 54.1361C44.2349 54.0754 44.222 54.0105 44.222 53.9449V52.2773C44.222 52.2117 44.2349 52.1468 44.26 52.0862C44.2851 52.0255 44.3219 51.9705 44.3683 51.9241C44.4147 51.8777 44.4698 51.8409 44.5304 51.8158C44.591 51.7907 44.656 51.7778 44.7216 51.7778H46.3891C46.4547 51.7778 46.5197 51.7907 46.5803 51.8158C46.6409 51.8409 46.696 51.8777 46.7424 51.9241C46.7887 51.9705 46.8255 52.0255 46.8506 52.0862C46.8758 52.1468 46.8887 52.2117 46.8887 52.2773V53.9449ZM46.8887 48.6115C46.8887 48.744 46.836 48.8711 46.7424 48.9648C46.6487 49.0585 46.5216 49.1111 46.3891 49.1111H44.7216C44.5891 49.1111 44.462 49.0585 44.3683 48.9648C44.2746 48.8711 44.222 48.744 44.222 48.6115V46.944C44.222 46.8115 44.2746 46.6844 44.3683 46.5908C44.462 46.4971 44.5891 46.4444 44.7216 46.4444H46.3891C46.5216 46.4444 46.6487 46.4971 46.7424 46.5908C46.836 46.6844 46.8887 46.8115 46.8887 46.944V48.6115ZM52.222 53.9449C52.222 54.0105 52.2091 54.0754 52.184 54.1361C52.1589 54.1967 52.1221 54.2517 52.0757 54.2981C52.0293 54.3445 51.9742 54.3813 51.9136 54.4064C51.853 54.4315 51.7881 54.4444 51.7224 54.4444H50.0549C49.9893 54.4444 49.9243 54.4315 49.8637 54.4064C49.8031 54.3813 49.748 54.3445 49.7017 54.2981C49.6553 54.2517 49.6185 54.1967 49.5934 54.1361C49.5683 54.0754 49.5553 54.0105 49.5553 53.9449V52.2773C49.5553 52.2117 49.5683 52.1468 49.5934 52.0862C49.6185 52.0255 49.6553 51.9705 49.7017 51.9241C49.748 51.8777 49.8031 51.8409 49.8637 51.8158C49.9243 51.7907 49.9893 51.7778 50.0549 51.7778H51.7224C51.7881 51.7778 51.853 51.7907 51.9136 51.8158C51.9742 51.8409 52.0293 51.8777 52.0757 51.9241C52.1221 51.9705 52.1589 52.0255 52.184 52.0862C52.2091 52.1468 52.222 52.2117 52.222 52.2773V53.9449ZM52.222 48.6115C52.222 48.744 52.1694 48.8711 52.0757 48.9648C51.982 49.0585 51.8549 49.1111 51.7224 49.1111H50.0549C49.9224 49.1111 49.7953 49.0585 49.7017 48.9648C49.608 48.8711 49.5553 48.744 49.5553 48.6115V46.944C49.5553 46.8115 49.608 46.6844 49.7017 46.5908C49.7953 46.4971 49.9224 46.4444 50.0549 46.4444H51.7224C51.8549 46.4444 51.982 46.4971 52.0757 46.5908C52.1694 46.6844 52.222 46.8115 52.222 46.944V48.6115ZM55.3882 49.1111C55.2557 49.1111 55.1287 49.0585 55.035 48.9648C54.9413 48.8711 54.8887 48.744 54.8887 48.6115V46.944C54.8887 46.8115 54.9413 46.6844 55.035 46.5908C55.1287 46.4971 55.2557 46.4444 55.3882 46.4444H57.0558C57.1883 46.4444 57.3153 46.4971 57.409 46.5908C57.5027 46.6844 57.5553 46.8115 57.5553 46.944V48.6115C57.5553 48.744 57.5027 48.8711 57.409 48.9648C57.3153 49.0585 57.1883 49.1111 57.0558 49.1111H55.3882Z" fill="url(#paint1_linear_1_8118)"/>
<path d="M62.8882 52.6667C61.6576 52.6667 60.4546 53.0316 59.4314 53.7154C58.4081 54.3991 57.6106 55.3708 57.1397 56.5078C56.6687 57.6448 56.5455 58.8958 56.7856 60.1028C57.0257 61.3098 57.6183 62.4185 58.4885 63.2887C59.3587 64.1589 60.4674 64.7515 61.6743 64.9916C62.8813 65.2317 64.1324 65.1085 65.2694 64.6375C66.4063 64.1666 67.3781 63.3691 68.0618 62.3458C68.7455 61.3226 69.1105 60.1196 69.1105 58.8889C69.1086 57.2393 68.4524 55.6577 67.2859 54.4912C66.1195 53.3248 64.5379 52.6686 62.8882 52.6667ZM65.2945 61.2952C65.1278 61.4618 64.9017 61.5554 64.666 61.5554C64.4303 61.5554 64.2043 61.4618 64.0376 61.2952L62.2598 59.5174C62.0931 59.3507 61.9994 59.1247 61.9994 58.8889V55.3334C61.9994 55.0976 62.093 54.8715 62.2597 54.7048C62.4264 54.5381 62.6525 54.4445 62.8882 54.4445C63.124 54.4445 63.3501 54.5381 63.5168 54.7048C63.6835 54.8715 63.7771 55.0976 63.7771 55.3334V58.5209L65.2945 60.0383C65.4611 60.205 65.5547 60.431 65.5547 60.6667C65.5547 60.9024 65.4611 61.1285 65.2945 61.2952Z" fill="url(#paint2_linear_1_8118)"/>
</g>
<path d="M32.85 109.54L28.36 124H25.93L22.77 114.12C22.6833 113.88 22.6033 113.587 22.53 113.24C22.49 113.407 22.45 113.563 22.41 113.71C22.37 113.857 22.3267 113.993 22.28 114.12L19.09 124H16.65L12.17 109.54H14.42C14.6533 109.54 14.8467 109.597 15 109.71C15.16 109.817 15.2667 109.963 15.32 110.15L17.78 118.8C17.8333 119.013 17.8833 119.247 17.93 119.5C17.9833 119.747 18.0367 120.007 18.09 120.28C18.1433 120 18.2 119.737 18.26 119.49C18.3267 119.243 18.3967 119.013 18.47 118.8L21.31 110.15C21.3633 109.997 21.4667 109.857 21.62 109.73C21.78 109.603 21.9733 109.54 22.2 109.54H22.99C23.2233 109.54 23.4133 109.597 23.56 109.71C23.7067 109.823 23.8167 109.97 23.89 110.15L26.72 118.8C26.86 119.213 26.9867 119.69 27.1 120.23C27.1867 119.703 27.2833 119.227 27.39 118.8L29.85 110.15C29.89 109.983 29.99 109.84 30.15 109.72C30.3167 109.6 30.5133 109.54 30.74 109.54H32.85ZM37.5647 113.58C38.3247 113.58 39.0147 113.703 39.6347 113.95C40.2614 114.197 40.7947 114.547 41.2347 115C41.6814 115.453 42.0247 116.007 42.2647 116.66C42.5047 117.313 42.6247 118.043 42.6247 118.85C42.6247 119.663 42.5047 120.397 42.2647 121.05C42.0247 121.703 41.6814 122.26 41.2347 122.72C40.7947 123.18 40.2614 123.533 39.6347 123.78C39.0147 124.027 38.3247 124.15 37.5647 124.15C36.798 124.15 36.1014 124.027 35.4747 123.78C34.848 123.533 34.3114 123.18 33.8647 122.72C33.4247 122.26 33.0814 121.703 32.8347 121.05C32.5947 120.397 32.4747 119.663 32.4747 118.85C32.4747 118.043 32.5947 117.313 32.8347 116.66C33.0814 116.007 33.4247 115.453 33.8647 115C34.3114 114.547 34.848 114.197 35.4747 113.95C36.1014 113.703 36.798 113.58 37.5647 113.58ZM37.5647 122.25C38.418 122.25 39.048 121.963 39.4547 121.39C39.868 120.817 40.0747 119.977 40.0747 118.87C40.0747 117.763 39.868 116.92 39.4547 116.34C39.048 115.76 38.418 115.47 37.5647 115.47C36.698 115.47 36.0547 115.763 35.6347 116.35C35.2214 116.93 35.0147 117.77 35.0147 118.87C35.0147 119.97 35.2214 120.81 35.6347 121.39C36.0547 121.963 36.698 122.25 37.5647 122.25ZM46.8391 115.52C47.1591 114.907 47.5391 114.427 47.9791 114.08C48.4191 113.727 48.9391 113.55 49.5391 113.55C50.0124 113.55 50.3924 113.653 50.6791 113.86L50.5191 115.71C50.4857 115.83 50.4357 115.917 50.3691 115.97C50.3091 116.017 50.2257 116.04 50.1191 116.04C50.0191 116.04 49.8691 116.023 49.6691 115.99C49.4757 115.957 49.2857 115.94 49.0991 115.94C48.8257 115.94 48.5824 115.98 48.3691 116.06C48.1557 116.14 47.9624 116.257 47.7891 116.41C47.6224 116.557 47.4724 116.737 47.3391 116.95C47.2124 117.163 47.0924 117.407 46.9791 117.68V124H44.5091V113.74H45.9591C46.2124 113.74 46.3891 113.787 46.4891 113.88C46.5891 113.967 46.6557 114.127 46.6891 114.36L46.8391 115.52ZM54.44 109.14V117.65H54.9C55.0667 117.65 55.1967 117.63 55.29 117.59C55.39 117.543 55.49 117.453 55.59 117.32L58.14 114.17C58.2467 114.03 58.3633 113.923 58.49 113.85C58.6233 113.777 58.7933 113.74 59 113.74H61.26L58.07 117.55C57.8433 117.85 57.5967 118.08 57.33 118.24C57.47 118.34 57.5933 118.457 57.7 118.59C57.8133 118.723 57.92 118.867 58.02 119.02L61.44 124H59.21C59.0167 124 58.85 123.97 58.71 123.91C58.57 123.843 58.4533 123.727 58.36 123.56L55.74 119.67C55.6467 119.517 55.55 119.417 55.45 119.37C55.35 119.323 55.2 119.3 55 119.3H54.44V124H51.97V109.14H54.44ZM72.0569 113.58C72.8169 113.58 73.5069 113.703 74.1269 113.95C74.7535 114.197 75.2869 114.547 75.7269 115C76.1735 115.453 76.5169 116.007 76.7569 116.66C76.9969 117.313 77.1169 118.043 77.1169 118.85C77.1169 119.663 76.9969 120.397 76.7569 121.05C76.5169 121.703 76.1735 122.26 75.7269 122.72C75.2869 123.18 74.7535 123.533 74.1269 123.78C73.5069 124.027 72.8169 124.15 72.0569 124.15C71.2902 124.15 70.5935 124.027 69.9669 123.78C69.3402 123.533 68.8035 123.18 68.3569 122.72C67.9169 122.26 67.5735 121.703 67.3269 121.05C67.0869 120.397 66.9669 119.663 66.9669 118.85C66.9669 118.043 67.0869 117.313 67.3269 116.66C67.5735 116.007 67.9169 115.453 68.3569 115C68.8035 114.547 69.3402 114.197 69.9669 113.95C70.5935 113.703 71.2902 113.58 72.0569 113.58ZM72.0569 122.25C72.9102 122.25 73.5402 121.963 73.9469 121.39C74.3602 120.817 74.5669 119.977 74.5669 118.87C74.5669 117.763 74.3602 116.92 73.9469 116.34C73.5402 115.76 72.9102 115.47 72.0569 115.47C71.1902 115.47 70.5469 115.763 70.1269 116.35C69.7135 116.93 69.5069 117.77 69.5069 118.87C69.5069 119.97 69.7135 120.81 70.1269 121.39C70.5469 121.963 71.1902 122.25 72.0569 122.25ZM81.3113 115C81.5179 114.793 81.7346 114.603 81.9613 114.43C82.1946 114.25 82.4379 114.1 82.6913 113.98C82.9513 113.853 83.2279 113.757 83.5213 113.69C83.8146 113.617 84.1346 113.58 84.4813 113.58C85.0413 113.58 85.5379 113.677 85.9713 113.87C86.4046 114.057 86.7646 114.323 87.0513 114.67C87.3446 115.01 87.5646 115.42 87.7113 115.9C87.8646 116.373 87.9413 116.897 87.9413 117.47V124H85.4713V117.47C85.4713 116.843 85.3279 116.36 85.0413 116.02C84.7546 115.673 84.3179 115.5 83.7313 115.5C83.3046 115.5 82.9046 115.597 82.5313 115.79C82.1579 115.983 81.8046 116.247 81.4713 116.58V124H79.0013V113.74H80.5113C80.8313 113.74 81.0413 113.89 81.1413 114.19L81.3113 115ZM100.953 118.4V124H98.2728V118.4L93.0028 109.54H95.3728C95.6061 109.54 95.7895 109.597 95.9228 109.71C96.0628 109.823 96.1795 109.967 96.2728 110.14L98.9128 114.97C99.0661 115.257 99.1995 115.527 99.3128 115.78C99.4328 116.033 99.5395 116.287 99.6328 116.54C99.7195 116.287 99.8195 116.033 99.9328 115.78C100.046 115.527 100.176 115.257 100.323 114.97L102.953 110.14C103.026 109.993 103.136 109.857 103.283 109.73C103.429 109.603 103.616 109.54 103.843 109.54H106.223L100.953 118.4ZM109.596 113.58C110.356 113.58 111.046 113.703 111.666 113.95C112.293 114.197 112.826 114.547 113.266 115C113.713 115.453 114.056 116.007 114.296 116.66C114.536 117.313 114.656 118.043 114.656 118.85C114.656 119.663 114.536 120.397 114.296 121.05C114.056 121.703 113.713 122.26 113.266 122.72C112.826 123.18 112.293 123.533 111.666 123.78C111.046 124.027 110.356 124.15 109.596 124.15C108.829 124.15 108.133 124.027 107.506 123.78C106.879 123.533 106.343 123.18 105.896 122.72C105.456 122.26 105.113 121.703 104.866 121.05C104.626 120.397 104.506 119.663 104.506 118.85C104.506 118.043 104.626 117.313 104.866 116.66C105.113 116.007 105.456 115.453 105.896 115C106.343 114.547 106.879 114.197 107.506 113.95C108.133 113.703 108.829 113.58 109.596 113.58ZM109.596 122.25C110.449 122.25 111.079 121.963 111.486 121.39C111.899 120.817 112.106 119.977 112.106 118.87C112.106 117.763 111.899 116.92 111.486 116.34C111.079 115.76 110.449 115.47 109.596 115.47C108.729 115.47 108.086 115.763 107.666 116.35C107.253 116.93 107.046 117.77 107.046 118.87C107.046 119.97 107.253 120.81 107.666 121.39C108.086 121.963 108.729 122.25 109.596 122.25ZM125.38 113.74V124H123.87C123.544 124 123.337 123.85 123.25 123.55L123.08 122.73C122.66 123.157 122.197 123.503 121.69 123.77C121.184 124.03 120.587 124.16 119.9 124.16C119.34 124.16 118.844 124.067 118.41 123.88C117.984 123.687 117.624 123.417 117.33 123.07C117.037 122.723 116.814 122.313 116.66 121.84C116.514 121.36 116.44 120.833 116.44 120.26V113.74H118.91V120.26C118.91 120.887 119.054 121.373 119.34 121.72C119.634 122.06 120.07 122.23 120.65 122.23C121.077 122.23 121.477 122.137 121.85 121.95C122.224 121.757 122.577 121.493 122.91 121.16V113.74H125.38ZM130.159 115.52C130.479 114.907 130.859 114.427 131.299 114.08C131.739 113.727 132.259 113.55 132.859 113.55C133.333 113.55 133.713 113.653 133.999 113.86L133.839 115.71C133.806 115.83 133.756 115.917 133.689 115.97C133.629 116.017 133.546 116.04 133.439 116.04C133.339 116.04 133.189 116.023 132.989 115.99C132.796 115.957 132.606 115.94 132.419 115.94C132.146 115.94 131.903 115.98 131.689 116.06C131.476 116.14 131.283 116.257 131.109 116.41C130.943 116.557 130.793 116.737 130.659 116.95C130.533 117.163 130.413 117.407 130.299 117.68V124H127.829V113.74H129.279C129.533 113.74 129.709 113.787 129.809 113.88C129.909 113.967 129.976 114.127 130.009 114.36L130.159 115.52ZM153.904 116.77C153.904 117.83 153.727 118.813 153.374 119.72C153.027 120.62 152.534 121.4 151.894 122.06C151.254 122.72 150.484 123.237 149.584 123.61C148.684 123.977 147.684 124.16 146.584 124.16C145.491 124.16 144.494 123.977 143.594 123.61C142.694 123.237 141.921 122.72 141.274 122.06C140.634 121.4 140.137 120.62 139.784 119.72C139.431 118.813 139.254 117.83 139.254 116.77C139.254 115.71 139.431 114.73 139.784 113.83C140.137 112.923 140.634 112.14 141.274 111.48C141.921 110.82 142.694 110.307 143.594 109.94C144.494 109.567 145.491 109.38 146.584 109.38C147.317 109.38 148.007 109.467 148.654 109.64C149.301 109.807 149.894 110.047 150.434 110.36C150.974 110.667 151.457 111.043 151.884 111.49C152.317 111.93 152.684 112.423 152.984 112.97C153.284 113.517 153.511 114.11 153.664 114.75C153.824 115.39 153.904 116.063 153.904 116.77ZM151.154 116.77C151.154 115.977 151.047 115.267 150.834 114.64C150.621 114.007 150.317 113.47 149.924 113.03C149.531 112.59 149.051 112.253 148.484 112.02C147.924 111.787 147.291 111.67 146.584 111.67C145.877 111.67 145.241 111.787 144.674 112.02C144.114 112.253 143.634 112.59 143.234 113.03C142.841 113.47 142.537 114.007 142.324 114.64C142.111 115.267 142.004 115.977 142.004 116.77C142.004 117.563 142.111 118.277 142.324 118.91C142.537 119.537 142.841 120.07 143.234 120.51C143.634 120.943 144.114 121.277 144.674 121.51C145.241 121.743 145.877 121.86 146.584 121.86C147.291 121.86 147.924 121.743 148.484 121.51C149.051 121.277 149.531 120.943 149.924 120.51C150.317 120.07 150.621 119.537 150.834 118.91C151.047 118.277 151.154 117.563 151.154 116.77ZM170.526 113.74L167.266 124H165.286C165.06 124 164.903 123.853 164.816 123.56L162.976 117.63C162.916 117.43 162.86 117.233 162.806 117.04C162.76 116.84 162.72 116.64 162.686 116.44C162.646 116.64 162.6 116.843 162.546 117.05C162.5 117.25 162.446 117.45 162.386 117.65L160.516 123.56C160.436 123.853 160.26 124 159.986 124H158.086L154.836 113.74H156.806C156.986 113.74 157.14 113.783 157.266 113.87C157.393 113.957 157.476 114.067 157.516 114.2L158.986 119.68C159.06 119.98 159.123 120.273 159.176 120.56C159.236 120.847 159.286 121.133 159.326 121.42C159.4 121.133 159.476 120.847 159.556 120.56C159.643 120.273 159.733 119.98 159.826 119.68L161.526 114.18C161.566 114.047 161.643 113.937 161.756 113.85C161.876 113.763 162.02 113.72 162.186 113.72H163.276C163.45 113.72 163.596 113.763 163.716 113.85C163.843 113.937 163.926 114.047 163.966 114.18L165.616 119.68C165.703 119.98 165.783 120.277 165.856 120.57C165.936 120.857 166.013 121.143 166.086 121.43C166.173 120.863 166.296 120.28 166.456 119.68L167.966 114.2C168.013 114.067 168.096 113.957 168.216 113.87C168.336 113.783 168.48 113.74 168.646 113.74H170.526ZM174.241 115C174.448 114.793 174.664 114.603 174.891 114.43C175.124 114.25 175.368 114.1 175.621 113.98C175.881 113.853 176.158 113.757 176.451 113.69C176.744 113.617 177.064 113.58 177.411 113.58C177.971 113.58 178.468 113.677 178.901 113.87C179.334 114.057 179.694 114.323 179.981 114.67C180.274 115.01 180.494 115.42 180.641 115.9C180.794 116.373 180.871 116.897 180.871 117.47V124H178.401V117.47C178.401 116.843 178.258 116.36 177.971 116.02C177.684 115.673 177.248 115.5 176.661 115.5C176.234 115.5 175.834 115.597 175.461 115.79C175.088 115.983 174.734 116.247 174.401 116.58V124H171.931V113.74H173.441C173.761 113.74 173.971 113.89 174.071 114.19L174.241 115ZM196.173 112.17C196.093 112.31 196.007 112.413 195.913 112.48C195.827 112.54 195.717 112.57 195.583 112.57C195.443 112.57 195.29 112.52 195.123 112.42C194.963 112.313 194.77 112.197 194.543 112.07C194.317 111.943 194.05 111.83 193.743 111.73C193.443 111.623 193.087 111.57 192.673 111.57C192.3 111.57 191.973 111.617 191.693 111.71C191.413 111.797 191.177 111.92 190.983 112.08C190.797 112.24 190.657 112.433 190.563 112.66C190.47 112.88 190.423 113.123 190.423 113.39C190.423 113.73 190.517 114.013 190.703 114.24C190.897 114.467 191.15 114.66 191.463 114.82C191.777 114.98 192.133 115.123 192.533 115.25C192.933 115.377 193.343 115.513 193.763 115.66C194.183 115.8 194.593 115.967 194.993 116.16C195.393 116.347 195.75 116.587 196.063 116.88C196.377 117.167 196.627 117.52 196.813 117.94C197.007 118.36 197.103 118.87 197.103 119.47C197.103 120.123 196.99 120.737 196.763 121.31C196.543 121.877 196.217 122.373 195.783 122.8C195.357 123.22 194.833 123.553 194.213 123.8C193.593 124.04 192.883 124.16 192.083 124.16C191.623 124.16 191.17 124.113 190.723 124.02C190.277 123.933 189.847 123.807 189.433 123.64C189.027 123.473 188.643 123.273 188.283 123.04C187.923 122.807 187.603 122.547 187.323 122.26L188.113 120.97C188.18 120.877 188.267 120.8 188.373 120.74C188.48 120.673 188.593 120.64 188.713 120.64C188.88 120.64 189.06 120.71 189.253 120.85C189.447 120.983 189.677 121.133 189.943 121.3C190.21 121.467 190.52 121.62 190.873 121.76C191.233 121.893 191.663 121.96 192.163 121.96C192.93 121.96 193.523 121.78 193.943 121.42C194.363 121.053 194.573 120.53 194.573 119.85C194.573 119.47 194.477 119.16 194.283 118.92C194.097 118.68 193.847 118.48 193.533 118.32C193.22 118.153 192.863 118.013 192.463 117.9C192.063 117.787 191.657 117.663 191.243 117.53C190.83 117.397 190.423 117.237 190.023 117.05C189.623 116.863 189.267 116.62 188.953 116.32C188.64 116.02 188.387 115.647 188.193 115.2C188.007 114.747 187.913 114.19 187.913 113.53C187.913 113.003 188.017 112.49 188.223 111.99C188.437 111.49 188.743 111.047 189.143 110.66C189.543 110.273 190.037 109.963 190.623 109.73C191.21 109.497 191.883 109.38 192.643 109.38C193.497 109.38 194.283 109.513 195.003 109.78C195.723 110.047 196.337 110.42 196.843 110.9L196.173 112.17ZM206.371 115.91C206.297 116.003 206.224 116.077 206.151 116.13C206.084 116.183 205.984 116.21 205.851 116.21C205.724 116.21 205.601 116.173 205.481 116.1C205.361 116.02 205.217 115.933 205.051 115.84C204.884 115.74 204.684 115.653 204.451 115.58C204.224 115.5 203.941 115.46 203.601 115.46C203.167 115.46 202.787 115.54 202.461 115.7C202.134 115.853 201.861 116.077 201.641 116.37C201.427 116.663 201.267 117.02 201.161 117.44C201.054 117.853 201.001 118.323 201.001 118.85C201.001 119.397 201.057 119.883 201.171 120.31C201.291 120.737 201.461 121.097 201.681 121.39C201.901 121.677 202.167 121.897 202.481 122.05C202.794 122.197 203.147 122.27 203.541 122.27C203.934 122.27 204.251 122.223 204.491 122.13C204.737 122.03 204.944 121.923 205.111 121.81C205.277 121.69 205.421 121.583 205.541 121.49C205.667 121.39 205.807 121.34 205.961 121.34C206.161 121.34 206.311 121.417 206.411 121.57L207.121 122.47C206.847 122.79 206.551 123.06 206.231 123.28C205.911 123.493 205.577 123.667 205.231 123.8C204.891 123.927 204.537 124.017 204.171 124.07C203.811 124.123 203.451 124.15 203.091 124.15C202.457 124.15 201.861 124.033 201.301 123.8C200.741 123.56 200.251 123.213 199.831 122.76C199.411 122.307 199.077 121.753 198.831 121.1C198.591 120.44 198.471 119.69 198.471 118.85C198.471 118.097 198.577 117.4 198.791 116.76C199.011 116.113 199.331 115.557 199.751 115.09C200.171 114.617 200.691 114.247 201.311 113.98C201.931 113.713 202.644 113.58 203.451 113.58C204.217 113.58 204.887 113.703 205.461 113.95C206.041 114.197 206.561 114.55 207.021 115.01L206.371 115.91ZM211.139 114.84C211.539 114.467 211.979 114.163 212.459 113.93C212.939 113.697 213.503 113.58 214.149 113.58C214.709 113.58 215.206 113.677 215.639 113.87C216.073 114.057 216.433 114.323 216.719 114.67C217.013 115.01 217.233 115.42 217.379 115.9C217.533 116.373 217.609 116.897 217.609 117.47V124H215.139V117.47C215.139 116.843 214.996 116.36 214.709 116.02C214.423 115.673 213.986 115.5 213.399 115.5C212.973 115.5 212.573 115.597 212.199 115.79C211.826 115.983 211.473 116.247 211.139 116.58V124H208.669V109.14H211.139V114.84ZM226.568 117.69C226.568 117.37 226.522 117.07 226.428 116.79C226.342 116.503 226.208 116.253 226.028 116.04C225.848 115.827 225.618 115.66 225.338 115.54C225.065 115.413 224.745 115.35 224.378 115.35C223.665 115.35 223.102 115.553 222.688 115.96C222.282 116.367 222.022 116.943 221.908 117.69H226.568ZM221.858 119.18C221.898 119.707 221.992 120.163 222.138 120.55C222.285 120.93 222.478 121.247 222.718 121.5C222.958 121.747 223.242 121.933 223.568 122.06C223.902 122.18 224.268 122.24 224.668 122.24C225.068 122.24 225.412 122.193 225.698 122.1C225.992 122.007 226.245 121.903 226.458 121.79C226.678 121.677 226.868 121.573 227.028 121.48C227.195 121.387 227.355 121.34 227.508 121.34C227.715 121.34 227.868 121.417 227.968 121.57L228.678 122.47C228.405 122.79 228.098 123.06 227.758 123.28C227.418 123.493 227.062 123.667 226.688 123.8C226.322 123.927 225.945 124.017 225.558 124.07C225.178 124.123 224.808 124.15 224.448 124.15C223.735 124.15 223.072 124.033 222.458 123.8C221.845 123.56 221.312 123.21 220.858 122.75C220.405 122.283 220.048 121.71 219.788 121.03C219.528 120.343 219.398 119.55 219.398 118.65C219.398 117.95 219.512 117.293 219.738 116.68C219.965 116.06 220.288 115.523 220.708 115.07C221.135 114.61 221.652 114.247 222.258 113.98C222.872 113.713 223.562 113.58 224.328 113.58C224.975 113.58 225.572 113.683 226.118 113.89C226.665 114.097 227.135 114.4 227.528 114.8C227.922 115.193 228.228 115.68 228.448 116.26C228.675 116.833 228.788 117.49 228.788 118.23C228.788 118.603 228.748 118.857 228.668 118.99C228.588 119.117 228.435 119.18 228.208 119.18H221.858ZM237.082 116.36C236.802 116.02 236.495 115.78 236.162 115.64C235.835 115.5 235.482 115.43 235.102 115.43C234.729 115.43 234.392 115.5 234.092 115.64C233.792 115.78 233.535 115.993 233.322 116.28C233.109 116.56 232.945 116.92 232.832 117.36C232.719 117.793 232.662 118.307 232.662 118.9C232.662 119.5 232.709 120.01 232.802 120.43C232.902 120.843 233.042 121.183 233.222 121.45C233.402 121.71 233.622 121.9 233.882 122.02C234.142 122.133 234.432 122.19 234.752 122.19C235.265 122.19 235.702 122.083 236.062 121.87C236.422 121.657 236.762 121.353 237.082 120.96V116.36ZM239.552 109.14V124H238.042C237.715 124 237.509 123.85 237.422 123.55L237.212 122.56C236.799 123.033 236.322 123.417 235.782 123.71C235.249 124.003 234.625 124.15 233.912 124.15C233.352 124.15 232.839 124.033 232.372 123.8C231.905 123.567 231.502 123.23 231.162 122.79C230.829 122.343 230.569 121.793 230.382 121.14C230.202 120.487 230.112 119.74 230.112 118.9C230.112 118.14 230.215 117.433 230.422 116.78C230.629 116.127 230.925 115.56 231.312 115.08C231.699 114.6 232.162 114.227 232.702 113.96C233.242 113.687 233.849 113.55 234.522 113.55C235.095 113.55 235.585 113.64 235.992 113.82C236.399 114 236.762 114.243 237.082 114.55V109.14H239.552ZM250.83 113.74V124H249.32C248.993 124 248.786 123.85 248.7 123.55L248.53 122.73C248.11 123.157 247.646 123.503 247.14 123.77C246.633 124.03 246.036 124.16 245.35 124.16C244.79 124.16 244.293 124.067 243.86 123.88C243.433 123.687 243.073 123.417 242.78 123.07C242.486 122.723 242.263 122.313 242.11 121.84C241.963 121.36 241.89 120.833 241.89 120.26V113.74H244.36V120.26C244.36 120.887 244.503 121.373 244.79 121.72C245.083 122.06 245.52 122.23 246.1 122.23C246.526 122.23 246.926 122.137 247.3 121.95C247.673 121.757 248.026 121.493 248.36 121.16V113.74H250.83ZM255.779 109.14V124H253.309V109.14H255.779ZM264.85 117.69C264.85 117.37 264.803 117.07 264.71 116.79C264.623 116.503 264.49 116.253 264.31 116.04C264.13 115.827 263.9 115.66 263.62 115.54C263.346 115.413 263.026 115.35 262.66 115.35C261.946 115.35 261.383 115.553 260.97 115.96C260.563 116.367 260.303 116.943 260.19 117.69H264.85ZM260.14 119.18C260.18 119.707 260.273 120.163 260.42 120.55C260.566 120.93 260.76 121.247 261 121.5C261.24 121.747 261.523 121.933 261.85 122.06C262.183 122.18 262.55 122.24 262.95 122.24C263.35 122.24 263.693 122.193 263.98 122.1C264.273 122.007 264.526 121.903 264.74 121.79C264.96 121.677 265.15 121.573 265.31 121.48C265.476 121.387 265.636 121.34 265.79 121.34C265.996 121.34 266.15 121.417 266.25 121.57L266.96 122.47C266.686 122.79 266.38 123.06 266.04 123.28C265.7 123.493 265.343 123.667 264.97 123.8C264.603 123.927 264.226 124.017 263.84 124.07C263.46 124.123 263.09 124.15 262.73 124.15C262.016 124.15 261.353 124.033 260.74 123.8C260.126 123.56 259.593 123.21 259.14 122.75C258.686 122.283 258.33 121.71 258.07 121.03C257.81 120.343 257.68 119.55 257.68 118.65C257.68 117.95 257.793 117.293 258.02 116.68C258.246 116.06 258.57 115.523 258.99 115.07C259.416 114.61 259.933 114.247 260.54 113.98C261.153 113.713 261.843 113.58 262.61 113.58C263.256 113.58 263.853 113.683 264.4 113.89C264.946 114.097 265.416 114.4 265.81 114.8C266.203 115.193 266.51 115.68 266.73 116.26C266.956 116.833 267.07 117.49 267.07 118.23C267.07 118.603 267.03 118.857 266.95 118.99C266.87 119.117 266.716 119.18 266.49 119.18H260.14Z" fill="#FAFAFA"/>
<path d="M22.752 144.536V156H21.2V150.784H15.016V156H13.464V144.536H15.016V149.648H21.2V144.536H22.752ZM30.5208 151.064C30.5208 150.733 30.4728 150.432 30.3768 150.16C30.2861 149.883 30.1501 149.645 29.9688 149.448C29.7928 149.245 29.5768 149.091 29.3208 148.984C29.0648 148.872 28.7741 148.816 28.4488 148.816C27.7661 148.816 27.2248 149.016 26.8248 149.416C26.4301 149.811 26.1848 150.36 26.0888 151.064H30.5208ZM31.6728 154.864C31.4968 155.077 31.2861 155.264 31.0408 155.424C30.7954 155.579 30.5314 155.707 30.2488 155.808C29.9714 155.909 29.6834 155.984 29.3848 156.032C29.0861 156.085 28.7901 156.112 28.4968 156.112C27.9368 156.112 27.4194 156.019 26.9448 155.832C26.4754 155.64 26.0674 155.363 25.7208 155C25.3794 154.632 25.1128 154.179 24.9208 153.64C24.7288 153.101 24.6328 152.483 24.6328 151.784C24.6328 151.219 24.7181 150.691 24.8888 150.2C25.0648 149.709 25.3154 149.285 25.6408 148.928C25.9661 148.565 26.3634 148.283 26.8328 148.08C27.3021 147.872 27.8301 147.768 28.4168 147.768C28.9021 147.768 29.3501 147.851 29.7608 148.016C30.1768 148.176 30.5341 148.411 30.8328 148.72C31.1368 149.024 31.3741 149.403 31.5448 149.856C31.7154 150.304 31.8008 150.816 31.8008 151.392C31.8008 151.616 31.7768 151.765 31.7288 151.84C31.6808 151.915 31.5901 151.952 31.4568 151.952H26.0408C26.0568 152.464 26.1261 152.909 26.2488 153.288C26.3768 153.667 26.5528 153.984 26.7768 154.24C27.0008 154.491 27.2674 154.68 27.5768 154.808C27.8861 154.931 28.2328 154.992 28.6168 154.992C28.9741 154.992 29.2808 154.952 29.5368 154.872C29.7981 154.787 30.0221 154.696 30.2088 154.6C30.3954 154.504 30.5501 154.416 30.6728 154.336C30.8008 154.251 30.9101 154.208 31.0008 154.208C31.1181 154.208 31.2088 154.253 31.2728 154.344L31.6728 154.864ZM35.0219 144.216V156H33.5979V144.216H35.0219ZM38.7631 154.048C39.0245 154.4 39.3098 154.648 39.6191 154.792C39.9285 154.936 40.2751 155.008 40.6591 155.008C41.4165 155.008 41.9978 154.739 42.4031 154.2C42.8085 153.661 43.0111 152.893 43.0111 151.896C43.0111 151.368 42.9631 150.915 42.8671 150.536C42.7765 150.157 42.6431 149.848 42.4671 149.608C42.2911 149.363 42.0751 149.184 41.8191 149.072C41.5631 148.96 41.2725 148.904 40.9471 148.904C40.4831 148.904 40.0751 149.011 39.7231 149.224C39.3765 149.437 39.0565 149.739 38.7631 150.128V154.048ZM38.6911 149.152C39.0325 148.731 39.4271 148.392 39.8751 148.136C40.3231 147.88 40.8351 147.752 41.4111 147.752C41.8805 147.752 42.3045 147.843 42.6831 148.024C43.0618 148.2 43.3845 148.464 43.6511 148.816C43.9178 149.163 44.1231 149.595 44.2671 150.112C44.4111 150.629 44.4831 151.224 44.4831 151.896C44.4831 152.493 44.4031 153.051 44.2431 153.568C44.0831 154.08 43.8511 154.525 43.5471 154.904C43.2485 155.277 42.8805 155.573 42.4431 155.792C42.0111 156.005 41.5231 156.112 40.9791 156.112C40.4831 156.112 40.0565 156.029 39.6991 155.864C39.3471 155.693 39.0351 155.459 38.7631 155.16V158.744H37.3311V147.896H38.1871C38.3898 147.896 38.5151 147.995 38.5631 148.192L38.6911 149.152ZM51.0199 149.232C50.9559 149.349 50.8572 149.408 50.7239 149.408C50.6439 149.408 50.5532 149.379 50.4519 149.32C50.3505 149.261 50.2252 149.197 50.0759 149.128C49.9319 149.053 49.7585 148.987 49.5559 148.928C49.3532 148.864 49.1132 148.832 48.8359 148.832C48.5959 148.832 48.3799 148.864 48.1879 148.928C47.9959 148.987 47.8305 149.069 47.6919 149.176C47.5585 149.283 47.4545 149.408 47.3799 149.552C47.3105 149.691 47.2759 149.843 47.2759 150.008C47.2759 150.216 47.3345 150.389 47.4519 150.528C47.5745 150.667 47.7345 150.787 47.9319 150.888C48.1292 150.989 48.3532 151.08 48.6039 151.16C48.8545 151.235 49.1105 151.317 49.3719 151.408C49.6385 151.493 49.8972 151.589 50.1479 151.696C50.3985 151.803 50.6225 151.936 50.8199 152.096C51.0172 152.256 51.1745 152.453 51.2919 152.688C51.4145 152.917 51.4759 153.195 51.4759 153.52C51.4759 153.893 51.4092 154.24 51.2759 154.56C51.1425 154.875 50.9452 155.149 50.6839 155.384C50.4225 155.613 50.1025 155.795 49.7239 155.928C49.3452 156.061 48.9079 156.128 48.4119 156.128C47.8465 156.128 47.3345 156.037 46.8759 155.856C46.4172 155.669 46.0279 155.432 45.7079 155.144L46.0439 154.6C46.0865 154.531 46.1372 154.477 46.1959 154.44C46.2545 154.403 46.3292 154.384 46.4199 154.384C46.5159 154.384 46.6172 154.421 46.7239 154.496C46.8305 154.571 46.9585 154.653 47.1079 154.744C47.2625 154.835 47.4492 154.917 47.6679 154.992C47.8865 155.067 48.1585 155.104 48.4839 155.104C48.7612 155.104 49.0039 155.069 49.2119 155C49.4199 154.925 49.5932 154.827 49.7319 154.704C49.8705 154.581 49.9719 154.44 50.0359 154.28C50.1052 154.12 50.1399 153.949 50.1399 153.768C50.1399 153.544 50.0785 153.36 49.9559 153.216C49.8385 153.067 49.6812 152.941 49.4839 152.84C49.2865 152.733 49.0599 152.643 48.8039 152.568C48.5532 152.488 48.2945 152.405 48.0279 152.32C47.7665 152.235 47.5079 152.139 47.2519 152.032C47.0012 151.92 46.7772 151.781 46.5799 151.616C46.3825 151.451 46.2225 151.248 46.0999 151.008C45.9825 150.763 45.9239 150.467 45.9239 150.12C45.9239 149.811 45.9879 149.515 46.1159 149.232C46.2439 148.944 46.4305 148.693 46.6759 148.48C46.9212 148.261 47.2225 148.088 47.5799 147.96C47.9372 147.832 48.3452 147.768 48.8039 147.768C49.3372 147.768 49.8145 147.853 50.2359 148.024C50.6625 148.189 51.0305 148.419 51.3399 148.712L51.0199 149.232ZM63.9013 147.896L59.3813 158.392C59.3333 158.499 59.2719 158.584 59.1973 158.648C59.1279 158.712 59.0186 158.744 58.8693 158.744H57.8133L59.2933 155.528L55.9493 147.896H57.1813C57.3039 147.896 57.3999 147.928 57.4693 147.992C57.5439 148.051 57.5946 148.117 57.6213 148.192L59.7893 153.296C59.8746 153.52 59.9466 153.755 60.0052 154C60.0799 153.749 60.1599 153.512 60.2453 153.288L62.3493 148.192C62.3813 148.107 62.4346 148.037 62.5093 147.984C62.5893 147.925 62.6773 147.896 62.7733 147.896H63.9013ZM68.3565 147.768C68.9485 147.768 69.4818 147.867 69.9565 148.064C70.4312 148.261 70.8365 148.541 71.1725 148.904C71.5085 149.267 71.7645 149.707 71.9405 150.224C72.1218 150.736 72.2125 151.309 72.2125 151.944C72.2125 152.584 72.1218 153.16 71.9405 153.672C71.7645 154.184 71.5085 154.621 71.1725 154.984C70.8365 155.347 70.4312 155.627 69.9565 155.824C69.4818 156.016 68.9485 156.112 68.3565 156.112C67.7592 156.112 67.2205 156.016 66.7405 155.824C66.2658 155.627 65.8605 155.347 65.5245 154.984C65.1885 154.621 64.9298 154.184 64.7485 153.672C64.5725 153.16 64.4845 152.584 64.4845 151.944C64.4845 151.309 64.5725 150.736 64.7485 150.224C64.9298 149.707 65.1885 149.267 65.5245 148.904C65.8605 148.541 66.2658 148.261 66.7405 148.064C67.2205 147.867 67.7592 147.768 68.3565 147.768ZM68.3565 155C69.1565 155 69.7538 154.733 70.1485 154.2C70.5432 153.661 70.7405 152.912 70.7405 151.952C70.7405 150.987 70.5432 150.235 70.1485 149.696C69.7538 149.157 69.1565 148.888 68.3565 148.888C67.9512 148.888 67.5965 148.957 67.2925 149.096C66.9938 149.235 66.7432 149.435 66.5405 149.696C66.3432 149.957 66.1938 150.28 66.0925 150.664C65.9965 151.043 65.9485 151.472 65.9485 151.952C65.9485 152.912 66.1458 153.661 66.5405 154.2C66.9405 154.733 67.5458 155 68.3565 155ZM80.6826 147.896V156H79.8346C79.632 156 79.504 155.901 79.4506 155.704L79.3386 154.832C78.9866 155.221 78.592 155.536 78.1546 155.776C77.7173 156.011 77.216 156.128 76.6506 156.128C76.208 156.128 75.816 156.056 75.4746 155.912C75.1386 155.763 74.856 155.555 74.6266 155.288C74.3973 155.021 74.224 154.699 74.1066 154.32C73.9946 153.941 73.9386 153.523 73.9386 153.064V147.896H75.3626V153.064C75.3626 153.677 75.5013 154.152 75.7786 154.488C76.0613 154.824 76.4906 154.992 77.0666 154.992C77.488 154.992 77.88 154.893 78.2426 154.696C78.6106 154.493 78.9493 154.216 79.2586 153.864V147.896H80.6826ZM89.8583 152.04C90.1463 152.04 90.3996 152 90.6183 151.92C90.8369 151.84 91.0209 151.728 91.1703 151.584C91.3196 151.44 91.4316 151.269 91.5063 151.072C91.5809 150.869 91.6183 150.648 91.6183 150.408C91.6183 149.912 91.4663 149.517 91.1623 149.224C90.8636 148.931 90.4289 148.784 89.8583 148.784C89.2823 148.784 88.8423 148.931 88.5383 149.224C88.2396 149.517 88.0903 149.912 88.0903 150.408C88.0903 150.648 88.1276 150.869 88.2023 151.072C88.2823 151.269 88.3969 151.44 88.5463 151.584C88.6956 151.728 88.8796 151.84 89.0983 151.92C89.3169 152 89.5703 152.04 89.8583 152.04ZM92.4263 156.44C92.4263 156.243 92.3703 156.083 92.2583 155.96C92.1463 155.837 91.9943 155.741 91.8023 155.672C91.6156 155.603 91.3969 155.555 91.1463 155.528C90.8956 155.496 90.6289 155.472 90.3463 155.456C90.0689 155.44 89.7863 155.424 89.4983 155.408C89.2103 155.392 88.9329 155.365 88.6663 155.328C88.3676 155.467 88.1223 155.643 87.9303 155.856C87.7436 156.064 87.6503 156.309 87.6503 156.592C87.6503 156.773 87.6956 156.941 87.7863 157.096C87.8823 157.256 88.0263 157.392 88.2183 157.504C88.4103 157.621 88.6503 157.712 88.9383 157.776C89.2316 157.845 89.5756 157.88 89.9703 157.88C90.3543 157.88 90.6983 157.845 91.0023 157.776C91.3063 157.707 91.5623 157.608 91.7703 157.48C91.9836 157.352 92.1463 157.2 92.2583 157.024C92.3703 156.848 92.4263 156.653 92.4263 156.44ZM93.8743 148.216V148.744C93.8743 148.92 93.7623 149.032 93.5383 149.08L92.6183 149.2C92.7996 149.552 92.8903 149.941 92.8903 150.368C92.8903 150.763 92.8129 151.123 92.6583 151.448C92.5089 151.768 92.3009 152.043 92.0343 152.272C91.7676 152.501 91.4476 152.677 91.0743 152.8C90.7009 152.923 90.2956 152.984 89.8583 152.984C89.4796 152.984 89.1223 152.939 88.7863 152.848C88.6156 152.955 88.4849 153.069 88.3943 153.192C88.3036 153.309 88.2582 153.429 88.2582 153.552C88.2582 153.744 88.3356 153.891 88.4903 153.992C88.6503 154.088 88.8583 154.157 89.1143 154.2C89.3703 154.243 89.6609 154.269 89.9863 154.28C90.3169 154.291 90.6529 154.309 90.9943 154.336C91.3409 154.357 91.6769 154.397 92.0023 154.456C92.3329 154.515 92.6263 154.611 92.8823 154.744C93.1383 154.877 93.3436 155.061 93.4983 155.296C93.6583 155.531 93.7383 155.835 93.7383 156.208C93.7383 156.555 93.6503 156.891 93.4743 157.216C93.3036 157.541 93.0556 157.829 92.7303 158.08C92.4049 158.336 92.0049 158.539 91.5303 158.688C91.0609 158.843 90.5303 158.92 89.9383 158.92C89.3463 158.92 88.8289 158.861 88.3863 158.744C87.9436 158.627 87.5756 158.469 87.2823 158.272C86.9889 158.075 86.7676 157.845 86.6183 157.584C86.4743 157.328 86.4023 157.059 86.4023 156.776C86.4023 156.376 86.5276 156.037 86.7783 155.76C87.0289 155.483 87.3729 155.261 87.8103 155.096C87.5703 154.989 87.3783 154.848 87.2343 154.672C87.0956 154.491 87.0263 154.248 87.0263 153.944C87.0263 153.827 87.0476 153.707 87.0903 153.584C87.1329 153.456 87.1969 153.331 87.2823 153.208C87.3729 153.08 87.4823 152.96 87.6103 152.848C87.7383 152.736 87.8876 152.637 88.0583 152.552C87.6583 152.328 87.3463 152.032 87.1223 151.664C86.8983 151.291 86.7863 150.859 86.7863 150.368C86.7863 149.973 86.8609 149.616 87.0103 149.296C87.1649 148.971 87.3783 148.696 87.6503 148.472C87.9223 148.243 88.2449 148.067 88.6183 147.944C88.9969 147.821 89.4103 147.76 89.8583 147.76C90.2103 147.76 90.5383 147.8 90.8423 147.88C91.1463 147.955 91.4236 148.067 91.6743 148.216H93.8743ZM99.7388 152.352C99.0828 152.373 98.5228 152.427 98.0588 152.512C97.6001 152.592 97.2241 152.699 96.9308 152.832C96.6428 152.965 96.4321 153.123 96.2988 153.304C96.1708 153.485 96.1068 153.688 96.1068 153.912C96.1068 154.125 96.1414 154.309 96.2108 154.464C96.2801 154.619 96.3734 154.747 96.4908 154.848C96.6134 154.944 96.7548 155.016 96.9148 155.064C97.0801 155.107 97.2561 155.128 97.4428 155.128C97.6934 155.128 97.9228 155.104 98.1308 155.056C98.3388 155.003 98.5334 154.928 98.7148 154.832C98.9014 154.736 99.0774 154.621 99.2428 154.488C99.4134 154.355 99.5788 154.203 99.7388 154.032V152.352ZM95.1388 149.04C95.5868 148.608 96.0694 148.285 96.5868 148.072C97.1041 147.859 97.6774 147.752 98.3068 147.752C98.7601 147.752 99.1628 147.827 99.5148 147.976C99.8668 148.125 100.163 148.333 100.403 148.6C100.643 148.867 100.824 149.189 100.947 149.568C101.069 149.947 101.131 150.363 101.131 150.816V156H100.499C100.36 156 100.253 155.979 100.179 155.936C100.104 155.888 100.045 155.797 100.003 155.664L99.8428 154.896C99.6294 155.093 99.4214 155.269 99.2188 155.424C99.0161 155.573 98.8028 155.701 98.5788 155.808C98.3548 155.909 98.1148 155.987 97.8588 156.04C97.6081 156.099 97.3281 156.128 97.0188 156.128C96.7041 156.128 96.4081 156.085 96.1308 156C95.8534 155.909 95.6108 155.776 95.4028 155.6C95.2001 155.424 95.0374 155.203 94.9148 154.936C94.7974 154.664 94.7388 154.344 94.7388 153.976C94.7388 153.656 94.8268 153.349 95.0028 153.056C95.1788 152.757 95.4641 152.493 95.8588 152.264C96.2534 152.035 96.7681 151.848 97.4028 151.704C98.0374 151.555 98.8161 151.469 99.7388 151.448V150.816C99.7388 150.187 99.6028 149.712 99.3308 149.392C99.0588 149.067 98.6614 148.904 98.1388 148.904C97.7868 148.904 97.4908 148.949 97.2508 149.04C97.0161 149.125 96.8108 149.224 96.6348 149.336C96.4641 149.443 96.3148 149.541 96.1868 149.632C96.0641 149.717 95.9414 149.76 95.8188 149.76C95.7228 149.76 95.6401 149.736 95.5708 149.688C95.5014 149.635 95.4428 149.571 95.3947 149.496L95.1388 149.04ZM104.804 147.896V156H103.38V147.896H104.804ZM105.108 145.352C105.108 145.491 105.079 145.621 105.02 145.744C104.967 145.861 104.892 145.968 104.796 146.064C104.705 146.155 104.596 146.227 104.468 146.28C104.345 146.333 104.215 146.36 104.076 146.36C103.937 146.36 103.807 146.333 103.684 146.28C103.567 146.227 103.463 146.155 103.372 146.064C103.281 145.968 103.209 145.861 103.156 145.744C103.103 145.621 103.076 145.491 103.076 145.352C103.076 145.213 103.103 145.083 103.156 144.96C103.209 144.832 103.281 144.723 103.372 144.632C103.463 144.536 103.567 144.461 103.684 144.408C103.807 144.355 103.937 144.328 104.076 144.328C104.215 144.328 104.345 144.355 104.468 144.408C104.596 144.461 104.705 144.536 104.796 144.632C104.892 144.723 104.967 144.832 105.02 144.96C105.079 145.083 105.108 145.213 105.108 145.352ZM108.488 149.072C108.664 148.875 108.85 148.696 109.048 148.536C109.245 148.376 109.453 148.24 109.672 148.128C109.896 148.011 110.13 147.923 110.376 147.864C110.626 147.8 110.896 147.768 111.184 147.768C111.626 147.768 112.016 147.843 112.352 147.992C112.693 148.136 112.976 148.344 113.2 148.616C113.429 148.883 113.602 149.205 113.72 149.584C113.837 149.963 113.896 150.381 113.896 150.84V156H112.464V150.84C112.464 150.227 112.322 149.752 112.04 149.416C111.762 149.075 111.338 148.904 110.768 148.904C110.346 148.904 109.952 149.005 109.584 149.208C109.221 149.411 108.885 149.685 108.576 150.032V156H107.144V147.896H108C108.202 147.896 108.328 147.995 108.376 148.192L108.488 149.072ZM122.983 152.04C123.271 152.04 123.525 152 123.743 151.92C123.962 151.84 124.146 151.728 124.295 151.584C124.445 151.44 124.557 151.269 124.631 151.072C124.706 150.869 124.743 150.648 124.743 150.408C124.743 149.912 124.591 149.517 124.287 149.224C123.989 148.931 123.554 148.784 122.983 148.784C122.407 148.784 121.967 148.931 121.663 149.224C121.365 149.517 121.215 149.912 121.215 150.408C121.215 150.648 121.253 150.869 121.327 151.072C121.407 151.269 121.522 151.44 121.671 151.584C121.821 151.728 122.005 151.84 122.223 151.92C122.442 152 122.695 152.04 122.983 152.04ZM125.551 156.44C125.551 156.243 125.495 156.083 125.383 155.96C125.271 155.837 125.119 155.741 124.927 155.672C124.741 155.603 124.522 155.555 124.271 155.528C124.021 155.496 123.754 155.472 123.471 155.456C123.194 155.44 122.911 155.424 122.623 155.408C122.335 155.392 122.058 155.365 121.791 155.328C121.493 155.467 121.247 155.643 121.055 155.856C120.869 156.064 120.775 156.309 120.775 156.592C120.775 156.773 120.821 156.941 120.911 157.096C121.007 157.256 121.151 157.392 121.343 157.504C121.535 157.621 121.775 157.712 122.063 157.776C122.357 157.845 122.701 157.88 123.095 157.88C123.479 157.88 123.823 157.845 124.127 157.776C124.431 157.707 124.687 157.608 124.895 157.48C125.109 157.352 125.271 157.2 125.383 157.024C125.495 156.848 125.551 156.653 125.551 156.44ZM126.999 148.216V148.744C126.999 148.92 126.887 149.032 126.663 149.08L125.743 149.2C125.925 149.552 126.015 149.941 126.015 150.368C126.015 150.763 125.938 151.123 125.783 151.448C125.634 151.768 125.426 152.043 125.159 152.272C124.893 152.501 124.573 152.677 124.199 152.8C123.826 152.923 123.421 152.984 122.983 152.984C122.605 152.984 122.247 152.939 121.911 152.848C121.741 152.955 121.61 153.069 121.519 153.192C121.429 153.309 121.383 153.429 121.383 153.552C121.383 153.744 121.461 153.891 121.615 153.992C121.775 154.088 121.983 154.157 122.239 154.2C122.495 154.243 122.786 154.269 123.111 154.28C123.442 154.291 123.778 154.309 124.119 154.336C124.466 154.357 124.802 154.397 125.127 154.456C125.458 154.515 125.751 154.611 126.007 154.744C126.263 154.877 126.469 155.061 126.623 155.296C126.783 155.531 126.863 155.835 126.863 156.208C126.863 156.555 126.775 156.891 126.599 157.216C126.429 157.541 126.181 157.829 125.855 158.08C125.53 158.336 125.13 158.539 124.655 158.688C124.186 158.843 123.655 158.92 123.063 158.92C122.471 158.92 121.954 158.861 121.511 158.744C121.069 158.627 120.701 158.469 120.407 158.272C120.114 158.075 119.893 157.845 119.743 157.584C119.599 157.328 119.527 157.059 119.527 156.776C119.527 156.376 119.653 156.037 119.903 155.76C120.154 155.483 120.498 155.261 120.935 155.096C120.695 154.989 120.503 154.848 120.359 154.672C120.221 154.491 120.151 154.248 120.151 153.944C120.151 153.827 120.173 153.707 120.215 153.584C120.258 153.456 120.322 153.331 120.407 153.208C120.498 153.08 120.607 152.96 120.735 152.848C120.863 152.736 121.013 152.637 121.183 152.552C120.783 152.328 120.471 152.032 120.247 151.664C120.023 151.291 119.911 150.859 119.911 150.368C119.911 149.973 119.986 149.616 120.135 149.296C120.29 148.971 120.503 148.696 120.775 148.472C121.047 148.243 121.37 148.067 121.743 147.944C122.122 147.821 122.535 147.76 122.983 147.76C123.335 147.76 123.663 147.8 123.967 147.88C124.271 147.955 124.549 148.067 124.799 148.216H126.999ZM129.944 144.216V156H128.52V144.216H129.944ZM135.669 147.768C136.261 147.768 136.794 147.867 137.269 148.064C137.744 148.261 138.149 148.541 138.485 148.904C138.821 149.267 139.077 149.707 139.253 150.224C139.434 150.736 139.525 151.309 139.525 151.944C139.525 152.584 139.434 153.16 139.253 153.672C139.077 154.184 138.821 154.621 138.485 154.984C138.149 155.347 137.744 155.627 137.269 155.824C136.794 156.016 136.261 156.112 135.669 156.112C135.072 156.112 134.533 156.016 134.053 155.824C133.578 155.627 133.173 155.347 132.837 154.984C132.501 154.621 132.242 154.184 132.061 153.672C131.885 153.16 131.797 152.584 131.797 151.944C131.797 151.309 131.885 150.736 132.061 150.224C132.242 149.707 132.501 149.267 132.837 148.904C133.173 148.541 133.578 148.261 134.053 148.064C134.533 147.867 135.072 147.768 135.669 147.768ZM135.669 155C136.469 155 137.066 154.733 137.461 154.2C137.856 153.661 138.053 152.912 138.053 151.952C138.053 150.987 137.856 150.235 137.461 149.696C137.066 149.157 136.469 148.888 135.669 148.888C135.264 148.888 134.909 148.957 134.605 149.096C134.306 149.235 134.056 149.435 133.853 149.696C133.656 149.957 133.506 150.28 133.405 150.664C133.309 151.043 133.261 151.472 133.261 151.952C133.261 152.912 133.458 153.661 133.853 154.2C134.253 154.733 134.858 155 135.669 155ZM142.763 154.048C143.024 154.4 143.31 154.648 143.619 154.792C143.934 154.936 144.278 155.008 144.651 155.008C145.414 155.008 145.998 154.739 146.403 154.2C146.808 153.661 147.011 152.859 147.011 151.792C147.011 150.8 146.83 150.072 146.467 149.608C146.11 149.139 145.598 148.904 144.931 148.904C144.467 148.904 144.062 149.011 143.715 149.224C143.374 149.437 143.056 149.739 142.763 150.128V154.048ZM142.763 149.064C143.104 148.669 143.488 148.355 143.915 148.12C144.347 147.885 144.843 147.768 145.403 147.768C145.878 147.768 146.304 147.859 146.683 148.04C147.067 148.221 147.392 148.485 147.659 148.832C147.926 149.173 148.128 149.589 148.267 150.08C148.411 150.571 148.483 151.123 148.483 151.736C148.483 152.392 148.403 152.989 148.243 153.528C148.083 154.067 147.851 154.528 147.547 154.912C147.248 155.291 146.883 155.587 146.451 155.8C146.019 156.008 145.534 156.112 144.995 156.112C144.462 156.112 144.011 156.013 143.643 155.816C143.28 155.613 142.963 155.328 142.691 154.96L142.619 155.696C142.576 155.899 142.454 156 142.251 156H141.331V144.216H142.763V149.064ZM154.676 152.352C154.02 152.373 153.46 152.427 152.996 152.512C152.538 152.592 152.162 152.699 151.868 152.832C151.58 152.965 151.37 153.123 151.236 153.304C151.108 153.485 151.044 153.688 151.044 153.912C151.044 154.125 151.079 154.309 151.148 154.464C151.218 154.619 151.311 154.747 151.428 154.848C151.551 154.944 151.692 155.016 151.852 155.064C152.018 155.107 152.194 155.128 152.38 155.128C152.631 155.128 152.86 155.104 153.068 155.056C153.276 155.003 153.471 154.928 153.652 154.832C153.839 154.736 154.015 154.621 154.18 154.488C154.351 154.355 154.516 154.203 154.676 154.032V152.352ZM150.076 149.04C150.524 148.608 151.007 148.285 151.524 148.072C152.042 147.859 152.615 147.752 153.244 147.752C153.698 147.752 154.1 147.827 154.452 147.976C154.804 148.125 155.1 148.333 155.34 148.6C155.58 148.867 155.762 149.189 155.884 149.568C156.007 149.947 156.068 150.363 156.068 150.816V156H155.436C155.298 156 155.191 155.979 155.116 155.936C155.042 155.888 154.983 155.797 154.94 155.664L154.78 154.896C154.567 155.093 154.359 155.269 154.156 155.424C153.954 155.573 153.74 155.701 153.516 155.808C153.292 155.909 153.052 155.987 152.796 156.04C152.546 156.099 152.266 156.128 151.956 156.128C151.642 156.128 151.346 156.085 151.068 156C150.791 155.909 150.548 155.776 150.34 155.6C150.138 155.424 149.975 155.203 149.852 154.936C149.735 154.664 149.676 154.344 149.676 153.976C149.676 153.656 149.764 153.349 149.94 153.056C150.116 152.757 150.402 152.493 150.796 152.264C151.191 152.035 151.706 151.848 152.34 151.704C152.975 151.555 153.754 151.469 154.676 151.448V150.816C154.676 150.187 154.54 149.712 154.268 149.392C153.996 149.067 153.599 148.904 153.076 148.904C152.724 148.904 152.428 148.949 152.188 149.04C151.954 149.125 151.748 149.224 151.572 149.336C151.402 149.443 151.252 149.541 151.124 149.632C151.002 149.717 150.879 149.76 150.756 149.76C150.66 149.76 150.578 149.736 150.508 149.688C150.439 149.635 150.38 149.571 150.332 149.496L150.076 149.04ZM159.709 144.216V156H158.285V144.216H159.709ZM170.504 152.352C169.848 152.373 169.288 152.427 168.824 152.512C168.366 152.592 167.99 152.699 167.696 152.832C167.408 152.965 167.198 153.123 167.064 153.304C166.936 153.485 166.872 153.688 166.872 153.912C166.872 154.125 166.907 154.309 166.976 154.464C167.046 154.619 167.139 154.747 167.256 154.848C167.379 154.944 167.52 155.016 167.68 155.064C167.846 155.107 168.022 155.128 168.208 155.128C168.459 155.128 168.688 155.104 168.896 155.056C169.104 155.003 169.299 154.928 169.48 154.832C169.667 154.736 169.843 154.621 170.008 154.488C170.179 154.355 170.344 154.203 170.504 154.032V152.352ZM165.904 149.04C166.352 148.608 166.835 148.285 167.352 148.072C167.87 147.859 168.443 147.752 169.072 147.752C169.526 147.752 169.928 147.827 170.28 147.976C170.632 148.125 170.928 148.333 171.168 148.6C171.408 148.867 171.59 149.189 171.712 149.568C171.835 149.947 171.896 150.363 171.896 150.816V156H171.264C171.126 156 171.019 155.979 170.944 155.936C170.87 155.888 170.811 155.797 170.768 155.664L170.608 154.896C170.395 155.093 170.187 155.269 169.984 155.424C169.782 155.573 169.568 155.701 169.344 155.808C169.12 155.909 168.88 155.987 168.624 156.04C168.374 156.099 168.094 156.128 167.784 156.128C167.47 156.128 167.174 156.085 166.896 156C166.619 155.909 166.376 155.776 166.168 155.6C165.966 155.424 165.803 155.203 165.68 154.936C165.563 154.664 165.504 154.344 165.504 153.976C165.504 153.656 165.592 153.349 165.768 153.056C165.944 152.757 166.23 152.493 166.624 152.264C167.019 152.035 167.534 151.848 168.168 151.704C168.803 151.555 169.582 151.469 170.504 151.448V150.816C170.504 150.187 170.368 149.712 170.096 149.392C169.824 149.067 169.427 148.904 168.904 148.904C168.552 148.904 168.256 148.949 168.016 149.04C167.782 149.125 167.576 149.224 167.4 149.336C167.23 149.443 167.08 149.541 166.952 149.632C166.83 149.717 166.707 149.76 166.584 149.76C166.488 149.76 166.406 149.736 166.336 149.688C166.267 149.635 166.208 149.571 166.16 149.496L165.904 149.04ZM180.73 147.896V156H179.882C179.679 156 179.551 155.901 179.498 155.704L179.386 154.832C179.034 155.221 178.639 155.536 178.202 155.776C177.764 156.011 177.263 156.128 176.698 156.128C176.255 156.128 175.863 156.056 175.522 155.912C175.186 155.763 174.903 155.555 174.674 155.288C174.444 155.021 174.271 154.699 174.154 154.32C174.042 153.941 173.986 153.523 173.986 153.064V147.896H175.41V153.064C175.41 153.677 175.548 154.152 175.826 154.488C176.108 154.824 176.538 154.992 177.114 154.992C177.535 154.992 177.927 154.893 178.29 154.696C178.658 154.493 178.996 154.216 179.306 153.864V147.896H180.73ZM188.267 149.824C188.001 149.467 187.713 149.219 187.403 149.08C187.094 148.936 186.747 148.864 186.363 148.864C185.611 148.864 185.033 149.133 184.627 149.672C184.222 150.211 184.019 150.979 184.019 151.976C184.019 152.504 184.065 152.957 184.155 153.336C184.246 153.709 184.379 154.019 184.555 154.264C184.731 154.504 184.947 154.68 185.203 154.792C185.459 154.904 185.75 154.96 186.075 154.96C186.545 154.96 186.953 154.853 187.299 154.64C187.651 154.427 187.974 154.125 188.267 153.736V149.824ZM189.691 144.216V156H188.843C188.641 156 188.513 155.901 188.459 155.704L188.331 154.72C187.985 155.136 187.59 155.472 187.147 155.728C186.705 155.984 186.193 156.112 185.611 156.112C185.147 156.112 184.726 156.024 184.347 155.848C183.969 155.667 183.646 155.403 183.379 155.056C183.113 154.709 182.907 154.277 182.763 153.76C182.619 153.243 182.547 152.648 182.547 151.976C182.547 151.379 182.627 150.824 182.787 150.312C182.947 149.795 183.177 149.347 183.475 148.968C183.774 148.589 184.139 148.293 184.571 148.08C185.009 147.861 185.499 147.752 186.043 147.752C186.539 147.752 186.963 147.837 187.315 148.008C187.673 148.173 187.99 148.405 188.267 148.704V144.216H189.691ZM193.445 147.896V156H192.021V147.896H193.445ZM193.749 145.352C193.749 145.491 193.719 145.621 193.661 145.744C193.607 145.861 193.533 145.968 193.437 146.064C193.346 146.155 193.237 146.227 193.109 146.28C192.986 146.333 192.855 146.36 192.717 146.36C192.578 146.36 192.447 146.333 192.325 146.28C192.207 146.227 192.103 146.155 192.013 146.064C191.922 145.968 191.85 145.861 191.797 145.744C191.743 145.621 191.717 145.491 191.717 145.352C191.717 145.213 191.743 145.083 191.797 144.96C191.85 144.832 191.922 144.723 192.013 144.632C192.103 144.536 192.207 144.461 192.325 144.408C192.447 144.355 192.578 144.328 192.717 144.328C192.855 144.328 192.986 144.355 193.109 144.408C193.237 144.461 193.346 144.536 193.437 144.632C193.533 144.723 193.607 144.832 193.661 144.96C193.719 145.083 193.749 145.213 193.749 145.352ZM201.208 151.064C201.208 150.733 201.16 150.432 201.064 150.16C200.974 149.883 200.838 149.645 200.656 149.448C200.48 149.245 200.264 149.091 200.008 148.984C199.752 148.872 199.462 148.816 199.136 148.816C198.454 148.816 197.912 149.016 197.512 149.416C197.118 149.811 196.872 150.36 196.776 151.064H201.208ZM202.36 154.864C202.184 155.077 201.974 155.264 201.728 155.424C201.483 155.579 201.219 155.707 200.936 155.808C200.659 155.909 200.371 155.984 200.072 156.032C199.774 156.085 199.478 156.112 199.184 156.112C198.624 156.112 198.107 156.019 197.632 155.832C197.163 155.64 196.755 155.363 196.408 155C196.067 154.632 195.8 154.179 195.608 153.64C195.416 153.101 195.32 152.483 195.32 151.784C195.32 151.219 195.406 150.691 195.576 150.2C195.752 149.709 196.003 149.285 196.328 148.928C196.654 148.565 197.051 148.283 197.52 148.08C197.99 147.872 198.518 147.768 199.104 147.768C199.59 147.768 200.038 147.851 200.448 148.016C200.864 148.176 201.222 148.411 201.52 148.72C201.824 149.024 202.062 149.403 202.232 149.856C202.403 150.304 202.488 150.816 202.488 151.392C202.488 151.616 202.464 151.765 202.416 151.84C202.368 151.915 202.278 151.952 202.144 151.952H196.728C196.744 152.464 196.814 152.909 196.936 153.288C197.064 153.667 197.24 153.984 197.464 154.24C197.688 154.491 197.955 154.68 198.264 154.808C198.574 154.931 198.92 154.992 199.304 154.992C199.662 154.992 199.968 154.952 200.224 154.872C200.486 154.787 200.71 154.696 200.896 154.6C201.083 154.504 201.238 154.416 201.36 154.336C201.488 154.251 201.598 154.208 201.688 154.208C201.806 154.208 201.896 154.253 201.96 154.344L202.36 154.864ZM205.581 149.072C205.757 148.875 205.944 148.696 206.141 148.536C206.339 148.376 206.547 148.24 206.765 148.128C206.989 148.011 207.224 147.923 207.469 147.864C207.72 147.8 207.989 147.768 208.277 147.768C208.72 147.768 209.109 147.843 209.445 147.992C209.787 148.136 210.069 148.344 210.293 148.616C210.523 148.883 210.696 149.205 210.813 149.584C210.931 149.963 210.989 150.381 210.989 150.84V156H209.557V150.84C209.557 150.227 209.416 149.752 209.133 149.416C208.856 149.075 208.432 148.904 207.861 148.904C207.44 148.904 207.045 149.005 206.677 149.208C206.315 149.411 205.979 149.685 205.669 150.032V156H204.237V147.896H205.093C205.296 147.896 205.421 147.995 205.469 148.192L205.581 149.072ZM218.799 149.336C218.757 149.395 218.714 149.44 218.671 149.472C218.629 149.504 218.57 149.52 218.495 149.52C218.415 149.52 218.327 149.488 218.231 149.424C218.135 149.355 218.015 149.28 217.871 149.2C217.733 149.12 217.559 149.048 217.351 148.984C217.149 148.915 216.898 148.88 216.599 148.88C216.199 148.88 215.847 148.952 215.543 149.096C215.239 149.235 214.983 149.437 214.775 149.704C214.573 149.971 214.418 150.293 214.311 150.672C214.21 151.051 214.159 151.475 214.159 151.944C214.159 152.435 214.215 152.872 214.327 153.256C214.439 153.635 214.597 153.955 214.799 154.216C215.007 154.472 215.255 154.669 215.543 154.808C215.837 154.941 216.165 155.008 216.527 155.008C216.874 155.008 217.159 154.968 217.383 154.888C217.607 154.803 217.791 154.709 217.935 154.608C218.085 154.507 218.207 154.416 218.303 154.336C218.405 154.251 218.503 154.208 218.599 154.208C218.717 154.208 218.807 154.253 218.871 154.344L219.271 154.864C219.095 155.083 218.895 155.269 218.671 155.424C218.447 155.579 218.205 155.709 217.943 155.816C217.687 155.917 217.418 155.992 217.135 156.04C216.853 156.088 216.565 156.112 216.271 156.112C215.765 156.112 215.293 156.019 214.855 155.832C214.423 155.645 214.047 155.376 213.727 155.024C213.407 154.667 213.157 154.229 212.975 153.712C212.794 153.195 212.703 152.605 212.703 151.944C212.703 151.341 212.786 150.784 212.951 150.272C213.122 149.76 213.367 149.32 213.687 148.952C214.013 148.579 214.41 148.288 214.879 148.08C215.354 147.872 215.898 147.768 216.511 147.768C217.082 147.768 217.583 147.861 218.015 148.048C218.453 148.229 218.839 148.488 219.175 148.824L218.799 149.336ZM226.083 151.064C226.083 150.733 226.035 150.432 225.939 150.16C225.849 149.883 225.713 149.645 225.531 149.448C225.355 149.245 225.139 149.091 224.883 148.984C224.627 148.872 224.337 148.816 224.011 148.816C223.329 148.816 222.787 149.016 222.387 149.416C221.993 149.811 221.747 150.36 221.651 151.064H226.083ZM227.235 154.864C227.059 155.077 226.849 155.264 226.603 155.424C226.358 155.579 226.094 155.707 225.811 155.808C225.534 155.909 225.246 155.984 224.947 156.032C224.649 156.085 224.353 156.112 224.059 156.112C223.499 156.112 222.982 156.019 222.507 155.832C222.038 155.64 221.63 155.363 221.283 155C220.942 154.632 220.675 154.179 220.483 153.64C220.291 153.101 220.195 152.483 220.195 151.784C220.195 151.219 220.281 150.691 220.451 150.2C220.627 149.709 220.878 149.285 221.203 148.928C221.529 148.565 221.926 148.283 222.395 148.08C222.865 147.872 223.393 147.768 223.979 147.768C224.465 147.768 224.913 147.851 225.323 148.016C225.739 148.176 226.097 148.411 226.395 148.72C226.699 149.024 226.937 149.403 227.107 149.856C227.278 150.304 227.363 150.816 227.363 151.392C227.363 151.616 227.339 151.765 227.291 151.84C227.243 151.915 227.153 151.952 227.019 151.952H221.603C221.619 152.464 221.689 152.909 221.811 153.288C221.939 153.667 222.115 153.984 222.339 154.24C222.563 154.491 222.83 154.68 223.139 154.808C223.449 154.931 223.795 154.992 224.179 154.992C224.537 154.992 224.843 154.952 225.099 154.872C225.361 154.787 225.585 154.696 225.771 154.6C225.958 154.504 226.113 154.416 226.235 154.336C226.363 154.251 226.473 154.208 226.563 154.208C226.681 154.208 226.771 154.253 226.835 154.344L227.235 154.864Z" fill="#D4D4D4"/>
<defs>
<filter id="filter0_d_1_8118" x="0" y="0" width="108" height="108" filterUnits="userSpaceOnUse" color-interpolation-filters="sRGB">
<feFlood flood-opacity="0" result="BackgroundImageFix"/>
<feColorMatrix in="SourceAlpha" type="matrix" values="0 0 0 0 0 0 0 0 0 0 0 0 0 0 0 0 0 0 127 0" result="hardAlpha"/>
<feOffset dy="4"/>
<feGaussianBlur stdDeviation="6"/>
<feComposite in2="hardAlpha" operator="out"/>
<feColorMatrix type="matrix" values="0 0 0 0 0 0 0 0 0 0 0 0 0 0 0 0 0 0 1 0"/>
<feBlend mode="normal" in2="BackgroundImageFix" result="effect1_dropShadow_1_8118"/>
<feBlend mode="normal" in="SourceGraphic" in2="effect1_dropShadow_1_8118" result="shape"/>
</filter>
<filter id="filter1_dd_1_8118" x="15" y="9" width="78" height="82" filterUnits="userSpaceOnUse" color-interpolation-filters="sRGB">
<feFlood flood-opacity="0" result="BackgroundImageFix"/>
<feColorMatrix in="SourceAlpha" type="matrix" values="0 0 0 0 0 0 0 0 0 0 0 0 0 0 0 0 0 0 127 0" result="hardAlpha"/>
<feOffset dy="2"/>
<feGaussianBlur stdDeviation="2"/>
<feComposite in2="hardAlpha" operator="out"/>
<feColorMatrix type="matrix" values="0 0 0 0 0 0 0 0 0 0 0 0 0 0 0 0 0 0 1 0"/>
<feBlend mode="normal" in2="BackgroundImageFix" result="effect1_dropShadow_1_8118"/>
<feColorMatrix in="SourceAlpha" type="matrix" values="0 0 0 0 0 0 0 0 0 0 0 0 0 0 0 0 0 0 127 0" result="hardAlpha"/>
<feOffset dy="-2"/>
<feGaussianBlur stdDeviation="2"/>
<feComposite in2="hardAlpha" operator="out"/>
<feColorMatrix type="matrix" values="0 0 0 0 0 0 0 0 0 0 0 0 0 0 0 0 0 0 1 0"/>
<feBlend mode="normal" in2="effect1_dropShadow_1_8118" result="effect2_dropShadow_1_8118"/>
<feBlend mode="normal" in="SourceGraphic" in2="effect2_dropShadow_1_8118" result="shape"/>
</filter>
<linearGradient id="paint0_linear_1_8118" x1="24.3452" y1="29.2809" x2="39.2637" y2="68.4688" gradientUnits="userSpaceOnUse">
<stop stop-color="#DB2777"/>
<stop offset="1" stop-color="#F97316"/>
</linearGradient>
<linearGradient id="paint1_linear_1_8118" x1="24.3452" y1="31.8609" x2="70.9652" y2="89.4896" gradientUnits="userSpaceOnUse">
<stop stop-color="#DB2777"/>
<stop offset="1" stop-color="#F97316"/>
</linearGradient>
<linearGradient id="paint2_linear_1_8118" x1="49.3943" y1="42.8528" x2="87.09" y2="71.1439" gradientUnits="userSpaceOnUse">
<stop stop-color="#DB2777"/>
<stop offset="1" stop-color="#F97316"/>
</linearGradient>
<clipPath id="clip0_1_8118">
<rect width="32" height="32" fill="white" transform="translate(38 34)"/>
</clipPath>
</defs>
</svg>
