<svg width="312" height="159" viewBox="0 0 312 159" fill="none" xmlns="http://www.w3.org/2000/svg">
<g filter="url(#filter0_d_1_8096)">
<circle cx="258" cy="50" r="42" fill="#262626"/>
</g>
<g filter="url(#filter1_dd_1_8096)">
<circle cx="258" cy="50" r="35" fill="#262626"/>
</g>
<g clip-path="url(#clip0_1_8096)">
<path d="M257.135 36.1C256.9 36.085 256.66 36.08 256.42 36.08C248.75 36.08 242.51 42.315 242.5 49.98V50.015C242.51 57.625 248.655 63.815 256.24 63.91C256.3 63.91 256.36 63.92 256.42 63.92C256.66 63.915 256.9 63.91 257.135 63.895C256.72 63.125 256.49 62.25 256.49 61.315C256.49 60.06 256.91 58.9 257.62 57.975V42.025C256.91 41.1 256.49 39.94 256.49 38.685C256.49 37.75 256.725 36.87 257.135 36.1ZM244.905 50.005V49.995C244.915 49.56 246.005 48.5 249.075 47.715C249.01 48.47 248.975 49.235 248.975 50C248.975 50.765 249.01 51.53 249.075 52.28C246.005 51.5 244.915 50.44 244.905 50.005ZM245.465 53.54C246.525 54.06 247.85 54.495 249.42 54.83C249.83 56.995 250.5 58.87 251.365 60.345C248.585 58.98 246.43 56.525 245.465 53.54ZM249.42 45.17C247.85 45.5 246.525 45.94 245.465 46.46C246.43 43.475 248.585 41.02 251.365 39.655C250.5 41.13 249.83 43 249.42 45.17ZM255.215 61.135C253.865 60.29 252.645 58.1 251.965 55.245C253.01 55.375 254.1 55.455 255.215 55.49V61.135ZM255.215 53.085C253.935 53.045 252.695 52.935 251.53 52.76C251.43 51.855 251.375 50.93 251.375 50C251.375 49.07 251.43 48.14 251.535 47.235C252.695 47.065 253.935 46.955 255.215 46.915V53.085ZM255.215 44.51C254.1 44.545 253.01 44.625 251.965 44.75C252.645 41.89 253.875 39.69 255.215 38.855V44.51Z" fill="url(#paint0_linear_1_8096)"/>
<path d="M263.06 37.67C263.06 37.67 263.04 37.67 263.025 37.675C263.01 37.68 262.995 37.675 262.995 37.66C262.935 37.085 262.52 36.715 262.015 36.715C261.51 36.715 261.095 37.085 261.035 37.66C261.035 37.675 261.015 37.685 261.005 37.675C260.995 37.67 260.98 37.665 260.97 37.67C260.915 37.68 260.89 37.795 260.915 37.925C260.94 38.055 261 38.155 261.055 38.145C261.06 38.145 261.065 38.145 261.07 38.14C261.115 38.335 261.21 38.525 261.295 38.655C261.475 38.925 261.705 39.1 262.015 39.1C262.325 39.1 262.555 38.925 262.735 38.655C262.82 38.525 262.915 38.335 262.96 38.14C262.965 38.14 262.97 38.145 262.975 38.145C263.03 38.155 263.09 38.055 263.115 37.925C263.14 37.795 263.115 37.68 263.06 37.67Z" fill="url(#paint1_linear_1_8096)"/>
<path d="M270.235 48.935C270.235 48.935 270.21 48.935 270.2 48.94C270.185 48.95 270.17 48.94 270.165 48.925C270.1 48.32 269.665 47.93 269.13 47.93C268.595 47.93 268.16 48.32 268.095 48.925C268.095 48.94 268.075 48.95 268.06 48.94C268.05 48.935 268.035 48.93 268.025 48.935C267.97 48.945 267.94 49.065 267.965 49.2C267.99 49.335 268.055 49.44 268.11 49.43C268.115 49.43 268.12 49.43 268.13 49.42C268.18 49.625 268.275 49.825 268.37 49.965C268.56 50.25 268.8 50.43 269.13 50.43C269.46 50.43 269.7 50.25 269.89 49.965C269.98 49.83 270.08 49.625 270.13 49.42C270.135 49.42 270.14 49.425 270.15 49.43C270.205 49.44 270.275 49.335 270.295 49.2C270.315 49.065 270.295 48.945 270.235 48.935Z" fill="url(#paint2_linear_1_8096)"/>
<path d="M269.645 45.665C269.075 43.935 268.18 42.355 267.025 41C266.7 40.615 266.35 40.245 265.98 39.9C266.095 39.515 266.16 39.11 266.16 38.685C266.16 36.395 264.3 34.535 262.01 34.535C260.625 34.535 259.4 35.215 258.65 36.26C258.175 36.915 257.89 37.715 257.865 38.58V38.685C257.865 40.97 259.725 42.83 262.01 42.83C262.995 42.83 263.895 42.485 264.61 41.915C264.93 42.24 265.235 42.585 265.51 42.945C266.24 43.885 266.83 44.935 267.24 46.07C265.78 46.775 264.77 48.275 264.77 50C264.77 51.725 265.78 53.225 267.24 53.93C266.83 55.065 266.24 56.115 265.51 57.055C265.235 57.415 264.93 57.76 264.61 58.085C263.895 57.515 262.995 57.17 262.01 57.17C259.725 57.17 257.865 59.03 257.865 61.315V61.42C257.89 62.28 258.175 63.08 258.645 63.735C259.395 64.78 260.625 65.465 262.01 65.465C264.3 65.465 266.16 63.605 266.16 61.315C266.16 60.89 266.095 60.48 265.98 60.095C266.35 59.755 266.7 59.385 267.025 58.995C268.18 57.64 269.075 56.065 269.645 54.335C271.81 54.08 273.5 52.23 273.5 50C273.5 47.77 271.81 45.92 269.645 45.665ZM263.7 41.085L263.76 39.935C263.775 39.83 263.755 39.73 263.71 39.64C263.65 39.53 263.55 39.445 263.425 39.425L262.7 39.25L262.47 39.36C262.33 39.435 262.17 39.47 262.015 39.47C261.86 39.47 261.695 39.43 261.555 39.36L261.33 39.245L260.6 39.42C260.475 39.44 260.375 39.525 260.31 39.635C260.27 39.72 260.245 39.82 260.26 39.925L260.32 41.08C259.6 40.57 259.115 39.74 259.08 38.8C259.08 38.76 259.08 38.725 259.08 38.685C259.08 37.88 259.405 37.15 259.93 36.62C259.955 36.59 259.98 36.57 260.005 36.55C260.53 36.05 261.24 35.745 262.015 35.745C262.79 35.745 263.56 36.075 264.095 36.61H264.1C264.625 37.145 264.955 37.875 264.955 38.685C264.955 38.79 264.95 38.895 264.935 39C264.845 39.86 264.38 40.61 263.705 41.085H263.7ZM263.7 63.715L263.76 62.565C263.775 62.46 263.755 62.36 263.71 62.275C263.65 62.165 263.55 62.08 263.425 62.055L262.7 61.88L262.47 61.995C262.33 62.065 262.17 62.1 262.015 62.1C261.86 62.1 261.695 62.065 261.555 61.99L261.33 61.88L260.6 62.05C260.475 62.07 260.37 62.155 260.31 62.27C260.265 62.355 260.245 62.455 260.26 62.56L260.32 63.715C260.205 63.635 260.095 63.545 259.995 63.445C259.43 62.91 259.075 62.155 259.075 61.315C259.075 61.275 259.075 61.24 259.075 61.2C259.1 60.435 259.425 59.75 259.925 59.245H259.93C260.46 58.71 261.195 58.38 262.005 58.38C262.63 58.38 263.21 58.575 263.69 58.91C263.83 59.01 263.965 59.12 264.085 59.24C264.545 59.7 264.855 60.31 264.925 60.995C264.94 61.1 264.945 61.205 264.945 61.315C264.945 62.305 264.45 63.185 263.695 63.715H263.7ZM270.91 52.525L270.975 51.315C271.01 51.06 270.855 50.825 270.625 50.78L270.315 50.705L269.855 50.595L269.62 50.715C269.47 50.79 269.305 50.83 269.135 50.825C268.965 50.825 268.8 50.785 268.65 50.71L268.415 50.59L267.645 50.775C267.42 50.815 267.26 51.055 267.295 51.305L267.355 52.525C266.565 51.965 266.045 51.04 266.045 50C266.045 48.845 266.68 47.84 267.615 47.31C268.065 47.055 268.58 46.91 269.135 46.91C269.44 46.91 269.735 46.955 270.015 47.04C271.29 47.415 272.225 48.6 272.225 50C272.225 51.045 271.705 51.965 270.91 52.525Z" fill="url(#paint3_linear_1_8096)"/>
<path d="M263.06 60.3049C263.06 60.3049 263.04 60.3049 263.025 60.3099C263.01 60.3149 262.995 60.3099 262.995 60.2949C262.935 59.7199 262.52 59.3499 262.015 59.3499C261.51 59.3499 261.095 59.7199 261.035 60.2949C261.035 60.3099 261.015 60.3199 261.005 60.3099C260.995 60.3049 260.98 60.2999 260.97 60.3049C260.915 60.3149 260.89 60.4299 260.915 60.5599C260.94 60.6899 261 60.7899 261.055 60.7799C261.06 60.7799 261.065 60.7799 261.07 60.7749C261.115 60.9699 261.21 61.1599 261.295 61.2899C261.475 61.5599 261.705 61.7349 262.015 61.7349C262.325 61.7349 262.555 61.5599 262.735 61.2899C262.82 61.1599 262.915 60.9699 262.96 60.7749C262.965 60.7749 262.97 60.7799 262.975 60.7799C263.03 60.7899 263.09 60.6899 263.115 60.5599C263.14 60.4299 263.115 60.3149 263.06 60.3049Z" fill="url(#paint4_linear_1_8096)"/>
</g>
<path d="M103.432 116.75V122.6C102.699 123.14 101.916 123.537 101.082 123.79C100.256 124.037 99.369 124.16 98.4223 124.16C97.2423 124.16 96.1723 123.977 95.2123 123.61C94.259 123.243 93.4423 122.733 92.7623 122.08C92.089 121.427 91.569 120.647 91.2023 119.74C90.8357 118.833 90.6523 117.843 90.6523 116.77C90.6523 115.683 90.829 114.687 91.1823 113.78C91.5357 112.873 92.0357 112.093 92.6823 111.44C93.3357 110.787 94.1257 110.28 95.0523 109.92C95.979 109.56 97.019 109.38 98.1723 109.38C98.759 109.38 99.3057 109.427 99.8123 109.52C100.326 109.613 100.799 109.743 101.232 109.91C101.672 110.07 102.072 110.267 102.432 110.5C102.792 110.733 103.122 110.99 103.422 111.27L102.652 112.49C102.532 112.683 102.376 112.803 102.182 112.85C101.989 112.89 101.779 112.84 101.552 112.7C101.332 112.573 101.112 112.447 100.892 112.32C100.672 112.193 100.426 112.083 100.152 111.99C99.8857 111.897 99.5823 111.82 99.2423 111.76C98.909 111.7 98.5223 111.67 98.0823 111.67C97.369 111.67 96.7223 111.79 96.1423 112.03C95.569 112.27 95.079 112.613 94.6723 113.06C94.2657 113.507 93.9523 114.043 93.7323 114.67C93.5123 115.297 93.4023 115.997 93.4023 116.77C93.4023 117.597 93.519 118.337 93.7523 118.99C93.9923 119.637 94.3257 120.187 94.7523 120.64C95.1857 121.087 95.7057 121.43 96.3123 121.67C96.919 121.903 97.5957 122.02 98.3423 122.02C98.8757 122.02 99.3523 121.963 99.7723 121.85C100.192 121.737 100.602 121.583 101.002 121.39V118.77H99.1823C99.009 118.77 98.8723 118.723 98.7723 118.63C98.679 118.53 98.6323 118.41 98.6323 118.27V116.75H103.432ZM108.095 109.14V124H105.625V109.14H108.095ZM115.096 113.58C115.856 113.58 116.546 113.703 117.166 113.95C117.793 114.197 118.326 114.547 118.766 115C119.213 115.453 119.556 116.007 119.796 116.66C120.036 117.313 120.156 118.043 120.156 118.85C120.156 119.663 120.036 120.397 119.796 121.05C119.556 121.703 119.213 122.26 118.766 122.72C118.326 123.18 117.793 123.533 117.166 123.78C116.546 124.027 115.856 124.15 115.096 124.15C114.329 124.15 113.633 124.027 113.006 123.78C112.379 123.533 111.843 123.18 111.396 122.72C110.956 122.26 110.613 121.703 110.366 121.05C110.126 120.397 110.006 119.663 110.006 118.85C110.006 118.043 110.126 117.313 110.366 116.66C110.613 116.007 110.956 115.453 111.396 115C111.843 114.547 112.379 114.197 113.006 113.95C113.633 113.703 114.329 113.58 115.096 113.58ZM115.096 122.25C115.949 122.25 116.579 121.963 116.986 121.39C117.399 120.817 117.606 119.977 117.606 118.87C117.606 117.763 117.399 116.92 116.986 116.34C116.579 115.76 115.949 115.47 115.096 115.47C114.229 115.47 113.586 115.763 113.166 116.35C112.753 116.93 112.546 117.77 112.546 118.87C112.546 119.97 112.753 120.81 113.166 121.39C113.586 121.963 114.229 122.25 115.096 122.25ZM124.51 121.34C124.79 121.68 125.094 121.92 125.42 122.06C125.754 122.2 126.104 122.27 126.47 122.27C126.85 122.27 127.19 122.203 127.49 122.07C127.797 121.93 128.057 121.717 128.27 121.43C128.484 121.137 128.647 120.767 128.76 120.32C128.874 119.867 128.93 119.327 128.93 118.7C128.93 117.573 128.744 116.76 128.37 116.26C127.997 115.753 127.46 115.5 126.76 115.5C126.287 115.5 125.874 115.61 125.52 115.83C125.167 116.043 124.83 116.347 124.51 116.74V121.34ZM124.51 115C124.924 114.567 125.38 114.223 125.88 113.97C126.387 113.71 126.964 113.58 127.61 113.58C128.204 113.58 128.737 113.697 129.21 113.93C129.69 114.163 130.097 114.5 130.43 114.94C130.77 115.373 131.03 115.9 131.21 116.52C131.39 117.14 131.48 117.837 131.48 118.61C131.48 119.443 131.377 120.2 131.17 120.88C130.964 121.56 130.667 122.143 130.28 122.63C129.9 123.11 129.44 123.483 128.9 123.75C128.36 124.017 127.76 124.15 127.1 124.15C126.78 124.15 126.49 124.117 126.23 124.05C125.97 123.99 125.73 123.903 125.51 123.79C125.29 123.677 125.087 123.54 124.9 123.38C124.72 123.213 124.547 123.03 124.38 122.83L124.27 123.52C124.23 123.693 124.16 123.817 124.06 123.89C123.967 123.963 123.837 124 123.67 124H122.04V109.14H124.51V115ZM138.808 119.62C138.095 119.653 137.495 119.717 137.008 119.81C136.521 119.897 136.131 120.01 135.838 120.15C135.545 120.29 135.335 120.453 135.208 120.64C135.081 120.827 135.018 121.03 135.018 121.25C135.018 121.683 135.145 121.993 135.398 122.18C135.658 122.367 135.995 122.46 136.408 122.46C136.915 122.46 137.351 122.37 137.718 122.19C138.091 122.003 138.455 121.723 138.808 121.35V119.62ZM133.148 115.17C134.328 114.09 135.748 113.55 137.408 113.55C138.008 113.55 138.545 113.65 139.018 113.85C139.491 114.043 139.891 114.317 140.218 114.67C140.545 115.017 140.791 115.433 140.958 115.92C141.131 116.407 141.218 116.94 141.218 117.52V124H140.098C139.865 124 139.685 123.967 139.558 123.9C139.431 123.827 139.331 123.683 139.258 123.47L139.038 122.73C138.778 122.963 138.525 123.17 138.278 123.35C138.031 123.523 137.775 123.67 137.508 123.79C137.241 123.91 136.955 124 136.648 124.06C136.348 124.127 136.015 124.16 135.648 124.16C135.215 124.16 134.815 124.103 134.448 123.99C134.081 123.87 133.765 123.693 133.498 123.46C133.231 123.227 133.025 122.937 132.878 122.59C132.731 122.243 132.658 121.84 132.658 121.38C132.658 121.12 132.701 120.863 132.788 120.61C132.875 120.35 133.015 120.103 133.208 119.87C133.408 119.637 133.665 119.417 133.978 119.21C134.291 119.003 134.675 118.823 135.128 118.67C135.588 118.517 136.121 118.393 136.728 118.3C137.335 118.2 138.028 118.14 138.808 118.12V117.52C138.808 116.833 138.661 116.327 138.368 116C138.075 115.667 137.651 115.5 137.098 115.5C136.698 115.5 136.365 115.547 136.098 115.64C135.838 115.733 135.608 115.84 135.408 115.96C135.208 116.073 135.025 116.177 134.858 116.27C134.698 116.363 134.518 116.41 134.318 116.41C134.145 116.41 133.998 116.367 133.878 116.28C133.758 116.187 133.661 116.08 133.588 115.96L133.148 115.17ZM146.044 109.14V124H143.574V109.14H146.044ZM160.734 118.54L158.974 113.73C158.888 113.517 158.798 113.263 158.704 112.97C158.611 112.677 158.518 112.36 158.424 112.02C158.338 112.36 158.248 112.68 158.154 112.98C158.061 113.273 157.971 113.53 157.884 113.75L156.134 118.54H160.734ZM165.484 124H163.404C163.171 124 162.981 123.943 162.834 123.83C162.688 123.71 162.578 123.563 162.504 123.39L161.424 120.44H155.434L154.354 123.39C154.301 123.543 154.198 123.683 154.044 123.81C153.891 123.937 153.701 124 153.474 124H151.374L157.064 109.54H159.804L165.484 124ZM175.197 113.74V124H173.687C173.36 124 173.153 123.85 173.067 123.55L172.897 122.73C172.477 123.157 172.013 123.503 171.507 123.77C171 124.03 170.403 124.16 169.717 124.16C169.157 124.16 168.66 124.067 168.227 123.88C167.8 123.687 167.44 123.417 167.147 123.07C166.853 122.723 166.63 122.313 166.477 121.84C166.33 121.36 166.257 120.833 166.257 120.26V113.74H168.727V120.26C168.727 120.887 168.87 121.373 169.157 121.72C169.45 122.06 169.887 122.23 170.467 122.23C170.893 122.23 171.293 122.137 171.667 121.95C172.04 121.757 172.393 121.493 172.727 121.16V113.74H175.197ZM184.086 116.36C183.806 116.02 183.499 115.78 183.166 115.64C182.839 115.5 182.486 115.43 182.106 115.43C181.732 115.43 181.396 115.5 181.096 115.64C180.796 115.78 180.539 115.993 180.326 116.28C180.112 116.56 179.949 116.92 179.836 117.36C179.722 117.793 179.666 118.307 179.666 118.9C179.666 119.5 179.712 120.01 179.806 120.43C179.906 120.843 180.046 121.183 180.226 121.45C180.406 121.71 180.626 121.9 180.886 122.02C181.146 122.133 181.436 122.19 181.756 122.19C182.269 122.19 182.706 122.083 183.066 121.87C183.426 121.657 183.766 121.353 184.086 120.96V116.36ZM186.556 109.14V124H185.046C184.719 124 184.512 123.85 184.426 123.55L184.216 122.56C183.802 123.033 183.326 123.417 182.786 123.71C182.252 124.003 181.629 124.15 180.916 124.15C180.356 124.15 179.842 124.033 179.376 123.8C178.909 123.567 178.506 123.23 178.166 122.79C177.832 122.343 177.572 121.793 177.386 121.14C177.206 120.487 177.116 119.74 177.116 118.9C177.116 118.14 177.219 117.433 177.426 116.78C177.632 116.127 177.929 115.56 178.316 115.08C178.702 114.6 179.166 114.227 179.706 113.96C180.246 113.687 180.852 113.55 181.526 113.55C182.099 113.55 182.589 113.64 182.996 113.82C183.402 114 183.766 114.243 184.086 114.55V109.14H186.556ZM191.553 113.74V124H189.073V113.74H191.553ZM191.893 110.75C191.893 110.963 191.85 111.163 191.763 111.35C191.677 111.537 191.56 111.7 191.413 111.84C191.273 111.98 191.107 112.093 190.913 112.18C190.72 112.26 190.513 112.3 190.293 112.3C190.08 112.3 189.877 112.26 189.683 112.18C189.497 112.093 189.333 111.98 189.193 111.84C189.053 111.7 188.94 111.537 188.853 111.35C188.773 111.163 188.733 110.963 188.733 110.75C188.733 110.53 188.773 110.323 188.853 110.13C188.94 109.937 189.053 109.77 189.193 109.63C189.333 109.49 189.497 109.38 189.683 109.3C189.877 109.213 190.08 109.17 190.293 109.17C190.513 109.17 190.72 109.213 190.913 109.3C191.107 109.38 191.273 109.49 191.413 109.63C191.56 109.77 191.677 109.937 191.763 110.13C191.85 110.323 191.893 110.53 191.893 110.75ZM200.682 117.69C200.682 117.37 200.635 117.07 200.542 116.79C200.455 116.503 200.322 116.253 200.142 116.04C199.962 115.827 199.732 115.66 199.452 115.54C199.178 115.413 198.858 115.35 198.492 115.35C197.778 115.35 197.215 115.553 196.802 115.96C196.395 116.367 196.135 116.943 196.022 117.69H200.682ZM195.972 119.18C196.012 119.707 196.105 120.163 196.252 120.55C196.398 120.93 196.592 121.247 196.832 121.5C197.072 121.747 197.355 121.933 197.682 122.06C198.015 122.18 198.382 122.24 198.782 122.24C199.182 122.24 199.525 122.193 199.812 122.1C200.105 122.007 200.358 121.903 200.572 121.79C200.792 121.677 200.982 121.573 201.142 121.48C201.308 121.387 201.468 121.34 201.622 121.34C201.828 121.34 201.982 121.417 202.082 121.57L202.792 122.47C202.518 122.79 202.212 123.06 201.872 123.28C201.532 123.493 201.175 123.667 200.802 123.8C200.435 123.927 200.058 124.017 199.672 124.07C199.292 124.123 198.922 124.15 198.562 124.15C197.848 124.15 197.185 124.033 196.572 123.8C195.958 123.56 195.425 123.21 194.972 122.75C194.518 122.283 194.162 121.71 193.902 121.03C193.642 120.343 193.512 119.55 193.512 118.65C193.512 117.95 193.625 117.293 193.852 116.68C194.078 116.06 194.402 115.523 194.822 115.07C195.248 114.61 195.765 114.247 196.372 113.98C196.985 113.713 197.675 113.58 198.442 113.58C199.088 113.58 199.685 113.683 200.232 113.89C200.778 114.097 201.248 114.4 201.642 114.8C202.035 115.193 202.342 115.68 202.562 116.26C202.788 116.833 202.902 117.49 202.902 118.23C202.902 118.603 202.862 118.857 202.782 118.99C202.702 119.117 202.548 119.18 202.322 119.18H195.972ZM207.065 115C207.272 114.793 207.488 114.603 207.715 114.43C207.948 114.25 208.192 114.1 208.445 113.98C208.705 113.853 208.982 113.757 209.275 113.69C209.568 113.617 209.888 113.58 210.235 113.58C210.795 113.58 211.292 113.677 211.725 113.87C212.158 114.057 212.518 114.323 212.805 114.67C213.098 115.01 213.318 115.42 213.465 115.9C213.618 116.373 213.695 116.897 213.695 117.47V124H211.225V117.47C211.225 116.843 211.082 116.36 210.795 116.02C210.508 115.673 210.072 115.5 209.485 115.5C209.058 115.5 208.658 115.597 208.285 115.79C207.912 115.983 207.558 116.247 207.225 116.58V124H204.755V113.74H206.265C206.585 113.74 206.795 113.89 206.895 114.19L207.065 115ZM223.394 115.91C223.321 116.003 223.248 116.077 223.174 116.13C223.108 116.183 223.008 116.21 222.874 116.21C222.748 116.21 222.624 116.173 222.504 116.1C222.384 116.02 222.241 115.933 222.074 115.84C221.908 115.74 221.708 115.653 221.474 115.58C221.248 115.5 220.964 115.46 220.624 115.46C220.191 115.46 219.811 115.54 219.484 115.7C219.158 115.853 218.884 116.077 218.664 116.37C218.451 116.663 218.291 117.02 218.184 117.44C218.078 117.853 218.024 118.323 218.024 118.85C218.024 119.397 218.081 119.883 218.194 120.31C218.314 120.737 218.484 121.097 218.704 121.39C218.924 121.677 219.191 121.897 219.504 122.05C219.818 122.197 220.171 122.27 220.564 122.27C220.958 122.27 221.274 122.223 221.514 122.13C221.761 122.03 221.968 121.923 222.134 121.81C222.301 121.69 222.444 121.583 222.564 121.49C222.691 121.39 222.831 121.34 222.984 121.34C223.184 121.34 223.334 121.417 223.434 121.57L224.144 122.47C223.871 122.79 223.574 123.06 223.254 123.28C222.934 123.493 222.601 123.667 222.254 123.8C221.914 123.927 221.561 124.017 221.194 124.07C220.834 124.123 220.474 124.15 220.114 124.15C219.481 124.15 218.884 124.033 218.324 123.8C217.764 123.56 217.274 123.213 216.854 122.76C216.434 122.307 216.101 121.753 215.854 121.1C215.614 120.44 215.494 119.69 215.494 118.85C215.494 118.097 215.601 117.4 215.814 116.76C216.034 116.113 216.354 115.557 216.774 115.09C217.194 114.617 217.714 114.247 218.334 113.98C218.954 113.713 219.668 113.58 220.474 113.58C221.241 113.58 221.911 113.703 222.484 113.95C223.064 114.197 223.584 114.55 224.044 115.01L223.394 115.91ZM232.127 117.69C232.127 117.37 232.08 117.07 231.987 116.79C231.9 116.503 231.767 116.253 231.587 116.04C231.407 115.827 231.177 115.66 230.897 115.54C230.624 115.413 230.304 115.35 229.937 115.35C229.224 115.35 228.66 115.553 228.247 115.96C227.84 116.367 227.58 116.943 227.467 117.69H232.127ZM227.417 119.18C227.457 119.707 227.55 120.163 227.697 120.55C227.844 120.93 228.037 121.247 228.277 121.5C228.517 121.747 228.8 121.933 229.127 122.06C229.46 122.18 229.827 122.24 230.227 122.24C230.627 122.24 230.97 122.193 231.257 122.1C231.55 122.007 231.804 121.903 232.017 121.79C232.237 121.677 232.427 121.573 232.587 121.48C232.754 121.387 232.914 121.34 233.067 121.34C233.274 121.34 233.427 121.417 233.527 121.57L234.237 122.47C233.964 122.79 233.657 123.06 233.317 123.28C232.977 123.493 232.62 123.667 232.247 123.8C231.88 123.927 231.504 124.017 231.117 124.07C230.737 124.123 230.367 124.15 230.007 124.15C229.294 124.15 228.63 124.033 228.017 123.8C227.404 123.56 226.87 123.21 226.417 122.75C225.964 122.283 225.607 121.71 225.347 121.03C225.087 120.343 224.957 119.55 224.957 118.65C224.957 117.95 225.07 117.293 225.297 116.68C225.524 116.06 225.847 115.523 226.267 115.07C226.694 114.61 227.21 114.247 227.817 113.98C228.43 113.713 229.12 113.58 229.887 113.58C230.534 113.58 231.13 113.683 231.677 113.89C232.224 114.097 232.694 114.4 233.087 114.8C233.48 115.193 233.787 115.68 234.007 116.26C234.234 116.833 234.347 117.49 234.347 118.23C234.347 118.603 234.307 118.857 234.227 118.99C234.147 119.117 233.994 119.18 233.767 119.18H227.417ZM248.43 118.54L246.67 113.73C246.583 113.517 246.493 113.263 246.4 112.97C246.306 112.677 246.213 112.36 246.12 112.02C246.033 112.36 245.943 112.68 245.85 112.98C245.756 113.273 245.666 113.53 245.58 113.75L243.83 118.54H248.43ZM253.18 124H251.1C250.866 124 250.676 123.943 250.53 123.83C250.383 123.71 250.273 123.563 250.2 123.39L249.12 120.44H243.13L242.05 123.39C241.996 123.543 241.893 123.683 241.74 123.81C241.586 123.937 241.396 124 241.17 124H239.07L244.76 109.54H247.5L253.18 124ZM261.363 115.91C261.29 116.003 261.216 116.077 261.143 116.13C261.076 116.183 260.976 116.21 260.843 116.21C260.716 116.21 260.593 116.173 260.473 116.1C260.353 116.02 260.21 115.933 260.043 115.84C259.876 115.74 259.676 115.653 259.443 115.58C259.216 115.5 258.933 115.46 258.593 115.46C258.16 115.46 257.78 115.54 257.453 115.7C257.126 115.853 256.853 116.077 256.633 116.37C256.42 116.663 256.26 117.02 256.153 117.44C256.046 117.853 255.993 118.323 255.993 118.85C255.993 119.397 256.05 119.883 256.163 120.31C256.283 120.737 256.453 121.097 256.673 121.39C256.893 121.677 257.16 121.897 257.473 122.05C257.786 122.197 258.14 122.27 258.533 122.27C258.926 122.27 259.243 122.223 259.483 122.13C259.73 122.03 259.936 121.923 260.103 121.81C260.27 121.69 260.413 121.583 260.533 121.49C260.66 121.39 260.8 121.34 260.953 121.34C261.153 121.34 261.303 121.417 261.403 121.57L262.113 122.47C261.84 122.79 261.543 123.06 261.223 123.28C260.903 123.493 260.57 123.667 260.223 123.8C259.883 123.927 259.53 124.017 259.163 124.07C258.803 124.123 258.443 124.15 258.083 124.15C257.45 124.15 256.853 124.033 256.293 123.8C255.733 123.56 255.243 123.213 254.823 122.76C254.403 122.307 254.07 121.753 253.823 121.1C253.583 120.44 253.463 119.69 253.463 118.85C253.463 118.097 253.57 117.4 253.783 116.76C254.003 116.113 254.323 115.557 254.743 115.09C255.163 114.617 255.683 114.247 256.303 113.98C256.923 113.713 257.636 113.58 258.443 113.58C259.21 113.58 259.88 113.703 260.453 113.95C261.033 114.197 261.553 114.55 262.013 115.01L261.363 115.91ZM270.836 115.91C270.762 116.003 270.689 116.077 270.616 116.13C270.549 116.183 270.449 116.21 270.316 116.21C270.189 116.21 270.066 116.173 269.946 116.1C269.826 116.02 269.682 115.933 269.516 115.84C269.349 115.74 269.149 115.653 268.916 115.58C268.689 115.5 268.406 115.46 268.066 115.46C267.632 115.46 267.252 115.54 266.926 115.7C266.599 115.853 266.326 116.077 266.106 116.37C265.892 116.663 265.732 117.02 265.626 117.44C265.519 117.853 265.466 118.323 265.466 118.85C265.466 119.397 265.522 119.883 265.636 120.31C265.756 120.737 265.926 121.097 266.146 121.39C266.366 121.677 266.632 121.897 266.946 122.05C267.259 122.197 267.612 122.27 268.006 122.27C268.399 122.27 268.716 122.223 268.956 122.13C269.202 122.03 269.409 121.923 269.576 121.81C269.742 121.69 269.886 121.583 270.006 121.49C270.132 121.39 270.272 121.34 270.426 121.34C270.626 121.34 270.776 121.417 270.876 121.57L271.586 122.47C271.312 122.79 271.016 123.06 270.696 123.28C270.376 123.493 270.042 123.667 269.696 123.8C269.356 123.927 269.002 124.017 268.636 124.07C268.276 124.123 267.916 124.15 267.556 124.15C266.922 124.15 266.326 124.033 265.766 123.8C265.206 123.56 264.716 123.213 264.296 122.76C263.876 122.307 263.542 121.753 263.296 121.1C263.056 120.44 262.936 119.69 262.936 118.85C262.936 118.097 263.042 117.4 263.256 116.76C263.476 116.113 263.796 115.557 264.216 115.09C264.636 114.617 265.156 114.247 265.776 113.98C266.396 113.713 267.109 113.58 267.916 113.58C268.682 113.58 269.352 113.703 269.926 113.95C270.506 114.197 271.026 114.55 271.486 115.01L270.836 115.91ZM279.568 117.69C279.568 117.37 279.522 117.07 279.428 116.79C279.342 116.503 279.208 116.253 279.028 116.04C278.848 115.827 278.618 115.66 278.338 115.54C278.065 115.413 277.745 115.35 277.378 115.35C276.665 115.35 276.102 115.553 275.688 115.96C275.282 116.367 275.022 116.943 274.908 117.69H279.568ZM274.858 119.18C274.898 119.707 274.992 120.163 275.138 120.55C275.285 120.93 275.478 121.247 275.718 121.5C275.958 121.747 276.242 121.933 276.568 122.06C276.902 122.18 277.268 122.24 277.668 122.24C278.068 122.24 278.412 122.193 278.698 122.1C278.992 122.007 279.245 121.903 279.458 121.79C279.678 121.677 279.868 121.573 280.028 121.48C280.195 121.387 280.355 121.34 280.508 121.34C280.715 121.34 280.868 121.417 280.968 121.57L281.678 122.47C281.405 122.79 281.098 123.06 280.758 123.28C280.418 123.493 280.062 123.667 279.688 123.8C279.322 123.927 278.945 124.017 278.558 124.07C278.178 124.123 277.808 124.15 277.448 124.15C276.735 124.15 276.072 124.033 275.458 123.8C274.845 123.56 274.312 123.21 273.858 122.75C273.405 122.283 273.048 121.71 272.788 121.03C272.528 120.343 272.398 119.55 272.398 118.65C272.398 117.95 272.512 117.293 272.738 116.68C272.965 116.06 273.288 115.523 273.708 115.07C274.135 114.61 274.652 114.247 275.258 113.98C275.872 113.713 276.562 113.58 277.328 113.58C277.975 113.58 278.572 113.683 279.118 113.89C279.665 114.097 280.135 114.4 280.528 114.8C280.922 115.193 281.228 115.68 281.448 116.26C281.675 116.833 281.788 117.49 281.788 118.23C281.788 118.603 281.748 118.857 281.668 118.99C281.588 119.117 281.435 119.18 281.208 119.18H274.858ZM289.902 115.74C289.835 115.847 289.765 115.923 289.692 115.97C289.619 116.01 289.525 116.03 289.412 116.03C289.292 116.03 289.162 115.997 289.022 115.93C288.889 115.863 288.732 115.79 288.552 115.71C288.372 115.623 288.165 115.547 287.932 115.48C287.705 115.413 287.435 115.38 287.122 115.38C286.635 115.38 286.252 115.483 285.972 115.69C285.699 115.897 285.562 116.167 285.562 116.5C285.562 116.72 285.632 116.907 285.772 117.06C285.919 117.207 286.109 117.337 286.342 117.45C286.582 117.563 286.852 117.667 287.152 117.76C287.452 117.847 287.755 117.943 288.062 118.05C288.375 118.157 288.682 118.28 288.982 118.42C289.282 118.553 289.549 118.727 289.782 118.94C290.022 119.147 290.212 119.397 290.352 119.69C290.499 119.983 290.572 120.337 290.572 120.75C290.572 121.243 290.482 121.7 290.302 122.12C290.129 122.533 289.869 122.893 289.522 123.2C289.175 123.5 288.745 123.737 288.232 123.91C287.725 124.077 287.139 124.16 286.472 124.16C286.119 124.16 285.772 124.127 285.432 124.06C285.099 124 284.775 123.913 284.462 123.8C284.155 123.687 283.869 123.553 283.602 123.4C283.342 123.247 283.112 123.08 282.912 122.9L283.482 121.96C283.555 121.847 283.642 121.76 283.742 121.7C283.842 121.64 283.969 121.61 284.122 121.61C284.275 121.61 284.419 121.653 284.552 121.74C284.692 121.827 284.852 121.92 285.032 122.02C285.212 122.12 285.422 122.213 285.662 122.3C285.909 122.387 286.219 122.43 286.592 122.43C286.885 122.43 287.135 122.397 287.342 122.33C287.555 122.257 287.729 122.163 287.862 122.05C288.002 121.937 288.102 121.807 288.162 121.66C288.229 121.507 288.262 121.35 288.262 121.19C288.262 120.95 288.189 120.753 288.042 120.6C287.902 120.447 287.712 120.313 287.472 120.2C287.239 120.087 286.969 119.987 286.662 119.9C286.362 119.807 286.052 119.707 285.732 119.6C285.419 119.493 285.109 119.37 284.802 119.23C284.502 119.083 284.232 118.9 283.992 118.68C283.759 118.46 283.569 118.19 283.422 117.87C283.282 117.55 283.212 117.163 283.212 116.71C283.212 116.29 283.295 115.89 283.462 115.51C283.629 115.13 283.872 114.8 284.192 114.52C284.519 114.233 284.922 114.007 285.402 113.84C285.889 113.667 286.449 113.58 287.082 113.58C287.789 113.58 288.432 113.697 289.012 113.93C289.592 114.163 290.075 114.47 290.462 114.85L289.902 115.74ZM298.691 115.74C298.624 115.847 298.554 115.923 298.481 115.97C298.408 116.01 298.314 116.03 298.201 116.03C298.081 116.03 297.951 115.997 297.811 115.93C297.678 115.863 297.521 115.79 297.341 115.71C297.161 115.623 296.954 115.547 296.721 115.48C296.494 115.413 296.224 115.38 295.911 115.38C295.424 115.38 295.041 115.483 294.761 115.69C294.488 115.897 294.351 116.167 294.351 116.5C294.351 116.72 294.421 116.907 294.561 117.06C294.708 117.207 294.898 117.337 295.131 117.45C295.371 117.563 295.641 117.667 295.941 117.76C296.241 117.847 296.544 117.943 296.851 118.05C297.164 118.157 297.471 118.28 297.771 118.42C298.071 118.553 298.338 118.727 298.571 118.94C298.811 119.147 299.001 119.397 299.141 119.69C299.288 119.983 299.361 120.337 299.361 120.75C299.361 121.243 299.271 121.7 299.091 122.12C298.918 122.533 298.658 122.893 298.311 123.2C297.964 123.5 297.534 123.737 297.021 123.91C296.514 124.077 295.928 124.16 295.261 124.16C294.908 124.16 294.561 124.127 294.221 124.06C293.888 124 293.564 123.913 293.251 123.8C292.944 123.687 292.658 123.553 292.391 123.4C292.131 123.247 291.901 123.08 291.701 122.9L292.271 121.96C292.344 121.847 292.431 121.76 292.531 121.7C292.631 121.64 292.758 121.61 292.911 121.61C293.064 121.61 293.208 121.653 293.341 121.74C293.481 121.827 293.641 121.92 293.821 122.02C294.001 122.12 294.211 122.213 294.451 122.3C294.698 122.387 295.008 122.43 295.381 122.43C295.674 122.43 295.924 122.397 296.131 122.33C296.344 122.257 296.518 122.163 296.651 122.05C296.791 121.937 296.891 121.807 296.951 121.66C297.018 121.507 297.051 121.35 297.051 121.19C297.051 120.95 296.978 120.753 296.831 120.6C296.691 120.447 296.501 120.313 296.261 120.2C296.028 120.087 295.758 119.987 295.451 119.9C295.151 119.807 294.841 119.707 294.521 119.6C294.208 119.493 293.898 119.37 293.591 119.23C293.291 119.083 293.021 118.9 292.781 118.68C292.548 118.46 292.358 118.19 292.211 117.87C292.071 117.55 292.001 117.163 292.001 116.71C292.001 116.29 292.084 115.89 292.251 115.51C292.418 115.13 292.661 114.8 292.981 114.52C293.308 114.233 293.711 114.007 294.191 113.84C294.678 113.667 295.238 113.58 295.871 113.58C296.578 113.58 297.221 113.697 297.801 113.93C298.381 114.163 298.864 114.47 299.251 114.85L298.691 115.74Z" fill="#FAFAFA"/>
<path d="M94.7676 144.536V156H93.2156V150.784H87.0316V156H85.4796V144.536H87.0316V149.648H93.2156V144.536H94.7676ZM102.536 151.064C102.536 150.733 102.488 150.432 102.392 150.16C102.302 149.883 102.166 149.645 101.984 149.448C101.808 149.245 101.592 149.091 101.336 148.984C101.08 148.872 100.79 148.816 100.464 148.816C99.7817 148.816 99.2404 149.016 98.8404 149.416C98.4457 149.811 98.2004 150.36 98.1044 151.064H102.536ZM103.688 154.864C103.512 155.077 103.302 155.264 103.056 155.424C102.811 155.579 102.547 155.707 102.264 155.808C101.987 155.909 101.699 155.984 101.4 156.032C101.102 156.085 100.806 156.112 100.512 156.112C99.9524 156.112 99.435 156.019 98.9604 155.832C98.491 155.64 98.083 155.363 97.7364 155C97.395 154.632 97.1284 154.179 96.9364 153.64C96.7444 153.101 96.6484 152.483 96.6484 151.784C96.6484 151.219 96.7337 150.691 96.9044 150.2C97.0804 149.709 97.331 149.285 97.6564 148.928C97.9817 148.565 98.379 148.283 98.8484 148.08C99.3177 147.872 99.8457 147.768 100.432 147.768C100.918 147.768 101.366 147.851 101.776 148.016C102.192 148.176 102.55 148.411 102.848 148.72C103.152 149.024 103.39 149.403 103.56 149.856C103.731 150.304 103.816 150.816 103.816 151.392C103.816 151.616 103.792 151.765 103.744 151.84C103.696 151.915 103.606 151.952 103.472 151.952H98.0564C98.0724 152.464 98.1417 152.909 98.2644 153.288C98.3924 153.667 98.5684 153.984 98.7924 154.24C99.0164 154.491 99.283 154.68 99.5924 154.808C99.9017 154.931 100.248 154.992 100.632 154.992C100.99 154.992 101.296 154.952 101.552 154.872C101.814 154.787 102.038 154.696 102.224 154.6C102.411 154.504 102.566 154.416 102.688 154.336C102.816 154.251 102.926 154.208 103.016 154.208C103.134 154.208 103.224 154.253 103.288 154.344L103.688 154.864ZM107.038 144.216V156H105.613V144.216H107.038ZM110.779 154.048C111.04 154.4 111.325 154.648 111.635 154.792C111.944 154.936 112.291 155.008 112.675 155.008C113.432 155.008 114.013 154.739 114.419 154.2C114.824 153.661 115.027 152.893 115.027 151.896C115.027 151.368 114.979 150.915 114.883 150.536C114.792 150.157 114.659 149.848 114.483 149.608C114.307 149.363 114.091 149.184 113.835 149.072C113.579 148.96 113.288 148.904 112.963 148.904C112.499 148.904 112.091 149.011 111.739 149.224C111.392 149.437 111.072 149.739 110.779 150.128V154.048ZM110.707 149.152C111.048 148.731 111.443 148.392 111.891 148.136C112.339 147.88 112.851 147.752 113.427 147.752C113.896 147.752 114.32 147.843 114.699 148.024C115.077 148.2 115.4 148.464 115.667 148.816C115.933 149.163 116.139 149.595 116.283 150.112C116.427 150.629 116.499 151.224 116.499 151.896C116.499 152.493 116.419 153.051 116.259 153.568C116.099 154.08 115.867 154.525 115.563 154.904C115.264 155.277 114.896 155.573 114.459 155.792C114.027 156.005 113.539 156.112 112.995 156.112C112.499 156.112 112.072 156.029 111.715 155.864C111.363 155.693 111.051 155.459 110.779 155.16V158.744H109.347V147.896H110.203C110.405 147.896 110.531 147.995 110.579 148.192L110.707 149.152ZM123.036 149.232C122.972 149.349 122.873 149.408 122.74 149.408C122.66 149.408 122.569 149.379 122.468 149.32C122.366 149.261 122.241 149.197 122.092 149.128C121.948 149.053 121.774 148.987 121.572 148.928C121.369 148.864 121.129 148.832 120.852 148.832C120.612 148.832 120.396 148.864 120.204 148.928C120.012 148.987 119.846 149.069 119.708 149.176C119.574 149.283 119.47 149.408 119.396 149.552C119.326 149.691 119.292 149.843 119.292 150.008C119.292 150.216 119.35 150.389 119.468 150.528C119.59 150.667 119.75 150.787 119.948 150.888C120.145 150.989 120.369 151.08 120.62 151.16C120.87 151.235 121.126 151.317 121.388 151.408C121.654 151.493 121.913 151.589 122.164 151.696C122.414 151.803 122.638 151.936 122.836 152.096C123.033 152.256 123.19 152.453 123.308 152.688C123.43 152.917 123.492 153.195 123.492 153.52C123.492 153.893 123.425 154.24 123.292 154.56C123.158 154.875 122.961 155.149 122.7 155.384C122.438 155.613 122.118 155.795 121.74 155.928C121.361 156.061 120.924 156.128 120.428 156.128C119.862 156.128 119.35 156.037 118.892 155.856C118.433 155.669 118.044 155.432 117.724 155.144L118.06 154.6C118.102 154.531 118.153 154.477 118.212 154.44C118.27 154.403 118.345 154.384 118.436 154.384C118.532 154.384 118.633 154.421 118.74 154.496C118.846 154.571 118.974 154.653 119.124 154.744C119.278 154.835 119.465 154.917 119.684 154.992C119.902 155.067 120.174 155.104 120.5 155.104C120.777 155.104 121.02 155.069 121.227 155C121.436 154.925 121.609 154.827 121.748 154.704C121.886 154.581 121.988 154.44 122.052 154.28C122.121 154.12 122.156 153.949 122.156 153.768C122.156 153.544 122.094 153.36 121.972 153.216C121.854 153.067 121.697 152.941 121.5 152.84C121.302 152.733 121.076 152.643 120.82 152.568C120.569 152.488 120.31 152.405 120.044 152.32C119.782 152.235 119.524 152.139 119.268 152.032C119.017 151.92 118.793 151.781 118.596 151.616C118.398 151.451 118.238 151.248 118.116 151.008C117.998 150.763 117.94 150.467 117.94 150.12C117.94 149.811 118.004 149.515 118.132 149.232C118.26 148.944 118.446 148.693 118.692 148.48C118.937 148.261 119.238 148.088 119.596 147.96C119.953 147.832 120.361 147.768 120.82 147.768C121.353 147.768 121.83 147.853 122.252 148.024C122.678 148.189 123.046 148.419 123.356 148.712L123.036 149.232ZM135.917 147.896L131.397 158.392C131.349 158.499 131.288 158.584 131.213 158.648C131.144 158.712 131.034 158.744 130.885 158.744H129.829L131.309 155.528L127.965 147.896H129.197C129.32 147.896 129.416 147.928 129.485 147.992C129.56 148.051 129.61 148.117 129.637 148.192L131.805 153.296C131.89 153.52 131.962 153.755 132.021 154C132.096 153.749 132.176 153.512 132.261 153.288L134.365 148.192C134.397 148.107 134.45 148.037 134.525 147.984C134.605 147.925 134.693 147.896 134.789 147.896H135.917ZM140.372 147.768C140.964 147.768 141.497 147.867 141.972 148.064C142.447 148.261 142.852 148.541 143.188 148.904C143.524 149.267 143.78 149.707 143.956 150.224C144.137 150.736 144.228 151.309 144.228 151.944C144.228 152.584 144.137 153.16 143.956 153.672C143.78 154.184 143.524 154.621 143.188 154.984C142.852 155.347 142.447 155.627 141.972 155.824C141.497 156.016 140.964 156.112 140.372 156.112C139.775 156.112 139.236 156.016 138.756 155.824C138.281 155.627 137.876 155.347 137.54 154.984C137.204 154.621 136.945 154.184 136.764 153.672C136.588 153.16 136.5 152.584 136.5 151.944C136.5 151.309 136.588 150.736 136.764 150.224C136.945 149.707 137.204 149.267 137.54 148.904C137.876 148.541 138.281 148.261 138.756 148.064C139.236 147.867 139.775 147.768 140.372 147.768ZM140.372 155C141.172 155 141.769 154.733 142.164 154.2C142.559 153.661 142.756 152.912 142.756 151.952C142.756 150.987 142.559 150.235 142.164 149.696C141.769 149.157 141.172 148.888 140.372 148.888C139.967 148.888 139.612 148.957 139.308 149.096C139.009 149.235 138.759 149.435 138.556 149.696C138.359 149.957 138.209 150.28 138.108 150.664C138.012 151.043 137.964 151.472 137.964 151.952C137.964 152.912 138.161 153.661 138.556 154.2C138.956 154.733 139.561 155 140.372 155ZM152.698 147.896V156H151.85C151.648 156 151.52 155.901 151.466 155.704L151.354 154.832C151.002 155.221 150.608 155.536 150.17 155.776C149.733 156.011 149.232 156.128 148.666 156.128C148.224 156.128 147.832 156.056 147.49 155.912C147.154 155.763 146.872 155.555 146.642 155.288C146.413 155.021 146.24 154.699 146.122 154.32C146.01 153.941 145.954 153.523 145.954 153.064V147.896H147.378V153.064C147.378 153.677 147.517 154.152 147.794 154.488C148.077 154.824 148.506 154.992 149.082 154.992C149.504 154.992 149.896 154.893 150.258 154.696C150.626 154.493 150.965 154.216 151.274 153.864V147.896H152.698ZM161.874 152.04C162.162 152.04 162.415 152 162.634 151.92C162.853 151.84 163.037 151.728 163.186 151.584C163.335 151.44 163.447 151.269 163.522 151.072C163.597 150.869 163.634 150.648 163.634 150.408C163.634 149.912 163.482 149.517 163.178 149.224C162.879 148.931 162.445 148.784 161.874 148.784C161.298 148.784 160.858 148.931 160.554 149.224C160.255 149.517 160.106 149.912 160.106 150.408C160.106 150.648 160.143 150.869 160.218 151.072C160.298 151.269 160.413 151.44 160.562 151.584C160.711 151.728 160.895 151.84 161.114 151.92C161.333 152 161.586 152.04 161.874 152.04ZM164.442 156.44C164.442 156.243 164.386 156.083 164.274 155.96C164.162 155.837 164.01 155.741 163.818 155.672C163.631 155.603 163.413 155.555 163.162 155.528C162.911 155.496 162.645 155.472 162.362 155.456C162.085 155.44 161.802 155.424 161.514 155.408C161.226 155.392 160.949 155.365 160.682 155.328C160.383 155.467 160.138 155.643 159.946 155.856C159.759 156.064 159.666 156.309 159.666 156.592C159.666 156.773 159.711 156.941 159.802 157.096C159.898 157.256 160.042 157.392 160.234 157.504C160.426 157.621 160.666 157.712 160.954 157.776C161.247 157.845 161.591 157.88 161.986 157.88C162.37 157.88 162.714 157.845 163.018 157.776C163.322 157.707 163.578 157.608 163.786 157.48C163.999 157.352 164.162 157.2 164.274 157.024C164.386 156.848 164.442 156.653 164.442 156.44ZM165.89 148.216V148.744C165.89 148.92 165.778 149.032 165.554 149.08L164.634 149.2C164.815 149.552 164.906 149.941 164.906 150.368C164.906 150.763 164.829 151.123 164.674 151.448C164.525 151.768 164.317 152.043 164.05 152.272C163.783 152.501 163.463 152.677 163.09 152.8C162.717 152.923 162.311 152.984 161.874 152.984C161.495 152.984 161.138 152.939 160.802 152.848C160.631 152.955 160.501 153.069 160.41 153.192C160.319 153.309 160.274 153.429 160.274 153.552C160.274 153.744 160.351 153.891 160.506 153.992C160.666 154.088 160.874 154.157 161.13 154.2C161.386 154.243 161.677 154.269 162.002 154.28C162.333 154.291 162.669 154.309 163.01 154.336C163.357 154.357 163.693 154.397 164.018 154.456C164.349 154.515 164.642 154.611 164.898 154.744C165.154 154.877 165.359 155.061 165.514 155.296C165.674 155.531 165.754 155.835 165.754 156.208C165.754 156.555 165.666 156.891 165.49 157.216C165.319 157.541 165.071 157.829 164.746 158.08C164.421 158.336 164.021 158.539 163.546 158.688C163.077 158.843 162.546 158.92 161.954 158.92C161.362 158.92 160.845 158.861 160.402 158.744C159.959 158.627 159.591 158.469 159.298 158.272C159.005 158.075 158.783 157.845 158.634 157.584C158.49 157.328 158.418 157.059 158.418 156.776C158.418 156.376 158.543 156.037 158.794 155.76C159.045 155.483 159.389 155.261 159.826 155.096C159.586 154.989 159.394 154.848 159.25 154.672C159.111 154.491 159.042 154.248 159.042 153.944C159.042 153.827 159.063 153.707 159.106 153.584C159.149 153.456 159.213 153.331 159.298 153.208C159.389 153.08 159.498 152.96 159.626 152.848C159.754 152.736 159.903 152.637 160.074 152.552C159.674 152.328 159.362 152.032 159.138 151.664C158.914 151.291 158.802 150.859 158.802 150.368C158.802 149.973 158.877 149.616 159.026 149.296C159.181 148.971 159.394 148.696 159.666 148.472C159.938 148.243 160.261 148.067 160.634 147.944C161.013 147.821 161.426 147.76 161.874 147.76C162.226 147.76 162.554 147.8 162.858 147.88C163.162 147.955 163.439 148.067 163.69 148.216H165.89ZM171.754 152.352C171.098 152.373 170.538 152.427 170.074 152.512C169.616 152.592 169.24 152.699 168.946 152.832C168.658 152.965 168.448 153.123 168.314 153.304C168.186 153.485 168.122 153.688 168.122 153.912C168.122 154.125 168.157 154.309 168.226 154.464C168.296 154.619 168.389 154.747 168.506 154.848C168.629 154.944 168.77 155.016 168.93 155.064C169.096 155.107 169.272 155.128 169.458 155.128C169.709 155.128 169.938 155.104 170.146 155.056C170.354 155.003 170.549 154.928 170.73 154.832C170.917 154.736 171.093 154.621 171.258 154.488C171.429 154.355 171.594 154.203 171.754 154.032V152.352ZM167.154 149.04C167.602 148.608 168.085 148.285 168.602 148.072C169.12 147.859 169.693 147.752 170.322 147.752C170.776 147.752 171.178 147.827 171.53 147.976C171.882 148.125 172.178 148.333 172.418 148.6C172.658 148.867 172.84 149.189 172.962 149.568C173.085 149.947 173.146 150.363 173.146 150.816V156H172.514C172.376 156 172.269 155.979 172.194 155.936C172.12 155.888 172.061 155.797 172.018 155.664L171.858 154.896C171.645 155.093 171.437 155.269 171.234 155.424C171.032 155.573 170.818 155.701 170.594 155.808C170.37 155.909 170.13 155.987 169.874 156.04C169.624 156.099 169.344 156.128 169.034 156.128C168.72 156.128 168.424 156.085 168.146 156C167.869 155.909 167.626 155.776 167.418 155.6C167.216 155.424 167.053 155.203 166.93 154.936C166.813 154.664 166.754 154.344 166.754 153.976C166.754 153.656 166.842 153.349 167.018 153.056C167.194 152.757 167.48 152.493 167.874 152.264C168.269 152.035 168.784 151.848 169.418 151.704C170.053 151.555 170.832 151.469 171.754 151.448V150.816C171.754 150.187 171.618 149.712 171.346 149.392C171.074 149.067 170.677 148.904 170.154 148.904C169.802 148.904 169.506 148.949 169.266 149.04C169.032 149.125 168.826 149.224 168.65 149.336C168.48 149.443 168.33 149.541 168.202 149.632C168.08 149.717 167.957 149.76 167.834 149.76C167.738 149.76 167.656 149.736 167.586 149.688C167.517 149.635 167.458 149.571 167.41 149.496L167.154 149.04ZM176.82 147.896V156H175.396V147.896H176.82ZM177.124 145.352C177.124 145.491 177.094 145.621 177.036 145.744C176.982 145.861 176.908 145.968 176.812 146.064C176.721 146.155 176.612 146.227 176.484 146.28C176.361 146.333 176.23 146.36 176.092 146.36C175.953 146.36 175.822 146.333 175.7 146.28C175.582 146.227 175.478 146.155 175.388 146.064C175.297 145.968 175.225 145.861 175.172 145.744C175.118 145.621 175.092 145.491 175.092 145.352C175.092 145.213 175.118 145.083 175.172 144.96C175.225 144.832 175.297 144.723 175.388 144.632C175.478 144.536 175.582 144.461 175.7 144.408C175.822 144.355 175.953 144.328 176.092 144.328C176.23 144.328 176.361 144.355 176.484 144.408C176.612 144.461 176.721 144.536 176.812 144.632C176.908 144.723 176.982 144.832 177.036 144.96C177.094 145.083 177.124 145.213 177.124 145.352ZM180.503 149.072C180.679 148.875 180.866 148.696 181.063 148.536C181.261 148.376 181.469 148.24 181.687 148.128C181.911 148.011 182.146 147.923 182.391 147.864C182.642 147.8 182.911 147.768 183.199 147.768C183.642 147.768 184.031 147.843 184.367 147.992C184.709 148.136 184.991 148.344 185.215 148.616C185.445 148.883 185.618 149.205 185.735 149.584C185.853 149.963 185.911 150.381 185.911 150.84V156H184.479V150.84C184.479 150.227 184.338 149.752 184.055 149.416C183.778 149.075 183.354 148.904 182.783 148.904C182.362 148.904 181.967 149.005 181.599 149.208C181.237 149.411 180.901 149.685 180.591 150.032V156H179.159V147.896H180.015C180.218 147.896 180.343 147.995 180.391 148.192L180.503 149.072ZM194.999 152.04C195.287 152.04 195.54 152 195.759 151.92C195.978 151.84 196.162 151.728 196.311 151.584C196.46 151.44 196.572 151.269 196.647 151.072C196.722 150.869 196.759 150.648 196.759 150.408C196.759 149.912 196.607 149.517 196.303 149.224C196.004 148.931 195.57 148.784 194.999 148.784C194.423 148.784 193.983 148.931 193.679 149.224C193.38 149.517 193.231 149.912 193.231 150.408C193.231 150.648 193.268 150.869 193.343 151.072C193.423 151.269 193.538 151.44 193.687 151.584C193.836 151.728 194.02 151.84 194.239 151.92C194.458 152 194.711 152.04 194.999 152.04ZM197.567 156.44C197.567 156.243 197.511 156.083 197.399 155.96C197.287 155.837 197.135 155.741 196.943 155.672C196.756 155.603 196.538 155.555 196.287 155.528C196.036 155.496 195.77 155.472 195.487 155.456C195.21 155.44 194.927 155.424 194.639 155.408C194.351 155.392 194.074 155.365 193.807 155.328C193.508 155.467 193.263 155.643 193.071 155.856C192.884 156.064 192.791 156.309 192.791 156.592C192.791 156.773 192.836 156.941 192.927 157.096C193.023 157.256 193.167 157.392 193.359 157.504C193.551 157.621 193.791 157.712 194.079 157.776C194.372 157.845 194.716 157.88 195.111 157.88C195.495 157.88 195.839 157.845 196.143 157.776C196.447 157.707 196.703 157.608 196.911 157.48C197.124 157.352 197.287 157.2 197.399 157.024C197.511 156.848 197.567 156.653 197.567 156.44ZM199.015 148.216V148.744C199.015 148.92 198.903 149.032 198.679 149.08L197.759 149.2C197.94 149.552 198.031 149.941 198.031 150.368C198.031 150.763 197.954 151.123 197.799 151.448C197.65 151.768 197.442 152.043 197.175 152.272C196.908 152.501 196.588 152.677 196.215 152.8C195.842 152.923 195.436 152.984 194.999 152.984C194.62 152.984 194.263 152.939 193.927 152.848C193.756 152.955 193.626 153.069 193.535 153.192C193.444 153.309 193.399 153.429 193.399 153.552C193.399 153.744 193.476 153.891 193.631 153.992C193.791 154.088 193.999 154.157 194.255 154.2C194.511 154.243 194.802 154.269 195.127 154.28C195.458 154.291 195.794 154.309 196.135 154.336C196.482 154.357 196.818 154.397 197.143 154.456C197.474 154.515 197.767 154.611 198.023 154.744C198.279 154.877 198.484 155.061 198.639 155.296C198.799 155.531 198.879 155.835 198.879 156.208C198.879 156.555 198.791 156.891 198.615 157.216C198.444 157.541 198.196 157.829 197.871 158.08C197.546 158.336 197.146 158.539 196.671 158.688C196.202 158.843 195.671 158.92 195.079 158.92C194.487 158.92 193.97 158.861 193.527 158.744C193.084 158.627 192.716 158.469 192.423 158.272C192.13 158.075 191.908 157.845 191.759 157.584C191.615 157.328 191.543 157.059 191.543 156.776C191.543 156.376 191.668 156.037 191.919 155.76C192.17 155.483 192.514 155.261 192.951 155.096C192.711 154.989 192.519 154.848 192.375 154.672C192.236 154.491 192.167 154.248 192.167 153.944C192.167 153.827 192.188 153.707 192.231 153.584C192.274 153.456 192.338 153.331 192.423 153.208C192.514 153.08 192.623 152.96 192.751 152.848C192.879 152.736 193.028 152.637 193.199 152.552C192.799 152.328 192.487 152.032 192.263 151.664C192.039 151.291 191.927 150.859 191.927 150.368C191.927 149.973 192.002 149.616 192.151 149.296C192.306 148.971 192.519 148.696 192.791 148.472C193.063 148.243 193.386 148.067 193.759 147.944C194.138 147.821 194.551 147.76 194.999 147.76C195.351 147.76 195.679 147.8 195.983 147.88C196.287 147.955 196.564 148.067 196.815 148.216H199.015ZM201.959 144.216V156H200.535V144.216H201.959ZM207.685 147.768C208.277 147.768 208.81 147.867 209.285 148.064C209.759 148.261 210.165 148.541 210.501 148.904C210.837 149.267 211.093 149.707 211.269 150.224C211.45 150.736 211.541 151.309 211.541 151.944C211.541 152.584 211.45 153.16 211.269 153.672C211.093 154.184 210.837 154.621 210.501 154.984C210.165 155.347 209.759 155.627 209.285 155.824C208.81 156.016 208.277 156.112 207.685 156.112C207.087 156.112 206.549 156.016 206.069 155.824C205.594 155.627 205.189 155.347 204.853 154.984C204.517 154.621 204.258 154.184 204.077 153.672C203.901 153.16 203.813 152.584 203.813 151.944C203.813 151.309 203.901 150.736 204.077 150.224C204.258 149.707 204.517 149.267 204.853 148.904C205.189 148.541 205.594 148.261 206.069 148.064C206.549 147.867 207.087 147.768 207.685 147.768ZM207.685 155C208.485 155 209.082 154.733 209.477 154.2C209.871 153.661 210.069 152.912 210.069 151.952C210.069 150.987 209.871 150.235 209.477 149.696C209.082 149.157 208.485 148.888 207.685 148.888C207.279 148.888 206.925 148.957 206.621 149.096C206.322 149.235 206.071 149.435 205.869 149.696C205.671 149.957 205.522 150.28 205.421 150.664C205.325 151.043 205.277 151.472 205.277 151.952C205.277 152.912 205.474 153.661 205.869 154.2C206.269 154.733 206.874 155 207.685 155ZM214.779 154.048C215.04 154.4 215.325 154.648 215.635 154.792C215.949 154.936 216.293 155.008 216.667 155.008C217.429 155.008 218.013 154.739 218.419 154.2C218.824 153.661 219.027 152.859 219.027 151.792C219.027 150.8 218.845 150.072 218.483 149.608C218.125 149.139 217.613 148.904 216.947 148.904C216.483 148.904 216.077 149.011 215.731 149.224C215.389 149.437 215.072 149.739 214.779 150.128V154.048ZM214.779 149.064C215.12 148.669 215.504 148.355 215.931 148.12C216.363 147.885 216.859 147.768 217.419 147.768C217.893 147.768 218.32 147.859 218.699 148.04C219.083 148.221 219.408 148.485 219.675 148.832C219.941 149.173 220.144 149.589 220.283 150.08C220.427 150.571 220.499 151.123 220.499 151.736C220.499 152.392 220.419 152.989 220.259 153.528C220.099 154.067 219.867 154.528 219.563 154.912C219.264 155.291 218.899 155.587 218.467 155.8C218.035 156.008 217.549 156.112 217.011 156.112C216.477 156.112 216.027 156.013 215.659 155.816C215.296 155.613 214.979 155.328 214.707 154.96L214.635 155.696C214.592 155.899 214.469 156 214.267 156H213.347V144.216H214.779V149.064ZM226.692 152.352C226.036 152.373 225.476 152.427 225.012 152.512C224.553 152.592 224.177 152.699 223.884 152.832C223.596 152.965 223.385 153.123 223.252 153.304C223.124 153.485 223.06 153.688 223.06 153.912C223.06 154.125 223.095 154.309 223.164 154.464C223.233 154.619 223.327 154.747 223.444 154.848C223.567 154.944 223.708 155.016 223.868 155.064C224.033 155.107 224.209 155.128 224.396 155.128C224.647 155.128 224.876 155.104 225.084 155.056C225.292 155.003 225.487 154.928 225.668 154.832C225.855 154.736 226.031 154.621 226.196 154.488C226.367 154.355 226.532 154.203 226.692 154.032V152.352ZM222.092 149.04C222.54 148.608 223.023 148.285 223.54 148.072C224.057 147.859 224.631 147.752 225.26 147.752C225.713 147.752 226.116 147.827 226.468 147.976C226.82 148.125 227.116 148.333 227.356 148.6C227.596 148.867 227.777 149.189 227.9 149.568C228.023 149.947 228.084 150.363 228.084 150.816V156H227.452C227.313 156 227.207 155.979 227.132 155.936C227.057 155.888 226.999 155.797 226.956 155.664L226.796 154.896C226.583 155.093 226.375 155.269 226.172 155.424C225.969 155.573 225.756 155.701 225.532 155.808C225.308 155.909 225.068 155.987 224.812 156.04C224.561 156.099 224.281 156.128 223.972 156.128C223.657 156.128 223.361 156.085 223.084 156C222.807 155.909 222.564 155.776 222.356 155.6C222.153 155.424 221.991 155.203 221.868 154.936C221.751 154.664 221.692 154.344 221.692 153.976C221.692 153.656 221.78 153.349 221.956 153.056C222.132 152.757 222.417 152.493 222.812 152.264C223.207 152.035 223.721 151.848 224.356 151.704C224.991 151.555 225.769 151.469 226.692 151.448V150.816C226.692 150.187 226.556 149.712 226.284 149.392C226.012 149.067 225.615 148.904 225.092 148.904C224.74 148.904 224.444 148.949 224.204 149.04C223.969 149.125 223.764 149.224 223.588 149.336C223.417 149.443 223.268 149.541 223.14 149.632C223.017 149.717 222.895 149.76 222.772 149.76C222.676 149.76 222.593 149.736 222.524 149.688C222.455 149.635 222.396 149.571 222.348 149.496L222.092 149.04ZM231.725 144.216V156H230.301V144.216H231.725ZM242.52 152.352C241.864 152.373 241.304 152.427 240.84 152.512C240.381 152.592 240.005 152.699 239.712 152.832C239.424 152.965 239.213 153.123 239.08 153.304C238.952 153.485 238.888 153.688 238.888 153.912C238.888 154.125 238.923 154.309 238.992 154.464C239.061 154.619 239.155 154.747 239.272 154.848C239.395 154.944 239.536 155.016 239.696 155.064C239.861 155.107 240.037 155.128 240.224 155.128C240.475 155.128 240.704 155.104 240.912 155.056C241.12 155.003 241.315 154.928 241.496 154.832C241.683 154.736 241.859 154.621 242.024 154.488C242.195 154.355 242.36 154.203 242.52 154.032V152.352ZM237.92 149.04C238.368 148.608 238.851 148.285 239.368 148.072C239.885 147.859 240.459 147.752 241.088 147.752C241.541 147.752 241.944 147.827 242.296 147.976C242.648 148.125 242.944 148.333 243.184 148.6C243.424 148.867 243.605 149.189 243.728 149.568C243.851 149.947 243.912 150.363 243.912 150.816V156H243.28C243.141 156 243.035 155.979 242.96 155.936C242.885 155.888 242.827 155.797 242.784 155.664L242.624 154.896C242.411 155.093 242.203 155.269 242 155.424C241.797 155.573 241.584 155.701 241.36 155.808C241.136 155.909 240.896 155.987 240.64 156.04C240.389 156.099 240.109 156.128 239.8 156.128C239.485 156.128 239.189 156.085 238.912 156C238.635 155.909 238.392 155.776 238.184 155.6C237.981 155.424 237.819 155.203 237.696 154.936C237.579 154.664 237.52 154.344 237.52 153.976C237.52 153.656 237.608 153.349 237.784 153.056C237.96 152.757 238.245 152.493 238.64 152.264C239.035 152.035 239.549 151.848 240.184 151.704C240.819 151.555 241.597 151.469 242.52 151.448V150.816C242.52 150.187 242.384 149.712 242.112 149.392C241.84 149.067 241.443 148.904 240.92 148.904C240.568 148.904 240.272 148.949 240.032 149.04C239.797 149.125 239.592 149.224 239.416 149.336C239.245 149.443 239.096 149.541 238.968 149.632C238.845 149.717 238.723 149.76 238.6 149.76C238.504 149.76 238.421 149.736 238.352 149.688C238.283 149.635 238.224 149.571 238.176 149.496L237.92 149.04ZM252.745 147.896V156H251.897C251.694 156 251.566 155.901 251.513 155.704L251.401 154.832C251.049 155.221 250.654 155.536 250.217 155.776C249.78 156.011 249.278 156.128 248.713 156.128C248.27 156.128 247.878 156.056 247.537 155.912C247.201 155.763 246.918 155.555 246.689 155.288C246.46 155.021 246.286 154.699 246.169 154.32C246.057 153.941 246.001 153.523 246.001 153.064V147.896H247.425V153.064C247.425 153.677 247.564 154.152 247.841 154.488C248.124 154.824 248.553 154.992 249.129 154.992C249.55 154.992 249.942 154.893 250.305 154.696C250.673 154.493 251.012 154.216 251.321 153.864V147.896H252.745ZM260.283 149.824C260.016 149.467 259.728 149.219 259.419 149.08C259.11 148.936 258.763 148.864 258.379 148.864C257.627 148.864 257.048 149.133 256.643 149.672C256.238 150.211 256.035 150.979 256.035 151.976C256.035 152.504 256.08 152.957 256.171 153.336C256.262 153.709 256.395 154.019 256.571 154.264C256.747 154.504 256.963 154.68 257.219 154.792C257.475 154.904 257.766 154.96 258.091 154.96C258.56 154.96 258.968 154.853 259.315 154.64C259.667 154.427 259.99 154.125 260.283 153.736V149.824ZM261.707 144.216V156H260.859C260.656 156 260.528 155.901 260.475 155.704L260.347 154.72C260 155.136 259.606 155.472 259.163 155.728C258.72 155.984 258.208 156.112 257.627 156.112C257.163 156.112 256.742 156.024 256.363 155.848C255.984 155.667 255.662 155.403 255.395 155.056C255.128 154.709 254.923 154.277 254.779 153.76C254.635 153.243 254.563 152.648 254.563 151.976C254.563 151.379 254.643 150.824 254.803 150.312C254.963 149.795 255.192 149.347 255.491 148.968C255.79 148.589 256.155 148.293 256.587 148.08C257.024 147.861 257.515 147.752 258.059 147.752C258.555 147.752 258.979 147.837 259.331 148.008C259.688 148.173 260.006 148.405 260.283 148.704V144.216H261.707ZM265.46 147.896V156H264.036V147.896H265.46ZM265.764 145.352C265.764 145.491 265.735 145.621 265.676 145.744C265.623 145.861 265.548 145.968 265.452 146.064C265.361 146.155 265.252 146.227 265.124 146.28C265.001 146.333 264.871 146.36 264.732 146.36C264.593 146.36 264.463 146.333 264.34 146.28C264.223 146.227 264.119 146.155 264.028 146.064C263.937 145.968 263.865 145.861 263.812 145.744C263.759 145.621 263.732 145.491 263.732 145.352C263.732 145.213 263.759 145.083 263.812 144.96C263.865 144.832 263.937 144.723 264.028 144.632C264.119 144.536 264.223 144.461 264.34 144.408C264.463 144.355 264.593 144.328 264.732 144.328C264.871 144.328 265.001 144.355 265.124 144.408C265.252 144.461 265.361 144.536 265.452 144.632C265.548 144.723 265.623 144.832 265.676 144.96C265.735 145.083 265.764 145.213 265.764 145.352ZM273.224 151.064C273.224 150.733 273.176 150.432 273.08 150.16C272.989 149.883 272.853 149.645 272.672 149.448C272.496 149.245 272.28 149.091 272.024 148.984C271.768 148.872 271.477 148.816 271.152 148.816C270.469 148.816 269.928 149.016 269.528 149.416C269.133 149.811 268.888 150.36 268.792 151.064H273.224ZM274.376 154.864C274.2 155.077 273.989 155.264 273.744 155.424C273.499 155.579 273.235 155.707 272.952 155.808C272.675 155.909 272.387 155.984 272.088 156.032C271.789 156.085 271.493 156.112 271.2 156.112C270.64 156.112 270.123 156.019 269.648 155.832C269.179 155.64 268.771 155.363 268.424 155C268.083 154.632 267.816 154.179 267.624 153.64C267.432 153.101 267.336 152.483 267.336 151.784C267.336 151.219 267.421 150.691 267.592 150.2C267.768 149.709 268.019 149.285 268.344 148.928C268.669 148.565 269.067 148.283 269.536 148.08C270.005 147.872 270.533 147.768 271.12 147.768C271.605 147.768 272.053 147.851 272.464 148.016C272.88 148.176 273.237 148.411 273.536 148.72C273.84 149.024 274.077 149.403 274.248 149.856C274.419 150.304 274.504 150.816 274.504 151.392C274.504 151.616 274.48 151.765 274.432 151.84C274.384 151.915 274.293 151.952 274.16 151.952H268.744C268.76 152.464 268.829 152.909 268.952 153.288C269.08 153.667 269.256 153.984 269.48 154.24C269.704 154.491 269.971 154.68 270.28 154.808C270.589 154.931 270.936 154.992 271.32 154.992C271.677 154.992 271.984 154.952 272.24 154.872C272.501 154.787 272.725 154.696 272.912 154.6C273.099 154.504 273.253 154.416 273.376 154.336C273.504 154.251 273.613 154.208 273.704 154.208C273.821 154.208 273.912 154.253 273.976 154.344L274.376 154.864ZM277.597 149.072C277.773 148.875 277.96 148.696 278.157 148.536C278.354 148.376 278.562 148.24 278.781 148.128C279.005 148.011 279.24 147.923 279.485 147.864C279.736 147.8 280.005 147.768 280.293 147.768C280.736 147.768 281.125 147.843 281.461 147.992C281.802 148.136 282.085 148.344 282.309 148.616C282.538 148.883 282.712 149.205 282.829 149.584C282.946 149.963 283.005 150.381 283.005 150.84V156H281.573V150.84C281.573 150.227 281.432 149.752 281.149 149.416C280.872 149.075 280.448 148.904 279.877 148.904C279.456 148.904 279.061 149.005 278.693 149.208C278.33 149.411 277.994 149.685 277.685 150.032V156H276.253V147.896H277.109C277.312 147.896 277.437 147.995 277.485 148.192L277.597 149.072ZM290.815 149.336C290.772 149.395 290.73 149.44 290.687 149.472C290.644 149.504 290.586 149.52 290.511 149.52C290.431 149.52 290.343 149.488 290.247 149.424C290.151 149.355 290.031 149.28 289.887 149.2C289.748 149.12 289.575 149.048 289.367 148.984C289.164 148.915 288.914 148.88 288.615 148.88C288.215 148.88 287.863 148.952 287.559 149.096C287.255 149.235 286.999 149.437 286.791 149.704C286.588 149.971 286.434 150.293 286.327 150.672C286.226 151.051 286.175 151.475 286.175 151.944C286.175 152.435 286.231 152.872 286.343 153.256C286.455 153.635 286.612 153.955 286.815 154.216C287.023 154.472 287.271 154.669 287.559 154.808C287.852 154.941 288.18 155.008 288.543 155.008C288.89 155.008 289.175 154.968 289.399 154.888C289.623 154.803 289.807 154.709 289.951 154.608C290.1 154.507 290.223 154.416 290.319 154.336C290.42 154.251 290.519 154.208 290.615 154.208C290.732 154.208 290.823 154.253 290.887 154.344L291.287 154.864C291.111 155.083 290.911 155.269 290.687 155.424C290.463 155.579 290.22 155.709 289.959 155.816C289.703 155.917 289.434 155.992 289.151 156.04C288.868 156.088 288.58 156.112 288.287 156.112C287.78 156.112 287.308 156.019 286.871 155.832C286.439 155.645 286.063 155.376 285.743 155.024C285.423 154.667 285.172 154.229 284.991 153.712C284.81 153.195 284.719 152.605 284.719 151.944C284.719 151.341 284.802 150.784 284.967 150.272C285.138 149.76 285.383 149.32 285.703 148.952C286.028 148.579 286.426 148.288 286.895 148.08C287.37 147.872 287.914 147.768 288.527 147.768C289.098 147.768 289.599 147.861 290.031 148.048C290.468 148.229 290.855 148.488 291.191 148.824L290.815 149.336ZM298.099 151.064C298.099 150.733 298.051 150.432 297.955 150.16C297.864 149.883 297.728 149.645 297.547 149.448C297.371 149.245 297.155 149.091 296.899 148.984C296.643 148.872 296.352 148.816 296.027 148.816C295.344 148.816 294.803 149.016 294.403 149.416C294.008 149.811 293.763 150.36 293.667 151.064H298.099ZM299.251 154.864C299.075 155.077 298.864 155.264 298.619 155.424C298.374 155.579 298.11 155.707 297.827 155.808C297.55 155.909 297.262 155.984 296.963 156.032C296.664 156.085 296.368 156.112 296.075 156.112C295.515 156.112 294.998 156.019 294.523 155.832C294.054 155.64 293.646 155.363 293.299 155C292.958 154.632 292.691 154.179 292.499 153.64C292.307 153.101 292.211 152.483 292.211 151.784C292.211 151.219 292.296 150.691 292.467 150.2C292.643 149.709 292.894 149.285 293.219 148.928C293.544 148.565 293.942 148.283 294.411 148.08C294.88 147.872 295.408 147.768 295.995 147.768C296.48 147.768 296.928 147.851 297.339 148.016C297.755 148.176 298.112 148.411 298.411 148.72C298.715 149.024 298.952 149.403 299.123 149.856C299.294 150.304 299.379 150.816 299.379 151.392C299.379 151.616 299.355 151.765 299.307 151.84C299.259 151.915 299.168 151.952 299.035 151.952H293.619C293.635 152.464 293.704 152.909 293.827 153.288C293.955 153.667 294.131 153.984 294.355 154.24C294.579 154.491 294.846 154.68 295.155 154.808C295.464 154.931 295.811 154.992 296.195 154.992C296.552 154.992 296.859 154.952 297.115 154.872C297.376 154.787 297.6 154.696 297.787 154.6C297.974 154.504 298.128 154.416 298.251 154.336C298.379 154.251 298.488 154.208 298.579 154.208C298.696 154.208 298.787 154.253 298.851 154.344L299.251 154.864Z" fill="#D4D4D4"/>
<defs>
<filter id="filter0_d_1_8096" x="204" y="0" width="108" height="108" filterUnits="userSpaceOnUse" color-interpolation-filters="sRGB">
<feFlood flood-opacity="0" result="BackgroundImageFix"/>
<feColorMatrix in="SourceAlpha" type="matrix" values="0 0 0 0 0 0 0 0 0 0 0 0 0 0 0 0 0 0 127 0" result="hardAlpha"/>
<feOffset dy="4"/>
<feGaussianBlur stdDeviation="6"/>
<feComposite in2="hardAlpha" operator="out"/>
<feColorMatrix type="matrix" values="0 0 0 0 0 0 0 0 0 0 0 0 0 0 0 0 0 0 1 0"/>
<feBlend mode="normal" in2="BackgroundImageFix" result="effect1_dropShadow_1_8096"/>
<feBlend mode="normal" in="SourceGraphic" in2="effect1_dropShadow_1_8096" result="shape"/>
</filter>
<filter id="filter1_dd_1_8096" x="219" y="9" width="78" height="82" filterUnits="userSpaceOnUse" color-interpolation-filters="sRGB">
<feFlood flood-opacity="0" result="BackgroundImageFix"/>
<feColorMatrix in="SourceAlpha" type="matrix" values="0 0 0 0 0 0 0 0 0 0 0 0 0 0 0 0 0 0 127 0" result="hardAlpha"/>
<feOffset dy="2"/>
<feGaussianBlur stdDeviation="2"/>
<feComposite in2="hardAlpha" operator="out"/>
<feColorMatrix type="matrix" values="0 0 0 0 0 0 0 0 0 0 0 0 0 0 0 0 0 0 1 0"/>
<feBlend mode="normal" in2="BackgroundImageFix" result="effect1_dropShadow_1_8096"/>
<feColorMatrix in="SourceAlpha" type="matrix" values="0 0 0 0 0 0 0 0 0 0 0 0 0 0 0 0 0 0 127 0" result="hardAlpha"/>
<feOffset dy="-2"/>
<feGaussianBlur stdDeviation="2"/>
<feComposite in2="hardAlpha" operator="out"/>
<feColorMatrix type="matrix" values="0 0 0 0 0 0 0 0 0 0 0 0 0 0 0 0 0 0 1 0"/>
<feBlend mode="normal" in2="effect1_dropShadow_1_8096" result="effect2_dropShadow_1_8096"/>
<feBlend mode="normal" in="SourceGraphic" in2="effect2_dropShadow_1_8096" result="shape"/>
</filter>
<linearGradient id="paint0_linear_1_8096" x1="233.665" y1="14.1249" x2="295.062" y2="39.1508" gradientUnits="userSpaceOnUse">
<stop stop-color="#DB2777"/>
<stop offset="1" stop-color="#F97316"/>
</linearGradient>
<linearGradient id="paint1_linear_1_8096" x1="259.608" y1="34.8341" x2="266.672" y2="39.7677" gradientUnits="userSpaceOnUse">
<stop stop-color="#DB2777"/>
<stop offset="1" stop-color="#F97316"/>
</linearGradient>
<linearGradient id="paint2_linear_1_8096" x1="266.585" y1="45.9585" x2="274.011" y2="51.1896" gradientUnits="userSpaceOnUse">
<stop stop-color="#DB2777"/>
<stop offset="1" stop-color="#F97316"/>
</linearGradient>
<linearGradient id="paint3_linear_1_8096" x1="248.729" y1="10.143" x2="313.451" y2="34.6972" gradientUnits="userSpaceOnUse">
<stop stop-color="#DB2777"/>
<stop offset="1" stop-color="#F97316"/>
</linearGradient>
<linearGradient id="paint4_linear_1_8096" x1="259.608" y1="57.4691" x2="266.672" y2="62.4027" gradientUnits="userSpaceOnUse">
<stop stop-color="#DB2777"/>
<stop offset="1" stop-color="#F97316"/>
</linearGradient>
<clipPath id="clip0_1_8096">
<rect width="32" height="32" fill="white" transform="translate(242 34)"/>
</clipPath>
</defs>
</svg>
