<svg width="24" height="25" viewBox="0 0 24 25" fill="none" xmlns="http://www.w3.org/2000/svg">
<circle cx="12" cy="12.3501" r="12" fill="#262626"/>
<path fill-rule="evenodd" clip-rule="evenodd" d="M12.522 6.54443C9.44402 6.54443 6.96777 9.02068 6.96777 12.0986C6.96777 14.5517 8.5646 16.6346 10.7631 17.3751C11.0409 17.4214 11.1334 17.2594 11.1334 17.0974C11.1334 16.9586 11.1334 16.6114 11.1334 16.1486C9.58287 16.4957 9.25888 15.408 9.25888 15.408C9.00431 14.76 8.63403 14.598 8.63403 14.598C8.1249 14.2509 8.68032 14.2509 8.68032 14.2509C9.23574 14.2972 9.53659 14.8294 9.53659 14.8294C10.0226 15.6857 10.8326 15.4311 11.1566 15.2923C11.2028 14.922 11.3417 14.6906 11.5037 14.5517C10.2771 14.4129 8.98117 13.9269 8.98117 11.7978C8.98117 11.1961 9.18945 10.6869 9.55973 10.3167C9.51345 10.1778 9.30516 9.62238 9.60602 8.83554C9.60602 8.83554 10.0689 8.69668 11.1334 9.4141C11.5731 9.29839 12.0591 9.22896 12.522 9.22896C12.9848 9.22896 13.4708 9.29839 13.9105 9.4141C14.9751 8.69668 15.4379 8.83554 15.4379 8.83554C15.7388 9.59924 15.5536 10.1547 15.4842 10.3167C15.8313 10.7101 16.0628 11.1961 16.0628 11.7978C16.0628 13.9269 14.7668 14.3897 13.5171 14.5286C13.7254 14.6906 13.8874 15.0377 13.8874 15.5469C13.8874 16.2874 13.8874 16.8891 13.8874 17.0743C13.8874 17.2131 13.9799 17.3983 14.2808 17.352C16.4793 16.6346 18.0762 14.5517 18.0762 12.0986C18.0762 9.02068 15.5999 6.54443 12.522 6.54443Z" fill="#FAFAFA"/>
</svg>
