<svg width="260" height="272" viewBox="0 0 260 272" fill="none" xmlns="http://www.w3.org/2000/svg">
<rect y="48" width="260" height="224" rx="16" fill="#262626"/>
<g filter="url(#filter0_d_1_8157)">
<circle cx="130" cy="50" r="42" fill="#262626"/>
</g>
<g filter="url(#filter1_dd_1_8157)">
<circle cx="130" cy="50" r="35" fill="#262626"/>
</g>
<g clip-path="url(#clip0_1_8157)">
<path fill-rule="evenodd" clip-rule="evenodd" d="M132.491 34.192C132.269 34.1572 132.042 34.1665 131.823 34.2195C131.604 34.2724 131.398 34.368 131.216 34.5006C131.034 34.6333 130.88 34.8004 130.763 34.9926C130.646 35.1848 130.567 35.3982 130.533 35.6206C130.498 35.843 130.507 36.0701 130.56 36.2889C130.613 36.5077 130.709 36.714 130.841 36.8959C130.974 37.0778 131.141 37.2318 131.333 37.3491C131.525 37.4663 131.739 37.5446 131.961 37.5794C135.079 38.0816 137.895 39.7387 139.847 42.2214C141.8 44.7041 142.746 47.8305 142.499 50.9793C142.252 54.1281 140.829 57.0686 138.513 59.2164C136.198 61.3641 133.158 62.5619 130 62.5714C127.479 62.5719 125.017 61.8149 122.932 60.3985C120.846 58.9822 119.235 56.972 118.306 54.6286C118.228 54.4128 118.108 54.2148 117.952 54.0464C117.796 53.878 117.608 53.7427 117.399 53.6484C117.189 53.5541 116.963 53.5027 116.734 53.4974C116.504 53.4921 116.276 53.5329 116.063 53.6173C115.85 53.7018 115.655 53.8283 115.492 53.9893C115.328 54.1502 115.199 54.3424 115.111 54.5543C115.023 54.7663 114.978 54.9938 114.98 55.2233C114.981 55.4528 115.029 55.6796 115.12 55.8903C116.493 59.3496 119.029 62.2221 122.291 64.0137C125.554 65.8053 129.338 66.4039 132.994 65.7065C136.65 65.0092 139.949 63.0594 142.322 60.1928C144.696 57.3262 145.997 53.7219 146 50C146 46.1881 144.639 42.5014 142.163 39.6034C139.686 36.7054 136.257 34.7865 132.491 34.192ZM128.089 35.5109C128.145 35.7291 128.158 35.9563 128.127 36.1794C128.095 36.4026 128.02 36.6173 127.905 36.8114C127.791 37.0054 127.639 37.175 127.459 37.3103C127.278 37.4456 127.073 37.5441 126.855 37.6C126.282 37.7474 125.721 37.9353 125.175 38.1623C124.967 38.2487 124.744 38.2934 124.519 38.2937C124.294 38.294 124.071 38.25 123.863 38.1642C123.655 38.0783 123.466 37.9523 123.306 37.7934C123.147 37.6344 123.02 37.4456 122.934 37.2377C122.847 37.0299 122.803 36.807 122.802 36.5819C122.802 36.3568 122.846 36.1338 122.932 35.9257C123.018 35.7176 123.144 35.5284 123.303 35.369C123.462 35.2096 123.65 35.083 123.858 34.9966C124.549 34.7086 125.264 34.4686 126.002 34.2789C126.22 34.2229 126.447 34.2104 126.67 34.2421C126.893 34.2738 127.108 34.3491 127.301 34.4638C127.495 34.5784 127.664 34.73 127.8 34.9101C127.935 35.0902 128.033 35.2928 128.089 35.5109ZM121.28 38.3292C121.596 38.6554 121.77 39.0939 121.763 39.5482C121.756 40.0025 121.569 40.4355 121.243 40.752C120.394 41.5804 119.663 42.5227 119.072 43.552C118.963 43.7531 118.816 43.9304 118.637 44.0735C118.459 44.2166 118.254 44.3226 118.034 44.3854C117.815 44.4481 117.585 44.4663 117.358 44.4388C117.131 44.4113 116.912 44.3388 116.713 44.2254C116.515 44.112 116.341 43.9601 116.202 43.7785C116.063 43.597 115.962 43.3896 115.905 43.1684C115.847 42.9472 115.835 42.7168 115.867 42.4906C115.9 42.2644 115.978 42.0471 116.096 41.8514C116.845 40.5413 117.774 39.3432 118.857 38.2926C119.183 37.9764 119.622 37.8026 120.076 37.8094C120.53 37.8163 120.963 38.0032 121.28 38.3292ZM116.094 46.0686C116.544 46.132 116.95 46.3716 117.224 46.7347C117.497 47.0977 117.615 47.5545 117.552 48.0046C117.47 48.5915 117.428 49.1834 117.429 49.776C117.429 50.2307 117.248 50.6667 116.926 50.9882C116.605 51.3097 116.169 51.4903 115.714 51.4903C115.26 51.4903 114.824 51.3097 114.502 50.9882C114.181 50.6667 114 50.2307 114 49.776C114 49.0149 114.053 48.2629 114.158 47.5269C114.221 47.0768 114.461 46.6704 114.824 46.3969C115.187 46.1234 115.644 46.0054 116.094 46.0686ZM124.286 54.3017V45.6983C124.286 45.3088 124.386 44.9259 124.575 44.5858C124.765 44.2457 125.039 43.9597 125.37 43.755C125.701 43.5503 126.08 43.4336 126.469 43.4161C126.858 43.3986 127.245 43.4808 127.593 43.6549L136.197 47.9566C136.576 48.1466 136.895 48.4384 137.117 48.7993C137.34 49.1602 137.458 49.5759 137.458 50C137.458 50.4241 137.34 50.8399 137.117 51.2008C136.895 51.5616 136.576 51.8534 136.197 52.0434L127.593 56.3452C127.245 56.5193 126.858 56.6014 126.469 56.5839C126.08 56.5664 125.701 56.4497 125.37 56.245C125.039 56.0403 124.765 55.7544 124.575 55.4143C124.386 55.0742 124.286 54.6912 124.286 54.3017Z" fill="url(#paint0_linear_1_8157)"/>
</g>
<path d="M71.8304 139.336V142H61.6664V124.648H64.8944V139.336H71.8304ZM76.7391 129.688V142H73.7631V129.688H76.7391ZM77.1471 126.1C77.1471 126.356 77.0951 126.596 76.9911 126.82C76.8871 127.044 76.7471 127.24 76.5711 127.408C76.4031 127.576 76.2031 127.712 75.9711 127.816C75.7391 127.912 75.4911 127.96 75.2271 127.96C74.9711 127.96 74.7271 127.912 74.4951 127.816C74.2711 127.712 74.0751 127.576 73.9071 127.408C73.7391 127.24 73.6031 127.044 73.4991 126.82C73.4031 126.596 73.3551 126.356 73.3551 126.1C73.3551 125.836 73.4031 125.588 73.4991 125.356C73.6031 125.124 73.7391 124.924 73.9071 124.756C74.0751 124.588 74.2711 124.456 74.4951 124.36C74.7271 124.256 74.9711 124.204 75.2271 124.204C75.4911 124.204 75.7391 124.256 75.9711 124.36C76.2031 124.456 76.4031 124.588 76.5711 124.756C76.7471 124.924 76.8871 125.124 76.9911 125.356C77.0951 125.588 77.1471 125.836 77.1471 126.1ZM90.8609 129.688L85.9769 142H83.2889L78.4049 129.688H80.8529C81.0769 129.688 81.2609 129.74 81.4049 129.844C81.5569 129.948 81.6569 130.08 81.7049 130.24L84.0809 136.816C84.2089 137.2 84.3209 137.576 84.4169 137.944C84.5129 138.312 84.5969 138.68 84.6689 139.048C84.7489 138.68 84.8369 138.312 84.9329 137.944C85.0289 137.576 85.1449 137.2 85.2809 136.816L87.7049 130.24C87.7609 130.08 87.8609 129.948 88.0049 129.844C88.1489 129.74 88.3209 129.688 88.5209 129.688H90.8609ZM99.9976 134.428C99.9976 134.044 99.9416 133.684 99.8296 133.348C99.7256 133.004 99.5656 132.704 99.3496 132.448C99.1336 132.192 98.8576 131.992 98.5216 131.848C98.1936 131.696 97.8096 131.62 97.3696 131.62C96.5136 131.62 95.8376 131.864 95.3416 132.352C94.8536 132.84 94.5416 133.532 94.4056 134.428H99.9976ZM94.3456 136.216C94.3936 136.848 94.5056 137.396 94.6816 137.86C94.8576 138.316 95.0896 138.696 95.3776 139C95.6656 139.296 96.0056 139.52 96.3976 139.672C96.7976 139.816 97.2376 139.888 97.7176 139.888C98.1976 139.888 98.6096 139.832 98.9536 139.72C99.3056 139.608 99.6096 139.484 99.8656 139.348C100.13 139.212 100.358 139.088 100.55 138.976C100.75 138.864 100.942 138.808 101.126 138.808C101.374 138.808 101.558 138.9 101.678 139.084L102.53 140.164C102.202 140.548 101.834 140.872 101.426 141.136C101.018 141.392 100.59 141.6 100.142 141.76C99.7016 141.912 99.2496 142.02 98.7856 142.084C98.3296 142.148 97.8856 142.18 97.4536 142.18C96.5976 142.18 95.8016 142.04 95.0656 141.76C94.3296 141.472 93.6896 141.052 93.1456 140.5C92.6016 139.94 92.1736 139.252 91.8616 138.436C91.5496 137.612 91.3936 136.66 91.3936 135.58C91.3936 134.74 91.5296 133.952 91.8016 133.216C92.0736 132.472 92.4616 131.828 92.9656 131.284C93.4776 130.732 94.0976 130.296 94.8256 129.976C95.5616 129.656 96.3896 129.496 97.3096 129.496C98.0856 129.496 98.8016 129.62 99.4576 129.868C100.114 130.116 100.678 130.48 101.15 130.96C101.622 131.432 101.99 132.016 102.254 132.712C102.526 133.4 102.662 134.188 102.662 135.076C102.662 135.524 102.614 135.828 102.518 135.988C102.422 136.14 102.238 136.216 101.966 136.216H94.3456ZM120.43 127.804C120.334 127.972 120.23 128.096 120.118 128.176C120.014 128.248 119.882 128.284 119.722 128.284C119.554 128.284 119.37 128.224 119.17 128.104C118.978 127.976 118.746 127.836 118.474 127.684C118.202 127.532 117.882 127.396 117.514 127.276C117.154 127.148 116.726 127.084 116.23 127.084C115.782 127.084 115.39 127.14 115.054 127.252C114.718 127.356 114.434 127.504 114.202 127.696C113.978 127.888 113.81 128.12 113.698 128.392C113.586 128.656 113.53 128.948 113.53 129.268C113.53 129.676 113.642 130.016 113.866 130.288C114.098 130.56 114.402 130.792 114.778 130.984C115.154 131.176 115.582 131.348 116.062 131.5C116.542 131.652 117.034 131.816 117.538 131.992C118.042 132.16 118.534 132.36 119.014 132.592C119.494 132.816 119.922 133.104 120.298 133.456C120.674 133.8 120.974 134.224 121.198 134.728C121.43 135.232 121.546 135.844 121.546 136.564C121.546 137.348 121.41 138.084 121.138 138.772C120.874 139.452 120.482 140.048 119.962 140.56C119.45 141.064 118.822 141.464 118.078 141.76C117.334 142.048 116.482 142.192 115.522 142.192C114.97 142.192 114.426 142.136 113.89 142.024C113.354 141.92 112.838 141.768 112.342 141.568C111.854 141.368 111.394 141.128 110.962 140.848C110.53 140.568 110.146 140.256 109.81 139.912L110.758 138.364C110.838 138.252 110.942 138.16 111.07 138.088C111.198 138.008 111.334 137.968 111.478 137.968C111.678 137.968 111.894 138.052 112.126 138.22C112.358 138.38 112.634 138.56 112.954 138.76C113.274 138.96 113.646 139.144 114.07 139.312C114.502 139.472 115.018 139.552 115.618 139.552C116.538 139.552 117.25 139.336 117.754 138.904C118.258 138.464 118.51 137.836 118.51 137.02C118.51 136.564 118.394 136.192 118.162 135.904C117.938 135.616 117.638 135.376 117.262 135.184C116.886 134.984 116.458 134.816 115.978 134.68C115.498 134.544 115.01 134.396 114.514 134.236C114.018 134.076 113.53 133.884 113.05 133.66C112.57 133.436 112.142 133.144 111.766 132.784C111.39 132.424 111.086 131.976 110.854 131.44C110.63 130.896 110.518 130.228 110.518 129.436C110.518 128.804 110.642 128.188 110.89 127.588C111.146 126.988 111.514 126.456 111.994 125.992C112.474 125.528 113.066 125.156 113.77 124.876C114.474 124.596 115.282 124.456 116.194 124.456C117.218 124.456 118.162 124.616 119.026 124.936C119.89 125.256 120.626 125.704 121.234 126.28L120.43 127.804ZM131.779 134.428C131.779 134.044 131.723 133.684 131.611 133.348C131.507 133.004 131.347 132.704 131.131 132.448C130.915 132.192 130.639 131.992 130.303 131.848C129.975 131.696 129.591 131.62 129.151 131.62C128.295 131.62 127.619 131.864 127.123 132.352C126.635 132.84 126.323 133.532 126.187 134.428H131.779ZM126.127 136.216C126.175 136.848 126.287 137.396 126.463 137.86C126.639 138.316 126.871 138.696 127.159 139C127.447 139.296 127.787 139.52 128.179 139.672C128.579 139.816 129.019 139.888 129.499 139.888C129.979 139.888 130.391 139.832 130.735 139.72C131.087 139.608 131.391 139.484 131.647 139.348C131.911 139.212 132.139 139.088 132.331 138.976C132.531 138.864 132.723 138.808 132.907 138.808C133.155 138.808 133.339 138.9 133.459 139.084L134.311 140.164C133.983 140.548 133.615 140.872 133.207 141.136C132.799 141.392 132.371 141.6 131.923 141.76C131.483 141.912 131.031 142.02 130.567 142.084C130.111 142.148 129.667 142.18 129.235 142.18C128.379 142.18 127.583 142.04 126.847 141.76C126.111 141.472 125.471 141.052 124.927 140.5C124.383 139.94 123.955 139.252 123.643 138.436C123.331 137.612 123.175 136.66 123.175 135.58C123.175 134.74 123.311 133.952 123.583 133.216C123.855 132.472 124.243 131.828 124.747 131.284C125.259 130.732 125.879 130.296 126.607 129.976C127.343 129.656 128.171 129.496 129.091 129.496C129.867 129.496 130.583 129.62 131.239 129.868C131.895 130.116 132.459 130.48 132.931 130.96C133.403 131.432 133.771 132.016 134.035 132.712C134.307 133.4 134.443 134.188 134.443 135.076C134.443 135.524 134.395 135.828 134.299 135.988C134.203 136.14 134.019 136.216 133.747 136.216H126.127ZM144.179 132.088C144.099 132.216 144.015 132.308 143.927 132.364C143.839 132.412 143.727 132.436 143.591 132.436C143.447 132.436 143.291 132.396 143.123 132.316C142.963 132.236 142.775 132.148 142.559 132.052C142.343 131.948 142.095 131.856 141.815 131.776C141.543 131.696 141.219 131.656 140.843 131.656C140.259 131.656 139.799 131.78 139.463 132.028C139.135 132.276 138.971 132.6 138.971 133C138.971 133.264 139.055 133.488 139.223 133.672C139.399 133.848 139.627 134.004 139.907 134.14C140.195 134.276 140.519 134.4 140.879 134.512C141.239 134.616 141.603 134.732 141.971 134.86C142.347 134.988 142.715 135.136 143.075 135.304C143.435 135.464 143.755 135.672 144.035 135.928C144.323 136.176 144.551 136.476 144.719 136.828C144.895 137.18 144.983 137.604 144.983 138.1C144.983 138.692 144.875 139.24 144.659 139.744C144.451 140.24 144.139 140.672 143.723 141.04C143.307 141.4 142.791 141.684 142.175 141.892C141.567 142.092 140.863 142.192 140.063 142.192C139.639 142.192 139.223 142.152 138.815 142.072C138.415 142 138.027 141.896 137.651 141.76C137.283 141.624 136.939 141.464 136.619 141.28C136.307 141.096 136.031 140.896 135.791 140.68L136.475 139.552C136.563 139.416 136.667 139.312 136.787 139.24C136.907 139.168 137.059 139.132 137.243 139.132C137.427 139.132 137.599 139.184 137.759 139.288C137.927 139.392 138.119 139.504 138.335 139.624C138.551 139.744 138.803 139.856 139.091 139.96C139.387 140.064 139.759 140.116 140.207 140.116C140.559 140.116 140.859 140.076 141.107 139.996C141.363 139.908 141.571 139.796 141.731 139.66C141.899 139.524 142.019 139.368 142.091 139.192C142.171 139.008 142.211 138.82 142.211 138.628C142.211 138.34 142.123 138.104 141.947 137.92C141.779 137.736 141.551 137.576 141.263 137.44C140.983 137.304 140.659 137.184 140.291 137.08C139.931 136.968 139.559 136.848 139.175 136.72C138.799 136.592 138.427 136.444 138.059 136.276C137.699 136.1 137.375 135.88 137.087 135.616C136.807 135.352 136.579 135.028 136.403 134.644C136.235 134.26 136.151 133.796 136.151 133.252C136.151 132.748 136.251 132.268 136.451 131.812C136.651 131.356 136.943 130.96 137.327 130.624C137.719 130.28 138.203 130.008 138.779 129.808C139.363 129.6 140.035 129.496 140.795 129.496C141.643 129.496 142.415 129.636 143.111 129.916C143.807 130.196 144.387 130.564 144.851 131.02L144.179 132.088ZM154.726 132.088C154.646 132.216 154.562 132.308 154.474 132.364C154.386 132.412 154.274 132.436 154.138 132.436C153.994 132.436 153.838 132.396 153.67 132.316C153.51 132.236 153.322 132.148 153.106 132.052C152.89 131.948 152.642 131.856 152.362 131.776C152.09 131.696 151.766 131.656 151.39 131.656C150.806 131.656 150.346 131.78 150.01 132.028C149.682 132.276 149.518 132.6 149.518 133C149.518 133.264 149.602 133.488 149.77 133.672C149.946 133.848 150.174 134.004 150.454 134.14C150.742 134.276 151.066 134.4 151.426 134.512C151.786 134.616 152.15 134.732 152.518 134.86C152.894 134.988 153.262 135.136 153.622 135.304C153.982 135.464 154.302 135.672 154.582 135.928C154.87 136.176 155.098 136.476 155.266 136.828C155.442 137.18 155.53 137.604 155.53 138.1C155.53 138.692 155.422 139.24 155.206 139.744C154.998 140.24 154.686 140.672 154.27 141.04C153.854 141.4 153.338 141.684 152.722 141.892C152.114 142.092 151.41 142.192 150.61 142.192C150.186 142.192 149.77 142.152 149.362 142.072C148.962 142 148.574 141.896 148.198 141.76C147.83 141.624 147.486 141.464 147.166 141.28C146.854 141.096 146.578 140.896 146.338 140.68L147.022 139.552C147.11 139.416 147.214 139.312 147.334 139.24C147.454 139.168 147.606 139.132 147.79 139.132C147.974 139.132 148.146 139.184 148.306 139.288C148.474 139.392 148.666 139.504 148.882 139.624C149.098 139.744 149.35 139.856 149.638 139.96C149.934 140.064 150.306 140.116 150.754 140.116C151.106 140.116 151.406 140.076 151.654 139.996C151.91 139.908 152.118 139.796 152.278 139.66C152.446 139.524 152.566 139.368 152.638 139.192C152.718 139.008 152.758 138.82 152.758 138.628C152.758 138.34 152.67 138.104 152.494 137.92C152.326 137.736 152.098 137.576 151.81 137.44C151.53 137.304 151.206 137.184 150.838 137.08C150.478 136.968 150.106 136.848 149.722 136.72C149.346 136.592 148.974 136.444 148.606 136.276C148.246 136.1 147.922 135.88 147.634 135.616C147.354 135.352 147.126 135.028 146.95 134.644C146.782 134.26 146.698 133.796 146.698 133.252C146.698 132.748 146.798 132.268 146.998 131.812C147.198 131.356 147.49 130.96 147.874 130.624C148.266 130.28 148.75 130.008 149.326 129.808C149.91 129.6 150.582 129.496 151.342 129.496C152.19 129.496 152.962 129.636 153.658 129.916C154.354 130.196 154.934 130.564 155.398 131.02L154.726 132.088ZM160.833 129.688V142H157.857V129.688H160.833ZM161.241 126.1C161.241 126.356 161.189 126.596 161.085 126.82C160.981 127.044 160.841 127.24 160.665 127.408C160.497 127.576 160.297 127.712 160.065 127.816C159.833 127.912 159.585 127.96 159.321 127.96C159.065 127.96 158.821 127.912 158.589 127.816C158.365 127.712 158.169 127.576 158.001 127.408C157.833 127.24 157.697 127.044 157.593 126.82C157.497 126.596 157.449 126.356 157.449 126.1C157.449 125.836 157.497 125.588 157.593 125.356C157.697 125.124 157.833 124.924 158.001 124.756C158.169 124.588 158.365 124.456 158.589 124.36C158.821 124.256 159.065 124.204 159.321 124.204C159.585 124.204 159.833 124.256 160.065 124.36C160.297 124.456 160.497 124.588 160.665 124.756C160.841 124.924 160.981 125.124 161.085 125.356C161.189 125.588 161.241 125.836 161.241 126.1ZM169.303 129.496C170.215 129.496 171.043 129.644 171.787 129.94C172.539 130.236 173.179 130.656 173.707 131.2C174.243 131.744 174.655 132.408 174.943 133.192C175.231 133.976 175.375 134.852 175.375 135.82C175.375 136.796 175.231 137.676 174.943 138.46C174.655 139.244 174.243 139.912 173.707 140.464C173.179 141.016 172.539 141.44 171.787 141.736C171.043 142.032 170.215 142.18 169.303 142.18C168.383 142.18 167.547 142.032 166.795 141.736C166.043 141.44 165.399 141.016 164.863 140.464C164.335 139.912 163.923 139.244 163.627 138.46C163.339 137.676 163.195 136.796 163.195 135.82C163.195 134.852 163.339 133.976 163.627 133.192C163.923 132.408 164.335 131.744 164.863 131.2C165.399 130.656 166.043 130.236 166.795 129.94C167.547 129.644 168.383 129.496 169.303 129.496ZM169.303 139.9C170.327 139.9 171.083 139.556 171.571 138.868C172.067 138.18 172.315 137.172 172.315 135.844C172.315 134.516 172.067 133.504 171.571 132.808C171.083 132.112 170.327 131.764 169.303 131.764C168.263 131.764 167.491 132.116 166.987 132.82C166.491 133.516 166.243 134.524 166.243 135.844C166.243 137.164 166.491 138.172 166.987 138.868C167.491 139.556 168.263 139.9 169.303 139.9ZM180.408 131.2C180.656 130.952 180.916 130.724 181.188 130.516C181.468 130.3 181.76 130.12 182.064 129.976C182.376 129.824 182.708 129.708 183.06 129.628C183.412 129.54 183.796 129.496 184.212 129.496C184.884 129.496 185.48 129.612 186 129.844C186.52 130.068 186.952 130.388 187.296 130.804C187.648 131.212 187.912 131.704 188.088 132.28C188.272 132.848 188.364 133.476 188.364 134.164V142H185.4V134.164C185.4 133.412 185.228 132.832 184.884 132.424C184.54 132.008 184.016 131.8 183.312 131.8C182.8 131.8 182.32 131.916 181.872 132.148C181.424 132.38 181 132.696 180.6 133.096V142H177.636V129.688H179.448C179.832 129.688 180.084 129.868 180.204 130.228L180.408 131.2ZM198.695 132.088C198.615 132.216 198.531 132.308 198.443 132.364C198.355 132.412 198.243 132.436 198.107 132.436C197.963 132.436 197.807 132.396 197.639 132.316C197.479 132.236 197.291 132.148 197.075 132.052C196.859 131.948 196.611 131.856 196.331 131.776C196.059 131.696 195.735 131.656 195.359 131.656C194.775 131.656 194.315 131.78 193.979 132.028C193.651 132.276 193.487 132.6 193.487 133C193.487 133.264 193.571 133.488 193.739 133.672C193.915 133.848 194.143 134.004 194.423 134.14C194.711 134.276 195.035 134.4 195.395 134.512C195.755 134.616 196.119 134.732 196.487 134.86C196.863 134.988 197.231 135.136 197.591 135.304C197.951 135.464 198.271 135.672 198.551 135.928C198.839 136.176 199.067 136.476 199.235 136.828C199.411 137.18 199.499 137.604 199.499 138.1C199.499 138.692 199.391 139.24 199.175 139.744C198.967 140.24 198.655 140.672 198.239 141.04C197.823 141.4 197.307 141.684 196.691 141.892C196.083 142.092 195.379 142.192 194.579 142.192C194.155 142.192 193.739 142.152 193.331 142.072C192.931 142 192.543 141.896 192.167 141.76C191.799 141.624 191.455 141.464 191.135 141.28C190.823 141.096 190.547 140.896 190.307 140.68L190.991 139.552C191.079 139.416 191.183 139.312 191.303 139.24C191.423 139.168 191.575 139.132 191.759 139.132C191.943 139.132 192.115 139.184 192.275 139.288C192.443 139.392 192.635 139.504 192.851 139.624C193.067 139.744 193.319 139.856 193.607 139.96C193.903 140.064 194.275 140.116 194.723 140.116C195.075 140.116 195.375 140.076 195.623 139.996C195.879 139.908 196.087 139.796 196.247 139.66C196.415 139.524 196.535 139.368 196.607 139.192C196.687 139.008 196.727 138.82 196.727 138.628C196.727 138.34 196.639 138.104 196.463 137.92C196.295 137.736 196.067 137.576 195.779 137.44C195.499 137.304 195.175 137.184 194.807 137.08C194.447 136.968 194.075 136.848 193.691 136.72C193.315 136.592 192.943 136.444 192.575 136.276C192.215 136.1 191.891 135.88 191.603 135.616C191.323 135.352 191.095 135.028 190.919 134.644C190.751 134.26 190.667 133.796 190.667 133.252C190.667 132.748 190.767 132.268 190.967 131.812C191.167 131.356 191.459 130.96 191.843 130.624C192.235 130.28 192.719 130.008 193.295 129.808C193.879 129.6 194.551 129.496 195.311 129.496C196.159 129.496 196.931 129.636 197.627 129.916C198.323 130.196 198.903 130.564 199.367 131.02L198.695 132.088Z" fill="#FAFAFA"/>
<path d="M49.0091 176.04C49.1158 176.04 49.2091 176.083 49.2891 176.17L50.0591 177C49.4725 177.68 48.7591 178.21 47.9191 178.59C47.0858 178.97 46.0758 179.16 44.8891 179.16C43.8625 179.16 42.9291 178.983 42.0891 178.63C41.2491 178.27 40.5325 177.77 39.9391 177.13C39.3458 176.483 38.8858 175.71 38.5591 174.81C38.2325 173.91 38.0691 172.92 38.0691 171.84C38.0691 170.76 38.2391 169.77 38.5791 168.87C38.9191 167.97 39.3958 167.197 40.0091 166.55C40.6291 165.903 41.3691 165.403 42.2291 165.05C43.0891 164.69 44.0391 164.51 45.0791 164.51C46.0991 164.51 46.9991 164.673 47.7791 165C48.5591 165.327 49.2458 165.77 49.8391 166.33L49.1991 167.22C49.1591 167.287 49.1058 167.343 49.0391 167.39C48.9791 167.43 48.8958 167.45 48.7891 167.45C48.6691 167.45 48.5225 167.387 48.3491 167.26C48.1758 167.127 47.9491 166.98 47.6691 166.82C47.3891 166.66 47.0391 166.517 46.6191 166.39C46.1991 166.257 45.6825 166.19 45.0691 166.19C44.3291 166.19 43.6525 166.32 43.0391 166.58C42.4258 166.833 41.8958 167.203 41.4491 167.69C41.0091 168.177 40.6658 168.77 40.4191 169.47C40.1725 170.17 40.0491 170.96 40.0491 171.84C40.0491 172.733 40.1758 173.53 40.4291 174.23C40.6891 174.93 41.0391 175.523 41.4791 176.01C41.9258 176.49 42.4491 176.857 43.0491 177.11C43.6558 177.363 44.3091 177.49 45.0091 177.49C45.4358 177.49 45.8191 177.467 46.1591 177.42C46.5058 177.367 46.8225 177.287 47.1091 177.18C47.4025 177.073 47.6725 176.94 47.9191 176.78C48.1725 176.613 48.4225 176.417 48.6691 176.19C48.7825 176.09 48.8958 176.04 49.0091 176.04ZM55.9632 168.71C56.7032 168.71 57.3699 168.833 57.9632 169.08C58.5565 169.327 59.0632 169.677 59.4832 170.13C59.9032 170.583 60.2232 171.133 60.4432 171.78C60.6699 172.42 60.7832 173.137 60.7832 173.93C60.7832 174.73 60.6699 175.45 60.4432 176.09C60.2232 176.73 59.9032 177.277 59.4832 177.73C59.0632 178.183 58.5565 178.533 57.9632 178.78C57.3699 179.02 56.7032 179.14 55.9632 179.14C55.2165 179.14 54.5432 179.02 53.9432 178.78C53.3499 178.533 52.8432 178.183 52.4232 177.73C52.0032 177.277 51.6799 176.73 51.4532 176.09C51.2332 175.45 51.1232 174.73 51.1232 173.93C51.1232 173.137 51.2332 172.42 51.4532 171.78C51.6799 171.133 52.0032 170.583 52.4232 170.13C52.8432 169.677 53.3499 169.327 53.9432 169.08C54.5432 168.833 55.2165 168.71 55.9632 168.71ZM55.9632 177.75C56.9632 177.75 57.7099 177.417 58.2032 176.75C58.6965 176.077 58.9432 175.14 58.9432 173.94C58.9432 172.733 58.6965 171.793 58.2032 171.12C57.7099 170.447 56.9632 170.11 55.9632 170.11C55.4565 170.11 55.0132 170.197 54.6332 170.37C54.2599 170.543 53.9465 170.793 53.6932 171.12C53.4465 171.447 53.2599 171.85 53.1332 172.33C53.0132 172.803 52.9532 173.34 52.9532 173.94C52.9532 175.14 53.1999 176.077 53.6932 176.75C54.1932 177.417 54.9499 177.75 55.9632 177.75ZM68.5309 174.44C67.7109 174.467 67.0109 174.533 66.4309 174.64C65.8575 174.74 65.3875 174.873 65.0209 175.04C64.6609 175.207 64.3975 175.403 64.2309 175.63C64.0709 175.857 63.9909 176.11 63.9909 176.39C63.9909 176.657 64.0342 176.887 64.1209 177.08C64.2075 177.273 64.3242 177.433 64.4709 177.56C64.6242 177.68 64.8009 177.77 65.0009 177.83C65.2075 177.883 65.4275 177.91 65.6609 177.91C65.9742 177.91 66.2609 177.88 66.5209 177.82C66.7809 177.753 67.0242 177.66 67.2509 177.54C67.4842 177.42 67.7042 177.277 67.9109 177.11C68.1242 176.943 68.3309 176.753 68.5309 176.54V174.44ZM62.7809 170.3C63.3409 169.76 63.9442 169.357 64.5909 169.09C65.2375 168.823 65.9542 168.69 66.7409 168.69C67.3075 168.69 67.8109 168.783 68.2509 168.97C68.6909 169.157 69.0609 169.417 69.3609 169.75C69.6609 170.083 69.8875 170.487 70.0409 170.96C70.1942 171.433 70.2709 171.953 70.2709 172.52V179H69.4809C69.3075 179 69.1742 178.973 69.0809 178.92C68.9875 178.86 68.9142 178.747 68.8609 178.58L68.6609 177.62C68.3942 177.867 68.1342 178.087 67.8809 178.28C67.6275 178.467 67.3609 178.627 67.0809 178.76C66.8009 178.887 66.5009 178.983 66.1809 179.05C65.8675 179.123 65.5175 179.16 65.1309 179.16C64.7375 179.16 64.3675 179.107 64.0209 179C63.6742 178.887 63.3709 178.72 63.1109 178.5C62.8575 178.28 62.6542 178.003 62.5009 177.67C62.3542 177.33 62.2809 176.93 62.2809 176.47C62.2809 176.07 62.3909 175.687 62.6109 175.32C62.8309 174.947 63.1875 174.617 63.6809 174.33C64.1742 174.043 64.8175 173.81 65.6109 173.63C66.4042 173.443 67.3775 173.337 68.5309 173.31V172.52C68.5309 171.733 68.3609 171.14 68.0209 170.74C67.6809 170.333 67.1842 170.13 66.5309 170.13C66.0909 170.13 65.7209 170.187 65.4209 170.3C65.1275 170.407 64.8709 170.53 64.6509 170.67C64.4375 170.803 64.2509 170.927 64.0909 171.04C63.9375 171.147 63.7842 171.2 63.6309 171.2C63.5109 171.2 63.4075 171.17 63.3209 171.11C63.2342 171.043 63.1609 170.963 63.1009 170.87L62.7809 170.3ZM80.0323 170.67C79.9789 170.743 79.9256 170.8 79.8723 170.84C79.8189 170.88 79.7456 170.9 79.6523 170.9C79.5523 170.9 79.4423 170.86 79.3223 170.78C79.2023 170.693 79.0523 170.6 78.8723 170.5C78.6989 170.4 78.4823 170.31 78.2223 170.23C77.9689 170.143 77.6556 170.1 77.2823 170.1C76.7823 170.1 76.3423 170.19 75.9623 170.37C75.5823 170.543 75.2623 170.797 75.0023 171.13C74.7489 171.463 74.5556 171.867 74.4223 172.34C74.2956 172.813 74.2323 173.343 74.2323 173.93C74.2323 174.543 74.3023 175.09 74.4423 175.57C74.5823 176.043 74.7789 176.443 75.0323 176.77C75.2923 177.09 75.6023 177.337 75.9623 177.51C76.3289 177.677 76.7389 177.76 77.1923 177.76C77.6256 177.76 77.9823 177.71 78.2623 177.61C78.5423 177.503 78.7723 177.387 78.9523 177.26C79.1389 177.133 79.2923 177.02 79.4123 176.92C79.5389 176.813 79.6623 176.76 79.7823 176.76C79.9289 176.76 80.0423 176.817 80.1223 176.93L80.6223 177.58C80.4023 177.853 80.1523 178.087 79.8723 178.28C79.5923 178.473 79.2889 178.637 78.9623 178.77C78.6423 178.897 78.3056 178.99 77.9523 179.05C77.5989 179.11 77.2389 179.14 76.8723 179.14C76.2389 179.14 75.6489 179.023 75.1023 178.79C74.5623 178.557 74.0923 178.22 73.6923 177.78C73.2923 177.333 72.9789 176.787 72.7523 176.14C72.5256 175.493 72.4123 174.757 72.4123 173.93C72.4123 173.177 72.5156 172.48 72.7223 171.84C72.9356 171.2 73.2423 170.65 73.6423 170.19C74.0489 169.723 74.5456 169.36 75.1323 169.1C75.7256 168.84 76.4056 168.71 77.1723 168.71C77.8856 168.71 78.5123 168.827 79.0523 169.06C79.5989 169.287 80.0823 169.61 80.5023 170.03L80.0323 170.67ZM84.323 170.22C84.7564 169.76 85.2364 169.393 85.763 169.12C86.2897 168.847 86.8964 168.71 87.583 168.71C88.1364 168.71 88.623 168.803 89.043 168.99C89.4697 169.17 89.823 169.43 90.103 169.77C90.3897 170.103 90.6064 170.507 90.753 170.98C90.8997 171.453 90.973 171.977 90.973 172.55V179H89.183V172.55C89.183 171.783 89.0064 171.19 88.653 170.77C88.3064 170.343 87.7764 170.13 87.063 170.13C86.5364 170.13 86.043 170.257 85.583 170.51C85.1297 170.763 84.7097 171.107 84.323 171.54V179H82.533V164.27H84.323V170.22ZM105.853 170.67C105.799 170.743 105.746 170.8 105.693 170.84C105.639 170.88 105.566 170.9 105.473 170.9C105.373 170.9 105.263 170.86 105.143 170.78C105.023 170.693 104.873 170.6 104.693 170.5C104.519 170.4 104.303 170.31 104.043 170.23C103.789 170.143 103.476 170.1 103.103 170.1C102.603 170.1 102.163 170.19 101.783 170.37C101.403 170.543 101.083 170.797 100.823 171.13C100.569 171.463 100.376 171.867 100.243 172.34C100.116 172.813 100.053 173.343 100.053 173.93C100.053 174.543 100.123 175.09 100.263 175.57C100.403 176.043 100.599 176.443 100.853 176.77C101.113 177.09 101.423 177.337 101.783 177.51C102.149 177.677 102.559 177.76 103.013 177.76C103.446 177.76 103.803 177.71 104.083 177.61C104.363 177.503 104.593 177.387 104.773 177.26C104.959 177.133 105.113 177.02 105.233 176.92C105.359 176.813 105.483 176.76 105.603 176.76C105.749 176.76 105.863 176.817 105.943 176.93L106.443 177.58C106.223 177.853 105.973 178.087 105.693 178.28C105.413 178.473 105.109 178.637 104.783 178.77C104.463 178.897 104.126 178.99 103.773 179.05C103.419 179.11 103.059 179.14 102.693 179.14C102.059 179.14 101.469 179.023 100.923 178.79C100.383 178.557 99.9126 178.22 99.5126 177.78C99.1126 177.333 98.7992 176.787 98.5726 176.14C98.3459 175.493 98.2326 174.757 98.2326 173.93C98.2326 173.177 98.3359 172.48 98.5426 171.84C98.7559 171.2 99.0626 170.65 99.4626 170.19C99.8692 169.723 100.366 169.36 100.953 169.1C101.546 168.84 102.226 168.71 102.993 168.71C103.706 168.71 104.333 168.827 104.873 169.06C105.419 169.287 105.903 169.61 106.323 170.03L105.853 170.67ZM113.843 174.44C113.023 174.467 112.323 174.533 111.743 174.64C111.17 174.74 110.7 174.873 110.333 175.04C109.973 175.207 109.71 175.403 109.543 175.63C109.383 175.857 109.303 176.11 109.303 176.39C109.303 176.657 109.347 176.887 109.433 177.08C109.52 177.273 109.637 177.433 109.783 177.56C109.937 177.68 110.113 177.77 110.313 177.83C110.52 177.883 110.74 177.91 110.973 177.91C111.287 177.91 111.573 177.88 111.833 177.82C112.093 177.753 112.337 177.66 112.563 177.54C112.797 177.42 113.017 177.277 113.223 177.11C113.437 176.943 113.643 176.753 113.843 176.54V174.44ZM108.093 170.3C108.653 169.76 109.257 169.357 109.903 169.09C110.55 168.823 111.267 168.69 112.053 168.69C112.62 168.69 113.123 168.783 113.563 168.97C114.003 169.157 114.373 169.417 114.673 169.75C114.973 170.083 115.2 170.487 115.353 170.96C115.507 171.433 115.583 171.953 115.583 172.52V179H114.793C114.62 179 114.487 178.973 114.393 178.92C114.3 178.86 114.227 178.747 114.173 178.58L113.973 177.62C113.707 177.867 113.447 178.087 113.193 178.28C112.94 178.467 112.673 178.627 112.393 178.76C112.113 178.887 111.813 178.983 111.493 179.05C111.18 179.123 110.83 179.16 110.443 179.16C110.05 179.16 109.68 179.107 109.333 179C108.987 178.887 108.683 178.72 108.423 178.5C108.17 178.28 107.967 178.003 107.813 177.67C107.667 177.33 107.593 176.93 107.593 176.47C107.593 176.07 107.703 175.687 107.923 175.32C108.143 174.947 108.5 174.617 108.993 174.33C109.487 174.043 110.13 173.81 110.923 173.63C111.717 173.443 112.69 173.337 113.843 173.31V172.52C113.843 171.733 113.673 171.14 113.333 170.74C112.993 170.333 112.497 170.13 111.843 170.13C111.403 170.13 111.033 170.187 110.733 170.3C110.44 170.407 110.183 170.53 109.963 170.67C109.75 170.803 109.563 170.927 109.403 171.04C109.25 171.147 109.097 171.2 108.943 171.2C108.823 171.2 108.72 171.17 108.633 171.11C108.547 171.043 108.473 170.963 108.413 170.87L108.093 170.3ZM119.975 170.34C120.195 170.093 120.428 169.87 120.675 169.67C120.921 169.47 121.181 169.3 121.455 169.16C121.735 169.013 122.028 168.903 122.335 168.83C122.648 168.75 122.985 168.71 123.345 168.71C123.898 168.71 124.385 168.803 124.805 168.99C125.231 169.17 125.585 169.43 125.865 169.77C126.151 170.103 126.368 170.507 126.515 170.98C126.661 171.453 126.735 171.977 126.735 172.55V179H124.945V172.55C124.945 171.783 124.768 171.19 124.415 170.77C124.068 170.343 123.538 170.13 122.825 170.13C122.298 170.13 121.805 170.257 121.345 170.51C120.891 170.763 120.471 171.107 120.085 171.54V179H118.295V168.87H119.365C119.618 168.87 119.775 168.993 119.835 169.24L119.975 170.34ZM141.614 170.67C141.561 170.743 141.508 170.8 141.454 170.84C141.401 170.88 141.328 170.9 141.234 170.9C141.134 170.9 141.024 170.86 140.904 170.78C140.784 170.693 140.634 170.6 140.454 170.5C140.281 170.4 140.064 170.31 139.804 170.23C139.551 170.143 139.238 170.1 138.864 170.1C138.364 170.1 137.924 170.19 137.544 170.37C137.164 170.543 136.844 170.797 136.584 171.13C136.331 171.463 136.138 171.867 136.004 172.34C135.878 172.813 135.814 173.343 135.814 173.93C135.814 174.543 135.884 175.09 136.024 175.57C136.164 176.043 136.361 176.443 136.614 176.77C136.874 177.09 137.184 177.337 137.544 177.51C137.911 177.677 138.321 177.76 138.774 177.76C139.208 177.76 139.564 177.71 139.844 177.61C140.124 177.503 140.354 177.387 140.534 177.26C140.721 177.133 140.874 177.02 140.994 176.92C141.121 176.813 141.244 176.76 141.364 176.76C141.511 176.76 141.624 176.817 141.704 176.93L142.204 177.58C141.984 177.853 141.734 178.087 141.454 178.28C141.174 178.473 140.871 178.637 140.544 178.77C140.224 178.897 139.888 178.99 139.534 179.05C139.181 179.11 138.821 179.14 138.454 179.14C137.821 179.14 137.231 179.023 136.684 178.79C136.144 178.557 135.674 178.22 135.274 177.78C134.874 177.333 134.561 176.787 134.334 176.14C134.108 175.493 133.994 174.757 133.994 173.93C133.994 173.177 134.098 172.48 134.304 171.84C134.518 171.2 134.824 170.65 135.224 170.19C135.631 169.723 136.128 169.36 136.714 169.1C137.308 168.84 137.988 168.71 138.754 168.71C139.468 168.71 140.094 168.827 140.634 169.06C141.181 169.287 141.664 169.61 142.084 170.03L141.614 170.67ZM145.805 170.9C146.125 170.207 146.518 169.667 146.985 169.28C147.452 168.887 148.022 168.69 148.695 168.69C148.908 168.69 149.112 168.713 149.305 168.76C149.505 168.807 149.682 168.88 149.835 168.98L149.705 170.31C149.665 170.477 149.565 170.56 149.405 170.56C149.312 170.56 149.175 170.54 148.995 170.5C148.815 170.46 148.612 170.44 148.385 170.44C148.065 170.44 147.778 170.487 147.525 170.58C147.278 170.673 147.055 170.813 146.855 171C146.662 171.18 146.485 171.407 146.325 171.68C146.172 171.947 146.032 172.253 145.905 172.6V179H144.115V168.87H145.135C145.328 168.87 145.462 168.907 145.535 168.98C145.608 169.053 145.658 169.18 145.685 169.36L145.805 170.9ZM157.77 172.83C157.77 172.417 157.71 172.04 157.59 171.7C157.477 171.353 157.307 171.057 157.08 170.81C156.86 170.557 156.59 170.363 156.27 170.23C155.95 170.09 155.587 170.02 155.18 170.02C154.327 170.02 153.65 170.27 153.15 170.77C152.657 171.263 152.35 171.95 152.23 172.83H157.77ZM159.21 177.58C158.99 177.847 158.727 178.08 158.42 178.28C158.113 178.473 157.783 178.633 157.43 178.76C157.083 178.887 156.723 178.98 156.35 179.04C155.977 179.107 155.607 179.14 155.24 179.14C154.54 179.14 153.893 179.023 153.3 178.79C152.713 178.55 152.203 178.203 151.77 177.75C151.343 177.29 151.01 176.723 150.77 176.05C150.53 175.377 150.41 174.603 150.41 173.73C150.41 173.023 150.517 172.363 150.73 171.75C150.95 171.137 151.263 170.607 151.67 170.16C152.077 169.707 152.573 169.353 153.16 169.1C153.747 168.84 154.407 168.71 155.14 168.71C155.747 168.71 156.307 168.813 156.82 169.02C157.34 169.22 157.787 169.513 158.16 169.9C158.54 170.28 158.837 170.753 159.05 171.32C159.263 171.88 159.37 172.52 159.37 173.24C159.37 173.52 159.34 173.707 159.28 173.8C159.22 173.893 159.107 173.94 158.94 173.94H152.17C152.19 174.58 152.277 175.137 152.43 175.61C152.59 176.083 152.81 176.48 153.09 176.8C153.37 177.113 153.703 177.35 154.09 177.51C154.477 177.663 154.91 177.74 155.39 177.74C155.837 177.74 156.22 177.69 156.54 177.59C156.867 177.483 157.147 177.37 157.38 177.25C157.613 177.13 157.807 177.02 157.96 176.92C158.12 176.813 158.257 176.76 158.37 176.76C158.517 176.76 158.63 176.817 158.71 176.93L159.21 177.58ZM167.046 174.44C166.226 174.467 165.526 174.533 164.946 174.64C164.373 174.74 163.903 174.873 163.536 175.04C163.176 175.207 162.913 175.403 162.746 175.63C162.586 175.857 162.506 176.11 162.506 176.39C162.506 176.657 162.55 176.887 162.636 177.08C162.723 177.273 162.84 177.433 162.986 177.56C163.14 177.68 163.316 177.77 163.516 177.83C163.723 177.883 163.943 177.91 164.176 177.91C164.49 177.91 164.776 177.88 165.036 177.82C165.296 177.753 165.54 177.66 165.766 177.54C166 177.42 166.22 177.277 166.426 177.11C166.64 176.943 166.846 176.753 167.046 176.54V174.44ZM161.296 170.3C161.856 169.76 162.46 169.357 163.106 169.09C163.753 168.823 164.47 168.69 165.256 168.69C165.823 168.69 166.326 168.783 166.766 168.97C167.206 169.157 167.576 169.417 167.876 169.75C168.176 170.083 168.403 170.487 168.556 170.96C168.71 171.433 168.786 171.953 168.786 172.52V179H167.996C167.823 179 167.69 178.973 167.596 178.92C167.503 178.86 167.43 178.747 167.376 178.58L167.176 177.62C166.91 177.867 166.65 178.087 166.396 178.28C166.143 178.467 165.876 178.627 165.596 178.76C165.316 178.887 165.016 178.983 164.696 179.05C164.383 179.123 164.033 179.16 163.646 179.16C163.253 179.16 162.883 179.107 162.536 179C162.19 178.887 161.886 178.72 161.626 178.5C161.373 178.28 161.17 178.003 161.016 177.67C160.87 177.33 160.796 176.93 160.796 176.47C160.796 176.07 160.906 175.687 161.126 175.32C161.346 174.947 161.703 174.617 162.196 174.33C162.69 174.043 163.333 173.81 164.126 173.63C164.92 173.443 165.893 173.337 167.046 173.31V172.52C167.046 171.733 166.876 171.14 166.536 170.74C166.196 170.333 165.7 170.13 165.046 170.13C164.606 170.13 164.236 170.187 163.936 170.3C163.643 170.407 163.386 170.53 163.166 170.67C162.953 170.803 162.766 170.927 162.606 171.04C162.453 171.147 162.3 171.2 162.146 171.2C162.026 171.2 161.923 171.17 161.836 171.11C161.75 171.043 161.676 170.963 161.616 170.87L161.296 170.3ZM174.471 179.16C173.671 179.16 173.055 178.937 172.621 178.49C172.195 178.043 171.981 177.4 171.981 176.56V170.36H170.761C170.655 170.36 170.565 170.33 170.491 170.27C170.418 170.203 170.381 170.103 170.381 169.97V169.26L172.041 169.05L172.451 165.92C172.471 165.82 172.515 165.74 172.581 165.68C172.655 165.613 172.748 165.58 172.861 165.58H173.761V169.07H176.691V170.36H173.761V176.44C173.761 176.867 173.865 177.183 174.071 177.39C174.278 177.597 174.545 177.7 174.871 177.7C175.058 177.7 175.218 177.677 175.351 177.63C175.491 177.577 175.611 177.52 175.711 177.46C175.811 177.4 175.895 177.347 175.961 177.3C176.035 177.247 176.098 177.22 176.151 177.22C176.245 177.22 176.328 177.277 176.401 177.39L176.921 178.24C176.615 178.527 176.245 178.753 175.811 178.92C175.378 179.08 174.931 179.16 174.471 179.16ZM185.251 172.83C185.251 172.417 185.191 172.04 185.071 171.7C184.957 171.353 184.787 171.057 184.561 170.81C184.341 170.557 184.071 170.363 183.751 170.23C183.431 170.09 183.067 170.02 182.661 170.02C181.807 170.02 181.131 170.27 180.631 170.77C180.137 171.263 179.831 171.95 179.711 172.83H185.251ZM186.691 177.58C186.471 177.847 186.207 178.08 185.901 178.28C185.594 178.473 185.264 178.633 184.911 178.76C184.564 178.887 184.204 178.98 183.831 179.04C183.457 179.107 183.087 179.14 182.721 179.14C182.021 179.14 181.374 179.023 180.781 178.79C180.194 178.55 179.684 178.203 179.251 177.75C178.824 177.29 178.491 176.723 178.251 176.05C178.011 175.377 177.891 174.603 177.891 173.73C177.891 173.023 177.997 172.363 178.211 171.75C178.431 171.137 178.744 170.607 179.151 170.16C179.557 169.707 180.054 169.353 180.641 169.1C181.227 168.84 181.887 168.71 182.621 168.71C183.227 168.71 183.787 168.813 184.301 169.02C184.821 169.22 185.267 169.513 185.641 169.9C186.021 170.28 186.317 170.753 186.531 171.32C186.744 171.88 186.851 172.52 186.851 173.24C186.851 173.52 186.821 173.707 186.761 173.8C186.701 173.893 186.587 173.94 186.421 173.94H179.651C179.671 174.58 179.757 175.137 179.911 175.61C180.071 176.083 180.291 176.48 180.571 176.8C180.851 177.113 181.184 177.35 181.571 177.51C181.957 177.663 182.391 177.74 182.871 177.74C183.317 177.74 183.701 177.69 184.021 177.59C184.347 177.483 184.627 177.37 184.861 177.25C185.094 177.13 185.287 177.02 185.441 176.92C185.601 176.813 185.737 176.76 185.851 176.76C185.997 176.76 186.111 176.817 186.191 176.93L186.691 177.58ZM195.994 164.27V179H194.214V164.27H195.994ZM200.761 168.87V179H198.981V168.87H200.761ZM201.141 165.69C201.141 165.863 201.104 166.027 201.031 166.18C200.964 166.327 200.871 166.46 200.751 166.58C200.637 166.693 200.501 166.783 200.341 166.85C200.187 166.917 200.024 166.95 199.851 166.95C199.677 166.95 199.514 166.917 199.361 166.85C199.214 166.783 199.084 166.693 198.971 166.58C198.857 166.46 198.767 166.327 198.701 166.18C198.634 166.027 198.601 165.863 198.601 165.69C198.601 165.517 198.634 165.353 198.701 165.2C198.767 165.04 198.857 164.903 198.971 164.79C199.084 164.67 199.214 164.577 199.361 164.51C199.514 164.443 199.677 164.41 199.851 164.41C200.024 164.41 200.187 164.443 200.341 164.51C200.501 164.577 200.637 164.67 200.751 164.79C200.871 164.903 200.964 165.04 201.031 165.2C201.104 165.353 201.141 165.517 201.141 165.69ZM212.365 168.87L208.235 179H206.635L202.505 168.87H203.955C204.102 168.87 204.222 168.907 204.315 168.98C204.409 169.053 204.472 169.14 204.505 169.24L207.075 175.76C207.155 176.007 207.225 176.247 207.285 176.48C207.345 176.713 207.402 176.947 207.455 177.18C207.509 176.947 207.565 176.713 207.625 176.48C207.685 176.247 207.759 176.007 207.845 175.76L210.445 169.24C210.485 169.133 210.552 169.047 210.645 168.98C210.739 168.907 210.849 168.87 210.975 168.87H212.365ZM220.504 172.83C220.504 172.417 220.444 172.04 220.324 171.7C220.211 171.353 220.041 171.057 219.814 170.81C219.594 170.557 219.324 170.363 219.004 170.23C218.684 170.09 218.321 170.02 217.914 170.02C217.061 170.02 216.384 170.27 215.884 170.77C215.391 171.263 215.084 171.95 214.964 172.83H220.504ZM221.944 177.58C221.724 177.847 221.461 178.08 221.154 178.28C220.848 178.473 220.518 178.633 220.164 178.76C219.818 178.887 219.458 178.98 219.084 179.04C218.711 179.107 218.341 179.14 217.974 179.14C217.274 179.14 216.628 179.023 216.034 178.79C215.448 178.55 214.938 178.203 214.504 177.75C214.078 177.29 213.744 176.723 213.504 176.05C213.264 175.377 213.144 174.603 213.144 173.73C213.144 173.023 213.251 172.363 213.464 171.75C213.684 171.137 213.998 170.607 214.404 170.16C214.811 169.707 215.308 169.353 215.894 169.1C216.481 168.84 217.141 168.71 217.874 168.71C218.481 168.71 219.041 168.813 219.554 169.02C220.074 169.22 220.521 169.513 220.894 169.9C221.274 170.28 221.571 170.753 221.784 171.32C221.998 171.88 222.104 172.52 222.104 173.24C222.104 173.52 222.074 173.707 222.014 173.8C221.954 173.893 221.841 173.94 221.674 173.94H214.904C214.924 174.58 215.011 175.137 215.164 175.61C215.324 176.083 215.544 176.48 215.824 176.8C216.104 177.113 216.438 177.35 216.824 177.51C217.211 177.663 217.644 177.74 218.124 177.74C218.571 177.74 218.954 177.69 219.274 177.59C219.601 177.483 219.881 177.37 220.114 177.25C220.348 177.13 220.541 177.02 220.694 176.92C220.854 176.813 220.991 176.76 221.104 176.76C221.251 176.76 221.364 176.817 221.444 176.93L221.944 177.58ZM101.07 194.54C100.99 194.687 100.866 194.76 100.7 194.76C100.6 194.76 100.486 194.723 100.36 194.65C100.233 194.577 100.076 194.497 99.8898 194.41C99.7098 194.317 99.4931 194.233 99.2398 194.16C98.9864 194.08 98.6864 194.04 98.3398 194.04C98.0398 194.04 97.7698 194.08 97.5298 194.16C97.2898 194.233 97.0831 194.337 96.9098 194.47C96.7431 194.603 96.6131 194.76 96.5198 194.94C96.4331 195.113 96.3898 195.303 96.3898 195.51C96.3898 195.77 96.4631 195.987 96.6098 196.16C96.7631 196.333 96.9631 196.483 97.2098 196.61C97.4564 196.737 97.7364 196.85 98.0498 196.95C98.3631 197.043 98.6831 197.147 99.0098 197.26C99.3431 197.367 99.6664 197.487 99.9798 197.62C100.293 197.753 100.573 197.92 100.82 198.12C101.066 198.32 101.263 198.567 101.41 198.86C101.563 199.147 101.64 199.493 101.64 199.9C101.64 200.367 101.556 200.8 101.39 201.2C101.223 201.593 100.976 201.937 100.65 202.23C100.323 202.517 99.9231 202.743 99.4498 202.91C98.9764 203.077 98.4298 203.16 97.8098 203.16C97.1031 203.16 96.4631 203.047 95.8898 202.82C95.3164 202.587 94.8298 202.29 94.4298 201.93L94.8498 201.25C94.9031 201.163 94.9664 201.097 95.0398 201.05C95.1131 201.003 95.2064 200.98 95.3198 200.98C95.4398 200.98 95.5664 201.027 95.6998 201.12C95.8331 201.213 95.9931 201.317 96.1798 201.43C96.3731 201.543 96.6064 201.647 96.8798 201.74C97.1531 201.833 97.4931 201.88 97.8998 201.88C98.2464 201.88 98.5498 201.837 98.8098 201.75C99.0698 201.657 99.2864 201.533 99.4598 201.38C99.6331 201.227 99.7598 201.05 99.8398 200.85C99.9264 200.65 99.9698 200.437 99.9698 200.21C99.9698 199.93 99.8931 199.7 99.7398 199.52C99.5931 199.333 99.3964 199.177 99.1498 199.05C98.9031 198.917 98.6198 198.803 98.2998 198.71C97.9864 198.61 97.6631 198.507 97.3298 198.4C97.0031 198.293 96.6798 198.173 96.3598 198.04C96.0464 197.9 95.7664 197.727 95.5198 197.52C95.2731 197.313 95.0731 197.06 94.9198 196.76C94.7731 196.453 94.6998 196.083 94.6998 195.65C94.6998 195.263 94.7798 194.893 94.9398 194.54C95.0998 194.18 95.3331 193.867 95.6398 193.6C95.9464 193.327 96.3231 193.11 96.7698 192.95C97.2164 192.79 97.7264 192.71 98.2998 192.71C98.9664 192.71 99.5631 192.817 100.09 193.03C100.623 193.237 101.083 193.523 101.47 193.89L101.07 194.54ZM110.602 196.83C110.602 196.417 110.542 196.04 110.422 195.7C110.309 195.353 110.139 195.057 109.912 194.81C109.692 194.557 109.422 194.363 109.102 194.23C108.782 194.09 108.419 194.02 108.012 194.02C107.159 194.02 106.482 194.27 105.982 194.77C105.489 195.263 105.182 195.95 105.062 196.83H110.602ZM112.042 201.58C111.822 201.847 111.559 202.08 111.252 202.28C110.945 202.473 110.615 202.633 110.262 202.76C109.915 202.887 109.555 202.98 109.182 203.04C108.809 203.107 108.439 203.14 108.072 203.14C107.372 203.14 106.725 203.023 106.132 202.79C105.545 202.55 105.035 202.203 104.602 201.75C104.175 201.29 103.842 200.723 103.602 200.05C103.362 199.377 103.242 198.603 103.242 197.73C103.242 197.023 103.349 196.363 103.562 195.75C103.782 195.137 104.095 194.607 104.502 194.16C104.909 193.707 105.405 193.353 105.992 193.1C106.579 192.84 107.239 192.71 107.972 192.71C108.579 192.71 109.139 192.813 109.652 193.02C110.172 193.22 110.619 193.513 110.992 193.9C111.372 194.28 111.669 194.753 111.882 195.32C112.095 195.88 112.202 196.52 112.202 197.24C112.202 197.52 112.172 197.707 112.112 197.8C112.052 197.893 111.939 197.94 111.772 197.94H105.002C105.022 198.58 105.109 199.137 105.262 199.61C105.422 200.083 105.642 200.48 105.922 200.8C106.202 201.113 106.535 201.35 106.922 201.51C107.309 201.663 107.742 201.74 108.222 201.74C108.669 201.74 109.052 201.69 109.372 201.59C109.699 201.483 109.979 201.37 110.212 201.25C110.445 201.13 110.639 201.02 110.792 200.92C110.952 200.813 111.089 200.76 111.202 200.76C111.349 200.76 111.462 200.817 111.542 200.93L112.042 201.58ZM120.289 194.54C120.209 194.687 120.085 194.76 119.919 194.76C119.819 194.76 119.705 194.723 119.579 194.65C119.452 194.577 119.295 194.497 119.109 194.41C118.929 194.317 118.712 194.233 118.459 194.16C118.205 194.08 117.905 194.04 117.559 194.04C117.259 194.04 116.989 194.08 116.749 194.16C116.509 194.233 116.302 194.337 116.129 194.47C115.962 194.603 115.832 194.76 115.739 194.94C115.652 195.113 115.609 195.303 115.609 195.51C115.609 195.77 115.682 195.987 115.829 196.16C115.982 196.333 116.182 196.483 116.429 196.61C116.675 196.737 116.955 196.85 117.269 196.95C117.582 197.043 117.902 197.147 118.229 197.26C118.562 197.367 118.885 197.487 119.199 197.62C119.512 197.753 119.792 197.92 120.039 198.12C120.285 198.32 120.482 198.567 120.629 198.86C120.782 199.147 120.859 199.493 120.859 199.9C120.859 200.367 120.775 200.8 120.609 201.2C120.442 201.593 120.195 201.937 119.869 202.23C119.542 202.517 119.142 202.743 118.669 202.91C118.195 203.077 117.649 203.16 117.029 203.16C116.322 203.16 115.682 203.047 115.109 202.82C114.535 202.587 114.049 202.29 113.649 201.93L114.069 201.25C114.122 201.163 114.185 201.097 114.259 201.05C114.332 201.003 114.425 200.98 114.539 200.98C114.659 200.98 114.785 201.027 114.919 201.12C115.052 201.213 115.212 201.317 115.399 201.43C115.592 201.543 115.825 201.647 116.099 201.74C116.372 201.833 116.712 201.88 117.119 201.88C117.465 201.88 117.769 201.837 118.029 201.75C118.289 201.657 118.505 201.533 118.679 201.38C118.852 201.227 118.979 201.05 119.059 200.85C119.145 200.65 119.189 200.437 119.189 200.21C119.189 199.93 119.112 199.7 118.959 199.52C118.812 199.333 118.615 199.177 118.369 199.05C118.122 198.917 117.839 198.803 117.519 198.71C117.205 198.61 116.882 198.507 116.549 198.4C116.222 198.293 115.899 198.173 115.579 198.04C115.265 197.9 114.985 197.727 114.739 197.52C114.492 197.313 114.292 197.06 114.139 196.76C113.992 196.453 113.919 196.083 113.919 195.65C113.919 195.263 113.999 194.893 114.159 194.54C114.319 194.18 114.552 193.867 114.859 193.6C115.165 193.327 115.542 193.11 115.989 192.95C116.435 192.79 116.945 192.71 117.519 192.71C118.185 192.71 118.782 192.817 119.309 193.03C119.842 193.237 120.302 193.523 120.689 193.89L120.289 194.54ZM128.941 194.54C128.861 194.687 128.738 194.76 128.571 194.76C128.471 194.76 128.358 194.723 128.231 194.65C128.104 194.577 127.948 194.497 127.761 194.41C127.581 194.317 127.364 194.233 127.111 194.16C126.858 194.08 126.558 194.04 126.211 194.04C125.911 194.04 125.641 194.08 125.401 194.16C125.161 194.233 124.954 194.337 124.781 194.47C124.614 194.603 124.484 194.76 124.391 194.94C124.304 195.113 124.261 195.303 124.261 195.51C124.261 195.77 124.334 195.987 124.481 196.16C124.634 196.333 124.834 196.483 125.081 196.61C125.328 196.737 125.608 196.85 125.921 196.95C126.234 197.043 126.554 197.147 126.881 197.26C127.214 197.367 127.538 197.487 127.851 197.62C128.164 197.753 128.444 197.92 128.691 198.12C128.938 198.32 129.134 198.567 129.281 198.86C129.434 199.147 129.511 199.493 129.511 199.9C129.511 200.367 129.428 200.8 129.261 201.2C129.094 201.593 128.848 201.937 128.521 202.23C128.194 202.517 127.794 202.743 127.321 202.91C126.848 203.077 126.301 203.16 125.681 203.16C124.974 203.16 124.334 203.047 123.761 202.82C123.188 202.587 122.701 202.29 122.301 201.93L122.721 201.25C122.774 201.163 122.838 201.097 122.911 201.05C122.984 201.003 123.078 200.98 123.191 200.98C123.311 200.98 123.438 201.027 123.571 201.12C123.704 201.213 123.864 201.317 124.051 201.43C124.244 201.543 124.478 201.647 124.751 201.74C125.024 201.833 125.364 201.88 125.771 201.88C126.118 201.88 126.421 201.837 126.681 201.75C126.941 201.657 127.158 201.533 127.331 201.38C127.504 201.227 127.631 201.05 127.711 200.85C127.798 200.65 127.841 200.437 127.841 200.21C127.841 199.93 127.764 199.7 127.611 199.52C127.464 199.333 127.268 199.177 127.021 199.05C126.774 198.917 126.491 198.803 126.171 198.71C125.858 198.61 125.534 198.507 125.201 198.4C124.874 198.293 124.551 198.173 124.231 198.04C123.918 197.9 123.638 197.727 123.391 197.52C123.144 197.313 122.944 197.06 122.791 196.76C122.644 196.453 122.571 196.083 122.571 195.65C122.571 195.263 122.651 194.893 122.811 194.54C122.971 194.18 123.204 193.867 123.511 193.6C123.818 193.327 124.194 193.11 124.641 192.95C125.088 192.79 125.598 192.71 126.171 192.71C126.838 192.71 127.434 192.817 127.961 193.03C128.494 193.237 128.954 193.523 129.341 193.89L128.941 194.54ZM133.573 192.87V203H131.793V192.87H133.573ZM133.953 189.69C133.953 189.863 133.917 190.027 133.843 190.18C133.777 190.327 133.683 190.46 133.563 190.58C133.45 190.693 133.313 190.783 133.153 190.85C133 190.917 132.837 190.95 132.663 190.95C132.49 190.95 132.327 190.917 132.173 190.85C132.027 190.783 131.897 190.693 131.783 190.58C131.67 190.46 131.58 190.327 131.513 190.18C131.447 190.027 131.413 189.863 131.413 189.69C131.413 189.517 131.447 189.353 131.513 189.2C131.58 189.04 131.67 188.903 131.783 188.79C131.897 188.67 132.027 188.577 132.173 188.51C132.327 188.443 132.49 188.41 132.663 188.41C132.837 188.41 133 188.443 133.153 188.51C133.313 188.577 133.45 188.67 133.563 188.79C133.683 188.903 133.777 189.04 133.843 189.2C133.917 189.353 133.953 189.517 133.953 189.69ZM140.768 192.71C141.508 192.71 142.175 192.833 142.768 193.08C143.361 193.327 143.868 193.677 144.288 194.13C144.708 194.583 145.028 195.133 145.248 195.78C145.475 196.42 145.588 197.137 145.588 197.93C145.588 198.73 145.475 199.45 145.248 200.09C145.028 200.73 144.708 201.277 144.288 201.73C143.868 202.183 143.361 202.533 142.768 202.78C142.175 203.02 141.508 203.14 140.768 203.14C140.021 203.14 139.348 203.02 138.748 202.78C138.155 202.533 137.648 202.183 137.228 201.73C136.808 201.277 136.485 200.73 136.258 200.09C136.038 199.45 135.928 198.73 135.928 197.93C135.928 197.137 136.038 196.42 136.258 195.78C136.485 195.133 136.808 194.583 137.228 194.13C137.648 193.677 138.155 193.327 138.748 193.08C139.348 192.833 140.021 192.71 140.768 192.71ZM140.768 201.75C141.768 201.75 142.515 201.417 143.008 200.75C143.501 200.077 143.748 199.14 143.748 197.94C143.748 196.733 143.501 195.793 143.008 195.12C142.515 194.447 141.768 194.11 140.768 194.11C140.261 194.11 139.818 194.197 139.438 194.37C139.065 194.543 138.751 194.793 138.498 195.12C138.251 195.447 138.065 195.85 137.938 196.33C137.818 196.803 137.758 197.34 137.758 197.94C137.758 199.14 138.005 200.077 138.498 200.75C138.998 201.417 139.755 201.75 140.768 201.75ZM149.526 194.34C149.746 194.093 149.979 193.87 150.226 193.67C150.472 193.47 150.732 193.3 151.006 193.16C151.286 193.013 151.579 192.903 151.886 192.83C152.199 192.75 152.536 192.71 152.896 192.71C153.449 192.71 153.936 192.803 154.356 192.99C154.782 193.17 155.136 193.43 155.416 193.77C155.702 194.103 155.919 194.507 156.066 194.98C156.212 195.453 156.286 195.977 156.286 196.55V203H154.496V196.55C154.496 195.783 154.319 195.19 153.966 194.77C153.619 194.343 153.089 194.13 152.376 194.13C151.849 194.13 151.356 194.257 150.896 194.51C150.442 194.763 150.022 195.107 149.636 195.54V203H147.846V192.87H148.916C149.169 192.87 149.326 192.993 149.386 193.24L149.526 194.34ZM164.898 194.54C164.818 194.687 164.695 194.76 164.528 194.76C164.428 194.76 164.315 194.723 164.188 194.65C164.061 194.577 163.905 194.497 163.718 194.41C163.538 194.317 163.321 194.233 163.068 194.16C162.815 194.08 162.515 194.04 162.168 194.04C161.868 194.04 161.598 194.08 161.358 194.16C161.118 194.233 160.911 194.337 160.738 194.47C160.571 194.603 160.441 194.76 160.348 194.94C160.261 195.113 160.218 195.303 160.218 195.51C160.218 195.77 160.291 195.987 160.438 196.16C160.591 196.333 160.791 196.483 161.038 196.61C161.285 196.737 161.565 196.85 161.878 196.95C162.191 197.043 162.511 197.147 162.838 197.26C163.171 197.367 163.495 197.487 163.808 197.62C164.121 197.753 164.401 197.92 164.648 198.12C164.895 198.32 165.091 198.567 165.238 198.86C165.391 199.147 165.468 199.493 165.468 199.9C165.468 200.367 165.385 200.8 165.218 201.2C165.051 201.593 164.805 201.937 164.478 202.23C164.151 202.517 163.751 202.743 163.278 202.91C162.805 203.077 162.258 203.16 161.638 203.16C160.931 203.16 160.291 203.047 159.718 202.82C159.145 202.587 158.658 202.29 158.258 201.93L158.678 201.25C158.731 201.163 158.795 201.097 158.868 201.05C158.941 201.003 159.035 200.98 159.148 200.98C159.268 200.98 159.395 201.027 159.528 201.12C159.661 201.213 159.821 201.317 160.008 201.43C160.201 201.543 160.435 201.647 160.708 201.74C160.981 201.833 161.321 201.88 161.728 201.88C162.075 201.88 162.378 201.837 162.638 201.75C162.898 201.657 163.115 201.533 163.288 201.38C163.461 201.227 163.588 201.05 163.668 200.85C163.755 200.65 163.798 200.437 163.798 200.21C163.798 199.93 163.721 199.7 163.568 199.52C163.421 199.333 163.225 199.177 162.978 199.05C162.731 198.917 162.448 198.803 162.128 198.71C161.815 198.61 161.491 198.507 161.158 198.4C160.831 198.293 160.508 198.173 160.188 198.04C159.875 197.9 159.595 197.727 159.348 197.52C159.101 197.313 158.901 197.06 158.748 196.76C158.601 196.453 158.528 196.083 158.528 195.65C158.528 195.263 158.608 194.893 158.768 194.54C158.928 194.18 159.161 193.867 159.468 193.6C159.775 193.327 160.151 193.11 160.598 192.95C161.045 192.79 161.555 192.71 162.128 192.71C162.795 192.71 163.391 192.817 163.918 193.03C164.451 193.237 164.911 193.523 165.298 193.89L164.898 194.54Z" fill="#D4D4D4"/>
<defs>
<filter id="filter0_d_1_8157" x="76" y="0" width="108" height="108" filterUnits="userSpaceOnUse" color-interpolation-filters="sRGB">
<feFlood flood-opacity="0" result="BackgroundImageFix"/>
<feColorMatrix in="SourceAlpha" type="matrix" values="0 0 0 0 0 0 0 0 0 0 0 0 0 0 0 0 0 0 127 0" result="hardAlpha"/>
<feOffset dy="4"/>
<feGaussianBlur stdDeviation="6"/>
<feComposite in2="hardAlpha" operator="out"/>
<feColorMatrix type="matrix" values="0 0 0 0 0 0 0 0 0 0 0 0 0 0 0 0 0 0 1 0"/>
<feBlend mode="normal" in2="BackgroundImageFix" result="effect1_dropShadow_1_8157"/>
<feBlend mode="normal" in="SourceGraphic" in2="effect1_dropShadow_1_8157" result="shape"/>
</filter>
<filter id="filter1_dd_1_8157" x="91" y="9" width="78" height="82" filterUnits="userSpaceOnUse" color-interpolation-filters="sRGB">
<feFlood flood-opacity="0" result="BackgroundImageFix"/>
<feColorMatrix in="SourceAlpha" type="matrix" values="0 0 0 0 0 0 0 0 0 0 0 0 0 0 0 0 0 0 127 0" result="hardAlpha"/>
<feOffset dy="2"/>
<feGaussianBlur stdDeviation="2"/>
<feComposite in2="hardAlpha" operator="out"/>
<feColorMatrix type="matrix" values="0 0 0 0 0 0 0 0 0 0 0 0 0 0 0 0 0 0 1 0"/>
<feBlend mode="normal" in2="BackgroundImageFix" result="effect1_dropShadow_1_8157"/>
<feColorMatrix in="SourceAlpha" type="matrix" values="0 0 0 0 0 0 0 0 0 0 0 0 0 0 0 0 0 0 127 0" result="hardAlpha"/>
<feOffset dy="-2"/>
<feGaussianBlur stdDeviation="2"/>
<feComposite in2="hardAlpha" operator="out"/>
<feColorMatrix type="matrix" values="0 0 0 0 0 0 0 0 0 0 0 0 0 0 0 0 0 0 1 0"/>
<feBlend mode="normal" in2="effect1_dropShadow_1_8157" result="effect2_dropShadow_1_8157"/>
<feBlend mode="normal" in="SourceGraphic" in2="effect2_dropShadow_1_8157" result="shape"/>
</filter>
<linearGradient id="paint0_linear_1_8157" x1="95.3012" y1="9.07865" x2="191.835" y2="81.9417" gradientUnits="userSpaceOnUse">
<stop stop-color="#DB2777"/>
<stop offset="1" stop-color="#F97316"/>
</linearGradient>
<clipPath id="clip0_1_8157">
<rect width="32" height="32" fill="white" transform="translate(114 34)"/>
</clipPath>
</defs>
</svg>
