<svg width="260" height="272" viewBox="0 0 260 272" fill="none" xmlns="http://www.w3.org/2000/svg">
<rect y="48" width="260" height="224" rx="16" fill="#262626"/>
<g filter="url(#filter0_d_1_8148)">
<circle cx="130" cy="50" r="42" fill="#262626"/>
</g>
<g filter="url(#filter1_dd_1_8148)">
<circle cx="130" cy="50" r="35" fill="#262626"/>
</g>
<path d="M129.009 40.9142C126.422 40.0366 119.203 38.3376 117.399 40.107C117.152 40.3493 117.011 40.6772 117.009 41.0198V57.5801C117.009 57.809 117.07 58.0339 117.187 58.2321C117.304 58.4303 117.473 58.5949 117.675 58.7093C117.878 58.8238 118.108 58.884 118.342 58.884C118.576 58.884 118.806 58.8238 119.009 58.7093C120.421 58.3312 127.362 59.7186 129.009 60.6653V40.9142Z" fill="url(#paint0_linear_1_8148)"/>
<path d="M143.285 40.107C141.479 38.3389 134.262 40.0366 131.675 40.9142V60.6666C133.321 59.7199 140.257 58.3338 141.675 58.7106C141.878 58.8251 142.108 58.8854 142.342 58.8853C142.577 58.8853 142.807 58.8249 143.009 58.7103C143.212 58.5957 143.38 58.4309 143.497 58.2325C143.614 58.0341 143.676 57.8091 143.675 57.5801V41.0198C143.673 40.6772 143.533 40.3493 143.285 40.107Z" fill="url(#paint1_linear_1_8148)"/>
<path d="M71.217 139.48C71.817 139.48 72.321 139.408 72.729 139.264C73.137 139.12 73.461 138.928 73.701 138.688C73.949 138.448 74.125 138.168 74.229 137.848C74.341 137.528 74.397 137.188 74.397 136.828C74.397 136.452 74.337 136.116 74.217 135.82C74.097 135.516 73.909 135.26 73.653 135.052C73.397 134.836 73.065 134.672 72.657 134.56C72.257 134.448 71.773 134.392 71.205 134.392H67.953V139.48H71.217ZM67.953 127.144V132.16H70.521C71.625 132.16 72.457 131.96 73.017 131.56C73.585 131.16 73.869 130.524 73.869 129.652C73.869 128.748 73.613 128.104 73.101 127.72C72.589 127.336 71.789 127.144 70.701 127.144H67.953ZM70.701 124.648C71.837 124.648 72.809 124.756 73.617 124.972C74.425 125.188 75.085 125.496 75.597 125.896C76.117 126.296 76.497 126.78 76.737 127.348C76.977 127.916 77.097 128.556 77.097 129.268C77.097 129.676 77.037 130.068 76.917 130.444C76.797 130.812 76.609 131.16 76.353 131.488C76.105 131.808 75.785 132.1 75.393 132.364C75.009 132.628 74.549 132.852 74.013 133.036C76.397 133.572 77.589 134.86 77.589 136.9C77.589 137.636 77.449 138.316 77.169 138.94C76.889 139.564 76.481 140.104 75.945 140.56C75.409 141.008 74.749 141.36 73.965 141.616C73.181 141.872 72.285 142 71.277 142H64.725V124.648H70.701ZM82.8429 124.168V142H79.8789V124.168H82.8429ZM91.244 129.496C92.156 129.496 92.984 129.644 93.728 129.94C94.48 130.236 95.12 130.656 95.648 131.2C96.184 131.744 96.596 132.408 96.884 133.192C97.172 133.976 97.316 134.852 97.316 135.82C97.316 136.796 97.172 137.676 96.884 138.46C96.596 139.244 96.184 139.912 95.648 140.464C95.12 141.016 94.48 141.44 93.728 141.736C92.984 142.032 92.156 142.18 91.244 142.18C90.324 142.18 89.488 142.032 88.736 141.736C87.984 141.44 87.34 141.016 86.804 140.464C86.276 139.912 85.864 139.244 85.568 138.46C85.28 137.676 85.136 136.796 85.136 135.82C85.136 134.852 85.28 133.976 85.568 133.192C85.864 132.408 86.276 131.744 86.804 131.2C87.34 130.656 87.984 130.236 88.736 129.94C89.488 129.644 90.324 129.496 91.244 129.496ZM91.244 139.9C92.268 139.9 93.024 139.556 93.512 138.868C94.008 138.18 94.256 137.172 94.256 135.844C94.256 134.516 94.008 133.504 93.512 132.808C93.024 132.112 92.268 131.764 91.244 131.764C90.204 131.764 89.432 132.116 88.928 132.82C88.432 133.516 88.184 134.524 88.184 135.844C88.184 137.164 88.432 138.172 88.928 138.868C89.432 139.556 90.204 139.9 91.244 139.9ZM103.984 135.544C104.352 135.544 104.672 135.496 104.944 135.4C105.216 135.296 105.44 135.156 105.616 134.98C105.8 134.804 105.936 134.592 106.024 134.344C106.12 134.096 106.168 133.824 106.168 133.528C106.168 132.92 105.984 132.44 105.616 132.088C105.256 131.728 104.712 131.548 103.984 131.548C103.256 131.548 102.708 131.728 102.34 132.088C101.98 132.44 101.8 132.92 101.8 133.528C101.8 133.816 101.844 134.084 101.932 134.332C102.028 134.58 102.164 134.796 102.34 134.98C102.524 135.156 102.752 135.296 103.024 135.4C103.304 135.496 103.624 135.544 103.984 135.544ZM107.332 142.552C107.332 142.312 107.26 142.116 107.116 141.964C106.972 141.812 106.776 141.696 106.528 141.616C106.28 141.528 105.988 141.464 105.652 141.424C105.324 141.384 104.972 141.356 104.596 141.34C104.228 141.316 103.844 141.296 103.444 141.28C103.052 141.264 102.668 141.232 102.292 141.184C101.964 141.368 101.696 141.584 101.488 141.832C101.288 142.08 101.188 142.368 101.188 142.696C101.188 142.912 101.24 143.112 101.344 143.296C101.456 143.488 101.628 143.652 101.86 143.788C102.1 143.924 102.408 144.028 102.784 144.1C103.16 144.18 103.62 144.22 104.164 144.22C104.716 144.22 105.192 144.176 105.592 144.088C105.992 144.008 106.32 143.892 106.576 143.74C106.84 143.596 107.032 143.42 107.152 143.212C107.272 143.012 107.332 142.792 107.332 142.552ZM110.284 130.108V131.212C110.284 131.564 110.072 131.78 109.648 131.86L108.544 132.064C108.712 132.488 108.796 132.952 108.796 133.456C108.796 134.064 108.672 134.616 108.424 135.112C108.184 135.6 107.848 136.016 107.416 136.36C106.984 136.704 106.472 136.972 105.88 137.164C105.296 137.348 104.664 137.44 103.984 137.44C103.744 137.44 103.512 137.428 103.288 137.404C103.064 137.38 102.844 137.348 102.628 137.308C102.244 137.54 102.052 137.8 102.052 138.088C102.052 138.336 102.164 138.52 102.388 138.64C102.62 138.752 102.924 138.832 103.3 138.88C103.676 138.928 104.104 138.96 104.584 138.976C105.064 138.984 105.556 139.008 106.06 139.048C106.564 139.088 107.056 139.16 107.536 139.264C108.016 139.36 108.444 139.516 108.82 139.732C109.196 139.948 109.496 140.244 109.72 140.62C109.952 140.988 110.068 141.464 110.068 142.048C110.068 142.592 109.932 143.12 109.66 143.632C109.396 144.144 109.008 144.6 108.496 145C107.992 145.4 107.368 145.72 106.624 145.96C105.888 146.208 105.048 146.332 104.104 146.332C103.176 146.332 102.368 146.24 101.68 146.056C100.992 145.88 100.42 145.64 99.9635 145.336C99.5075 145.04 99.1675 144.696 98.9435 144.304C98.7195 143.912 98.6075 143.504 98.6075 143.08C98.6075 142.504 98.7795 142.024 99.1235 141.64C99.4755 141.248 99.9555 140.936 100.564 140.704C100.236 140.536 99.9755 140.312 99.7835 140.032C99.5915 139.752 99.4955 139.384 99.4955 138.928C99.4955 138.744 99.5275 138.556 99.5915 138.364C99.6635 138.164 99.7635 137.968 99.8915 137.776C100.028 137.584 100.196 137.404 100.396 137.236C100.596 137.06 100.832 136.904 101.104 136.768C100.48 136.432 99.9875 135.984 99.6275 135.424C99.2755 134.864 99.0995 134.208 99.0995 133.456C99.0995 132.848 99.2195 132.3 99.4595 131.812C99.7075 131.316 100.048 130.896 100.48 130.552C100.92 130.2 101.436 129.932 102.028 129.748C102.628 129.564 103.28 129.472 103.984 129.472C104.512 129.472 105.008 129.528 105.472 129.64C105.936 129.744 106.36 129.9 106.744 130.108H110.284ZM141.391 124.648L136.003 142H133.087L129.295 130.144C129.191 129.856 129.095 129.504 129.007 129.088C128.959 129.288 128.911 129.476 128.863 129.652C128.815 129.828 128.763 129.992 128.707 130.144L124.879 142H121.951L116.575 124.648H119.275C119.555 124.648 119.787 124.716 119.971 124.852C120.163 124.98 120.291 125.156 120.355 125.38L123.307 135.76C123.371 136.016 123.431 136.296 123.487 136.6C123.551 136.896 123.615 137.208 123.679 137.536C123.743 137.2 123.811 136.884 123.883 136.588C123.963 136.292 124.047 136.016 124.135 135.76L127.543 125.38C127.607 125.196 127.731 125.028 127.915 124.876C128.107 124.724 128.339 124.648 128.611 124.648H129.559C129.839 124.648 130.067 124.716 130.243 124.852C130.419 124.988 130.551 125.164 130.639 125.38L134.035 135.76C134.203 136.256 134.355 136.828 134.491 137.476C134.595 136.844 134.711 136.272 134.839 135.76L137.791 125.38C137.839 125.18 137.959 125.008 138.151 124.864C138.351 124.72 138.587 124.648 138.859 124.648H141.391ZM144.748 131.824C145.132 131.088 145.588 130.512 146.116 130.096C146.644 129.672 147.268 129.46 147.988 129.46C148.556 129.46 149.012 129.584 149.356 129.832L149.164 132.052C149.124 132.196 149.064 132.3 148.984 132.364C148.912 132.42 148.812 132.448 148.684 132.448C148.564 132.448 148.384 132.428 148.144 132.388C147.912 132.348 147.684 132.328 147.46 132.328C147.132 132.328 146.84 132.376 146.584 132.472C146.328 132.568 146.096 132.708 145.888 132.892C145.688 133.068 145.508 133.284 145.348 133.54C145.196 133.796 145.052 134.088 144.916 134.416V142H141.952V129.688H143.692C143.996 129.688 144.208 129.744 144.328 129.856C144.448 129.96 144.528 130.152 144.568 130.432L144.748 131.824ZM153.977 129.688V142H151.001V129.688H153.977ZM154.385 126.1C154.385 126.356 154.333 126.596 154.229 126.82C154.125 127.044 153.985 127.24 153.809 127.408C153.641 127.576 153.441 127.712 153.209 127.816C152.977 127.912 152.729 127.96 152.465 127.96C152.209 127.96 151.965 127.912 151.733 127.816C151.509 127.712 151.313 127.576 151.145 127.408C150.977 127.24 150.841 127.044 150.737 126.82C150.641 126.596 150.593 126.356 150.593 126.1C150.593 125.836 150.641 125.588 150.737 125.356C150.841 125.124 150.977 124.924 151.145 124.756C151.313 124.588 151.509 124.456 151.733 124.36C151.965 124.256 152.209 124.204 152.465 124.204C152.729 124.204 152.977 124.256 153.209 124.36C153.441 124.456 153.641 124.588 153.809 124.756C153.985 124.924 154.125 125.124 154.229 125.356C154.333 125.588 154.385 125.836 154.385 126.1ZM169.419 142H166.455V131.908H160.743V138.58C160.743 138.964 160.835 139.264 161.019 139.48C161.211 139.696 161.471 139.804 161.799 139.804C161.983 139.804 162.135 139.784 162.255 139.744C162.383 139.696 162.491 139.648 162.579 139.6C162.675 139.552 162.759 139.508 162.831 139.468C162.903 139.42 162.975 139.396 163.047 139.396C163.135 139.396 163.207 139.42 163.263 139.468C163.319 139.508 163.379 139.572 163.443 139.66L164.331 141.1C163.899 141.46 163.403 141.732 162.843 141.916C162.283 142.1 161.703 142.192 161.103 142.192C160.031 142.192 159.207 141.892 158.631 141.292C158.063 140.684 157.779 139.848 157.779 138.784V131.908H156.519C156.359 131.908 156.223 131.856 156.111 131.752C155.999 131.648 155.943 131.492 155.943 131.284V130.108L157.923 129.772L158.547 126.424C158.587 126.264 158.663 126.14 158.775 126.052C158.887 125.964 159.031 125.92 159.207 125.92H160.743V129.796H169.419V142ZM169.935 126.052C169.935 126.308 169.883 126.552 169.779 126.784C169.675 127.008 169.535 127.204 169.359 127.372C169.191 127.54 168.987 127.676 168.747 127.78C168.515 127.876 168.267 127.924 168.003 127.924C167.747 127.924 167.507 127.876 167.283 127.78C167.059 127.676 166.863 127.54 166.695 127.372C166.527 127.204 166.391 127.008 166.287 126.784C166.191 126.552 166.143 126.308 166.143 126.052C166.143 125.788 166.191 125.544 166.287 125.32C166.391 125.088 166.527 124.888 166.695 124.72C166.863 124.544 167.059 124.408 167.283 124.312C167.507 124.208 167.747 124.156 168.003 124.156C168.267 124.156 168.515 124.208 168.747 124.312C168.987 124.408 169.191 124.544 169.359 124.72C169.535 124.888 169.675 125.088 169.779 125.32C169.883 125.544 169.935 125.788 169.935 126.052ZM175.216 131.2C175.464 130.952 175.724 130.724 175.996 130.516C176.276 130.3 176.568 130.12 176.872 129.976C177.184 129.824 177.516 129.708 177.868 129.628C178.22 129.54 178.604 129.496 179.02 129.496C179.692 129.496 180.288 129.612 180.808 129.844C181.328 130.068 181.76 130.388 182.104 130.804C182.456 131.212 182.72 131.704 182.896 132.28C183.08 132.848 183.172 133.476 183.172 134.164V142H180.208V134.164C180.208 133.412 180.036 132.832 179.692 132.424C179.348 132.008 178.824 131.8 178.12 131.8C177.608 131.8 177.128 131.916 176.68 132.148C176.232 132.38 175.808 132.696 175.408 133.096V142H172.444V129.688H174.256C174.64 129.688 174.892 129.868 175.012 130.228L175.216 131.2ZM190.491 135.544C190.859 135.544 191.179 135.496 191.451 135.4C191.723 135.296 191.947 135.156 192.123 134.98C192.307 134.804 192.443 134.592 192.531 134.344C192.627 134.096 192.675 133.824 192.675 133.528C192.675 132.92 192.491 132.44 192.123 132.088C191.763 131.728 191.219 131.548 190.491 131.548C189.763 131.548 189.215 131.728 188.847 132.088C188.487 132.44 188.307 132.92 188.307 133.528C188.307 133.816 188.351 134.084 188.439 134.332C188.535 134.58 188.671 134.796 188.847 134.98C189.031 135.156 189.259 135.296 189.531 135.4C189.811 135.496 190.131 135.544 190.491 135.544ZM193.839 142.552C193.839 142.312 193.767 142.116 193.623 141.964C193.479 141.812 193.283 141.696 193.035 141.616C192.787 141.528 192.495 141.464 192.159 141.424C191.831 141.384 191.479 141.356 191.103 141.34C190.735 141.316 190.351 141.296 189.951 141.28C189.559 141.264 189.175 141.232 188.799 141.184C188.471 141.368 188.203 141.584 187.995 141.832C187.795 142.08 187.695 142.368 187.695 142.696C187.695 142.912 187.747 143.112 187.851 143.296C187.963 143.488 188.135 143.652 188.367 143.788C188.607 143.924 188.915 144.028 189.291 144.1C189.667 144.18 190.127 144.22 190.671 144.22C191.223 144.22 191.699 144.176 192.099 144.088C192.499 144.008 192.827 143.892 193.083 143.74C193.347 143.596 193.539 143.42 193.659 143.212C193.779 143.012 193.839 142.792 193.839 142.552ZM196.791 130.108V131.212C196.791 131.564 196.579 131.78 196.155 131.86L195.051 132.064C195.219 132.488 195.303 132.952 195.303 133.456C195.303 134.064 195.179 134.616 194.931 135.112C194.691 135.6 194.355 136.016 193.923 136.36C193.491 136.704 192.979 136.972 192.387 137.164C191.803 137.348 191.171 137.44 190.491 137.44C190.251 137.44 190.019 137.428 189.795 137.404C189.571 137.38 189.351 137.348 189.135 137.308C188.751 137.54 188.559 137.8 188.559 138.088C188.559 138.336 188.671 138.52 188.895 138.64C189.127 138.752 189.431 138.832 189.807 138.88C190.183 138.928 190.611 138.96 191.091 138.976C191.571 138.984 192.063 139.008 192.567 139.048C193.071 139.088 193.563 139.16 194.043 139.264C194.523 139.36 194.951 139.516 195.327 139.732C195.703 139.948 196.003 140.244 196.227 140.62C196.459 140.988 196.575 141.464 196.575 142.048C196.575 142.592 196.439 143.12 196.167 143.632C195.903 144.144 195.515 144.6 195.003 145C194.499 145.4 193.875 145.72 193.131 145.96C192.395 146.208 191.555 146.332 190.611 146.332C189.683 146.332 188.875 146.24 188.187 146.056C187.499 145.88 186.927 145.64 186.471 145.336C186.015 145.04 185.675 144.696 185.451 144.304C185.227 143.912 185.115 143.504 185.115 143.08C185.115 142.504 185.287 142.024 185.631 141.64C185.983 141.248 186.463 140.936 187.071 140.704C186.743 140.536 186.483 140.312 186.291 140.032C186.099 139.752 186.003 139.384 186.003 138.928C186.003 138.744 186.035 138.556 186.099 138.364C186.171 138.164 186.271 137.968 186.399 137.776C186.535 137.584 186.703 137.404 186.903 137.236C187.103 137.06 187.339 136.904 187.611 136.768C186.987 136.432 186.495 135.984 186.135 135.424C185.783 134.864 185.607 134.208 185.607 133.456C185.607 132.848 185.727 132.3 185.967 131.812C186.215 131.316 186.555 130.896 186.987 130.552C187.427 130.2 187.943 129.932 188.535 129.748C189.135 129.564 189.787 129.472 190.491 129.472C191.019 129.472 191.515 129.528 191.979 129.64C192.443 129.744 192.867 129.9 193.251 130.108H196.791Z" fill="#FAFAFA"/>
<path d="M45.6595 176.04C45.7662 176.04 45.8595 176.083 45.9395 176.17L46.7095 177C46.1229 177.68 45.4095 178.21 44.5695 178.59C43.7362 178.97 42.7262 179.16 41.5395 179.16C40.5129 179.16 39.5795 178.983 38.7395 178.63C37.8995 178.27 37.1829 177.77 36.5895 177.13C35.9962 176.483 35.5362 175.71 35.2095 174.81C34.8829 173.91 34.7195 172.92 34.7195 171.84C34.7195 170.76 34.8895 169.77 35.2295 168.87C35.5695 167.97 36.0462 167.197 36.6595 166.55C37.2795 165.903 38.0195 165.403 38.8795 165.05C39.7395 164.69 40.6895 164.51 41.7295 164.51C42.7495 164.51 43.6495 164.673 44.4295 165C45.2095 165.327 45.8962 165.77 46.4895 166.33L45.8495 167.22C45.8095 167.287 45.7562 167.343 45.6895 167.39C45.6295 167.43 45.5462 167.45 45.4395 167.45C45.3195 167.45 45.1729 167.387 44.9995 167.26C44.8262 167.127 44.5995 166.98 44.3195 166.82C44.0395 166.66 43.6895 166.517 43.2695 166.39C42.8495 166.257 42.3329 166.19 41.7195 166.19C40.9795 166.19 40.3029 166.32 39.6895 166.58C39.0762 166.833 38.5462 167.203 38.0995 167.69C37.6595 168.177 37.3162 168.77 37.0695 169.47C36.8229 170.17 36.6995 170.96 36.6995 171.84C36.6995 172.733 36.8262 173.53 37.0795 174.23C37.3395 174.93 37.6895 175.523 38.1295 176.01C38.5762 176.49 39.0995 176.857 39.6995 177.11C40.3062 177.363 40.9595 177.49 41.6595 177.49C42.0862 177.49 42.4695 177.467 42.8095 177.42C43.1562 177.367 43.4729 177.287 43.7595 177.18C44.0529 177.073 44.3229 176.94 44.5695 176.78C44.8229 176.613 45.0729 176.417 45.3195 176.19C45.4329 176.09 45.5462 176.04 45.6595 176.04ZM52.6136 168.71C53.3536 168.71 54.0203 168.833 54.6136 169.08C55.2069 169.327 55.7136 169.677 56.1336 170.13C56.5536 170.583 56.8736 171.133 57.0936 171.78C57.3203 172.42 57.4336 173.137 57.4336 173.93C57.4336 174.73 57.3203 175.45 57.0936 176.09C56.8736 176.73 56.5536 177.277 56.1336 177.73C55.7136 178.183 55.2069 178.533 54.6136 178.78C54.0203 179.02 53.3536 179.14 52.6136 179.14C51.8669 179.14 51.1936 179.02 50.5936 178.78C50.0003 178.533 49.4936 178.183 49.0736 177.73C48.6536 177.277 48.3303 176.73 48.1036 176.09C47.8836 175.45 47.7736 174.73 47.7736 173.93C47.7736 173.137 47.8836 172.42 48.1036 171.78C48.3303 171.133 48.6536 170.583 49.0736 170.13C49.4936 169.677 50.0003 169.327 50.5936 169.08C51.1936 168.833 51.8669 168.71 52.6136 168.71ZM52.6136 177.75C53.6136 177.75 54.3603 177.417 54.8536 176.75C55.3469 176.077 55.5936 175.14 55.5936 173.94C55.5936 172.733 55.3469 171.793 54.8536 171.12C54.3603 170.447 53.6136 170.11 52.6136 170.11C52.1069 170.11 51.6636 170.197 51.2836 170.37C50.9103 170.543 50.5969 170.793 50.3436 171.12C50.0969 171.447 49.9103 171.85 49.7836 172.33C49.6636 172.803 49.6036 173.34 49.6036 173.94C49.6036 175.14 49.8503 176.077 50.3436 176.75C50.8436 177.417 51.6003 177.75 52.6136 177.75ZM65.1813 174.44C64.3613 174.467 63.6613 174.533 63.0813 174.64C62.5079 174.74 62.0379 174.873 61.6713 175.04C61.3113 175.207 61.0479 175.403 60.8813 175.63C60.7213 175.857 60.6413 176.11 60.6413 176.39C60.6413 176.657 60.6846 176.887 60.7713 177.08C60.8579 177.273 60.9746 177.433 61.1213 177.56C61.2746 177.68 61.4513 177.77 61.6513 177.83C61.8579 177.883 62.0779 177.91 62.3113 177.91C62.6246 177.91 62.9113 177.88 63.1713 177.82C63.4313 177.753 63.6746 177.66 63.9013 177.54C64.1346 177.42 64.3546 177.277 64.5613 177.11C64.7746 176.943 64.9813 176.753 65.1813 176.54V174.44ZM59.4313 170.3C59.9913 169.76 60.5946 169.357 61.2413 169.09C61.8879 168.823 62.6046 168.69 63.3913 168.69C63.9579 168.69 64.4613 168.783 64.9013 168.97C65.3413 169.157 65.7113 169.417 66.0113 169.75C66.3113 170.083 66.5379 170.487 66.6913 170.96C66.8446 171.433 66.9213 171.953 66.9213 172.52V179H66.1313C65.9579 179 65.8246 178.973 65.7313 178.92C65.6379 178.86 65.5646 178.747 65.5113 178.58L65.3113 177.62C65.0446 177.867 64.7846 178.087 64.5312 178.28C64.2779 178.467 64.0113 178.627 63.7313 178.76C63.4513 178.887 63.1513 178.983 62.8313 179.05C62.5179 179.123 62.1679 179.16 61.7813 179.16C61.3879 179.16 61.0179 179.107 60.6713 179C60.3246 178.887 60.0213 178.72 59.7613 178.5C59.5079 178.28 59.3046 178.003 59.1513 177.67C59.0046 177.33 58.9313 176.93 58.9313 176.47C58.9313 176.07 59.0413 175.687 59.2613 175.32C59.4813 174.947 59.8379 174.617 60.3313 174.33C60.8246 174.043 61.4679 173.81 62.2613 173.63C63.0546 173.443 64.0279 173.337 65.1813 173.31V172.52C65.1813 171.733 65.0113 171.14 64.6713 170.74C64.3313 170.333 63.8346 170.13 63.1813 170.13C62.7413 170.13 62.3713 170.187 62.0713 170.3C61.7779 170.407 61.5213 170.53 61.3013 170.67C61.0879 170.803 60.9013 170.927 60.7413 171.04C60.5879 171.147 60.4346 171.2 60.2813 171.2C60.1613 171.2 60.0579 171.17 59.9713 171.11C59.8846 171.043 59.8113 170.963 59.7512 170.87L59.4313 170.3ZM76.6827 170.67C76.6293 170.743 76.576 170.8 76.5227 170.84C76.4693 170.88 76.396 170.9 76.3027 170.9C76.2027 170.9 76.0927 170.86 75.9727 170.78C75.8527 170.693 75.7027 170.6 75.5227 170.5C75.3493 170.4 75.1327 170.31 74.8727 170.23C74.6193 170.143 74.306 170.1 73.9327 170.1C73.4327 170.1 72.9927 170.19 72.6127 170.37C72.2327 170.543 71.9127 170.797 71.6527 171.13C71.3993 171.463 71.206 171.867 71.0727 172.34C70.946 172.813 70.8827 173.343 70.8827 173.93C70.8827 174.543 70.9527 175.09 71.0927 175.57C71.2327 176.043 71.4293 176.443 71.6827 176.77C71.9427 177.09 72.2527 177.337 72.6127 177.51C72.9793 177.677 73.3893 177.76 73.8427 177.76C74.276 177.76 74.6327 177.71 74.9127 177.61C75.1927 177.503 75.4227 177.387 75.6027 177.26C75.7893 177.133 75.9427 177.02 76.0627 176.92C76.1893 176.813 76.3127 176.76 76.4327 176.76C76.5793 176.76 76.6927 176.817 76.7727 176.93L77.2727 177.58C77.0527 177.853 76.8027 178.087 76.5227 178.28C76.2427 178.473 75.9393 178.637 75.6127 178.77C75.2927 178.897 74.956 178.99 74.6027 179.05C74.2493 179.11 73.8893 179.14 73.5227 179.14C72.8893 179.14 72.2993 179.023 71.7527 178.79C71.2127 178.557 70.7427 178.22 70.3427 177.78C69.9427 177.333 69.6293 176.787 69.4027 176.14C69.176 175.493 69.0627 174.757 69.0627 173.93C69.0627 173.177 69.166 172.48 69.3727 171.84C69.586 171.2 69.8927 170.65 70.2927 170.19C70.6993 169.723 71.196 169.36 71.7827 169.1C72.376 168.84 73.056 168.71 73.8227 168.71C74.536 168.71 75.1627 168.827 75.7027 169.06C76.2493 169.287 76.7327 169.61 77.1527 170.03L76.6827 170.67ZM80.9734 170.22C81.4068 169.76 81.8868 169.393 82.4134 169.12C82.9401 168.847 83.5468 168.71 84.2334 168.71C84.7868 168.71 85.2734 168.803 85.6934 168.99C86.1201 169.17 86.4734 169.43 86.7534 169.77C87.0401 170.103 87.2568 170.507 87.4034 170.98C87.5501 171.453 87.6234 171.977 87.6234 172.55V179H85.8334V172.55C85.8334 171.783 85.6568 171.19 85.3034 170.77C84.9568 170.343 84.4268 170.13 83.7134 170.13C83.1868 170.13 82.6934 170.257 82.2334 170.51C81.7801 170.763 81.3601 171.107 80.9734 171.54V179H79.1834V164.27H80.9734V170.22ZM102.503 170.67C102.45 170.743 102.396 170.8 102.343 170.84C102.29 170.88 102.216 170.9 102.123 170.9C102.023 170.9 101.913 170.86 101.793 170.78C101.673 170.693 101.523 170.6 101.343 170.5C101.17 170.4 100.953 170.31 100.693 170.23C100.44 170.143 100.126 170.1 99.753 170.1C99.253 170.1 98.813 170.19 98.433 170.37C98.053 170.543 97.733 170.797 97.473 171.13C97.2196 171.463 97.0263 171.867 96.893 172.34C96.7663 172.813 96.703 173.343 96.703 173.93C96.703 174.543 96.773 175.09 96.913 175.57C97.053 176.043 97.2496 176.443 97.503 176.77C97.763 177.09 98.073 177.337 98.433 177.51C98.7996 177.677 99.2096 177.76 99.663 177.76C100.096 177.76 100.453 177.71 100.733 177.61C101.013 177.503 101.243 177.387 101.423 177.26C101.61 177.133 101.763 177.02 101.883 176.92C102.01 176.813 102.133 176.76 102.253 176.76C102.4 176.76 102.513 176.817 102.593 176.93L103.093 177.58C102.873 177.853 102.623 178.087 102.343 178.28C102.063 178.473 101.76 178.637 101.433 178.77C101.113 178.897 100.776 178.99 100.423 179.05C100.07 179.11 99.7096 179.14 99.343 179.14C98.7096 179.14 98.1196 179.023 97.573 178.79C97.033 178.557 96.563 178.22 96.163 177.78C95.763 177.333 95.4496 176.787 95.223 176.14C94.9963 175.493 94.883 174.757 94.883 173.93C94.883 173.177 94.9863 172.48 95.193 171.84C95.4063 171.2 95.713 170.65 96.113 170.19C96.5196 169.723 97.0163 169.36 97.603 169.1C98.1963 168.84 98.8763 168.71 99.643 168.71C100.356 168.71 100.983 168.827 101.523 169.06C102.07 169.287 102.553 169.61 102.973 170.03L102.503 170.67ZM110.494 174.44C109.674 174.467 108.974 174.533 108.394 174.64C107.82 174.74 107.35 174.873 106.984 175.04C106.624 175.207 106.36 175.403 106.194 175.63C106.034 175.857 105.954 176.11 105.954 176.39C105.954 176.657 105.997 176.887 106.084 177.08C106.17 177.273 106.287 177.433 106.434 177.56C106.587 177.68 106.764 177.77 106.964 177.83C107.17 177.883 107.39 177.91 107.624 177.91C107.937 177.91 108.224 177.88 108.484 177.82C108.744 177.753 108.987 177.66 109.214 177.54C109.447 177.42 109.667 177.277 109.874 177.11C110.087 176.943 110.294 176.753 110.494 176.54V174.44ZM104.744 170.3C105.304 169.76 105.907 169.357 106.554 169.09C107.2 168.823 107.917 168.69 108.704 168.69C109.27 168.69 109.774 168.783 110.214 168.97C110.654 169.157 111.024 169.417 111.324 169.75C111.624 170.083 111.85 170.487 112.004 170.96C112.157 171.433 112.234 171.953 112.234 172.52V179H111.444C111.27 179 111.137 178.973 111.044 178.92C110.95 178.86 110.877 178.747 110.824 178.58L110.624 177.62C110.357 177.867 110.097 178.087 109.844 178.28C109.59 178.467 109.324 178.627 109.044 178.76C108.764 178.887 108.464 178.983 108.144 179.05C107.83 179.123 107.48 179.16 107.094 179.16C106.7 179.16 106.33 179.107 105.984 179C105.637 178.887 105.334 178.72 105.074 178.5C104.82 178.28 104.617 178.003 104.464 177.67C104.317 177.33 104.244 176.93 104.244 176.47C104.244 176.07 104.354 175.687 104.574 175.32C104.794 174.947 105.15 174.617 105.644 174.33C106.137 174.043 106.78 173.81 107.574 173.63C108.367 173.443 109.34 173.337 110.494 173.31V172.52C110.494 171.733 110.324 171.14 109.984 170.74C109.644 170.333 109.147 170.13 108.494 170.13C108.054 170.13 107.684 170.187 107.384 170.3C107.09 170.407 106.834 170.53 106.614 170.67C106.4 170.803 106.214 170.927 106.054 171.04C105.9 171.147 105.747 171.2 105.594 171.2C105.474 171.2 105.37 171.17 105.284 171.11C105.197 171.043 105.124 170.963 105.064 170.87L104.744 170.3ZM116.625 170.34C116.845 170.093 117.078 169.87 117.325 169.67C117.572 169.47 117.832 169.3 118.105 169.16C118.385 169.013 118.678 168.903 118.985 168.83C119.298 168.75 119.635 168.71 119.995 168.71C120.548 168.71 121.035 168.803 121.455 168.99C121.882 169.17 122.235 169.43 122.515 169.77C122.802 170.103 123.018 170.507 123.165 170.98C123.312 171.453 123.385 171.977 123.385 172.55V179H121.595V172.55C121.595 171.783 121.418 171.19 121.065 170.77C120.718 170.343 120.188 170.13 119.475 170.13C118.948 170.13 118.455 170.257 117.995 170.51C117.542 170.763 117.122 171.107 116.735 171.54V179H114.945V168.87H116.015C116.268 168.87 116.425 168.993 116.485 169.24L116.625 170.34ZM144.775 168.87L141.495 179H140.085C139.911 179 139.791 178.887 139.725 178.66L137.485 171.79C137.431 171.637 137.388 171.483 137.355 171.33C137.321 171.17 137.288 171.013 137.255 170.86C137.221 171.013 137.188 171.17 137.155 171.33C137.121 171.483 137.078 171.64 137.025 171.8L134.745 178.66C134.685 178.887 134.551 179 134.345 179H133.005L129.725 168.87H131.125C131.265 168.87 131.381 168.907 131.475 168.98C131.575 169.053 131.641 169.14 131.675 169.24L133.615 175.76C133.728 176.24 133.818 176.693 133.885 177.12C133.945 176.9 134.005 176.677 134.065 176.45C134.131 176.223 134.201 175.993 134.275 175.76L136.415 169.2C136.448 169.1 136.505 169.017 136.585 168.95C136.671 168.883 136.775 168.85 136.895 168.85H137.675C137.808 168.85 137.918 168.883 138.005 168.95C138.091 169.017 138.151 169.1 138.185 169.2L140.275 175.76C140.348 175.993 140.415 176.223 140.475 176.45C140.535 176.677 140.591 176.9 140.645 177.12C140.678 176.9 140.718 176.68 140.765 176.46C140.818 176.233 140.875 176 140.935 175.76L142.915 169.24C142.948 169.133 143.011 169.047 143.105 168.98C143.198 168.907 143.308 168.87 143.435 168.87H144.775ZM148.198 170.9C148.518 170.207 148.911 169.667 149.378 169.28C149.844 168.887 150.414 168.69 151.088 168.69C151.301 168.69 151.504 168.713 151.698 168.76C151.898 168.807 152.074 168.88 152.228 168.98L152.098 170.31C152.058 170.477 151.958 170.56 151.798 170.56C151.704 170.56 151.568 170.54 151.388 170.5C151.208 170.46 151.004 170.44 150.778 170.44C150.458 170.44 150.171 170.487 149.918 170.58C149.671 170.673 149.448 170.813 149.248 171C149.054 171.18 148.878 171.407 148.718 171.68C148.564 171.947 148.424 172.253 148.298 172.6V179H146.508V168.87H147.528C147.721 168.87 147.854 168.907 147.928 168.98C148.001 169.053 148.051 169.18 148.078 169.36L148.198 170.9ZM155.673 168.87V179H153.893V168.87H155.673ZM156.053 165.69C156.053 165.863 156.016 166.027 155.943 166.18C155.876 166.327 155.783 166.46 155.663 166.58C155.549 166.693 155.413 166.783 155.253 166.85C155.099 166.917 154.936 166.95 154.763 166.95C154.589 166.95 154.426 166.917 154.273 166.85C154.126 166.783 153.996 166.693 153.883 166.58C153.769 166.46 153.679 166.327 153.613 166.18C153.546 166.027 153.513 165.863 153.513 165.69C153.513 165.517 153.546 165.353 153.613 165.2C153.679 165.04 153.769 164.903 153.883 164.79C153.996 164.67 154.126 164.577 154.273 164.51C154.426 164.443 154.589 164.41 154.763 164.41C154.936 164.41 155.099 164.443 155.253 164.51C155.413 164.577 155.549 164.67 155.663 164.79C155.783 164.903 155.876 165.04 155.943 165.2C156.016 165.353 156.053 165.517 156.053 165.69ZM161.708 179.16C160.908 179.16 160.291 178.937 159.858 178.49C159.431 178.043 159.218 177.4 159.218 176.56V170.36H157.998C157.891 170.36 157.801 170.33 157.728 170.27C157.654 170.203 157.618 170.103 157.618 169.97V169.26L159.278 169.05L159.688 165.92C159.708 165.82 159.751 165.74 159.818 165.68C159.891 165.613 159.984 165.58 160.098 165.58H160.998V169.07H163.928V170.36H160.998V176.44C160.998 176.867 161.101 177.183 161.308 177.39C161.514 177.597 161.781 177.7 162.108 177.7C162.294 177.7 162.454 177.677 162.588 177.63C162.728 177.577 162.848 177.52 162.948 177.46C163.048 177.4 163.131 177.347 163.198 177.3C163.271 177.247 163.334 177.22 163.388 177.22C163.481 177.22 163.564 177.277 163.638 177.39L164.158 178.24C163.851 178.527 163.481 178.753 163.048 178.92C162.614 179.08 162.168 179.16 161.708 179.16ZM172.487 172.83C172.487 172.417 172.427 172.04 172.307 171.7C172.194 171.353 172.024 171.057 171.797 170.81C171.577 170.557 171.307 170.363 170.987 170.23C170.667 170.09 170.304 170.02 169.897 170.02C169.044 170.02 168.367 170.27 167.867 170.77C167.374 171.263 167.067 171.95 166.947 172.83H172.487ZM173.927 177.58C173.707 177.847 173.444 178.08 173.137 178.28C172.83 178.473 172.5 178.633 172.147 178.76C171.8 178.887 171.44 178.98 171.067 179.04C170.694 179.107 170.324 179.14 169.957 179.14C169.257 179.14 168.61 179.023 168.017 178.79C167.43 178.55 166.92 178.203 166.487 177.75C166.06 177.29 165.727 176.723 165.487 176.05C165.247 175.377 165.127 174.603 165.127 173.73C165.127 173.023 165.234 172.363 165.447 171.75C165.667 171.137 165.98 170.607 166.387 170.16C166.794 169.707 167.29 169.353 167.877 169.1C168.464 168.84 169.124 168.71 169.857 168.71C170.464 168.71 171.024 168.813 171.537 169.02C172.057 169.22 172.504 169.513 172.877 169.9C173.257 170.28 173.554 170.753 173.767 171.32C173.98 171.88 174.087 172.52 174.087 173.24C174.087 173.52 174.057 173.707 173.997 173.8C173.937 173.893 173.824 173.94 173.657 173.94H166.887C166.907 174.58 166.994 175.137 167.147 175.61C167.307 176.083 167.527 176.48 167.807 176.8C168.087 177.113 168.42 177.35 168.807 177.51C169.194 177.663 169.627 177.74 170.107 177.74C170.554 177.74 170.937 177.69 171.257 177.59C171.584 177.483 171.864 177.37 172.097 177.25C172.33 177.13 172.524 177.02 172.677 176.92C172.837 176.813 172.974 176.76 173.087 176.76C173.234 176.76 173.347 176.817 173.427 176.93L173.927 177.58ZM183.18 176.56C183.507 177 183.864 177.31 184.25 177.49C184.644 177.67 185.074 177.76 185.54 177.76C186.494 177.76 187.224 177.423 187.73 176.75C188.237 176.077 188.49 175.073 188.49 173.74C188.49 172.5 188.264 171.59 187.81 171.01C187.364 170.423 186.724 170.13 185.89 170.13C185.31 170.13 184.804 170.263 184.37 170.53C183.944 170.797 183.547 171.173 183.18 171.66V176.56ZM183.18 170.33C183.607 169.837 184.087 169.443 184.62 169.15C185.16 168.857 185.78 168.71 186.48 168.71C187.074 168.71 187.607 168.823 188.08 169.05C188.56 169.277 188.967 169.607 189.3 170.04C189.634 170.467 189.887 170.987 190.06 171.6C190.24 172.213 190.33 172.903 190.33 173.67C190.33 174.49 190.23 175.237 190.03 175.91C189.83 176.583 189.54 177.16 189.16 177.64C188.787 178.113 188.33 178.483 187.79 178.75C187.25 179.01 186.644 179.14 185.97 179.14C185.304 179.14 184.74 179.017 184.28 178.77C183.827 178.517 183.43 178.16 183.09 177.7L183 178.62C182.947 178.873 182.794 179 182.54 179H181.39V164.27H183.18V170.33ZM194.422 164.27V179H192.642V164.27H194.422ZM201.578 168.71C202.318 168.71 202.985 168.833 203.578 169.08C204.172 169.327 204.678 169.677 205.098 170.13C205.518 170.583 205.838 171.133 206.058 171.78C206.285 172.42 206.398 173.137 206.398 173.93C206.398 174.73 206.285 175.45 206.058 176.09C205.838 176.73 205.518 177.277 205.098 177.73C204.678 178.183 204.172 178.533 203.578 178.78C202.985 179.02 202.318 179.14 201.578 179.14C200.832 179.14 200.158 179.02 199.558 178.78C198.965 178.533 198.458 178.183 198.038 177.73C197.618 177.277 197.295 176.73 197.068 176.09C196.848 175.45 196.738 174.73 196.738 173.93C196.738 173.137 196.848 172.42 197.068 171.78C197.295 171.133 197.618 170.583 198.038 170.13C198.458 169.677 198.965 169.327 199.558 169.08C200.158 168.833 200.832 168.71 201.578 168.71ZM201.578 177.75C202.578 177.75 203.325 177.417 203.818 176.75C204.312 176.077 204.558 175.14 204.558 173.94C204.558 172.733 204.312 171.793 203.818 171.12C203.325 170.447 202.578 170.11 201.578 170.11C201.072 170.11 200.628 170.197 200.248 170.37C199.875 170.543 199.562 170.793 199.308 171.12C199.062 171.447 198.875 171.85 198.748 172.33C198.628 172.803 198.568 173.34 198.568 173.94C198.568 175.14 198.815 176.077 199.308 176.75C199.808 177.417 200.565 177.75 201.578 177.75ZM212.128 174.05C212.488 174.05 212.804 174 213.078 173.9C213.351 173.8 213.581 173.66 213.768 173.48C213.954 173.3 214.094 173.087 214.188 172.84C214.281 172.587 214.328 172.31 214.328 172.01C214.328 171.39 214.138 170.897 213.758 170.53C213.384 170.163 212.841 169.98 212.128 169.98C211.408 169.98 210.858 170.163 210.478 170.53C210.104 170.897 209.918 171.39 209.918 172.01C209.918 172.31 209.964 172.587 210.058 172.84C210.158 173.087 210.301 173.3 210.488 173.48C210.674 173.66 210.904 173.8 211.178 173.9C211.451 174 211.768 174.05 212.128 174.05ZM215.338 179.55C215.338 179.303 215.268 179.103 215.128 178.95C214.988 178.797 214.798 178.677 214.558 178.59C214.324 178.503 214.051 178.443 213.738 178.41C213.424 178.37 213.091 178.34 212.738 178.32C212.391 178.3 212.038 178.28 211.678 178.26C211.318 178.24 210.971 178.207 210.638 178.16C210.264 178.333 209.958 178.553 209.718 178.82C209.484 179.08 209.368 179.387 209.368 179.74C209.368 179.967 209.424 180.177 209.538 180.37C209.658 180.57 209.838 180.74 210.078 180.88C210.318 181.027 210.618 181.14 210.978 181.22C211.344 181.307 211.774 181.35 212.268 181.35C212.748 181.35 213.178 181.307 213.558 181.22C213.938 181.133 214.258 181.01 214.518 180.85C214.784 180.69 214.988 180.5 215.128 180.28C215.268 180.06 215.338 179.817 215.338 179.55ZM217.148 169.27V169.93C217.148 170.15 217.008 170.29 216.728 170.35L215.578 170.5C215.804 170.94 215.918 171.427 215.918 171.96C215.918 172.453 215.821 172.903 215.628 173.31C215.441 173.71 215.181 174.053 214.848 174.34C214.514 174.627 214.114 174.847 213.648 175C213.181 175.153 212.674 175.23 212.128 175.23C211.654 175.23 211.208 175.173 210.788 175.06C210.574 175.193 210.411 175.337 210.298 175.49C210.184 175.637 210.127 175.787 210.127 175.94C210.127 176.18 210.224 176.363 210.418 176.49C210.618 176.61 210.878 176.697 211.198 176.75C211.518 176.803 211.881 176.837 212.288 176.85C212.701 176.863 213.121 176.887 213.548 176.92C213.981 176.947 214.401 176.997 214.808 177.07C215.221 177.143 215.588 177.263 215.908 177.43C216.228 177.597 216.484 177.827 216.678 178.12C216.878 178.413 216.978 178.793 216.978 179.26C216.978 179.693 216.868 180.113 216.648 180.52C216.434 180.927 216.124 181.287 215.718 181.6C215.311 181.92 214.811 182.173 214.218 182.36C213.631 182.553 212.968 182.65 212.228 182.65C211.488 182.65 210.841 182.577 210.288 182.43C209.734 182.283 209.274 182.087 208.908 181.84C208.541 181.593 208.264 181.307 208.078 180.98C207.898 180.66 207.808 180.323 207.808 179.97C207.808 179.47 207.964 179.047 208.278 178.7C208.591 178.353 209.021 178.077 209.568 177.87C209.268 177.737 209.028 177.56 208.848 177.34C208.674 177.113 208.588 176.81 208.588 176.43C208.588 176.283 208.614 176.133 208.668 175.98C208.721 175.82 208.801 175.663 208.908 175.51C209.021 175.35 209.158 175.2 209.318 175.06C209.478 174.92 209.664 174.797 209.878 174.69C209.378 174.41 208.988 174.04 208.708 173.58C208.428 173.113 208.288 172.573 208.288 171.96C208.288 171.467 208.381 171.02 208.568 170.62C208.761 170.213 209.028 169.87 209.368 169.59C209.708 169.303 210.111 169.083 210.578 168.93C211.051 168.777 211.568 168.7 212.128 168.7C212.568 168.7 212.978 168.75 213.358 168.85C213.738 168.943 214.084 169.083 214.398 169.27H217.148ZM224.888 170.54C224.808 170.687 224.685 170.76 224.518 170.76C224.418 170.76 224.305 170.723 224.178 170.65C224.051 170.577 223.895 170.497 223.708 170.41C223.528 170.317 223.311 170.233 223.058 170.16C222.805 170.08 222.505 170.04 222.158 170.04C221.858 170.04 221.588 170.08 221.348 170.16C221.108 170.233 220.901 170.337 220.728 170.47C220.561 170.603 220.431 170.76 220.338 170.94C220.251 171.113 220.208 171.303 220.208 171.51C220.208 171.77 220.281 171.987 220.428 172.16C220.581 172.333 220.781 172.483 221.028 172.61C221.275 172.737 221.555 172.85 221.868 172.95C222.181 173.043 222.501 173.147 222.828 173.26C223.161 173.367 223.485 173.487 223.798 173.62C224.111 173.753 224.391 173.92 224.638 174.12C224.885 174.32 225.081 174.567 225.228 174.86C225.381 175.147 225.458 175.493 225.458 175.9C225.458 176.367 225.375 176.8 225.208 177.2C225.041 177.593 224.795 177.937 224.468 178.23C224.141 178.517 223.741 178.743 223.268 178.91C222.795 179.077 222.248 179.16 221.628 179.16C220.921 179.16 220.281 179.047 219.708 178.82C219.135 178.587 218.648 178.29 218.248 177.93L218.668 177.25C218.721 177.163 218.785 177.097 218.858 177.05C218.931 177.003 219.025 176.98 219.138 176.98C219.258 176.98 219.385 177.027 219.518 177.12C219.651 177.213 219.811 177.317 219.998 177.43C220.191 177.543 220.425 177.647 220.698 177.74C220.971 177.833 221.311 177.88 221.718 177.88C222.065 177.88 222.368 177.837 222.628 177.75C222.888 177.657 223.105 177.533 223.278 177.38C223.451 177.227 223.578 177.05 223.658 176.85C223.745 176.65 223.788 176.437 223.788 176.21C223.788 175.93 223.711 175.7 223.558 175.52C223.411 175.333 223.215 175.177 222.968 175.05C222.721 174.917 222.438 174.803 222.118 174.71C221.805 174.61 221.481 174.507 221.148 174.4C220.821 174.293 220.498 174.173 220.178 174.04C219.865 173.9 219.585 173.727 219.338 173.52C219.091 173.313 218.891 173.06 218.738 172.76C218.591 172.453 218.518 172.083 218.518 171.65C218.518 171.263 218.598 170.893 218.758 170.54C218.918 170.18 219.151 169.867 219.458 169.6C219.765 169.327 220.141 169.11 220.588 168.95C221.035 168.79 221.545 168.71 222.118 168.71C222.785 168.71 223.381 168.817 223.908 169.03C224.441 169.237 224.901 169.523 225.288 169.89L224.888 170.54Z" fill="#D4D4D4"/>
<defs>
<filter id="filter0_d_1_8148" x="76" y="0" width="108" height="108" filterUnits="userSpaceOnUse" color-interpolation-filters="sRGB">
<feFlood flood-opacity="0" result="BackgroundImageFix"/>
<feColorMatrix in="SourceAlpha" type="matrix" values="0 0 0 0 0 0 0 0 0 0 0 0 0 0 0 0 0 0 127 0" result="hardAlpha"/>
<feOffset dy="4"/>
<feGaussianBlur stdDeviation="6"/>
<feComposite in2="hardAlpha" operator="out"/>
<feColorMatrix type="matrix" values="0 0 0 0 0 0 0 0 0 0 0 0 0 0 0 0 0 0 1 0"/>
<feBlend mode="normal" in2="BackgroundImageFix" result="effect1_dropShadow_1_8148"/>
<feBlend mode="normal" in="SourceGraphic" in2="effect1_dropShadow_1_8148" result="shape"/>
</filter>
<filter id="filter1_dd_1_8148" x="91" y="9" width="78" height="82" filterUnits="userSpaceOnUse" color-interpolation-filters="sRGB">
<feFlood flood-opacity="0" result="BackgroundImageFix"/>
<feColorMatrix in="SourceAlpha" type="matrix" values="0 0 0 0 0 0 0 0 0 0 0 0 0 0 0 0 0 0 127 0" result="hardAlpha"/>
<feOffset dy="2"/>
<feGaussianBlur stdDeviation="2"/>
<feComposite in2="hardAlpha" operator="out"/>
<feColorMatrix type="matrix" values="0 0 0 0 0 0 0 0 0 0 0 0 0 0 0 0 0 0 1 0"/>
<feBlend mode="normal" in2="BackgroundImageFix" result="effect1_dropShadow_1_8148"/>
<feColorMatrix in="SourceAlpha" type="matrix" values="0 0 0 0 0 0 0 0 0 0 0 0 0 0 0 0 0 0 127 0" result="hardAlpha"/>
<feOffset dy="-2"/>
<feGaussianBlur stdDeviation="2"/>
<feComposite in2="hardAlpha" operator="out"/>
<feColorMatrix type="matrix" values="0 0 0 0 0 0 0 0 0 0 0 0 0 0 0 0 0 0 1 0"/>
<feBlend mode="normal" in2="effect1_dropShadow_1_8148" result="effect2_dropShadow_1_8148"/>
<feBlend mode="normal" in="SourceGraphic" in2="effect2_dropShadow_1_8148" result="shape"/>
</filter>
<linearGradient id="paint0_linear_1_8148" x1="101.426" y1="22.5094" x2="168.59" y2="85.5186" gradientUnits="userSpaceOnUse">
<stop stop-color="#DB2777"/>
<stop offset="1" stop-color="#F97316"/>
</linearGradient>
<linearGradient id="paint1_linear_1_8148" x1="101.426" y1="22.5094" x2="168.59" y2="85.5186" gradientUnits="userSpaceOnUse">
<stop stop-color="#DB2777"/>
<stop offset="1" stop-color="#F97316"/>
</linearGradient>
</defs>
</svg>
