<svg width="24" height="25" viewBox="0 0 24 25" fill="none" xmlns="http://www.w3.org/2000/svg">
<circle cx="12" cy="12.3501" r="12" fill="#262626"/>
<path d="M12.0008 7.5907C13.5511 7.5907 13.7347 7.59651 14.3471 7.62443C14.7154 7.62894 15.0801 7.69656 15.4255 7.82434C15.676 7.92093 15.9034 8.0689 16.0932 8.25872C16.283 8.44854 16.431 8.676 16.5276 8.92646C16.6554 9.27184 16.723 9.63657 16.7275 10.0048C16.7552 10.6172 16.7612 10.8008 16.7612 12.3512C16.7612 13.9015 16.7554 14.0851 16.7275 14.6975C16.723 15.0658 16.6554 15.4305 16.5276 15.7759C16.431 16.0263 16.283 16.2538 16.0932 16.4436C15.9034 16.6334 15.676 16.7814 15.4255 16.878C15.0801 17.0058 14.7154 17.0734 14.3471 17.0779C13.735 17.1055 13.5514 17.1116 12.0008 17.1116C10.4502 17.1116 10.2666 17.1058 9.65443 17.0779C9.2862 17.0734 8.92146 17.0058 8.57609 16.878C8.32562 16.7814 8.09816 16.6334 7.90835 16.4436C7.71853 16.2538 7.57056 16.0263 7.47397 15.7759C7.34618 15.4305 7.27857 15.0658 7.27406 14.6975C7.24641 14.0851 7.24033 13.9015 7.24033 12.3512C7.24033 10.8008 7.24613 10.6172 7.27406 10.0048C7.27857 9.63657 7.34618 9.27184 7.47397 8.92646C7.57056 8.676 7.71853 8.44854 7.90835 8.25872C8.09816 8.0689 8.32562 7.92093 8.57609 7.82434C8.92146 7.69656 9.2862 7.62894 9.65443 7.62443C10.2669 7.59678 10.4505 7.5907 12.0008 7.5907ZM12.0008 6.54443C10.4248 6.54443 10.2262 6.55107 9.60687 6.57927C9.12495 6.58886 8.64814 6.68011 8.19673 6.84913C7.8095 6.99503 7.45876 7.22367 7.16899 7.51909C6.8733 7.80896 6.64447 8.1599 6.49848 8.54738C6.32945 8.99879 6.23821 9.4756 6.22862 9.95752C6.20097 10.5763 6.19434 10.7748 6.19434 12.3509C6.19434 13.9269 6.20097 14.1254 6.22917 14.7448C6.23876 15.2267 6.33001 15.7035 6.49904 16.1549C6.64486 16.5424 6.8735 16.8933 7.16899 17.1832C7.45892 17.4787 7.80985 17.7074 8.19729 17.8532C8.64869 18.0222 9.1255 18.1135 9.60742 18.123C10.2268 18.1507 10.4245 18.1579 12.0013 18.1579C13.5782 18.1579 13.7759 18.1513 14.3953 18.123C14.8772 18.1135 15.354 18.0222 15.8054 17.8532C16.191 17.7037 16.5412 17.4754 16.8335 17.1829C17.1258 16.8904 17.3539 16.5401 17.5031 16.1544C17.6721 15.703 17.7634 15.2262 17.773 14.7442C17.8006 14.1254 17.8072 13.9269 17.8072 12.3509C17.8072 10.7748 17.8006 10.5763 17.7724 9.95697C17.7628 9.47505 17.6716 8.99824 17.5025 8.54683C17.3567 8.1594 17.1281 7.80846 16.8326 7.51853C16.5427 7.22305 16.1917 6.99441 15.8043 6.84858C15.3529 6.67955 14.8761 6.5883 14.3942 6.57872C13.7753 6.55107 13.5768 6.54443 12.0008 6.54443Z" fill="#FAFAFA"/>
<path d="M12.0018 9.37036C11.412 9.37036 10.8355 9.54524 10.3452 9.87288C9.85485 10.2005 9.47268 10.6662 9.24699 11.211C9.02131 11.7559 8.96226 12.3554 9.07731 12.9338C9.19237 13.5122 9.47635 14.0435 9.89336 14.4605C10.3104 14.8775 10.8417 15.1615 11.4201 15.2766C11.9985 15.3916 12.598 15.3326 13.1428 15.1069C13.6877 14.8812 14.1534 14.499 14.481 14.0087C14.8086 13.5183 14.9835 12.9418 14.9835 12.3521C14.9835 11.5613 14.6694 10.8029 14.1102 10.2437C13.551 9.68451 12.7926 9.37036 12.0018 9.37036ZM12.0018 14.2876C11.619 14.2876 11.2448 14.1741 10.9265 13.9614C10.6082 13.7487 10.3601 13.4465 10.2136 13.0928C10.0671 12.7391 10.0288 12.35 10.1035 11.9745C10.1782 11.5991 10.3625 11.2542 10.6332 10.9835C10.9039 10.7128 11.2487 10.5285 11.6242 10.4538C11.9996 10.3791 12.3888 10.4175 12.7424 10.564C13.0961 10.7105 13.3984 10.9585 13.6111 11.2768C13.8237 11.5951 13.9373 11.9693 13.9373 12.3521C13.9373 12.8654 13.7333 13.3577 13.3704 13.7207C13.0074 14.0837 12.5151 14.2876 12.0018 14.2876Z" fill="#FAFAFA"/>
<path d="M15.1011 9.94872C15.4859 9.94872 15.7978 9.63677 15.7978 9.25195C15.7978 8.86713 15.4859 8.55518 15.1011 8.55518C14.7163 8.55518 14.4043 8.86713 14.4043 9.25195C14.4043 9.63677 14.7163 9.94872 15.1011 9.94872Z" fill="#FAFAFA"/>
</svg>
