<svg width="48" height="48" viewBox="0 0 48 48" fill="none" xmlns="http://www.w3.org/2000/svg">
<circle cx="24" cy="24" r="24" fill="url(#paint0_linear_1_8029)"/>
<circle cx="24.0001" cy="24.0001" r="21.4" fill="url(#paint1_linear_1_8029)" stroke="#FFF7ED" stroke-width="2"/>
<path d="M18.7535 25.28H27.5201L16.0395 42.24H16.0001L18.7535 25.28Z" fill="#FFF7ED"/>
<path d="M16.2016 15.04H21.4401L18.3586 29.44H13.1201L16.2016 15.04Z" fill="#FFF7ED"/>
<path d="M28.6401 8.95996H17.7984L16.1601 13.76H25.8079C27.4605 13.76 28.8001 15.0996 28.8001 16.7521C28.8001 18.3793 27.4998 19.7082 25.873 19.7436L21.4401 19.84L20.8001 24H28.6401C32.7933 24 36.1601 20.6331 36.1601 16.48C36.1601 12.3268 32.7933 8.95996 28.6401 8.95996Z" fill="#FFF7ED"/>
<path d="M19.2001 15.04H27.5201L26.2595 18.56H20.4607L19.2001 15.04Z" fill="#FFF7ED"/>
<defs>
<linearGradient id="paint0_linear_1_8029" x1="-28.0482" y1="-37.8537" x2="117.35" y2="71.2691" gradientUnits="userSpaceOnUse">
<stop stop-color="#DB2777"/>
<stop offset="1" stop-color="#F97316"/>
</linearGradient>
<linearGradient id="paint1_linear_1_8029" x1="-24.5782" y1="-33.73" x2="111.126" y2="68.1179" gradientUnits="userSpaceOnUse">
<stop stop-color="#DB2777"/>
<stop offset="1" stop-color="#F97316"/>
</linearGradient>
</defs>
</svg>
