<svg width="108" height="153" viewBox="0 0 108 153" fill="none" xmlns="http://www.w3.org/2000/svg">
<g filter="url(#filter0_d_1_8206)">
<circle cx="54" cy="50" r="42" fill="#262626"/>
</g>
<g filter="url(#filter1_dd_1_8206)">
<circle cx="54" cy="50" r="35" fill="#262626"/>
</g>
<g clip-path="url(#clip0_1_8206)">
<path d="M51 45C51.5523 45 52 44.5523 52 44C52 43.4477 51.5523 43 51 43C50.4477 43 50 43.4477 50 44C50 44.5523 50.4477 45 51 45Z" fill="#FAFAFA"/>
<path d="M45 40V52H57V40H45ZM55 50C55 50.55 54.55 51 54 51H48C47.45 51 47 50.55 47 50V48.63C47 47.41 47.6 46.35 48.52 45.69C48.19 45.21 48 44.62 48 44C48 42.35 49.35 41 51 41C52.65 41 54 42.35 54 44C54 44.62 53.81 45.21 53.48 45.69C54.4 46.35 55 47.41 55 48.63V50Z" fill="#FAFAFA"/>
<path d="M51.3725 47H50.6274C49.7299 47 49 47.7305 49 48.6279V49H53V48.6279C53 47.7304 52.2699 47 51.3725 47Z" fill="#FAFAFA"/>
<path d="M61 34H41C39.35 34 38 35.35 38 37V63C38 64.65 39.35 66 41 66H57.36C56.07 64.97 55.08 63.59 54.52 62H44C43.45 62 43 61.55 43 61C43 60.45 43.45 60 44 60H54.06C54.02 59.67 54 59.34 54 59C54 58.66 54.02 58.33 54.06 58H44C43.45 58 43 57.55 43 57C43 56.45 43.45 56 44 56H54.52C54.77 55.29 55.11 54.62 55.52 54H45C43.9 54 43 53.1 43 52V40C43 38.9 43.9 38 45 38H57C58.1 38 59 38.9 59 40V50.94C60.21 50.34 61.57 50 63 50C63.34 50 63.67 50.02 64 50.06V37C64 35.35 62.65 34 61 34Z" fill="#FAFAFA"/>
<path d="M63 52C59.14 52 56 55.14 56 59C56 62.86 59.14 66 63 66C66.86 66 70 62.86 70 59C70 55.14 66.86 52 63 52ZM65.71 58.44L63.18 60.97C62.99 61.16 62.73 61.27 62.47 61.27C62.2 61.27 61.95 61.16 61.76 60.97L60.29 59.5C59.9 59.11 59.9 58.48 60.29 58.09C60.68 57.7 61.32 57.7 61.71 58.09L62.47 58.85L64.29 57.03C64.68 56.64 65.32 56.64 65.71 57.03C66.1 57.42 66.1 58.05 65.71 58.44Z" fill="#FAFAFA"/>
</g>
<path d="M25.176 138.904C25.784 138.904 26.312 138.828 26.76 138.676C27.216 138.524 27.588 138.316 27.876 138.052C28.172 137.78 28.392 137.46 28.536 137.092C28.68 136.724 28.752 136.32 28.752 135.88C28.752 135 28.46 134.324 27.876 133.852C27.3 133.38 26.416 133.144 25.224 133.144H23.16V138.904H25.176ZM33.48 148H30.564C30.012 148 29.612 147.784 29.364 147.352L25.716 141.796C25.58 141.588 25.428 141.44 25.26 141.352C25.1 141.264 24.86 141.22 24.54 141.22H23.16V148H19.932V130.648H25.224C26.4 130.648 27.408 130.772 28.248 131.02C29.096 131.26 29.788 131.6 30.324 132.04C30.868 132.48 31.268 133.008 31.524 133.624C31.78 134.232 31.908 134.904 31.908 135.64C31.908 136.224 31.82 136.776 31.644 137.296C31.476 137.816 31.228 138.288 30.9 138.712C30.58 139.136 30.18 139.508 29.7 139.828C29.228 140.148 28.688 140.4 28.08 140.584C28.288 140.704 28.48 140.848 28.656 141.016C28.832 141.176 28.992 141.368 29.136 141.592L33.48 148ZM42.021 140.428C42.021 140.044 41.965 139.684 41.853 139.348C41.749 139.004 41.589 138.704 41.373 138.448C41.157 138.192 40.881 137.992 40.545 137.848C40.217 137.696 39.833 137.62 39.393 137.62C38.537 137.62 37.861 137.864 37.365 138.352C36.877 138.84 36.565 139.532 36.429 140.428H42.021ZM36.369 142.216C36.417 142.848 36.529 143.396 36.705 143.86C36.881 144.316 37.113 144.696 37.401 145C37.689 145.296 38.029 145.52 38.421 145.672C38.821 145.816 39.261 145.888 39.741 145.888C40.221 145.888 40.633 145.832 40.977 145.72C41.329 145.608 41.633 145.484 41.889 145.348C42.153 145.212 42.381 145.088 42.573 144.976C42.773 144.864 42.965 144.808 43.149 144.808C43.397 144.808 43.581 144.9 43.701 145.084L44.553 146.164C44.225 146.548 43.857 146.872 43.449 147.136C43.041 147.392 42.613 147.6 42.165 147.76C41.725 147.912 41.273 148.02 40.809 148.084C40.353 148.148 39.909 148.18 39.477 148.18C38.621 148.18 37.825 148.04 37.089 147.76C36.353 147.472 35.713 147.052 35.169 146.5C34.625 145.94 34.197 145.252 33.885 144.436C33.573 143.612 33.417 142.66 33.417 141.58C33.417 140.74 33.553 139.952 33.825 139.216C34.097 138.472 34.485 137.828 34.989 137.284C35.501 136.732 36.121 136.296 36.849 135.976C37.585 135.656 38.413 135.496 39.333 135.496C40.109 135.496 40.825 135.62 41.481 135.868C42.137 136.116 42.701 136.48 43.173 136.96C43.645 137.432 44.013 138.016 44.277 138.712C44.549 139.4 44.685 140.188 44.685 141.076C44.685 141.524 44.637 141.828 44.541 141.988C44.445 142.14 44.261 142.216 43.989 142.216H36.369ZM51.4093 141.544C51.7773 141.544 52.0973 141.496 52.3693 141.4C52.6413 141.296 52.8653 141.156 53.0413 140.98C53.2253 140.804 53.3613 140.592 53.4493 140.344C53.5453 140.096 53.5933 139.824 53.5933 139.528C53.5933 138.92 53.4093 138.44 53.0413 138.088C52.6813 137.728 52.1373 137.548 51.4093 137.548C50.6813 137.548 50.1333 137.728 49.7653 138.088C49.4053 138.44 49.2253 138.92 49.2253 139.528C49.2253 139.816 49.2693 140.084 49.3573 140.332C49.4533 140.58 49.5893 140.796 49.7653 140.98C49.9493 141.156 50.1773 141.296 50.4493 141.4C50.7293 141.496 51.0493 141.544 51.4093 141.544ZM54.7573 148.552C54.7573 148.312 54.6853 148.116 54.5413 147.964C54.3973 147.812 54.2013 147.696 53.9533 147.616C53.7053 147.528 53.4133 147.464 53.0773 147.424C52.7493 147.384 52.3973 147.356 52.0213 147.34C51.6533 147.316 51.2693 147.296 50.8693 147.28C50.4773 147.264 50.0933 147.232 49.7173 147.184C49.3893 147.368 49.1213 147.584 48.9133 147.832C48.7133 148.08 48.6133 148.368 48.6133 148.696C48.6133 148.912 48.6653 149.112 48.7693 149.296C48.8813 149.488 49.0533 149.652 49.2853 149.788C49.5253 149.924 49.8333 150.028 50.2093 150.1C50.5853 150.18 51.0453 150.22 51.5893 150.22C52.1413 150.22 52.6173 150.176 53.0173 150.088C53.4173 150.008 53.7453 149.892 54.0013 149.74C54.2653 149.596 54.4573 149.42 54.5773 149.212C54.6973 149.012 54.7573 148.792 54.7573 148.552ZM57.7093 136.108V137.212C57.7093 137.564 57.4973 137.78 57.0733 137.86L55.9693 138.064C56.1373 138.488 56.2213 138.952 56.2213 139.456C56.2213 140.064 56.0973 140.616 55.8493 141.112C55.6093 141.6 55.2733 142.016 54.8413 142.36C54.4093 142.704 53.8973 142.972 53.3053 143.164C52.7213 143.348 52.0893 143.44 51.4093 143.44C51.1693 143.44 50.9373 143.428 50.7133 143.404C50.4893 143.38 50.2693 143.348 50.0533 143.308C49.6693 143.54 49.4773 143.8 49.4773 144.088C49.4773 144.336 49.5893 144.52 49.8133 144.64C50.0453 144.752 50.3493 144.832 50.7253 144.88C51.1013 144.928 51.5293 144.96 52.0093 144.976C52.4893 144.984 52.9813 145.008 53.4853 145.048C53.9893 145.088 54.4813 145.16 54.9613 145.264C55.4413 145.36 55.8693 145.516 56.2453 145.732C56.6213 145.948 56.9213 146.244 57.1453 146.62C57.3773 146.988 57.4933 147.464 57.4933 148.048C57.4933 148.592 57.3573 149.12 57.0853 149.632C56.8213 150.144 56.4333 150.6 55.9213 151C55.4173 151.4 54.7933 151.72 54.0493 151.96C53.3133 152.208 52.4733 152.332 51.5293 152.332C50.6013 152.332 49.7933 152.24 49.1053 152.056C48.4173 151.88 47.8453 151.64 47.3893 151.336C46.9333 151.04 46.5933 150.696 46.3693 150.304C46.1453 149.912 46.0333 149.504 46.0333 149.08C46.0333 148.504 46.2053 148.024 46.5493 147.64C46.9013 147.248 47.3813 146.936 47.9893 146.704C47.6613 146.536 47.4013 146.312 47.2093 146.032C47.0173 145.752 46.9213 145.384 46.9213 144.928C46.9213 144.744 46.9533 144.556 47.0173 144.364C47.0893 144.164 47.1893 143.968 47.3173 143.776C47.4533 143.584 47.6213 143.404 47.8213 143.236C48.0213 143.06 48.2573 142.904 48.5293 142.768C47.9053 142.432 47.4133 141.984 47.0533 141.424C46.7013 140.864 46.5253 140.208 46.5253 139.456C46.5253 138.848 46.6453 138.3 46.8853 137.812C47.1333 137.316 47.4733 136.896 47.9053 136.552C48.3453 136.2 48.8613 135.932 49.4533 135.748C50.0533 135.564 50.7053 135.472 51.4093 135.472C51.9373 135.472 52.4333 135.528 52.8973 135.64C53.3613 135.744 53.7853 135.9 54.1693 136.108H57.7093ZM62.661 135.688V148H59.685V135.688H62.661ZM63.069 132.1C63.069 132.356 63.017 132.596 62.913 132.82C62.809 133.044 62.669 133.24 62.493 133.408C62.325 133.576 62.125 133.712 61.893 133.816C61.661 133.912 61.413 133.96 61.149 133.96C60.893 133.96 60.649 133.912 60.417 133.816C60.193 133.712 59.997 133.576 59.829 133.408C59.661 133.24 59.525 133.044 59.421 132.82C59.325 132.596 59.277 132.356 59.277 132.1C59.277 131.836 59.325 131.588 59.421 131.356C59.525 131.124 59.661 130.924 59.829 130.756C59.997 130.588 60.193 130.456 60.417 130.36C60.649 130.256 60.893 130.204 61.149 130.204C61.413 130.204 61.661 130.256 61.893 130.36C62.125 130.456 62.325 130.588 62.493 130.756C62.669 130.924 62.809 131.124 62.913 131.356C63.017 131.588 63.069 131.836 63.069 132.1ZM73.1948 138.088C73.1148 138.216 73.0308 138.308 72.9428 138.364C72.8548 138.412 72.7428 138.436 72.6068 138.436C72.4628 138.436 72.3068 138.396 72.1388 138.316C71.9788 138.236 71.7908 138.148 71.5748 138.052C71.3588 137.948 71.1108 137.856 70.8307 137.776C70.5588 137.696 70.2348 137.656 69.8588 137.656C69.2748 137.656 68.8148 137.78 68.4788 138.028C68.1508 138.276 67.9868 138.6 67.9868 139C67.9868 139.264 68.0708 139.488 68.2388 139.672C68.4148 139.848 68.6428 140.004 68.9228 140.14C69.2108 140.276 69.5348 140.4 69.8948 140.512C70.2548 140.616 70.6188 140.732 70.9868 140.86C71.3628 140.988 71.7308 141.136 72.0908 141.304C72.4508 141.464 72.7708 141.672 73.0508 141.928C73.3388 142.176 73.5668 142.476 73.7348 142.828C73.9108 143.18 73.9988 143.604 73.9988 144.1C73.9988 144.692 73.8908 145.24 73.6748 145.744C73.4668 146.24 73.1548 146.672 72.7388 147.04C72.3228 147.4 71.8068 147.684 71.1908 147.892C70.5828 148.092 69.8788 148.192 69.0788 148.192C68.6548 148.192 68.2388 148.152 67.8308 148.072C67.4308 148 67.0428 147.896 66.6668 147.76C66.2988 147.624 65.9548 147.464 65.6348 147.28C65.3228 147.096 65.0468 146.896 64.8068 146.68L65.4908 145.552C65.5788 145.416 65.6828 145.312 65.8027 145.24C65.9227 145.168 66.0748 145.132 66.2588 145.132C66.4428 145.132 66.6148 145.184 66.7748 145.288C66.9428 145.392 67.1348 145.504 67.3508 145.624C67.5668 145.744 67.8188 145.856 68.1068 145.96C68.4028 146.064 68.7748 146.116 69.2228 146.116C69.5748 146.116 69.8748 146.076 70.1228 145.996C70.3788 145.908 70.5868 145.796 70.7468 145.66C70.9148 145.524 71.0347 145.368 71.1068 145.192C71.1868 145.008 71.2268 144.82 71.2268 144.628C71.2268 144.34 71.1388 144.104 70.9628 143.92C70.7948 143.736 70.5668 143.576 70.2787 143.44C69.9988 143.304 69.6748 143.184 69.3068 143.08C68.9468 142.968 68.5748 142.848 68.1908 142.72C67.8148 142.592 67.4428 142.444 67.0748 142.276C66.7148 142.1 66.3908 141.88 66.1028 141.616C65.8228 141.352 65.5948 141.028 65.4188 140.644C65.2508 140.26 65.1668 139.796 65.1668 139.252C65.1668 138.748 65.2668 138.268 65.4668 137.812C65.6668 137.356 65.9588 136.96 66.3428 136.624C66.7348 136.28 67.2188 136.008 67.7948 135.808C68.3788 135.6 69.0508 135.496 69.8108 135.496C70.6588 135.496 71.4308 135.636 72.1268 135.916C72.8228 136.196 73.4028 136.564 73.8668 137.02L73.1948 138.088ZM80.3336 148.192C79.2616 148.192 78.4376 147.892 77.8616 147.292C77.2936 146.684 77.0096 145.848 77.0096 144.784V137.908H75.7496C75.5896 137.908 75.4536 137.856 75.3416 137.752C75.2296 137.648 75.1736 137.492 75.1736 137.284V136.108L77.1536 135.784L77.7776 132.424C77.8176 132.264 77.8936 132.14 78.0056 132.052C78.1176 131.964 78.2616 131.92 78.4376 131.92H79.9736V135.796H83.2616V137.908H79.9736V144.58C79.9736 144.964 80.0656 145.264 80.2496 145.48C80.4416 145.696 80.7016 145.804 81.0296 145.804C81.2136 145.804 81.3656 145.784 81.4856 145.744C81.6136 145.696 81.7216 145.648 81.8096 145.6C81.9056 145.552 81.9896 145.508 82.0616 145.468C82.1336 145.42 82.2056 145.396 82.2776 145.396C82.3656 145.396 82.4376 145.42 82.4936 145.468C82.5496 145.508 82.6096 145.572 82.6736 145.66L83.5616 147.1C83.1296 147.46 82.6336 147.732 82.0736 147.916C81.5136 148.1 80.9336 148.192 80.3336 148.192ZM92.9976 140.428C92.9976 140.044 92.9416 139.684 92.8296 139.348C92.7256 139.004 92.5656 138.704 92.3496 138.448C92.1336 138.192 91.8576 137.992 91.5216 137.848C91.1936 137.696 90.8096 137.62 90.3696 137.62C89.5136 137.62 88.8376 137.864 88.3416 138.352C87.8536 138.84 87.5416 139.532 87.4056 140.428H92.9976ZM87.3456 142.216C87.3936 142.848 87.5056 143.396 87.6816 143.86C87.8576 144.316 88.0896 144.696 88.3776 145C88.6656 145.296 89.0056 145.52 89.3976 145.672C89.7976 145.816 90.2376 145.888 90.7176 145.888C91.1976 145.888 91.6096 145.832 91.9536 145.72C92.3056 145.608 92.6096 145.484 92.8656 145.348C93.1296 145.212 93.3576 145.088 93.5496 144.976C93.7496 144.864 93.9416 144.808 94.1256 144.808C94.3736 144.808 94.5576 144.9 94.6776 145.084L95.5296 146.164C95.2016 146.548 94.8336 146.872 94.4256 147.136C94.0176 147.392 93.5896 147.6 93.1416 147.76C92.7016 147.912 92.2496 148.02 91.7856 148.084C91.3296 148.148 90.8856 148.18 90.4536 148.18C89.5976 148.18 88.8016 148.04 88.0656 147.76C87.3296 147.472 86.6896 147.052 86.1456 146.5C85.6016 145.94 85.1736 145.252 84.8616 144.436C84.5496 143.612 84.3936 142.66 84.3936 141.58C84.3936 140.74 84.5296 139.952 84.8016 139.216C85.0736 138.472 85.4616 137.828 85.9656 137.284C86.4776 136.732 87.0976 136.296 87.8256 135.976C88.5616 135.656 89.3896 135.496 90.3096 135.496C91.0856 135.496 91.8016 135.62 92.4576 135.868C93.1136 136.116 93.6776 136.48 94.1496 136.96C94.6216 137.432 94.9896 138.016 95.2536 138.712C95.5256 139.4 95.6616 140.188 95.6616 141.076C95.6616 141.524 95.6136 141.828 95.5176 141.988C95.4216 142.14 95.2376 142.216 94.9656 142.216H87.3456ZM100.682 137.824C101.066 137.088 101.522 136.512 102.05 136.096C102.578 135.672 103.202 135.46 103.922 135.46C104.49 135.46 104.946 135.584 105.29 135.832L105.098 138.052C105.058 138.196 104.998 138.3 104.918 138.364C104.846 138.42 104.746 138.448 104.618 138.448C104.498 138.448 104.318 138.428 104.078 138.388C103.846 138.348 103.618 138.328 103.394 138.328C103.066 138.328 102.774 138.376 102.518 138.472C102.262 138.568 102.03 138.708 101.822 138.892C101.622 139.068 101.442 139.284 101.282 139.54C101.13 139.796 100.986 140.088 100.85 140.416V148H97.8859V135.688H99.6259C99.9299 135.688 100.142 135.744 100.262 135.856C100.382 135.96 100.462 136.152 100.502 136.432L100.682 137.824Z" fill="#FAFAFA"/>
<defs>
<filter id="filter0_d_1_8206" x="0" y="0" width="108" height="108" filterUnits="userSpaceOnUse" color-interpolation-filters="sRGB">
<feFlood flood-opacity="0" result="BackgroundImageFix"/>
<feColorMatrix in="SourceAlpha" type="matrix" values="0 0 0 0 0 0 0 0 0 0 0 0 0 0 0 0 0 0 127 0" result="hardAlpha"/>
<feOffset dy="4"/>
<feGaussianBlur stdDeviation="6"/>
<feComposite in2="hardAlpha" operator="out"/>
<feColorMatrix type="matrix" values="0 0 0 0 0 0 0 0 0 0 0 0 0 0 0 0 0 0 1 0"/>
<feBlend mode="normal" in2="BackgroundImageFix" result="effect1_dropShadow_1_8206"/>
<feBlend mode="normal" in="SourceGraphic" in2="effect1_dropShadow_1_8206" result="shape"/>
</filter>
<filter id="filter1_dd_1_8206" x="15" y="9" width="78" height="82" filterUnits="userSpaceOnUse" color-interpolation-filters="sRGB">
<feFlood flood-opacity="0" result="BackgroundImageFix"/>
<feColorMatrix in="SourceAlpha" type="matrix" values="0 0 0 0 0 0 0 0 0 0 0 0 0 0 0 0 0 0 127 0" result="hardAlpha"/>
<feOffset dy="2"/>
<feGaussianBlur stdDeviation="2"/>
<feComposite in2="hardAlpha" operator="out"/>
<feColorMatrix type="matrix" values="0 0 0 0 0 0 0 0 0 0 0 0 0 0 0 0 0 0 1 0"/>
<feBlend mode="normal" in2="BackgroundImageFix" result="effect1_dropShadow_1_8206"/>
<feColorMatrix in="SourceAlpha" type="matrix" values="0 0 0 0 0 0 0 0 0 0 0 0 0 0 0 0 0 0 127 0" result="hardAlpha"/>
<feOffset dy="-2"/>
<feGaussianBlur stdDeviation="2"/>
<feComposite in2="hardAlpha" operator="out"/>
<feColorMatrix type="matrix" values="0 0 0 0 0 0 0 0 0 0 0 0 0 0 0 0 0 0 1 0"/>
<feBlend mode="normal" in2="effect1_dropShadow_1_8206" result="effect2_dropShadow_1_8206"/>
<feBlend mode="normal" in="SourceGraphic" in2="effect2_dropShadow_1_8206" result="shape"/>
</filter>
<clipPath id="clip0_1_8206">
<rect width="32" height="32" fill="white" transform="translate(38 34)"/>
</clipPath>
</defs>
</svg>
