<svg width="56" height="56" viewBox="0 0 56 56" fill="none" xmlns="http://www.w3.org/2000/svg">
<g clip-path="url(#clip0_1_8041)">
<mask id="mask0_1_8041" style="mask-type:luminance" maskUnits="userSpaceOnUse" x="6" y="6" width="50" height="50">
<path d="M54.595 38.2665C50.585 51.1089 36.9234 58.2691 24.0809 54.2591C11.2385 50.2491 4.07832 36.5875 8.08832 23.745C12.0983 10.9025 25.76 3.74239 38.6024 7.75239C51.4449 11.7624 58.605 25.424 54.595 38.2665Z" fill="white"/>
</mask>
<g mask="url(#mask0_1_8041)">
<path d="M54.595 38.2665C50.585 51.1089 36.9234 58.2691 24.0809 54.2591C11.2385 50.2491 4.07832 36.5875 8.08832 23.745C12.0983 10.9025 25.76 3.74239 38.6024 7.75239C51.4449 11.7624 58.605 25.424 54.595 38.2665Z" fill="url(#paint0_linear_1_8041)"/>
</g>
<path d="M54.595 38.2665C50.585 51.1089 36.9234 58.2691 24.0809 54.2591C11.2385 50.2491 4.07832 36.5875 8.08832 23.745C12.0983 10.9025 25.76 3.74239 38.6024 7.75239C51.4449 11.7624 58.605 25.424 54.595 38.2665Z" stroke="url(#paint1_linear_1_8041)" stroke-width="2" stroke-miterlimit="10"/>
<path d="M36.9713 41.8036C35.6289 43.0902 33.9612 43.9865 32.1475 44.3962C30.3338 44.8059 28.4428 44.7135 26.6777 44.129C24.9126 43.5445 23.3402 42.4899 22.1296 41.0786C20.9189 39.6674 20.1158 37.9529 19.8066 36.1194" stroke="#232122" stroke-width="3" stroke-miterlimit="10" stroke-linecap="round"/>
<path d="M23.5398 32.1533C27.9315 32.1533 31.4917 28.5931 31.4917 24.2014C31.4917 19.8097 27.9315 16.2495 23.5398 16.2495C19.1481 16.2495 15.5879 19.8097 15.5879 24.2014C15.5879 28.5931 19.1481 32.1533 23.5398 32.1533Z" fill="white"/>
<path d="M41.2898 37.6958C45.6815 37.6958 49.2417 34.1356 49.2417 29.7439C49.2417 25.3522 45.6815 21.792 41.2898 21.792C36.8981 21.792 33.3379 25.3522 33.3379 29.7439C33.3379 34.1356 36.8981 37.6958 41.2898 37.6958Z" fill="white"/>
<path d="M23.9778 31.4223C26.4777 31.4223 28.5044 29.3957 28.5044 26.8957C28.5044 24.3958 26.4777 22.3691 23.9778 22.3691C21.4778 22.3691 19.4512 24.3958 19.4512 26.8957C19.4512 29.3957 21.4778 31.4223 23.9778 31.4223Z" fill="url(#paint2_linear_1_8041)"/>
<path d="M39.5852 36.2956C42.0852 36.2956 44.1118 34.269 44.1118 31.769C44.1118 29.2691 42.0852 27.2424 39.5852 27.2424C37.0852 27.2424 35.0586 29.2691 35.0586 31.769C35.0586 34.269 37.0852 36.2956 39.5852 36.2956Z" fill="url(#paint3_linear_1_8041)"/>
<path d="M24.782 18.7004C24.7302 18.606 24.5343 18.1756 24.461 18.081C23.6786 17.0714 22.0909 16.539 20.5562 17.1554L19.2477 17.6073L22.4431 7.02195C22.597 6.51666 22.5496 5.97141 22.3106 5.50032C22.0717 5.02922 21.6598 4.6688 21.1612 4.4945C20.9029 4.40421 20.6291 4.36664 20.3561 4.38403C20.083 4.40143 19.8162 4.47343 19.5715 4.59576C19.3267 4.7181 19.109 4.88828 18.9312 5.09625C18.7534 5.30422 18.6191 5.54574 18.5363 5.80652L16.9768 10.7891L16.8022 10.7416L19.2143 3.19205C19.3869 2.6503 19.3384 2.06228 19.0793 1.55616C18.8202 1.05003 18.3716 0.666831 17.8312 0.49007C17.5604 0.401492 17.2747 0.367503 16.9907 0.39007C16.7067 0.412637 16.4299 0.491312 16.1765 0.621542C15.9231 0.751771 15.698 0.930968 15.5143 1.14876C15.3306 1.36656 15.192 1.61862 15.1063 1.89037L12.7687 9.28103C12.7233 9.26495 12.6776 9.25033 12.6321 9.23501L14.0366 4.66051C14.0366 4.66051 14.217 4.0732 14.4243 3.39774C14.5875 2.86625 14.5361 2.29199 14.281 1.79799C14.0259 1.304 13.5874 0.929558 13.0596 0.754903C12.5244 0.577891 11.9409 0.620636 11.4373 0.873739C10.9336 1.12684 10.5511 1.56959 10.3738 2.10464L8.31489 8.31696L8.16579 8.2467L9.3072 4.70683C9.46369 4.21363 9.42197 3.67887 9.19089 3.21591C8.95981 2.75294 8.55753 2.39815 8.06931 2.22675C7.58632 2.05709 7.05653 2.08007 6.59004 2.29091C6.12355 2.50176 5.75625 2.88425 5.56448 3.3589C4.31904 6.44041 2.16159 11.2117 1.57718 12.9799C0.164394 16.522 0.435377 21.6987 3.50357 24.5542C4.71803 25.6849 6.218 26.4627 7.84186 26.8039C9.46573 27.1452 11.1519 27.0368 12.7187 26.4905C14.3799 25.9927 14.96 25.7141 15.6201 25.2891C16.9531 24.4307 19.4226 22.5275 20.9208 21.8072C21.8261 21.3719 23.0712 20.9737 23.9149 20.7266C24.118 20.6688 24.3057 20.5664 24.4642 20.4269C24.6227 20.2873 24.748 20.1142 24.8311 19.92C24.9142 19.7259 24.9529 19.5157 24.9444 19.3047C24.9359 19.0937 24.8804 18.8872 24.782 18.7004Z" fill="url(#paint4_linear_1_8041)"/>
</g>
<defs>
<linearGradient id="paint0_linear_1_8041" x1="24.0983" y1="54.2823" x2="38.6172" y2="7.75367" gradientUnits="userSpaceOnUse">
<stop stop-color="#DE932C"/>
<stop offset="0.08841" stop-color="#E6A236"/>
<stop offset="0.24156" stop-color="#F1B643"/>
<stop offset="0.4169" stop-color="#F9C44D"/>
<stop offset="0.63166" stop-color="#FECD52"/>
<stop offset="1" stop-color="#FFCF54"/>
</linearGradient>
<linearGradient id="paint1_linear_1_8041" x1="24.0657" y1="54.3868" x2="38.6498" y2="7.64922" gradientUnits="userSpaceOnUse">
<stop stop-color="#FFE2A9" stop-opacity="0.5"/>
<stop offset="0.28938" stop-color="#FFE09E" stop-opacity="0.5"/>
<stop offset="0.65252" stop-color="#FFD97F" stop-opacity="0.5"/>
<stop offset="1" stop-color="#FFCF54" stop-opacity="0.5"/>
</linearGradient>
<linearGradient id="paint2_linear_1_8041" x1="19.6672" y1="25.5587" x2="28.313" y2="28.2565" gradientUnits="userSpaceOnUse">
<stop stop-color="#464144"/>
<stop offset="0.2921" stop-color="#363234"/>
<stop offset="0.68" stop-color="#282425"/>
<stop offset="1" stop-color="#231F20"/>
</linearGradient>
<linearGradient id="paint3_linear_1_8041" x1="35.282" y1="30.4311" x2="43.9277" y2="33.1289" gradientUnits="userSpaceOnUse">
<stop stop-color="#464144"/>
<stop offset="0.50651" stop-color="#322E30"/>
<stop offset="1" stop-color="#231F20"/>
</linearGradient>
<linearGradient id="paint4_linear_1_8041" x1="16.0671" y1="25.3453" x2="7.81774" y2="1.8527" gradientUnits="userSpaceOnUse">
<stop stop-color="#E1E1E1"/>
<stop offset="1" stop-color="#F8F8F8"/>
</linearGradient>
<clipPath id="clip0_1_8041">
<rect width="56" height="56" fill="white"/>
</clipPath>
</defs>
</svg>
