<svg width="24" height="25" viewBox="0 0 24 25" fill="none" xmlns="http://www.w3.org/2000/svg">
<circle cx="12" cy="12.3501" r="12" fill="#262626"/>
<path d="M17.3203 9.76412C16.9612 9.92374 16.5821 10.0235 16.183 10.0834C16.5821 9.84393 16.9013 9.46481 17.041 9.00589C16.6619 9.22537 16.2428 9.385 15.7839 9.48477C15.4248 9.10565 14.906 8.86621 14.3473 8.86621C13.2698 8.86621 12.3918 9.74416 12.3918 10.8216C12.3918 10.9813 12.4118 11.1209 12.4517 11.2606C10.8355 11.1808 9.37886 10.4026 8.40114 9.20542C8.24151 9.50472 8.14174 9.82398 8.14174 10.1831C8.14174 10.8616 8.48095 11.4602 9.0197 11.8193C8.70044 11.7994 8.40114 11.7196 8.12179 11.5799V11.5998C8.12179 12.5576 8.80021 13.3557 9.69811 13.5353C9.53849 13.5752 9.3589 13.5952 9.17932 13.5952C9.0596 13.5952 8.91993 13.5752 8.80021 13.5553C9.0596 14.3335 9.77793 14.9121 10.6359 14.9121C9.95751 15.4309 9.11946 15.7501 8.2016 15.7501C8.04198 15.7501 7.88235 15.7501 7.74268 15.7302C8.62063 16.2889 9.63825 16.6081 10.7556 16.6081C14.3672 16.6081 16.3426 13.6151 16.3426 11.0212C16.3426 10.9414 16.3426 10.8416 16.3426 10.7618C16.7217 10.5024 17.0609 10.1632 17.3203 9.76412Z" fill="#FAFAFA"/>
</svg>
