<svg width="108" height="153" viewBox="0 0 108 153" fill="none" xmlns="http://www.w3.org/2000/svg">
<g filter="url(#filter0_d_1_8212)">
<circle cx="54" cy="50" r="42" fill="#262626"/>
</g>
<g filter="url(#filter1_dd_1_8212)">
<circle cx="54" cy="50" r="35" fill="#262626"/>
</g>
<path d="M66.2558 47.172L65.0584 45.9733C64.8051 45.7213 64.6664 45.3853 64.6664 45.0293V43.3333C64.6664 41.128 62.8718 39.3333 60.6664 39.3333H58.9704C58.6198 39.3333 58.2758 39.1906 58.0278 38.9426L56.8291 37.744C55.2691 36.184 52.7331 36.184 51.1731 37.744L49.9718 38.9426C49.7238 39.1906 49.3798 39.3333 49.0291 39.3333H47.3331C45.1278 39.3333 43.3331 41.128 43.3331 43.3333V45.0293C43.3331 45.3853 43.1944 45.7213 42.9424 45.9733L41.7438 47.1706C40.9878 47.9266 40.5718 48.932 40.5718 50C40.5718 51.068 40.9891 52.0733 41.7438 52.828L42.9411 54.0266C43.1944 54.2786 43.3331 54.6146 43.3331 54.9706V56.6666C43.3331 58.872 45.1278 60.6666 47.3331 60.6666H49.0291C49.3798 60.6666 49.7238 60.8093 49.9718 61.0573L51.1704 62.2573C51.9504 63.036 52.9744 63.4253 53.9984 63.4253C55.0224 63.4253 56.0464 63.036 56.8264 62.256L58.0251 61.0573C58.2758 60.8093 58.6198 60.6666 58.9704 60.6666H60.6664C62.8718 60.6666 64.6664 58.872 64.6664 56.6666V54.9706C64.6664 54.6146 64.8051 54.2786 65.0584 54.0266L66.2558 52.8293C67.0104 52.0733 67.4278 51.0693 67.4278 50C67.4278 48.9306 67.0118 47.9266 66.2558 47.172ZM60.0731 48.4426L52.0731 53.776C51.8478 53.9266 51.5891 54 51.3331 54C50.9891 54 50.6478 53.8666 50.3904 53.6093L47.7238 50.9426C47.2024 50.4213 47.2024 49.5786 47.7238 49.0573C48.2451 48.536 49.0878 48.536 49.6091 49.0573L51.5024 50.9506L58.5931 46.224C59.2078 45.8146 60.0344 45.98 60.4424 46.5933C60.8518 47.2066 60.6864 48.0346 60.0731 48.4426Z" fill="#FAFAFA"/>
<path d="M43.8 130.648L36.792 148H33.876L26.868 130.648H29.46C29.74 130.648 29.968 130.716 30.144 130.852C30.32 130.988 30.452 131.164 30.54 131.38L34.632 141.964C34.768 142.308 34.896 142.688 35.016 143.104C35.144 143.512 35.264 143.94 35.376 144.388C35.472 143.94 35.576 143.512 35.688 143.104C35.8 142.688 35.924 142.308 36.06 141.964L40.128 131.38C40.192 131.196 40.316 131.028 40.5 130.876C40.692 130.724 40.924 130.648 41.196 130.648H43.8ZM51.1616 140.428C51.1616 140.044 51.1056 139.684 50.9936 139.348C50.8896 139.004 50.7296 138.704 50.5136 138.448C50.2976 138.192 50.0216 137.992 49.6856 137.848C49.3576 137.696 48.9736 137.62 48.5336 137.62C47.6776 137.62 47.0016 137.864 46.5056 138.352C46.0176 138.84 45.7056 139.532 45.5696 140.428H51.1616ZM45.5096 142.216C45.5576 142.848 45.6696 143.396 45.8456 143.86C46.0216 144.316 46.2536 144.696 46.5416 145C46.8296 145.296 47.1696 145.52 47.5616 145.672C47.9616 145.816 48.4016 145.888 48.8816 145.888C49.3616 145.888 49.7736 145.832 50.1176 145.72C50.4696 145.608 50.7736 145.484 51.0296 145.348C51.2936 145.212 51.5216 145.088 51.7136 144.976C51.9136 144.864 52.1056 144.808 52.2896 144.808C52.5376 144.808 52.7216 144.9 52.8416 145.084L53.6936 146.164C53.3656 146.548 52.9976 146.872 52.5896 147.136C52.1816 147.392 51.7536 147.6 51.3056 147.76C50.8656 147.912 50.4136 148.02 49.9496 148.084C49.4936 148.148 49.0496 148.18 48.6176 148.18C47.7616 148.18 46.9656 148.04 46.2296 147.76C45.4936 147.472 44.8536 147.052 44.3096 146.5C43.7656 145.94 43.3376 145.252 43.0256 144.436C42.7136 143.612 42.5576 142.66 42.5576 141.58C42.5576 140.74 42.6936 139.952 42.9656 139.216C43.2376 138.472 43.6256 137.828 44.1296 137.284C44.6416 136.732 45.2616 136.296 45.9896 135.976C46.7256 135.656 47.5536 135.496 48.4736 135.496C49.2496 135.496 49.9656 135.62 50.6216 135.868C51.2776 136.116 51.8416 136.48 52.3136 136.96C52.7856 137.432 53.1536 138.016 53.4176 138.712C53.6896 139.4 53.8256 140.188 53.8256 141.076C53.8256 141.524 53.7776 141.828 53.6816 141.988C53.5856 142.14 53.4016 142.216 53.1296 142.216H45.5096ZM58.8459 137.824C59.2299 137.088 59.6859 136.512 60.2139 136.096C60.7419 135.672 61.3659 135.46 62.0859 135.46C62.6539 135.46 63.1099 135.584 63.4539 135.832L63.2619 138.052C63.2219 138.196 63.1619 138.3 63.0819 138.364C63.0099 138.42 62.9099 138.448 62.7819 138.448C62.6619 138.448 62.4819 138.428 62.2419 138.388C62.0099 138.348 61.7819 138.328 61.5579 138.328C61.2299 138.328 60.9379 138.376 60.6819 138.472C60.4259 138.568 60.1939 138.708 59.9859 138.892C59.7859 139.068 59.6059 139.284 59.4459 139.54C59.2939 139.796 59.1499 140.088 59.0139 140.416V148H56.0499V135.688H57.7899C58.0939 135.688 58.3059 135.744 58.4259 135.856C58.5459 135.96 58.6259 136.152 58.6659 136.432L58.8459 137.824ZM68.0751 135.688V148H65.0991V135.688H68.0751ZM68.4831 132.1C68.4831 132.356 68.4311 132.596 68.3271 132.82C68.2231 133.044 68.0831 133.24 67.9071 133.408C67.7391 133.576 67.5391 133.712 67.3071 133.816C67.0751 133.912 66.8271 133.96 66.5631 133.96C66.3071 133.96 66.0631 133.912 65.8311 133.816C65.6071 133.712 65.4111 133.576 65.2431 133.408C65.0751 133.24 64.9391 133.044 64.8351 132.82C64.7391 132.596 64.6911 132.356 64.6911 132.1C64.6911 131.836 64.7391 131.588 64.8351 131.356C64.9391 131.124 65.0751 130.924 65.2431 130.756C65.4111 130.588 65.6071 130.456 65.8311 130.36C66.0631 130.256 66.3071 130.204 66.5631 130.204C66.8271 130.204 67.0751 130.256 67.3071 130.36C67.5391 130.456 67.7391 130.588 67.9071 130.756C68.0831 130.924 68.2231 131.124 68.3271 131.356C68.4311 131.588 68.4831 131.836 68.4831 132.1ZM71.9608 148V137.92L70.8928 137.752C70.6608 137.704 70.4728 137.624 70.3288 137.512C70.1928 137.392 70.1248 137.224 70.1248 137.008V135.796H71.9608V134.884C71.9608 134.18 72.0648 133.548 72.2728 132.988C72.4888 132.428 72.7928 131.952 73.1848 131.56C73.5848 131.168 74.0688 130.868 74.6368 130.66C75.2048 130.452 75.8448 130.348 76.5568 130.348C77.1248 130.348 77.6528 130.424 78.1408 130.576L78.0808 132.064C78.0728 132.176 78.0408 132.268 77.9848 132.34C77.9288 132.404 77.8528 132.456 77.7568 132.496C77.6688 132.528 77.5648 132.552 77.4448 132.568C77.3248 132.576 77.1968 132.58 77.0608 132.58C76.7088 132.58 76.3928 132.62 76.1128 132.7C75.8408 132.772 75.6088 132.904 75.4168 133.096C75.2248 133.28 75.0768 133.528 74.9728 133.84C74.8768 134.144 74.8288 134.524 74.8288 134.98V135.796H78.0328V137.908H74.9248V148H71.9608ZM90.8824 135.688L84.1744 151.384C84.0864 151.592 83.9704 151.748 83.8264 151.852C83.6904 151.964 83.4784 152.02 83.1904 152.02H80.9824L83.2864 147.076L78.3064 135.688H80.9104C81.1424 135.688 81.3224 135.744 81.4504 135.856C81.5864 135.968 81.6864 136.096 81.7504 136.24L84.3664 142.624C84.4544 142.84 84.5264 143.056 84.5824 143.272C84.6464 143.488 84.7064 143.708 84.7624 143.932C84.8344 143.708 84.9064 143.488 84.9784 143.272C85.0504 143.048 85.1304 142.828 85.2184 142.612L87.6904 136.24C87.7544 136.08 87.8584 135.948 88.0024 135.844C88.1544 135.74 88.3224 135.688 88.5064 135.688H90.8824Z" fill="#FAFAFA"/>
<defs>
<filter id="filter0_d_1_8212" x="0" y="0" width="108" height="108" filterUnits="userSpaceOnUse" color-interpolation-filters="sRGB">
<feFlood flood-opacity="0" result="BackgroundImageFix"/>
<feColorMatrix in="SourceAlpha" type="matrix" values="0 0 0 0 0 0 0 0 0 0 0 0 0 0 0 0 0 0 127 0" result="hardAlpha"/>
<feOffset dy="4"/>
<feGaussianBlur stdDeviation="6"/>
<feComposite in2="hardAlpha" operator="out"/>
<feColorMatrix type="matrix" values="0 0 0 0 0 0 0 0 0 0 0 0 0 0 0 0 0 0 1 0"/>
<feBlend mode="normal" in2="BackgroundImageFix" result="effect1_dropShadow_1_8212"/>
<feBlend mode="normal" in="SourceGraphic" in2="effect1_dropShadow_1_8212" result="shape"/>
</filter>
<filter id="filter1_dd_1_8212" x="15" y="9" width="78" height="82" filterUnits="userSpaceOnUse" color-interpolation-filters="sRGB">
<feFlood flood-opacity="0" result="BackgroundImageFix"/>
<feColorMatrix in="SourceAlpha" type="matrix" values="0 0 0 0 0 0 0 0 0 0 0 0 0 0 0 0 0 0 127 0" result="hardAlpha"/>
<feOffset dy="2"/>
<feGaussianBlur stdDeviation="2"/>
<feComposite in2="hardAlpha" operator="out"/>
<feColorMatrix type="matrix" values="0 0 0 0 0 0 0 0 0 0 0 0 0 0 0 0 0 0 1 0"/>
<feBlend mode="normal" in2="BackgroundImageFix" result="effect1_dropShadow_1_8212"/>
<feColorMatrix in="SourceAlpha" type="matrix" values="0 0 0 0 0 0 0 0 0 0 0 0 0 0 0 0 0 0 127 0" result="hardAlpha"/>
<feOffset dy="-2"/>
<feGaussianBlur stdDeviation="2"/>
<feComposite in2="hardAlpha" operator="out"/>
<feColorMatrix type="matrix" values="0 0 0 0 0 0 0 0 0 0 0 0 0 0 0 0 0 0 1 0"/>
<feBlend mode="normal" in2="effect1_dropShadow_1_8212" result="effect2_dropShadow_1_8212"/>
<feBlend mode="normal" in="SourceGraphic" in2="effect2_dropShadow_1_8212" result="shape"/>
</filter>
</defs>
</svg>
